<svg width="1920" height="276" viewBox="0 0 1920 276" fill="none" xmlns="http://www.w3.org/2000/svg">
<rect width="1920" height="174" transform="translate(0 51)" fill="#222222"/>
<g filter="url(#filter0_d_2157_1784)">
<rect y="51" width="1920" height="174" fill="white" fill-opacity="0.01" shape-rendering="crispEdges"/>
</g>
<path d="M97.9161 115V105.2H106.162V115H105.14V105.816L105.406 106.096H98.6721L98.9381 105.816V115H97.9161ZM112.255 115.07C111.546 115.07 110.906 114.911 110.337 114.594C109.777 114.267 109.334 113.824 109.007 113.264C108.68 112.695 108.517 112.046 108.517 111.318C108.517 110.581 108.68 109.932 109.007 109.372C109.334 108.812 109.777 108.373 110.337 108.056C110.897 107.739 111.536 107.58 112.255 107.58C112.983 107.58 113.627 107.739 114.187 108.056C114.756 108.373 115.2 108.812 115.517 109.372C115.844 109.932 116.007 110.581 116.007 111.318C116.007 112.046 115.844 112.695 115.517 113.264C115.2 113.824 114.756 114.267 114.187 114.594C113.618 114.911 112.974 115.07 112.255 115.07ZM112.255 114.188C112.787 114.188 113.258 114.071 113.669 113.838C114.08 113.595 114.402 113.259 114.635 112.83C114.878 112.391 114.999 111.887 114.999 111.318C114.999 110.739 114.878 110.235 114.635 109.806C114.402 109.377 114.08 109.045 113.669 108.812C113.258 108.569 112.792 108.448 112.269 108.448C111.746 108.448 111.28 108.569 110.869 108.812C110.458 109.045 110.132 109.377 109.889 109.806C109.646 110.235 109.525 110.739 109.525 111.318C109.525 111.887 109.646 112.391 109.889 112.83C110.132 113.259 110.458 113.595 110.869 113.838C111.28 114.071 111.742 114.188 112.255 114.188ZM118.104 114.314L117.11 114.132C117.4 114.141 117.638 114.039 117.824 113.824C118.011 113.6 118.156 113.297 118.258 112.914C118.361 112.531 118.436 112.097 118.482 111.612C118.529 111.117 118.566 110.613 118.594 110.1L118.692 107.65H124.124V114.524H123.13V108.518H119.588L119.504 110.156C119.486 110.651 119.453 111.136 119.406 111.612C119.369 112.088 119.299 112.527 119.196 112.928C119.103 113.32 118.968 113.642 118.79 113.894C118.613 114.137 118.384 114.277 118.104 114.314ZM116.802 116.778V114.132H125.272V116.778H124.334V115H117.74V116.778H116.802ZM127.223 114.314L126.229 114.132C126.519 114.141 126.757 114.039 126.943 113.824C127.13 113.6 127.275 113.297 127.377 112.914C127.48 112.531 127.555 112.097 127.601 111.612C127.648 111.117 127.685 110.613 127.713 110.1L127.811 107.65H133.243V114.524H132.249V108.518H128.707L128.623 110.156C128.605 110.651 128.572 111.136 128.525 111.612C128.488 112.088 128.418 112.527 128.315 112.928C128.222 113.32 128.087 113.642 127.909 113.894C127.732 114.137 127.503 114.277 127.223 114.314ZM125.921 116.778V114.132H134.391V116.778H133.453V115H126.859V116.778H125.921ZM139.478 115.07C138.713 115.07 138.041 114.911 137.462 114.594C136.884 114.267 136.431 113.824 136.104 113.264C135.778 112.695 135.614 112.046 135.614 111.318C135.614 110.59 135.768 109.946 136.076 109.386C136.394 108.826 136.823 108.387 137.364 108.07C137.915 107.743 138.531 107.58 139.212 107.58C139.903 107.58 140.514 107.739 141.046 108.056C141.588 108.364 142.012 108.803 142.32 109.372C142.628 109.932 142.782 110.581 142.782 111.318C142.782 111.365 142.778 111.416 142.768 111.472C142.768 111.519 142.768 111.57 142.768 111.626H136.37V110.884H142.236L141.844 111.178C141.844 110.646 141.728 110.175 141.494 109.764C141.27 109.344 140.962 109.017 140.57 108.784C140.178 108.551 139.726 108.434 139.212 108.434C138.708 108.434 138.256 108.551 137.854 108.784C137.453 109.017 137.14 109.344 136.916 109.764C136.692 110.184 136.58 110.665 136.58 111.206V111.36C136.58 111.92 136.702 112.415 136.944 112.844C137.196 113.264 137.542 113.595 137.98 113.838C138.428 114.071 138.937 114.188 139.506 114.188C139.954 114.188 140.37 114.109 140.752 113.95C141.144 113.791 141.48 113.549 141.76 113.222L142.32 113.866C141.994 114.258 141.583 114.557 141.088 114.762C140.603 114.967 140.066 115.07 139.478 115.07ZM148.777 115.07C148.142 115.07 147.568 114.925 147.055 114.636C146.541 114.337 146.131 113.913 145.823 113.362C145.524 112.802 145.375 112.121 145.375 111.318C145.375 110.515 145.524 109.839 145.823 109.288C146.121 108.728 146.527 108.303 147.041 108.014C147.554 107.725 148.133 107.58 148.777 107.58C149.477 107.58 150.102 107.739 150.653 108.056C151.213 108.364 151.651 108.803 151.969 109.372C152.286 109.932 152.445 110.581 152.445 111.318C152.445 112.065 152.286 112.718 151.969 113.278C151.651 113.838 151.213 114.277 150.653 114.594C150.102 114.911 149.477 115.07 148.777 115.07ZM144.983 117.716V107.65H145.935V109.862L145.837 111.332L145.977 112.816V117.716H144.983ZM148.707 114.188C149.229 114.188 149.696 114.071 150.107 113.838C150.517 113.595 150.844 113.259 151.087 112.83C151.329 112.391 151.451 111.887 151.451 111.318C151.451 110.749 151.329 110.249 151.087 109.82C150.844 109.391 150.517 109.055 150.107 108.812C149.696 108.569 149.229 108.448 148.707 108.448C148.184 108.448 147.713 108.569 147.293 108.812C146.882 109.055 146.555 109.391 146.313 109.82C146.079 110.249 145.963 110.749 145.963 111.318C145.963 111.887 146.079 112.391 146.313 112.83C146.555 113.259 146.882 113.595 147.293 113.838C147.713 114.071 148.184 114.188 148.707 114.188ZM163.07 115L160.55 111.36L161.376 110.87L164.26 115H163.07ZM153.172 115L156.056 110.87L156.868 111.36L154.362 115H153.172ZM155.972 111.43L153.382 107.65H154.46L156.896 111.29L155.972 111.43ZM156.21 111.724V110.87H158.52V111.724H156.21ZM158.212 115V107.65H159.206V115H158.212ZM158.898 111.724V110.87H161.222V111.724H158.898ZM161.474 111.43L160.522 111.29L162.972 107.65H164.05L161.474 111.43ZM171.304 115L168.28 111.36L169.106 110.87L172.48 115H171.304ZM165.914 115V107.65H166.908V115H165.914ZM166.6 111.724V110.87H168.966V111.724H166.6ZM169.19 111.43L168.266 111.29L171.192 107.65H172.27L169.19 111.43ZM178.476 115V113.376L178.434 113.11V110.394C178.434 109.769 178.257 109.288 177.902 108.952C177.557 108.616 177.039 108.448 176.348 108.448C175.872 108.448 175.42 108.527 174.99 108.686C174.561 108.845 174.197 109.055 173.898 109.316L173.45 108.574C173.824 108.257 174.272 108.014 174.794 107.846C175.317 107.669 175.868 107.58 176.446 107.58C177.398 107.58 178.131 107.818 178.644 108.294C179.167 108.761 179.428 109.475 179.428 110.436V115H178.476ZM175.942 115.07C175.392 115.07 174.911 114.981 174.5 114.804C174.099 114.617 173.791 114.365 173.576 114.048C173.362 113.721 173.254 113.348 173.254 112.928C173.254 112.545 173.343 112.2 173.52 111.892C173.707 111.575 174.006 111.323 174.416 111.136C174.836 110.94 175.396 110.842 176.096 110.842H178.63V111.584H176.124C175.415 111.584 174.92 111.71 174.64 111.962C174.37 112.214 174.234 112.527 174.234 112.9C174.234 113.32 174.398 113.656 174.724 113.908C175.051 114.16 175.508 114.286 176.096 114.286C176.656 114.286 177.137 114.16 177.538 113.908C177.949 113.647 178.248 113.273 178.434 112.788L178.658 113.474C178.472 113.959 178.145 114.347 177.678 114.636C177.221 114.925 176.642 115.07 175.942 115.07ZM182.145 115.07C181.939 115.07 181.762 114.995 181.613 114.846C181.473 114.697 181.403 114.515 181.403 114.3C181.403 114.076 181.473 113.894 181.613 113.754C181.762 113.614 181.939 113.544 182.145 113.544C182.35 113.544 182.523 113.614 182.663 113.754C182.812 113.894 182.887 114.076 182.887 114.3C182.887 114.515 182.812 114.697 182.663 114.846C182.523 114.995 182.35 115.07 182.145 115.07ZM188.943 115V105.2H192.611C193.442 105.2 194.156 105.335 194.753 105.606C195.351 105.867 195.808 106.25 196.125 106.754C196.452 107.249 196.615 107.851 196.615 108.56C196.615 109.251 196.452 109.848 196.125 110.352C195.808 110.847 195.351 111.229 194.753 111.5C194.156 111.771 193.442 111.906 192.611 111.906H189.517L189.979 111.416V115H188.943ZM189.979 111.5L189.517 110.996H192.583C193.563 110.996 194.305 110.786 194.809 110.366C195.323 109.937 195.579 109.335 195.579 108.56C195.579 107.776 195.323 107.169 194.809 106.74C194.305 106.311 193.563 106.096 192.583 106.096H189.517L189.979 105.606V111.5ZM202.99 115V113.376L202.948 113.11V110.394C202.948 109.769 202.771 109.288 202.416 108.952C202.071 108.616 201.553 108.448 200.862 108.448C200.386 108.448 199.933 108.527 199.504 108.686C199.075 108.845 198.711 109.055 198.412 109.316L197.964 108.574C198.337 108.257 198.785 108.014 199.308 107.846C199.831 107.669 200.381 107.58 200.96 107.58C201.912 107.58 202.645 107.818 203.158 108.294C203.681 108.761 203.942 109.475 203.942 110.436V115H202.99ZM200.456 115.07C199.905 115.07 199.425 114.981 199.014 114.804C198.613 114.617 198.305 114.365 198.09 114.048C197.875 113.721 197.768 113.348 197.768 112.928C197.768 112.545 197.857 112.2 198.034 111.892C198.221 111.575 198.519 111.323 198.93 111.136C199.35 110.94 199.91 110.842 200.61 110.842H203.144V111.584H200.638C199.929 111.584 199.434 111.71 199.154 111.962C198.883 112.214 198.748 112.527 198.748 112.9C198.748 113.32 198.911 113.656 199.238 113.908C199.565 114.16 200.022 114.286 200.61 114.286C201.17 114.286 201.651 114.16 202.052 113.908C202.463 113.647 202.761 113.273 202.948 112.788L203.172 113.474C202.985 113.959 202.659 114.347 202.192 114.636C201.735 114.925 201.156 115.07 200.456 115.07ZM208.562 115.084C208.03 115.084 207.503 115.009 206.98 114.86C206.458 114.711 205.996 114.482 205.594 114.174L205.916 113.432C206.271 113.693 206.682 113.894 207.148 114.034C207.615 114.165 208.077 114.23 208.534 114.23C208.992 114.221 209.388 114.155 209.724 114.034C210.06 113.913 210.322 113.745 210.508 113.53C210.695 113.315 210.788 113.073 210.788 112.802C210.788 112.41 210.611 112.107 210.256 111.892C209.902 111.668 209.416 111.556 208.8 111.556H207.33V110.828H208.73C209.094 110.828 209.416 110.781 209.696 110.688C209.976 110.595 210.191 110.459 210.34 110.282C210.499 110.105 210.578 109.895 210.578 109.652C210.578 109.391 210.485 109.167 210.298 108.98C210.121 108.793 209.874 108.653 209.556 108.56C209.239 108.467 208.88 108.42 208.478 108.42C208.114 108.429 207.736 108.485 207.344 108.588C206.952 108.681 206.565 108.826 206.182 109.022L205.902 108.252C206.332 108.028 206.756 107.86 207.176 107.748C207.606 107.627 208.035 107.566 208.464 107.566C209.052 107.547 209.58 107.617 210.046 107.776C210.522 107.935 210.9 108.163 211.18 108.462C211.46 108.751 211.6 109.101 211.6 109.512C211.6 109.876 211.488 110.193 211.264 110.464C211.04 110.735 210.742 110.945 210.368 111.094C209.995 111.243 209.57 111.318 209.094 111.318L209.136 111.052C209.976 111.052 210.63 111.215 211.096 111.542C211.572 111.869 211.81 112.312 211.81 112.872C211.81 113.311 211.666 113.698 211.376 114.034C211.087 114.361 210.695 114.617 210.2 114.804C209.715 114.991 209.169 115.084 208.562 115.084ZM217.861 115.07C217.226 115.07 216.652 114.925 216.139 114.636C215.625 114.337 215.215 113.913 214.907 113.362C214.608 112.802 214.459 112.121 214.459 111.318C214.459 110.515 214.608 109.839 214.907 109.288C215.205 108.728 215.611 108.303 216.125 108.014C216.638 107.725 217.217 107.58 217.861 107.58C218.561 107.58 219.186 107.739 219.737 108.056C220.297 108.364 220.735 108.803 221.053 109.372C221.37 109.932 221.529 110.581 221.529 111.318C221.529 112.065 221.37 112.718 221.053 113.278C220.735 113.838 220.297 114.277 219.737 114.594C219.186 114.911 218.561 115.07 217.861 115.07ZM214.067 117.716V107.65H215.019V109.862L214.921 111.332L215.061 112.816V117.716H214.067ZM217.791 114.188C218.313 114.188 218.78 114.071 219.191 113.838C219.601 113.595 219.928 113.259 220.171 112.83C220.413 112.391 220.535 111.887 220.535 111.318C220.535 110.749 220.413 110.249 220.171 109.82C219.928 109.391 219.601 109.055 219.191 108.812C218.78 108.569 218.313 108.448 217.791 108.448C217.268 108.448 216.797 108.569 216.377 108.812C215.966 109.055 215.639 109.391 215.397 109.82C215.163 110.249 215.047 110.749 215.047 111.318C215.047 111.887 215.163 112.391 215.397 112.83C215.639 113.259 215.966 113.595 216.377 113.838C216.797 114.071 217.268 114.188 217.791 114.188ZM228.187 115V113.376L228.145 113.11V110.394C228.145 109.769 227.968 109.288 227.613 108.952C227.268 108.616 226.75 108.448 226.059 108.448C225.583 108.448 225.131 108.527 224.701 108.686C224.272 108.845 223.908 109.055 223.609 109.316L223.161 108.574C223.535 108.257 223.983 108.014 224.505 107.846C225.028 107.669 225.579 107.58 226.157 107.58C227.109 107.58 227.842 107.818 228.355 108.294C228.878 108.761 229.139 109.475 229.139 110.436V115H228.187ZM225.653 115.07C225.103 115.07 224.622 114.981 224.211 114.804C223.81 114.617 223.502 114.365 223.287 114.048C223.073 113.721 222.965 113.348 222.965 112.928C222.965 112.545 223.054 112.2 223.231 111.892C223.418 111.575 223.717 111.323 224.127 111.136C224.547 110.94 225.107 110.842 225.807 110.842H228.341V111.584H225.835C225.126 111.584 224.631 111.71 224.351 111.962C224.081 112.214 223.945 112.527 223.945 112.9C223.945 113.32 224.109 113.656 224.435 113.908C224.762 114.16 225.219 114.286 225.807 114.286C226.367 114.286 226.848 114.16 227.249 113.908C227.66 113.647 227.959 113.273 228.145 112.788L228.369 113.474C228.183 113.959 227.856 114.347 227.389 114.636C226.932 114.925 226.353 115.07 225.653 115.07ZM235.09 115.084C234.492 115.084 233.96 114.986 233.494 114.79C233.036 114.594 232.644 114.295 232.318 113.894C231.991 113.493 231.744 112.998 231.576 112.41C231.408 111.813 231.324 111.122 231.324 110.338C231.324 109.638 231.389 109.027 231.52 108.504C231.65 107.972 231.832 107.515 232.066 107.132C232.299 106.749 232.57 106.427 232.878 106.166C233.195 105.895 233.536 105.681 233.9 105.522C234.273 105.354 234.656 105.228 235.048 105.144L238.352 104.374L238.52 105.298L235.412 105.998C235.216 106.045 234.978 106.11 234.698 106.194C234.427 106.278 234.147 106.404 233.858 106.572C233.578 106.74 233.316 106.973 233.074 107.272C232.831 107.571 232.635 107.958 232.486 108.434C232.346 108.901 232.276 109.484 232.276 110.184C232.276 110.333 232.28 110.455 232.29 110.548C232.299 110.632 232.308 110.725 232.318 110.828C232.336 110.921 232.35 111.061 232.36 111.248L231.926 110.884C232.028 110.315 232.238 109.82 232.556 109.4C232.873 108.971 233.27 108.639 233.746 108.406C234.231 108.163 234.768 108.042 235.356 108.042C236.037 108.042 236.644 108.191 237.176 108.49C237.708 108.779 238.123 109.185 238.422 109.708C238.73 110.231 238.884 110.837 238.884 111.528C238.884 112.209 238.725 112.821 238.408 113.362C238.1 113.903 237.661 114.328 237.092 114.636C236.522 114.935 235.855 115.084 235.09 115.084ZM235.202 114.258C235.724 114.258 236.186 114.141 236.588 113.908C236.989 113.665 237.302 113.339 237.526 112.928C237.759 112.517 237.876 112.055 237.876 111.542C237.876 111.038 237.759 110.59 237.526 110.198C237.302 109.806 236.989 109.498 236.588 109.274C236.186 109.041 235.72 108.924 235.188 108.924C234.665 108.924 234.203 109.036 233.802 109.26C233.4 109.475 233.083 109.778 232.85 110.17C232.626 110.562 232.514 111.015 232.514 111.528C232.514 112.041 232.626 112.503 232.85 112.914C233.083 113.325 233.4 113.651 233.802 113.894C234.212 114.137 234.679 114.258 235.202 114.258ZM244.038 115.07C243.329 115.07 242.689 114.911 242.12 114.594C241.56 114.267 241.117 113.824 240.79 113.264C240.463 112.695 240.3 112.046 240.3 111.318C240.3 110.581 240.463 109.932 240.79 109.372C241.117 108.812 241.56 108.373 242.12 108.056C242.68 107.739 243.319 107.58 244.038 107.58C244.766 107.58 245.41 107.739 245.97 108.056C246.539 108.373 246.983 108.812 247.3 109.372C247.627 109.932 247.79 110.581 247.79 111.318C247.79 112.046 247.627 112.695 247.3 113.264C246.983 113.824 246.539 114.267 245.97 114.594C245.401 114.911 244.757 115.07 244.038 115.07ZM244.038 114.188C244.57 114.188 245.041 114.071 245.452 113.838C245.863 113.595 246.185 113.259 246.418 112.83C246.661 112.391 246.782 111.887 246.782 111.318C246.782 110.739 246.661 110.235 246.418 109.806C246.185 109.377 245.863 109.045 245.452 108.812C245.041 108.569 244.575 108.448 244.052 108.448C243.529 108.448 243.063 108.569 242.652 108.812C242.241 109.045 241.915 109.377 241.672 109.806C241.429 110.235 241.308 110.739 241.308 111.318C241.308 111.887 241.429 112.391 241.672 112.83C241.915 113.259 242.241 113.595 242.652 113.838C243.063 114.071 243.525 114.188 244.038 114.188ZM251.041 115V108.252L251.293 108.518H248.255V107.65H254.821V108.518H251.783L252.035 108.252V115H251.041ZM261.648 115L258.624 111.36L259.45 110.87L262.824 115H261.648ZM256.258 115V107.65H257.252V115H256.258ZM256.944 111.724V110.87H259.31V111.724H256.944ZM259.534 111.43L258.61 111.29L261.536 107.65H262.614L259.534 111.43ZM268.82 115V113.376L268.778 113.11V110.394C268.778 109.769 268.601 109.288 268.246 108.952C267.901 108.616 267.383 108.448 266.692 108.448C266.216 108.448 265.764 108.527 265.334 108.686C264.905 108.845 264.541 109.055 264.242 109.316L263.794 108.574C264.168 108.257 264.616 108.014 265.138 107.846C265.661 107.669 266.212 107.58 266.79 107.58C267.742 107.58 268.475 107.818 268.988 108.294C269.511 108.761 269.772 109.475 269.772 110.436V115H268.82ZM266.286 115.07C265.736 115.07 265.255 114.981 264.844 114.804C264.443 114.617 264.135 114.365 263.92 114.048C263.706 113.721 263.598 113.348 263.598 112.928C263.598 112.545 263.687 112.2 263.864 111.892C264.051 111.575 264.35 111.323 264.76 111.136C265.18 110.94 265.74 110.842 266.44 110.842H268.974V111.584H266.468C265.759 111.584 265.264 111.71 264.984 111.962C264.714 112.214 264.578 112.527 264.578 112.9C264.578 113.32 264.742 113.656 265.068 113.908C265.395 114.16 265.852 114.286 266.44 114.286C267 114.286 267.481 114.16 267.882 113.908C268.293 113.647 268.592 113.273 268.778 112.788L269.002 113.474C268.816 113.959 268.489 114.347 268.022 114.636C267.565 114.925 266.986 115.07 266.286 115.07ZM279.162 115.07C278.434 115.07 277.781 114.911 277.202 114.594C276.633 114.267 276.185 113.824 275.858 113.264C275.532 112.695 275.368 112.046 275.368 111.318C275.368 110.581 275.532 109.932 275.858 109.372C276.185 108.812 276.633 108.373 277.202 108.056C277.781 107.739 278.434 107.58 279.162 107.58C279.788 107.58 280.352 107.701 280.856 107.944C281.36 108.187 281.757 108.551 282.046 109.036L281.304 109.54C281.052 109.167 280.74 108.891 280.366 108.714C279.993 108.537 279.587 108.448 279.148 108.448C278.626 108.448 278.154 108.569 277.734 108.812C277.314 109.045 276.983 109.377 276.74 109.806C276.498 110.235 276.376 110.739 276.376 111.318C276.376 111.897 276.498 112.401 276.74 112.83C276.983 113.259 277.314 113.595 277.734 113.838C278.154 114.071 278.626 114.188 279.148 114.188C279.587 114.188 279.993 114.099 280.366 113.922C280.74 113.745 281.052 113.474 281.304 113.11L282.046 113.614C281.757 114.09 281.36 114.454 280.856 114.706C280.352 114.949 279.788 115.07 279.162 115.07ZM288.535 115V113.376L288.493 113.11V110.394C288.493 109.769 288.316 109.288 287.961 108.952C287.616 108.616 287.098 108.448 286.407 108.448C285.931 108.448 285.478 108.527 285.049 108.686C284.62 108.845 284.256 109.055 283.957 109.316L283.509 108.574C283.882 108.257 284.33 108.014 284.853 107.846C285.376 107.669 285.926 107.58 286.505 107.58C287.457 107.58 288.19 107.818 288.703 108.294C289.226 108.761 289.487 109.475 289.487 110.436V115H288.535ZM286.001 115.07C285.45 115.07 284.97 114.981 284.559 114.804C284.158 114.617 283.85 114.365 283.635 114.048C283.42 113.721 283.313 113.348 283.313 112.928C283.313 112.545 283.402 112.2 283.579 111.892C283.766 111.575 284.064 111.323 284.475 111.136C284.895 110.94 285.455 110.842 286.155 110.842H288.689V111.584H286.183C285.474 111.584 284.979 111.71 284.699 111.962C284.428 112.214 284.293 112.527 284.293 112.9C284.293 113.32 284.456 113.656 284.783 113.908C285.11 114.16 285.567 114.286 286.155 114.286C286.715 114.286 287.196 114.16 287.597 113.908C288.008 113.647 288.306 113.273 288.493 112.788L288.717 113.474C288.53 113.959 288.204 114.347 287.737 114.636C287.28 114.925 286.701 115.07 286.001 115.07ZM292.133 115V107.65H293.127V113.488L298.041 107.65H298.923V115H297.929V109.148L293.029 115H292.133ZM295.465 106.586C294.849 106.586 294.35 106.432 293.967 106.124C293.594 105.807 293.398 105.354 293.379 104.766H294.093C294.103 105.139 294.233 105.433 294.485 105.648C294.737 105.863 295.064 105.97 295.465 105.97C295.867 105.97 296.193 105.863 296.445 105.648C296.707 105.433 296.842 105.139 296.851 104.766H297.565C297.556 105.354 297.36 105.807 296.977 106.124C296.595 106.432 296.091 106.586 295.465 106.586ZM303.172 115V108.252L303.424 108.518H300.386V107.65H306.952V108.518H303.914L304.166 108.252V115H303.172ZM311.071 115.07C310.362 115.07 309.723 114.911 309.153 114.594C308.593 114.267 308.15 113.824 307.823 113.264C307.497 112.695 307.333 112.046 307.333 111.318C307.333 110.581 307.497 109.932 307.823 109.372C308.15 108.812 308.593 108.373 309.153 108.056C309.713 107.739 310.353 107.58 311.071 107.58C311.799 107.58 312.443 107.739 313.003 108.056C313.573 108.373 314.016 108.812 314.333 109.372C314.66 109.932 314.823 110.581 314.823 111.318C314.823 112.046 314.66 112.695 314.333 113.264C314.016 113.824 313.573 114.267 313.003 114.594C312.434 114.911 311.79 115.07 311.071 115.07ZM311.071 114.188C311.603 114.188 312.075 114.071 312.485 113.838C312.896 113.595 313.218 113.259 313.451 112.83C313.694 112.391 313.815 111.887 313.815 111.318C313.815 110.739 313.694 110.235 313.451 109.806C313.218 109.377 312.896 109.045 312.485 108.812C312.075 108.569 311.608 108.448 311.085 108.448C310.563 108.448 310.096 108.569 309.685 108.812C309.275 109.045 308.948 109.377 308.705 109.806C308.463 110.235 308.341 110.739 308.341 111.318C308.341 111.887 308.463 112.391 308.705 112.83C308.948 113.259 309.275 113.595 309.685 113.838C310.096 114.071 310.558 114.188 311.071 114.188ZM316.948 115V107.65H320.196C321.026 107.65 321.68 107.809 322.156 108.126C322.641 108.443 322.884 108.91 322.884 109.526C322.884 110.123 322.655 110.585 322.198 110.912C321.74 111.229 321.138 111.388 320.392 111.388L320.588 111.094C321.465 111.094 322.109 111.257 322.52 111.584C322.93 111.911 323.136 112.382 323.136 112.998C323.136 113.633 322.902 114.127 322.436 114.482C321.978 114.827 321.264 115 320.294 115H316.948ZM317.914 114.216H320.252C320.877 114.216 321.348 114.118 321.666 113.922C321.992 113.717 322.156 113.39 322.156 112.942C322.156 112.494 322.011 112.167 321.722 111.962C321.432 111.757 320.975 111.654 320.35 111.654H317.914V114.216ZM317.914 110.912H320.126C320.695 110.912 321.129 110.805 321.428 110.59C321.736 110.375 321.89 110.063 321.89 109.652C321.89 109.241 321.736 108.933 321.428 108.728C321.129 108.523 320.695 108.42 320.126 108.42H317.914V110.912ZM329.129 115V107.65H332.377C333.208 107.65 333.861 107.809 334.337 108.126C334.823 108.443 335.065 108.91 335.065 109.526C335.065 110.123 334.837 110.585 334.379 110.912C333.922 111.229 333.32 111.388 332.573 111.388L332.769 111.094C333.647 111.094 334.291 111.257 334.701 111.584C335.112 111.911 335.317 112.382 335.317 112.998C335.317 113.633 335.084 114.127 334.617 114.482C334.16 114.827 333.446 115 332.475 115H329.129ZM330.095 114.216H332.433C333.059 114.216 333.53 114.118 333.847 113.922C334.174 113.717 334.337 113.39 334.337 112.942C334.337 112.494 334.193 112.167 333.903 111.962C333.614 111.757 333.157 111.654 332.531 111.654H330.095V114.216ZM330.095 110.912H332.307C332.877 110.912 333.311 110.805 333.609 110.59C333.917 110.375 334.071 110.063 334.071 109.652C334.071 109.241 333.917 108.933 333.609 108.728C333.311 108.523 332.877 108.42 332.307 108.42H330.095V110.912ZM341.493 115V105.2H342.347L346.827 112.844H346.379L350.817 105.2H351.671V115H350.677V106.754H350.915L346.827 113.754H346.337L342.221 106.754H342.487V115H341.493ZM357.776 115.07C357.011 115.07 356.339 114.911 355.76 114.594C355.181 114.267 354.729 113.824 354.402 113.264C354.075 112.695 353.912 112.046 353.912 111.318C353.912 110.59 354.066 109.946 354.374 109.386C354.691 108.826 355.121 108.387 355.662 108.07C356.213 107.743 356.829 107.58 357.51 107.58C358.201 107.58 358.812 107.739 359.344 108.056C359.885 108.364 360.31 108.803 360.618 109.372C360.926 109.932 361.08 110.581 361.08 111.318C361.08 111.365 361.075 111.416 361.066 111.472C361.066 111.519 361.066 111.57 361.066 111.626H354.668V110.884H360.534L360.142 111.178C360.142 110.646 360.025 110.175 359.792 109.764C359.568 109.344 359.26 109.017 358.868 108.784C358.476 108.551 358.023 108.434 357.51 108.434C357.006 108.434 356.553 108.551 356.152 108.784C355.751 109.017 355.438 109.344 355.214 109.764C354.99 110.184 354.878 110.665 354.878 111.206V111.36C354.878 111.92 354.999 112.415 355.242 112.844C355.494 113.264 355.839 113.595 356.278 113.838C356.726 114.071 357.235 114.188 357.804 114.188C358.252 114.188 358.667 114.109 359.05 113.95C359.442 113.791 359.778 113.549 360.058 113.222L360.618 113.866C360.291 114.258 359.881 114.557 359.386 114.762C358.901 114.967 358.364 115.07 357.776 115.07ZM366.239 117.786C365.567 117.786 364.923 117.688 364.307 117.492C363.691 117.296 363.192 117.016 362.809 116.652L363.313 115.896C363.659 116.204 364.083 116.447 364.587 116.624C365.101 116.811 365.642 116.904 366.211 116.904C367.145 116.904 367.831 116.685 368.269 116.246C368.708 115.817 368.927 115.145 368.927 114.23V112.396L369.067 111.136L368.969 109.876V107.65H369.921V114.104C369.921 115.373 369.609 116.302 368.983 116.89C368.367 117.487 367.453 117.786 366.239 117.786ZM366.057 114.72C365.357 114.72 364.727 114.571 364.167 114.272C363.607 113.964 363.164 113.539 362.837 112.998C362.52 112.457 362.361 111.836 362.361 111.136C362.361 110.436 362.52 109.82 362.837 109.288C363.164 108.747 363.607 108.327 364.167 108.028C364.727 107.729 365.357 107.58 366.057 107.58C366.711 107.58 367.299 107.715 367.821 107.986C368.344 108.257 368.759 108.658 369.067 109.19C369.375 109.722 369.529 110.371 369.529 111.136C369.529 111.901 369.375 112.55 369.067 113.082C368.759 113.614 368.344 114.02 367.821 114.3C367.299 114.58 366.711 114.72 366.057 114.72ZM366.155 113.838C366.697 113.838 367.177 113.726 367.597 113.502C368.017 113.269 368.349 112.951 368.591 112.55C368.834 112.139 368.955 111.668 368.955 111.136C368.955 110.604 368.834 110.137 368.591 109.736C368.349 109.335 368.017 109.022 367.597 108.798C367.177 108.565 366.697 108.448 366.155 108.448C365.623 108.448 365.143 108.565 364.713 108.798C364.293 109.022 363.962 109.335 363.719 109.736C363.486 110.137 363.369 110.604 363.369 111.136C363.369 111.668 363.486 112.139 363.719 112.55C363.962 112.951 364.293 113.269 364.713 113.502C365.143 113.726 365.623 113.838 366.155 113.838ZM377.293 115V113.376L377.251 113.11V110.394C377.251 109.769 377.074 109.288 376.719 108.952C376.374 108.616 375.856 108.448 375.165 108.448C374.689 108.448 374.237 108.527 373.807 108.686C373.378 108.845 373.014 109.055 372.715 109.316L372.267 108.574C372.641 108.257 373.089 108.014 373.611 107.846C374.134 107.669 374.685 107.58 375.263 107.58C376.215 107.58 376.948 107.818 377.461 108.294C377.984 108.761 378.245 109.475 378.245 110.436V115H377.293ZM374.759 115.07C374.209 115.07 373.728 114.981 373.317 114.804C372.916 114.617 372.608 114.365 372.393 114.048C372.179 113.721 372.071 113.348 372.071 112.928C372.071 112.545 372.16 112.2 372.337 111.892C372.524 111.575 372.823 111.323 373.233 111.136C373.653 110.94 374.213 110.842 374.913 110.842H377.447V111.584H374.941C374.232 111.584 373.737 111.71 373.457 111.962C373.187 112.214 373.051 112.527 373.051 112.9C373.051 113.32 373.215 113.656 373.541 113.908C373.868 114.16 374.325 114.286 374.913 114.286C375.473 114.286 375.954 114.16 376.355 113.908C376.766 113.647 377.065 113.273 377.251 112.788L377.475 113.474C377.289 113.959 376.962 114.347 376.495 114.636C376.038 114.925 375.459 115.07 374.759 115.07ZM384.081 117.786C383.409 117.786 382.765 117.688 382.149 117.492C381.533 117.296 381.034 117.016 380.651 116.652L381.155 115.896C381.5 116.204 381.925 116.447 382.429 116.624C382.942 116.811 383.484 116.904 384.053 116.904C384.986 116.904 385.672 116.685 386.111 116.246C386.55 115.817 386.769 115.145 386.769 114.23V112.396L386.909 111.136L386.811 109.876V107.65H387.763V114.104C387.763 115.373 387.45 116.302 386.825 116.89C386.209 117.487 385.294 117.786 384.081 117.786ZM383.899 114.72C383.199 114.72 382.569 114.571 382.009 114.272C381.449 113.964 381.006 113.539 380.679 112.998C380.362 112.457 380.203 111.836 380.203 111.136C380.203 110.436 380.362 109.82 380.679 109.288C381.006 108.747 381.449 108.327 382.009 108.028C382.569 107.729 383.199 107.58 383.899 107.58C384.552 107.58 385.14 107.715 385.663 107.986C386.186 108.257 386.601 108.658 386.909 109.19C387.217 109.722 387.371 110.371 387.371 111.136C387.371 111.901 387.217 112.55 386.909 113.082C386.601 113.614 386.186 114.02 385.663 114.3C385.14 114.58 384.552 114.72 383.899 114.72ZM383.997 113.838C384.538 113.838 385.019 113.726 385.439 113.502C385.859 113.269 386.19 112.951 386.433 112.55C386.676 112.139 386.797 111.668 386.797 111.136C386.797 110.604 386.676 110.137 386.433 109.736C386.19 109.335 385.859 109.022 385.439 108.798C385.019 108.565 384.538 108.448 383.997 108.448C383.465 108.448 382.984 108.565 382.555 108.798C382.135 109.022 381.804 109.335 381.561 109.736C381.328 110.137 381.211 110.604 381.211 111.136C381.211 111.668 381.328 112.139 381.561 112.55C381.804 112.951 382.135 113.269 382.555 113.502C382.984 113.726 383.465 113.838 383.997 113.838ZM390.529 115V107.65H391.481V109.652L391.383 109.302C391.588 108.742 391.934 108.317 392.419 108.028C392.904 107.729 393.506 107.58 394.225 107.58V108.546C394.188 108.546 394.15 108.546 394.113 108.546C394.076 108.537 394.038 108.532 394.001 108.532C393.226 108.532 392.62 108.77 392.181 109.246C391.742 109.713 391.523 110.38 391.523 111.248V115H390.529ZM398.966 115.07C398.257 115.07 397.618 114.911 397.048 114.594C396.488 114.267 396.045 113.824 395.718 113.264C395.392 112.695 395.228 112.046 395.228 111.318C395.228 110.581 395.392 109.932 395.718 109.372C396.045 108.812 396.488 108.373 397.048 108.056C397.608 107.739 398.248 107.58 398.966 107.58C399.694 107.58 400.338 107.739 400.898 108.056C401.468 108.373 401.911 108.812 402.228 109.372C402.555 109.932 402.718 110.581 402.718 111.318C402.718 112.046 402.555 112.695 402.228 113.264C401.911 113.824 401.468 114.267 400.898 114.594C400.329 114.911 399.685 115.07 398.966 115.07ZM398.966 114.188C399.498 114.188 399.97 114.071 400.38 113.838C400.791 113.595 401.113 113.259 401.346 112.83C401.589 112.391 401.71 111.887 401.71 111.318C401.71 110.739 401.589 110.235 401.346 109.806C401.113 109.377 400.791 109.045 400.38 108.812C399.97 108.569 399.503 108.448 398.98 108.448C398.458 108.448 397.991 108.569 397.58 108.812C397.17 109.045 396.843 109.377 396.6 109.806C396.358 110.235 396.236 110.739 396.236 111.318C396.236 111.887 396.358 112.391 396.6 112.83C396.843 113.259 397.17 113.595 397.58 113.838C397.991 114.071 398.453 114.188 398.966 114.188ZM407.786 115.07C407.16 115.07 406.614 114.953 406.148 114.72C405.681 114.487 405.317 114.137 405.056 113.67C404.804 113.203 404.678 112.62 404.678 111.92V107.65H405.672V111.808C405.672 112.592 405.863 113.185 406.246 113.586C406.638 113.978 407.184 114.174 407.884 114.174C408.397 114.174 408.84 114.071 409.214 113.866C409.596 113.651 409.886 113.343 410.082 112.942C410.287 112.541 410.39 112.06 410.39 111.5V107.65H411.384V115H410.432V112.984L410.586 113.348C410.352 113.889 409.988 114.314 409.494 114.622C409.008 114.921 408.439 115.07 407.786 115.07ZM417.948 115.07C417.313 115.07 416.739 114.925 416.226 114.636C415.713 114.337 415.302 113.913 414.994 113.362C414.695 112.802 414.546 112.121 414.546 111.318C414.546 110.515 414.695 109.839 414.994 109.288C415.293 108.728 415.699 108.303 416.212 108.014C416.725 107.725 417.304 107.58 417.948 107.58C418.648 107.58 419.273 107.739 419.824 108.056C420.384 108.364 420.823 108.803 421.14 109.372C421.457 109.932 421.616 110.581 421.616 111.318C421.616 112.065 421.457 112.718 421.14 113.278C420.823 113.838 420.384 114.277 419.824 114.594C419.273 114.911 418.648 115.07 417.948 115.07ZM414.154 117.716V107.65H415.106V109.862L415.008 111.332L415.148 112.816V117.716H414.154ZM417.878 114.188C418.401 114.188 418.867 114.071 419.278 113.838C419.689 113.595 420.015 113.259 420.258 112.83C420.501 112.391 420.622 111.887 420.622 111.318C420.622 110.749 420.501 110.249 420.258 109.82C420.015 109.391 419.689 109.055 419.278 108.812C418.867 108.569 418.401 108.448 417.878 108.448C417.355 108.448 416.884 108.569 416.464 108.812C416.053 109.055 415.727 109.391 415.484 109.82C415.251 110.249 415.134 110.749 415.134 111.318C415.134 111.887 415.251 112.391 415.484 112.83C415.727 113.259 416.053 113.595 416.464 113.838C416.884 114.071 417.355 114.188 417.878 114.188ZM423.535 115.07C423.33 115.07 423.153 114.995 423.003 114.846C422.863 114.697 422.793 114.515 422.793 114.3C422.793 114.076 422.863 113.894 423.003 113.754C423.153 113.614 423.33 113.544 423.535 113.544C423.741 113.544 423.913 113.614 424.053 113.754C424.203 113.894 424.277 114.076 424.277 114.3C424.277 114.515 424.203 114.697 424.053 114.846C423.913 114.995 423.741 115.07 423.535 115.07Z" fill="white" fill-opacity="0.7"/>
<path d="M187.291 116.75H213.37V117.45H187.291V116.75ZM215.762 116.75H324.051V117.45H215.762V116.75Z" fill="white" fill-opacity="0.7"/>
<path d="M97.9375 143V133.2H98.9595V141.32L105.231 133.2H106.169V143H105.147V134.894L98.8755 143H97.9375ZM116.645 143V133.2H117.667V143H116.645ZM109.477 143V133.2H110.513V143H109.477ZM110.401 138.478V137.568H116.743V138.478H110.401ZM128.143 143V133.2H129.165V143H128.143ZM120.975 143V133.2H122.011V143H120.975ZM121.899 138.478V137.568H128.241V138.478H121.899ZM132.305 137.106C132.099 137.106 131.922 137.031 131.773 136.882C131.633 136.733 131.563 136.551 131.563 136.336C131.563 136.112 131.633 135.93 131.773 135.79C131.922 135.65 132.099 135.58 132.305 135.58C132.51 135.58 132.683 135.65 132.823 135.79C132.972 135.93 133.047 136.112 133.047 136.336C133.047 136.551 132.972 136.733 132.823 136.882C132.683 137.031 132.51 137.106 132.305 137.106ZM132.305 143.07C132.099 143.07 131.922 142.995 131.773 142.846C131.633 142.697 131.563 142.515 131.563 142.3C131.563 142.076 131.633 141.894 131.773 141.754C131.922 141.614 132.099 141.544 132.305 141.544C132.51 141.544 132.683 141.614 132.823 141.754C132.972 141.894 133.047 142.076 133.047 142.3C133.047 142.515 132.972 142.697 132.823 142.846C132.683 142.995 132.51 143.07 132.305 143.07ZM139.888 143V133.62L140.336 134.096H137.578V133.2H140.896V143H139.888ZM143.056 143V142.286L147.13 138.296C147.503 137.932 147.783 137.615 147.97 137.344C148.157 137.064 148.283 136.803 148.348 136.56C148.413 136.317 148.446 136.089 148.446 135.874C148.446 135.305 148.25 134.857 147.858 134.53C147.475 134.203 146.906 134.04 146.15 134.04C145.571 134.04 145.058 134.129 144.61 134.306C144.171 134.483 143.793 134.759 143.476 135.132L142.762 134.516C143.145 134.068 143.635 133.723 144.232 133.48C144.829 133.237 145.497 133.116 146.234 133.116C146.897 133.116 147.471 133.223 147.956 133.438C148.441 133.643 148.815 133.947 149.076 134.348C149.347 134.749 149.482 135.221 149.482 135.762C149.482 136.079 149.435 136.392 149.342 136.7C149.258 137.008 149.099 137.335 148.866 137.68C148.642 138.016 148.311 138.399 147.872 138.828L144.134 142.496L143.854 142.104H149.93V143H143.056ZM154.121 143.084C153.412 143.084 152.74 142.972 152.105 142.748C151.48 142.515 150.976 142.207 150.593 141.824L151.083 141.026C151.4 141.353 151.825 141.623 152.357 141.838C152.898 142.053 153.486 142.16 154.121 142.16C154.933 142.16 155.554 141.983 155.983 141.628C156.422 141.273 156.641 140.797 156.641 140.2C156.641 139.603 156.426 139.127 155.997 138.772C155.577 138.417 154.91 138.24 153.995 138.24H153.295V137.498L156.319 133.704L156.459 134.096H150.999V133.2H157.299V133.914L154.275 137.708L153.785 137.386H154.163C155.339 137.386 156.216 137.647 156.795 138.17C157.383 138.693 157.677 139.365 157.677 140.186C157.677 140.737 157.546 141.231 157.285 141.67C157.024 142.109 156.627 142.454 156.095 142.706C155.572 142.958 154.914 143.084 154.121 143.084ZM158.929 140.424V139.696L164.123 133.2H165.243L160.091 139.696L159.545 139.528H167.427V140.424H158.929ZM164.459 143V140.424L164.487 139.528V137.26H165.467V143H164.459ZM171.42 143.084C170.72 143.084 170.053 142.972 169.418 142.748C168.783 142.515 168.279 142.207 167.906 141.824L168.396 141.026C168.704 141.353 169.124 141.623 169.656 141.838C170.197 142.053 170.781 142.16 171.406 142.16C172.237 142.16 172.867 141.978 173.296 141.614C173.735 141.241 173.954 140.755 173.954 140.158C173.954 139.738 173.851 139.379 173.646 139.08C173.45 138.772 173.114 138.534 172.638 138.366C172.162 138.198 171.509 138.114 170.678 138.114H168.592L169.096 133.2H174.458V134.096H169.502L170.02 133.606L169.586 137.722L169.068 137.218H170.902C171.891 137.218 172.685 137.339 173.282 137.582C173.879 137.825 174.309 138.165 174.57 138.604C174.841 139.033 174.976 139.537 174.976 140.116C174.976 140.667 174.845 141.171 174.584 141.628C174.323 142.076 173.931 142.431 173.408 142.692C172.885 142.953 172.223 143.084 171.42 143.084ZM180.274 143.084C179.406 143.084 178.673 142.893 178.076 142.51C177.478 142.118 177.026 141.558 176.718 140.83C176.41 140.093 176.256 139.211 176.256 138.184C176.256 137.073 176.442 136.145 176.816 135.398C177.198 134.642 177.726 134.073 178.398 133.69C179.07 133.307 179.849 133.116 180.736 133.116C181.174 133.116 181.594 133.158 181.996 133.242C182.397 133.326 182.752 133.461 183.06 133.648L182.654 134.46C182.402 134.292 182.112 134.175 181.786 134.11C181.459 134.035 181.114 133.998 180.75 133.998C179.695 133.998 178.85 134.334 178.216 135.006C177.59 135.678 177.278 136.681 177.278 138.016C177.278 138.221 177.287 138.478 177.306 138.786C177.334 139.085 177.39 139.383 177.474 139.682L177.124 139.416C177.226 138.931 177.427 138.52 177.726 138.184C178.024 137.839 178.398 137.577 178.846 137.4C179.294 137.223 179.784 137.134 180.316 137.134C180.969 137.134 181.543 137.255 182.038 137.498C182.532 137.741 182.92 138.081 183.2 138.52C183.48 138.959 183.62 139.477 183.62 140.074C183.62 140.681 183.475 141.213 183.186 141.67C182.896 142.118 182.495 142.468 181.982 142.72C181.478 142.963 180.908 143.084 180.274 143.084ZM180.232 142.23C180.698 142.23 181.109 142.146 181.464 141.978C181.828 141.801 182.112 141.553 182.318 141.236C182.523 140.909 182.626 140.531 182.626 140.102C182.626 139.458 182.402 138.945 181.954 138.562C181.515 138.179 180.918 137.988 180.162 137.988C179.658 137.988 179.219 138.081 178.846 138.268C178.472 138.455 178.178 138.711 177.964 139.038C177.749 139.355 177.642 139.719 177.642 140.13C177.642 140.485 177.74 140.825 177.936 141.152C178.132 141.469 178.421 141.731 178.804 141.936C179.196 142.132 179.672 142.23 180.232 142.23ZM186.4 143L190.628 133.648L190.936 134.096H184.874L185.392 133.606V135.93H184.398V133.2H191.594V133.914L187.492 143H186.4ZM196.386 143.084C195.602 143.084 194.925 142.972 194.356 142.748C193.796 142.524 193.362 142.202 193.054 141.782C192.755 141.353 192.606 140.849 192.606 140.27C192.606 139.71 192.751 139.234 193.04 138.842C193.339 138.441 193.768 138.133 194.328 137.918C194.897 137.703 195.583 137.596 196.386 137.596C197.179 137.596 197.861 137.703 198.43 137.918C198.999 138.133 199.433 138.441 199.732 138.842C200.04 139.234 200.194 139.71 200.194 140.27C200.194 140.849 200.04 141.353 199.732 141.782C199.424 142.202 198.985 142.524 198.416 142.748C197.847 142.972 197.17 143.084 196.386 143.084ZM196.386 142.23C197.254 142.23 197.931 142.053 198.416 141.698C198.911 141.343 199.158 140.863 199.158 140.256C199.158 139.649 198.911 139.173 198.416 138.828C197.931 138.473 197.254 138.296 196.386 138.296C195.518 138.296 194.841 138.473 194.356 138.828C193.871 139.173 193.628 139.649 193.628 140.256C193.628 140.863 193.871 141.343 194.356 141.698C194.841 142.053 195.518 142.23 196.386 142.23ZM196.386 137.498C197.151 137.498 197.749 137.339 198.178 137.022C198.607 136.705 198.822 136.28 198.822 135.748C198.822 135.188 198.598 134.754 198.15 134.446C197.711 134.129 197.123 133.97 196.386 133.97C195.649 133.97 195.061 134.129 194.622 134.446C194.183 134.754 193.964 135.183 193.964 135.734C193.964 136.275 194.174 136.705 194.594 137.022C195.023 137.339 195.621 137.498 196.386 137.498ZM196.386 138.17C195.658 138.17 195.037 138.072 194.524 137.876C194.02 137.68 193.633 137.4 193.362 137.036C193.091 136.663 192.956 136.219 192.956 135.706C192.956 135.165 193.096 134.703 193.376 134.32C193.665 133.928 194.067 133.629 194.58 133.424C195.093 133.219 195.695 133.116 196.386 133.116C197.077 133.116 197.679 133.219 198.192 133.424C198.715 133.629 199.121 133.928 199.41 134.32C199.699 134.703 199.844 135.165 199.844 135.706C199.844 136.219 199.709 136.663 199.438 137.036C199.167 137.4 198.771 137.68 198.248 137.876C197.735 138.072 197.114 138.17 196.386 138.17ZM204.18 143.084C203.741 143.084 203.321 143.042 202.92 142.958C202.528 142.874 202.173 142.739 201.856 142.552L202.262 141.74C202.514 141.908 202.803 142.029 203.13 142.104C203.466 142.169 203.811 142.202 204.166 142.202C205.22 142.202 206.06 141.866 206.686 141.194C207.32 140.522 207.638 139.519 207.638 138.184C207.638 137.969 207.624 137.713 207.596 137.414C207.577 137.115 207.526 136.817 207.442 136.518L207.792 136.784C207.698 137.269 207.498 137.685 207.19 138.03C206.891 138.366 206.518 138.623 206.07 138.8C205.631 138.977 205.141 139.066 204.6 139.066C203.956 139.066 203.382 138.945 202.878 138.702C202.383 138.459 201.996 138.119 201.716 137.68C201.436 137.241 201.296 136.723 201.296 136.126C201.296 135.51 201.44 134.978 201.73 134.53C202.019 134.082 202.416 133.737 202.92 133.494C203.433 133.242 204.007 133.116 204.642 133.116C205.51 133.116 206.242 133.312 206.84 133.704C207.437 134.087 207.89 134.642 208.198 135.37C208.506 136.098 208.66 136.98 208.66 138.016C208.66 139.117 208.468 140.046 208.086 140.802C207.712 141.558 207.19 142.127 206.518 142.51C205.846 142.893 205.066 143.084 204.18 143.084ZM204.754 138.212C205.258 138.212 205.696 138.119 206.07 137.932C206.452 137.745 206.746 137.489 206.952 137.162C207.166 136.835 207.274 136.471 207.274 136.07C207.274 135.706 207.176 135.365 206.98 135.048C206.784 134.731 206.494 134.474 206.112 134.278C205.729 134.073 205.253 133.97 204.684 133.97C204.217 133.97 203.802 134.059 203.438 134.236C203.083 134.404 202.803 134.647 202.598 134.964C202.392 135.281 202.29 135.659 202.29 136.098C202.29 136.742 202.509 137.255 202.948 137.638C203.396 138.021 203.998 138.212 204.754 138.212ZM211.829 143V133.62L212.277 134.096H209.519V133.2H212.837V143H211.829ZM216.888 143V133.62L217.336 134.096H214.578V133.2H217.896V143H216.888ZM221.946 143V133.62L222.394 134.096H219.636V133.2H222.954V143H221.946Z" fill="white" fill-opacity="0.7"/>
<path d="M102.244 171.084C101.506 171.084 100.82 170.963 100.186 170.72C99.5604 170.468 99.0144 170.118 98.5478 169.67C98.0904 169.213 97.7311 168.685 97.4698 168.088C97.2178 167.481 97.0918 166.819 97.0918 166.1C97.0918 165.381 97.2178 164.723 97.4698 164.126C97.7311 163.519 98.0904 162.992 98.5478 162.544C99.0144 162.087 99.5604 161.737 100.186 161.494C100.811 161.242 101.497 161.116 102.244 161.116C102.981 161.116 103.662 161.242 104.288 161.494C104.913 161.737 105.454 162.082 105.912 162.53C106.378 162.978 106.738 163.505 106.99 164.112C107.251 164.719 107.382 165.381 107.382 166.1C107.382 166.819 107.251 167.481 106.99 168.088C106.738 168.695 106.378 169.222 105.912 169.67C105.454 170.118 104.913 170.468 104.288 170.72C103.662 170.963 102.981 171.084 102.244 171.084ZM102.244 170.16C102.832 170.16 103.373 170.062 103.868 169.866C104.372 169.661 104.806 169.376 105.17 169.012C105.543 168.639 105.832 168.209 106.038 167.724C106.243 167.229 106.346 166.688 106.346 166.1C106.346 165.512 106.243 164.975 106.038 164.49C105.832 163.995 105.543 163.566 105.17 163.202C104.806 162.829 104.372 162.544 103.868 162.348C103.373 162.143 102.832 162.04 102.244 162.04C101.656 162.04 101.11 162.143 100.606 162.348C100.102 162.544 99.6631 162.829 99.2898 163.202C98.9258 163.566 98.6364 163.995 98.4218 164.49C98.2164 164.975 98.1138 165.512 98.1138 166.1C98.1138 166.679 98.2164 167.215 98.4218 167.71C98.6364 168.205 98.9258 168.639 99.2898 169.012C99.6631 169.376 100.102 169.661 100.606 169.866C101.11 170.062 101.656 170.16 102.244 170.16ZM109.854 171V161.2H116.084V162.096H110.596L110.862 161.83L110.876 171H109.854ZM117.866 171V161.2H121.534C122.364 161.2 123.078 161.335 123.676 161.606C124.273 161.867 124.73 162.25 125.048 162.754C125.374 163.249 125.538 163.851 125.538 164.56C125.538 165.251 125.374 165.848 125.048 166.352C124.73 166.847 124.273 167.229 123.676 167.5C123.078 167.771 122.364 167.906 121.534 167.906H118.44L118.902 167.416V171H117.866ZM118.902 167.5L118.44 166.996H121.506C122.486 166.996 123.228 166.786 123.732 166.366C124.245 165.937 124.502 165.335 124.502 164.56C124.502 163.776 124.245 163.169 123.732 162.74C123.228 162.311 122.486 162.096 121.506 162.096H118.44L118.902 161.606V167.5ZM134.823 171V161.2H135.845V171H134.823ZM127.655 171V161.2H128.691V171H127.655ZM128.579 166.478V165.568H134.921V166.478H128.579ZM139.153 171V161.2H140.175V169.32L146.447 161.2H147.385V171H146.363V162.894L140.091 171H139.153ZM150.692 171V161.2H158.938V171H157.916V161.816L158.182 162.096H151.448L151.714 161.816V171H150.692ZM162.077 165.106C161.871 165.106 161.694 165.031 161.545 164.882C161.405 164.733 161.335 164.551 161.335 164.336C161.335 164.112 161.405 163.93 161.545 163.79C161.694 163.65 161.871 163.58 162.077 163.58C162.282 163.58 162.455 163.65 162.595 163.79C162.744 163.93 162.819 164.112 162.819 164.336C162.819 164.551 162.744 164.733 162.595 164.882C162.455 165.031 162.282 165.106 162.077 165.106ZM162.077 171.07C161.871 171.07 161.694 170.995 161.545 170.846C161.405 170.697 161.335 170.515 161.335 170.3C161.335 170.076 161.405 169.894 161.545 169.754C161.694 169.614 161.871 169.544 162.077 169.544C162.282 169.544 162.455 169.614 162.595 169.754C162.744 169.894 162.819 170.076 162.819 170.3C162.819 170.515 162.744 170.697 162.595 170.846C162.455 170.995 162.282 171.07 162.077 171.07ZM169.659 171V161.62L170.107 162.096H167.349V161.2H170.667V171H169.659ZM174.718 171V161.62L175.166 162.096H172.408V161.2H175.726V171H174.718ZM179.777 171V161.62L180.225 162.096H177.467V161.2H180.785V171H179.777ZM187.033 171.084C186.277 171.084 185.605 170.888 185.017 170.496C184.429 170.095 183.967 169.525 183.631 168.788C183.295 168.041 183.127 167.145 183.127 166.1C183.127 165.055 183.295 164.163 183.631 163.426C183.967 162.679 184.429 162.11 185.017 161.718C185.605 161.317 186.277 161.116 187.033 161.116C187.789 161.116 188.461 161.317 189.049 161.718C189.637 162.11 190.099 162.679 190.435 163.426C190.781 164.163 190.953 165.055 190.953 166.1C190.953 167.145 190.781 168.041 190.435 168.788C190.099 169.525 189.637 170.095 189.049 170.496C188.461 170.888 187.789 171.084 187.033 171.084ZM187.033 170.16C187.612 170.16 188.116 170.006 188.545 169.698C188.975 169.381 189.311 168.923 189.553 168.326C189.796 167.719 189.917 166.977 189.917 166.1C189.917 165.223 189.796 164.485 189.553 163.888C189.311 163.281 188.975 162.824 188.545 162.516C188.116 162.199 187.612 162.04 187.033 162.04C186.473 162.04 185.974 162.199 185.535 162.516C185.097 162.824 184.756 163.281 184.513 163.888C184.271 164.485 184.149 165.223 184.149 166.1C184.149 166.977 184.271 167.719 184.513 168.326C184.756 168.923 185.097 169.381 185.535 169.698C185.974 170.006 186.473 170.16 187.033 170.16ZM194.987 171.084C194.548 171.084 194.128 171.042 193.727 170.958C193.335 170.874 192.98 170.739 192.663 170.552L193.069 169.74C193.321 169.908 193.61 170.029 193.937 170.104C194.273 170.169 194.618 170.202 194.973 170.202C196.027 170.202 196.867 169.866 197.493 169.194C198.127 168.522 198.445 167.519 198.445 166.184C198.445 165.969 198.431 165.713 198.403 165.414C198.384 165.115 198.333 164.817 198.249 164.518L198.599 164.784C198.505 165.269 198.305 165.685 197.997 166.03C197.698 166.366 197.325 166.623 196.877 166.8C196.438 166.977 195.948 167.066 195.407 167.066C194.763 167.066 194.189 166.945 193.685 166.702C193.19 166.459 192.803 166.119 192.523 165.68C192.243 165.241 192.103 164.723 192.103 164.126C192.103 163.51 192.247 162.978 192.537 162.53C192.826 162.082 193.223 161.737 193.727 161.494C194.24 161.242 194.814 161.116 195.449 161.116C196.317 161.116 197.049 161.312 197.647 161.704C198.244 162.087 198.697 162.642 199.005 163.37C199.313 164.098 199.467 164.98 199.467 166.016C199.467 167.117 199.275 168.046 198.893 168.802C198.519 169.558 197.997 170.127 197.325 170.51C196.653 170.893 195.873 171.084 194.987 171.084ZM195.561 166.212C196.065 166.212 196.503 166.119 196.877 165.932C197.259 165.745 197.553 165.489 197.759 165.162C197.973 164.835 198.081 164.471 198.081 164.07C198.081 163.706 197.983 163.365 197.787 163.048C197.591 162.731 197.301 162.474 196.919 162.278C196.536 162.073 196.06 161.97 195.491 161.97C195.024 161.97 194.609 162.059 194.245 162.236C193.89 162.404 193.61 162.647 193.405 162.964C193.199 163.281 193.097 163.659 193.097 164.098C193.097 164.742 193.316 165.255 193.755 165.638C194.203 166.021 194.805 166.212 195.561 166.212ZM204.652 171.084C203.868 171.084 203.191 170.972 202.622 170.748C202.062 170.524 201.628 170.202 201.32 169.782C201.021 169.353 200.872 168.849 200.872 168.27C200.872 167.71 201.017 167.234 201.306 166.842C201.605 166.441 202.034 166.133 202.594 165.918C203.163 165.703 203.849 165.596 204.652 165.596C205.445 165.596 206.127 165.703 206.696 165.918C207.265 166.133 207.699 166.441 207.998 166.842C208.306 167.234 208.46 167.71 208.46 168.27C208.46 168.849 208.306 169.353 207.998 169.782C207.69 170.202 207.251 170.524 206.682 170.748C206.113 170.972 205.436 171.084 204.652 171.084ZM204.652 170.23C205.52 170.23 206.197 170.053 206.682 169.698C207.177 169.343 207.424 168.863 207.424 168.256C207.424 167.649 207.177 167.173 206.682 166.828C206.197 166.473 205.52 166.296 204.652 166.296C203.784 166.296 203.107 166.473 202.622 166.828C202.137 167.173 201.894 167.649 201.894 168.256C201.894 168.863 202.137 169.343 202.622 169.698C203.107 170.053 203.784 170.23 204.652 170.23ZM204.652 165.498C205.417 165.498 206.015 165.339 206.444 165.022C206.873 164.705 207.088 164.28 207.088 163.748C207.088 163.188 206.864 162.754 206.416 162.446C205.977 162.129 205.389 161.97 204.652 161.97C203.915 161.97 203.327 162.129 202.888 162.446C202.449 162.754 202.23 163.183 202.23 163.734C202.23 164.275 202.44 164.705 202.86 165.022C203.289 165.339 203.887 165.498 204.652 165.498ZM204.652 166.17C203.924 166.17 203.303 166.072 202.79 165.876C202.286 165.68 201.899 165.4 201.628 165.036C201.357 164.663 201.222 164.219 201.222 163.706C201.222 163.165 201.362 162.703 201.642 162.32C201.931 161.928 202.333 161.629 202.846 161.424C203.359 161.219 203.961 161.116 204.652 161.116C205.343 161.116 205.945 161.219 206.458 161.424C206.981 161.629 207.387 161.928 207.676 162.32C207.965 162.703 208.11 163.165 208.11 163.706C208.11 164.219 207.975 164.663 207.704 165.036C207.433 165.4 207.037 165.68 206.514 165.876C206.001 166.072 205.38 166.17 204.652 166.17ZM211.578 171L215.806 161.648L216.114 162.096H210.052L210.57 161.606V163.93H209.576V161.2H216.772V161.914L212.67 171H211.578ZM221.844 171.084C220.976 171.084 220.244 170.893 219.646 170.51C219.049 170.118 218.596 169.558 218.288 168.83C217.98 168.093 217.826 167.211 217.826 166.184C217.826 165.073 218.013 164.145 218.386 163.398C218.769 162.642 219.296 162.073 219.968 161.69C220.64 161.307 221.42 161.116 222.306 161.116C222.745 161.116 223.165 161.158 223.566 161.242C223.968 161.326 224.322 161.461 224.63 161.648L224.224 162.46C223.972 162.292 223.683 162.175 223.356 162.11C223.03 162.035 222.684 161.998 222.32 161.998C221.266 161.998 220.421 162.334 219.786 163.006C219.161 163.678 218.848 164.681 218.848 166.016C218.848 166.221 218.858 166.478 218.876 166.786C218.904 167.085 218.96 167.383 219.044 167.682L218.694 167.416C218.797 166.931 218.998 166.52 219.296 166.184C219.595 165.839 219.968 165.577 220.416 165.4C220.864 165.223 221.354 165.134 221.886 165.134C222.54 165.134 223.114 165.255 223.608 165.498C224.103 165.741 224.49 166.081 224.77 166.52C225.05 166.959 225.19 167.477 225.19 168.074C225.19 168.681 225.046 169.213 224.756 169.67C224.467 170.118 224.066 170.468 223.552 170.72C223.048 170.963 222.479 171.084 221.844 171.084ZM221.802 170.23C222.269 170.23 222.68 170.146 223.034 169.978C223.398 169.801 223.683 169.553 223.888 169.236C224.094 168.909 224.196 168.531 224.196 168.102C224.196 167.458 223.972 166.945 223.524 166.562C223.086 166.179 222.488 165.988 221.732 165.988C221.228 165.988 220.79 166.081 220.416 166.268C220.043 166.455 219.749 166.711 219.534 167.038C219.32 167.355 219.212 167.719 219.212 168.13C219.212 168.485 219.31 168.825 219.506 169.152C219.702 169.469 219.992 169.731 220.374 169.936C220.766 170.132 221.242 170.23 221.802 170.23ZM229.452 171.084C228.752 171.084 228.084 170.972 227.45 170.748C226.815 170.515 226.311 170.207 225.938 169.824L226.428 169.026C226.736 169.353 227.156 169.623 227.688 169.838C228.229 170.053 228.812 170.16 229.438 170.16C230.268 170.16 230.898 169.978 231.328 169.614C231.766 169.241 231.986 168.755 231.986 168.158C231.986 167.738 231.883 167.379 231.678 167.08C231.482 166.772 231.146 166.534 230.67 166.366C230.194 166.198 229.54 166.114 228.71 166.114H226.624L227.128 161.2H232.49V162.096H227.534L228.052 161.606L227.618 165.722L227.1 165.218H228.934C229.923 165.218 230.716 165.339 231.314 165.582C231.911 165.825 232.34 166.165 232.602 166.604C232.872 167.033 233.008 167.537 233.008 168.116C233.008 168.667 232.877 169.171 232.616 169.628C232.354 170.076 231.962 170.431 231.44 170.692C230.917 170.953 230.254 171.084 229.452 171.084ZM234.119 168.424V167.696L239.313 161.2H240.433L235.281 167.696L234.735 167.528H242.617V168.424H234.119ZM239.649 171V168.424L239.677 167.528V165.26H240.657V171H239.649ZM246.264 171.084C245.555 171.084 244.883 170.972 244.248 170.748C243.623 170.515 243.119 170.207 242.736 169.824L243.226 169.026C243.544 169.353 243.968 169.623 244.5 169.838C245.042 170.053 245.63 170.16 246.264 170.16C247.076 170.16 247.697 169.983 248.126 169.628C248.565 169.273 248.784 168.797 248.784 168.2C248.784 167.603 248.57 167.127 248.14 166.772C247.72 166.417 247.053 166.24 246.138 166.24H245.438V165.498L248.462 161.704L248.602 162.096H243.142V161.2H249.442V161.914L246.418 165.708L245.928 165.386H246.306C247.482 165.386 248.36 165.647 248.938 166.17C249.526 166.693 249.82 167.365 249.82 168.186C249.82 168.737 249.69 169.231 249.428 169.67C249.167 170.109 248.77 170.454 248.238 170.706C247.716 170.958 247.058 171.084 246.264 171.084ZM250.99 171V170.286L255.064 166.296C255.438 165.932 255.718 165.615 255.904 165.344C256.091 165.064 256.217 164.803 256.282 164.56C256.348 164.317 256.38 164.089 256.38 163.874C256.38 163.305 256.184 162.857 255.792 162.53C255.41 162.203 254.84 162.04 254.084 162.04C253.506 162.04 252.992 162.129 252.544 162.306C252.106 162.483 251.728 162.759 251.41 163.132L250.696 162.516C251.079 162.068 251.569 161.723 252.166 161.48C252.764 161.237 253.431 161.116 254.168 161.116C254.831 161.116 255.405 161.223 255.89 161.438C256.376 161.643 256.749 161.947 257.01 162.348C257.281 162.749 257.416 163.221 257.416 163.762C257.416 164.079 257.37 164.392 257.276 164.7C257.192 165.008 257.034 165.335 256.8 165.68C256.576 166.016 256.245 166.399 255.806 166.828L252.068 170.496L251.788 170.104H257.864V171H250.99ZM260.837 171V161.62L261.285 162.096H258.527V161.2H261.845V171H260.837Z" fill="white" fill-opacity="0.7"/>
<path d="M1464.91 148.596C1464.06 148.596 1463.28 148.457 1462.57 148.18C1461.85 147.892 1461.24 147.492 1460.71 146.98C1460.19 146.468 1459.78 145.865 1459.48 145.172C1459.19 144.479 1459.05 143.721 1459.05 142.9C1459.05 142.079 1459.19 141.321 1459.48 140.628C1459.78 139.935 1460.19 139.332 1460.71 138.82C1461.25 138.308 1461.87 137.913 1462.59 137.636C1463.3 137.348 1464.08 137.204 1464.92 137.204C1465.73 137.204 1466.49 137.343 1467.21 137.62C1467.92 137.887 1468.53 138.292 1469.02 138.836L1468.27 139.588C1467.81 139.119 1467.3 138.783 1466.75 138.58C1466.19 138.367 1465.59 138.26 1464.95 138.26C1464.28 138.26 1463.66 138.377 1463.08 138.612C1462.51 138.836 1462 139.161 1461.58 139.588C1461.15 140.004 1460.81 140.495 1460.57 141.06C1460.33 141.615 1460.22 142.228 1460.22 142.9C1460.22 143.572 1460.33 144.191 1460.57 144.756C1460.81 145.311 1461.15 145.801 1461.58 146.228C1462 146.644 1462.51 146.969 1463.08 147.204C1463.66 147.428 1464.28 147.54 1464.95 147.54C1465.59 147.54 1466.19 147.433 1466.75 147.22C1467.3 147.007 1467.81 146.665 1468.27 146.196L1469.02 146.948C1468.53 147.492 1467.92 147.903 1467.21 148.18C1466.49 148.457 1465.73 148.596 1464.91 148.596ZM1474.19 148.58C1473.38 148.58 1472.65 148.399 1472 148.036C1471.36 147.663 1470.86 147.156 1470.48 146.516C1470.11 145.865 1469.92 145.124 1469.92 144.292C1469.92 143.449 1470.11 142.708 1470.48 142.068C1470.86 141.428 1471.36 140.927 1472 140.564C1472.64 140.201 1473.37 140.02 1474.19 140.02C1475.03 140.02 1475.76 140.201 1476.4 140.564C1477.05 140.927 1477.56 141.428 1477.92 142.068C1478.3 142.708 1478.48 143.449 1478.48 144.292C1478.48 145.124 1478.3 145.865 1477.92 146.516C1477.56 147.156 1477.05 147.663 1476.4 148.036C1475.75 148.399 1475.02 148.58 1474.19 148.58ZM1474.19 147.572C1474.8 147.572 1475.34 147.439 1475.81 147.172C1476.28 146.895 1476.65 146.511 1476.91 146.02C1477.19 145.519 1477.33 144.943 1477.33 144.292C1477.33 143.631 1477.19 143.055 1476.91 142.564C1476.65 142.073 1476.28 141.695 1475.81 141.428C1475.34 141.151 1474.81 141.012 1474.21 141.012C1473.61 141.012 1473.08 141.151 1472.61 141.428C1472.14 141.695 1471.77 142.073 1471.49 142.564C1471.21 143.055 1471.07 143.631 1471.07 144.292C1471.07 144.943 1471.21 145.519 1471.49 146.02C1471.77 146.511 1472.14 146.895 1472.61 147.172C1473.08 147.439 1473.61 147.572 1474.19 147.572ZM1485.14 148.58C1484.41 148.58 1483.76 148.415 1483.17 148.084C1482.58 147.743 1482.11 147.257 1481.76 146.628C1481.42 145.988 1481.25 145.209 1481.25 144.292C1481.25 143.375 1481.42 142.601 1481.76 141.972C1482.1 141.332 1482.57 140.847 1483.15 140.516C1483.74 140.185 1484.4 140.02 1485.14 140.02C1485.94 140.02 1486.65 140.201 1487.28 140.564C1487.92 140.916 1488.42 141.417 1488.79 142.068C1489.15 142.708 1489.33 143.449 1489.33 144.292C1489.33 145.145 1489.15 145.892 1488.79 146.532C1488.42 147.172 1487.92 147.673 1487.28 148.036C1486.65 148.399 1485.94 148.58 1485.14 148.58ZM1480.8 151.604V140.1H1481.89V142.628L1481.78 144.308L1481.94 146.004V151.604H1480.8ZM1485.06 147.572C1485.65 147.572 1486.19 147.439 1486.66 147.172C1487.13 146.895 1487.5 146.511 1487.78 146.02C1488.05 145.519 1488.19 144.943 1488.19 144.292C1488.19 143.641 1488.05 143.071 1487.78 142.58C1487.5 142.089 1487.13 141.705 1486.66 141.428C1486.19 141.151 1485.65 141.012 1485.06 141.012C1484.46 141.012 1483.92 141.151 1483.44 141.428C1482.97 141.705 1482.6 142.089 1482.32 142.58C1482.05 143.071 1481.92 143.641 1481.92 144.292C1481.92 144.943 1482.05 145.519 1482.32 146.02C1482.6 146.511 1482.97 146.895 1483.44 147.172C1483.92 147.439 1484.46 147.572 1485.06 147.572ZM1491.47 151.684C1491.08 151.684 1490.7 151.62 1490.34 151.492C1489.99 151.364 1489.68 151.172 1489.43 150.916L1489.95 150.068C1490.17 150.271 1490.4 150.425 1490.64 150.532C1490.9 150.649 1491.18 150.708 1491.49 150.708C1491.86 150.708 1492.18 150.601 1492.45 150.388C1492.73 150.185 1492.99 149.823 1493.23 149.3L1493.78 148.068L1493.91 147.892L1497.36 140.1H1498.48L1494.27 149.508C1494.04 150.052 1493.78 150.484 1493.49 150.804C1493.21 151.124 1492.91 151.348 1492.58 151.476C1492.25 151.615 1491.88 151.684 1491.47 151.684ZM1493.71 148.74L1489.84 140.1H1491.03L1494.45 147.812L1493.71 148.74ZM1500.08 148.5V140.1H1501.17V142.388L1501.06 141.988C1501.29 141.348 1501.69 140.863 1502.24 140.532C1502.8 140.191 1503.49 140.02 1504.31 140.02V141.124C1504.26 141.124 1504.22 141.124 1504.18 141.124C1504.14 141.113 1504.09 141.108 1504.05 141.108C1503.17 141.108 1502.47 141.38 1501.97 141.924C1501.47 142.457 1501.22 143.22 1501.22 144.212V148.5H1500.08ZM1506.38 148.5V140.1H1507.52V148.5H1506.38ZM1506.96 138.244C1506.72 138.244 1506.52 138.164 1506.36 138.004C1506.2 137.844 1506.12 137.652 1506.12 137.428C1506.12 137.204 1506.2 137.017 1506.36 136.868C1506.52 136.708 1506.72 136.628 1506.96 136.628C1507.19 136.628 1507.39 136.703 1507.55 136.852C1507.71 137.001 1507.79 137.188 1507.79 137.412C1507.79 137.647 1507.71 137.844 1507.55 138.004C1507.4 138.164 1507.2 138.244 1506.96 138.244ZM1514.26 151.684C1513.49 151.684 1512.76 151.572 1512.05 151.348C1511.35 151.124 1510.78 150.804 1510.34 150.388L1510.92 149.524C1511.31 149.876 1511.8 150.153 1512.37 150.356C1512.96 150.569 1513.58 150.676 1514.23 150.676C1515.3 150.676 1516.08 150.425 1516.58 149.924C1517.08 149.433 1517.33 148.665 1517.33 147.62V145.524L1517.49 144.084L1517.38 142.644V140.1H1518.47V147.476C1518.47 148.927 1518.11 149.988 1517.4 150.66C1516.69 151.343 1515.65 151.684 1514.26 151.684ZM1514.05 148.18C1513.25 148.18 1512.53 148.009 1511.89 147.668C1511.25 147.316 1510.75 146.831 1510.37 146.212C1510.01 145.593 1509.83 144.884 1509.83 144.084C1509.83 143.284 1510.01 142.58 1510.37 141.972C1510.75 141.353 1511.25 140.873 1511.89 140.532C1512.53 140.191 1513.25 140.02 1514.05 140.02C1514.8 140.02 1515.47 140.175 1516.07 140.484C1516.67 140.793 1517.14 141.252 1517.49 141.86C1517.84 142.468 1518.02 143.209 1518.02 144.084C1518.02 144.959 1517.84 145.7 1517.49 146.308C1517.14 146.916 1516.67 147.38 1516.07 147.7C1515.47 148.02 1514.8 148.18 1514.05 148.18ZM1514.16 147.172C1514.78 147.172 1515.33 147.044 1515.81 146.788C1516.29 146.521 1516.67 146.159 1516.95 145.7C1517.23 145.231 1517.36 144.692 1517.36 144.084C1517.36 143.476 1517.23 142.943 1516.95 142.484C1516.67 142.025 1516.29 141.668 1515.81 141.412C1515.33 141.145 1514.78 141.012 1514.16 141.012C1513.56 141.012 1513.01 141.145 1512.52 141.412C1512.04 141.668 1511.66 142.025 1511.38 142.484C1511.11 142.943 1510.98 143.476 1510.98 144.084C1510.98 144.692 1511.11 145.231 1511.38 145.7C1511.66 146.159 1512.04 146.521 1512.52 146.788C1513.01 147.044 1513.56 147.172 1514.16 147.172ZM1521.63 148.5V136.628H1522.77V142.404L1522.54 141.972C1522.81 141.364 1523.24 140.889 1523.82 140.548C1524.41 140.196 1525.11 140.02 1525.92 140.02C1526.6 140.02 1527.2 140.153 1527.71 140.42C1528.23 140.676 1528.64 141.071 1528.93 141.604C1529.22 142.137 1529.37 142.809 1529.37 143.62V148.5H1528.24V143.732C1528.24 142.847 1528.01 142.18 1527.57 141.732C1527.13 141.273 1526.51 141.044 1525.71 141.044C1525.11 141.044 1524.59 141.167 1524.14 141.412C1523.7 141.647 1523.36 141.993 1523.12 142.452C1522.88 142.9 1522.77 143.444 1522.77 144.084V148.5H1521.63ZM1535.1 148.58C1534.31 148.58 1533.7 148.367 1533.27 147.94C1532.85 147.513 1532.63 146.911 1532.63 146.132V138.244H1533.77V146.068C1533.77 146.559 1533.89 146.937 1534.14 147.204C1534.39 147.471 1534.76 147.604 1535.23 147.604C1535.73 147.604 1536.14 147.46 1536.47 147.172L1536.87 147.988C1536.65 148.191 1536.38 148.34 1536.06 148.436C1535.75 148.532 1535.43 148.58 1535.1 148.58ZM1531.13 141.044V140.1H1536.33V141.044H1531.13ZM1548.01 148.548C1547.21 148.548 1546.47 148.404 1545.79 148.116C1545.1 147.828 1544.51 147.428 1543.99 146.916C1543.48 146.393 1543.08 145.791 1542.79 145.108C1542.52 144.425 1542.38 143.689 1542.38 142.9C1542.38 142.111 1542.52 141.375 1542.81 140.692C1543.1 140.009 1543.5 139.412 1544.01 138.9C1544.52 138.377 1545.12 137.972 1545.8 137.684C1546.5 137.396 1547.24 137.252 1548.04 137.252C1548.84 137.252 1549.58 137.396 1550.27 137.684C1550.96 137.961 1551.56 138.356 1552.06 138.868C1552.57 139.38 1552.96 139.977 1553.24 140.66C1553.53 141.332 1553.67 142.068 1553.67 142.868C1553.67 143.668 1553.53 144.415 1553.24 145.108C1552.95 145.791 1552.55 146.393 1552.03 146.916C1551.51 147.428 1550.92 147.828 1550.23 148.116C1549.55 148.404 1548.81 148.548 1548.01 148.548ZM1547.99 147.956C1548.72 147.956 1549.39 147.828 1549.99 147.572C1550.6 147.305 1551.14 146.943 1551.59 146.484C1552.06 146.025 1552.43 145.487 1552.68 144.868C1552.94 144.239 1553.07 143.572 1553.07 142.868C1553.07 142.153 1552.94 141.492 1552.68 140.884C1552.44 140.276 1552.08 139.743 1551.63 139.284C1551.18 138.825 1550.64 138.473 1550.03 138.228C1549.42 137.972 1548.76 137.844 1548.04 137.844C1547.32 137.844 1546.64 137.972 1546.03 138.228C1545.41 138.484 1544.87 138.847 1544.41 139.316C1543.96 139.775 1543.61 140.308 1543.35 140.916C1543.1 141.524 1542.97 142.185 1542.97 142.9C1542.97 143.604 1543.1 144.265 1543.35 144.884C1543.61 145.492 1543.96 146.031 1544.41 146.5C1544.87 146.959 1545.4 147.316 1546.01 147.572C1546.63 147.828 1547.29 147.956 1547.99 147.956ZM1548.15 146.228C1547.51 146.228 1546.94 146.089 1546.44 145.812C1545.94 145.524 1545.55 145.129 1545.26 144.628C1544.97 144.127 1544.83 143.551 1544.83 142.9C1544.83 142.249 1544.97 141.673 1545.26 141.172C1545.55 140.671 1545.94 140.281 1546.44 140.004C1546.94 139.716 1547.51 139.572 1548.15 139.572C1548.7 139.572 1549.19 139.684 1549.63 139.908C1550.07 140.121 1550.43 140.42 1550.7 140.804L1550.01 141.316C1549.79 141.007 1549.51 140.777 1549.19 140.628C1548.87 140.479 1548.52 140.404 1548.14 140.404C1547.68 140.404 1547.27 140.511 1546.91 140.724C1546.55 140.927 1546.27 141.215 1546.06 141.588C1545.84 141.961 1545.74 142.399 1545.74 142.9C1545.74 143.401 1545.84 143.839 1546.06 144.212C1546.27 144.585 1546.55 144.879 1546.91 145.092C1547.27 145.295 1547.68 145.396 1548.14 145.396C1548.52 145.396 1548.87 145.321 1549.19 145.172C1549.51 145.023 1549.79 144.793 1550.01 144.484L1550.7 144.98C1550.43 145.375 1550.07 145.684 1549.63 145.908C1549.19 146.121 1548.7 146.228 1548.15 146.228ZM1559.29 148.5V147.684L1563.95 143.124C1564.38 142.708 1564.7 142.345 1564.91 142.036C1565.12 141.716 1565.27 141.417 1565.34 141.14C1565.42 140.863 1565.45 140.601 1565.45 140.356C1565.45 139.705 1565.23 139.193 1564.78 138.82C1564.35 138.447 1563.69 138.26 1562.83 138.26C1562.17 138.26 1561.58 138.361 1561.07 138.564C1560.57 138.767 1560.14 139.081 1559.77 139.508L1558.96 138.804C1559.4 138.292 1559.96 137.897 1560.64 137.62C1561.32 137.343 1562.08 137.204 1562.93 137.204C1563.68 137.204 1564.34 137.327 1564.89 137.572C1565.45 137.807 1565.88 138.153 1566.17 138.612C1566.48 139.071 1566.64 139.609 1566.64 140.228C1566.64 140.591 1566.59 140.948 1566.48 141.3C1566.38 141.652 1566.2 142.025 1565.93 142.42C1565.68 142.804 1565.3 143.241 1564.8 143.732L1560.53 147.924L1560.21 147.476H1567.15V148.5H1559.29ZM1573.03 148.596C1572.17 148.596 1571.4 148.372 1570.73 147.924C1570.05 147.465 1569.53 146.815 1569.14 145.972C1568.76 145.119 1568.57 144.095 1568.57 142.9C1568.57 141.705 1568.76 140.687 1569.14 139.844C1569.53 138.991 1570.05 138.34 1570.73 137.892C1571.4 137.433 1572.17 137.204 1573.03 137.204C1573.89 137.204 1574.66 137.433 1575.33 137.892C1576.01 138.34 1576.53 138.991 1576.92 139.844C1577.31 140.687 1577.51 141.705 1577.51 142.9C1577.51 144.095 1577.31 145.119 1576.92 145.972C1576.53 146.815 1576.01 147.465 1575.33 147.924C1574.66 148.372 1573.89 148.596 1573.03 148.596ZM1573.03 147.54C1573.69 147.54 1574.27 147.364 1574.76 147.012C1575.25 146.649 1575.63 146.127 1575.91 145.444C1576.19 144.751 1576.33 143.903 1576.33 142.9C1576.33 141.897 1576.19 141.055 1575.91 140.372C1575.63 139.679 1575.25 139.156 1574.76 138.804C1574.27 138.441 1573.69 138.26 1573.03 138.26C1572.39 138.26 1571.82 138.441 1571.32 138.804C1570.82 139.156 1570.43 139.679 1570.15 140.372C1569.87 141.055 1569.73 141.897 1569.73 142.9C1569.73 143.903 1569.87 144.751 1570.15 145.444C1570.43 146.127 1570.82 146.649 1571.32 147.012C1571.82 147.364 1572.39 147.54 1573.03 147.54ZM1578.95 148.5V147.684L1583.61 143.124C1584.03 142.708 1584.35 142.345 1584.57 142.036C1584.78 141.716 1584.92 141.417 1585 141.14C1585.07 140.863 1585.11 140.601 1585.11 140.356C1585.11 139.705 1584.89 139.193 1584.44 138.82C1584 138.447 1583.35 138.26 1582.49 138.26C1581.83 138.26 1581.24 138.361 1580.73 138.564C1580.23 138.767 1579.79 139.081 1579.43 139.508L1578.61 138.804C1579.05 138.292 1579.61 137.897 1580.29 137.62C1580.98 137.343 1581.74 137.204 1582.58 137.204C1583.34 137.204 1584 137.327 1584.55 137.572C1585.11 137.807 1585.53 138.153 1585.83 138.612C1586.14 139.071 1586.29 139.609 1586.29 140.228C1586.29 140.591 1586.24 140.948 1586.13 141.3C1586.04 141.652 1585.86 142.025 1585.59 142.42C1585.33 142.804 1584.96 143.241 1584.45 143.732L1580.18 147.924L1579.86 147.476H1586.81V148.5H1578.95ZM1591.6 148.596C1590.79 148.596 1590.02 148.468 1589.29 148.212C1588.58 147.945 1588 147.593 1587.56 147.156L1588.12 146.244C1588.49 146.617 1588.97 146.927 1589.58 147.172C1590.2 147.417 1590.87 147.54 1591.6 147.54C1592.52 147.54 1593.23 147.337 1593.72 146.932C1594.23 146.527 1594.48 145.983 1594.48 145.3C1594.48 144.617 1594.23 144.073 1593.74 143.668C1593.26 143.263 1592.5 143.06 1591.45 143.06H1590.65V142.212L1594.11 137.876L1594.27 138.324H1588.03V137.3H1595.23V138.116L1591.77 142.452L1591.21 142.084H1591.64C1592.99 142.084 1593.99 142.383 1594.65 142.98C1595.32 143.577 1595.66 144.345 1595.66 145.284C1595.66 145.913 1595.51 146.479 1595.21 146.98C1594.91 147.481 1594.46 147.876 1593.85 148.164C1593.26 148.452 1592.5 148.596 1591.6 148.596ZM1601.6 144.66V143.668H1605.79V144.66H1601.6ZM1611.56 148.5V147.684L1616.22 143.124C1616.64 142.708 1616.96 142.345 1617.18 142.036C1617.39 141.716 1617.53 141.417 1617.61 141.14C1617.68 140.863 1617.72 140.601 1617.72 140.356C1617.72 139.705 1617.5 139.193 1617.05 138.82C1616.61 138.447 1615.96 138.26 1615.1 138.26C1614.44 138.26 1613.85 138.361 1613.34 138.564C1612.84 138.767 1612.4 139.081 1612.04 139.508L1611.22 138.804C1611.66 138.292 1612.22 137.897 1612.9 137.62C1613.59 137.343 1614.35 137.204 1615.19 137.204C1615.95 137.204 1616.61 137.327 1617.16 137.572C1617.72 137.807 1618.14 138.153 1618.44 138.612C1618.75 139.071 1618.9 139.609 1618.9 140.228C1618.9 140.591 1618.85 140.948 1618.74 141.3C1618.65 141.652 1618.47 142.025 1618.2 142.42C1617.94 142.804 1617.57 143.241 1617.06 143.732L1612.79 147.924L1612.47 147.476H1619.42V148.5H1611.56ZM1625.29 148.596C1624.43 148.596 1623.66 148.372 1622.99 147.924C1622.32 147.465 1621.79 146.815 1621.41 145.972C1621.02 145.119 1620.83 144.095 1620.83 142.9C1620.83 141.705 1621.02 140.687 1621.41 139.844C1621.79 138.991 1622.32 138.34 1622.99 137.892C1623.66 137.433 1624.43 137.204 1625.29 137.204C1626.16 137.204 1626.93 137.433 1627.6 137.892C1628.27 138.34 1628.8 138.991 1629.18 139.844C1629.58 140.687 1629.77 141.705 1629.77 142.9C1629.77 144.095 1629.58 145.119 1629.18 145.972C1628.8 146.815 1628.27 147.465 1627.6 147.924C1626.93 148.372 1626.16 148.596 1625.29 148.596ZM1625.29 147.54C1625.96 147.54 1626.53 147.364 1627.02 147.012C1627.51 146.649 1627.9 146.127 1628.17 145.444C1628.45 144.751 1628.59 143.903 1628.59 142.9C1628.59 141.897 1628.45 141.055 1628.17 140.372C1627.9 139.679 1627.51 139.156 1627.02 138.804C1626.53 138.441 1625.96 138.26 1625.29 138.26C1624.65 138.26 1624.08 138.441 1623.58 138.804C1623.08 139.156 1622.69 139.679 1622.41 140.372C1622.14 141.055 1622 141.897 1622 142.9C1622 143.903 1622.14 144.751 1622.41 145.444C1622.69 146.127 1623.08 146.649 1623.58 147.012C1624.08 147.364 1624.65 147.54 1625.29 147.54ZM1631.22 148.5V147.684L1635.87 143.124C1636.3 142.708 1636.62 142.345 1636.83 142.036C1637.05 141.716 1637.19 141.417 1637.26 141.14C1637.34 140.863 1637.38 140.601 1637.38 140.356C1637.38 139.705 1637.15 139.193 1636.7 138.82C1636.27 138.447 1635.62 138.26 1634.75 138.26C1634.09 138.26 1633.5 138.361 1632.99 138.564C1632.49 138.767 1632.06 139.081 1631.7 139.508L1630.88 138.804C1631.32 138.292 1631.88 137.897 1632.56 137.62C1633.24 137.343 1634.01 137.204 1634.85 137.204C1635.61 137.204 1636.26 137.327 1636.82 137.572C1637.37 137.807 1637.8 138.153 1638.1 138.612C1638.41 139.071 1638.56 139.609 1638.56 140.228C1638.56 140.591 1638.51 140.948 1638.4 141.3C1638.3 141.652 1638.12 142.025 1637.86 142.42C1637.6 142.804 1637.22 143.241 1636.72 143.732L1632.45 147.924L1632.13 147.476H1639.07V148.5H1631.22ZM1645.08 148.596C1644.09 148.596 1643.25 148.377 1642.57 147.94C1641.88 147.492 1641.37 146.852 1641.02 146.02C1640.66 145.177 1640.49 144.169 1640.49 142.996C1640.49 141.727 1640.7 140.665 1641.13 139.812C1641.56 138.948 1642.17 138.297 1642.94 137.86C1643.7 137.423 1644.59 137.204 1645.61 137.204C1646.11 137.204 1646.59 137.252 1647.05 137.348C1647.51 137.444 1647.91 137.599 1648.26 137.812L1647.8 138.74C1647.51 138.548 1647.18 138.415 1646.81 138.34C1646.43 138.255 1646.04 138.212 1645.62 138.212C1644.42 138.212 1643.45 138.596 1642.73 139.364C1642.01 140.132 1641.66 141.279 1641.66 142.804C1641.66 143.039 1641.67 143.332 1641.69 143.684C1641.72 144.025 1641.78 144.367 1641.88 144.708L1641.48 144.404C1641.6 143.849 1641.83 143.38 1642.17 142.996C1642.51 142.601 1642.94 142.303 1643.45 142.1C1643.96 141.897 1644.52 141.796 1645.13 141.796C1645.87 141.796 1646.53 141.935 1647.1 142.212C1647.66 142.489 1648.1 142.879 1648.42 143.38C1648.74 143.881 1648.9 144.473 1648.9 145.156C1648.9 145.849 1648.74 146.457 1648.41 146.98C1648.08 147.492 1647.62 147.892 1647.03 148.18C1646.46 148.457 1645.8 148.596 1645.08 148.596ZM1645.03 147.62C1645.56 147.62 1646.03 147.524 1646.44 147.332C1646.86 147.129 1647.18 146.847 1647.42 146.484C1647.65 146.111 1647.77 145.679 1647.77 145.188C1647.77 144.452 1647.51 143.865 1647 143.428C1646.5 142.991 1645.82 142.772 1644.95 142.772C1644.38 142.772 1643.87 142.879 1643.45 143.092C1643.02 143.305 1642.68 143.599 1642.44 143.972C1642.19 144.335 1642.07 144.751 1642.07 145.22C1642.07 145.625 1642.18 146.015 1642.41 146.388C1642.63 146.751 1642.96 147.049 1643.4 147.284C1643.85 147.508 1644.39 147.62 1645.03 147.62ZM1663.67 148.5V137.3H1664.84V148.5H1663.67ZM1655.48 148.5V137.3H1656.66V148.5H1655.48ZM1656.54 143.332V142.292H1663.78V143.332H1656.54ZM1673.57 148.5V146.644L1673.52 146.34V143.236C1673.52 142.521 1673.31 141.972 1672.91 141.588C1672.51 141.204 1671.92 141.012 1671.13 141.012C1670.59 141.012 1670.07 141.103 1669.58 141.284C1669.09 141.465 1668.67 141.705 1668.33 142.004L1667.82 141.156C1668.25 140.793 1668.76 140.516 1669.36 140.324C1669.95 140.121 1670.58 140.02 1671.25 140.02C1672.33 140.02 1673.17 140.292 1673.76 140.836C1674.35 141.369 1674.65 142.185 1674.65 143.284V148.5H1673.57ZM1670.67 148.58C1670.04 148.58 1669.49 148.479 1669.02 148.276C1668.56 148.063 1668.21 147.775 1667.97 147.412C1667.72 147.039 1667.6 146.612 1667.6 146.132C1667.6 145.695 1667.7 145.3 1667.9 144.948C1668.11 144.585 1668.46 144.297 1668.93 144.084C1669.41 143.86 1670.05 143.748 1670.85 143.748H1673.74V144.596H1670.88C1670.07 144.596 1669.5 144.74 1669.18 145.028C1668.87 145.316 1668.72 145.673 1668.72 146.1C1668.72 146.58 1668.9 146.964 1669.28 147.252C1669.65 147.54 1670.17 147.684 1670.85 147.684C1671.49 147.684 1672.03 147.54 1672.49 147.252C1672.96 146.953 1673.3 146.527 1673.52 145.972L1673.77 146.756C1673.56 147.311 1673.19 147.753 1672.65 148.084C1672.13 148.415 1671.47 148.58 1670.67 148.58ZM1679.93 148.596C1679.33 148.596 1678.72 148.511 1678.13 148.34C1677.53 148.169 1677 147.908 1676.54 147.556L1676.91 146.708C1677.31 147.007 1677.78 147.236 1678.32 147.396C1678.85 147.545 1679.38 147.62 1679.9 147.62C1680.42 147.609 1680.88 147.535 1681.26 147.396C1681.65 147.257 1681.94 147.065 1682.16 146.82C1682.37 146.575 1682.48 146.297 1682.48 145.988C1682.48 145.54 1682.27 145.193 1681.87 144.948C1681.46 144.692 1680.91 144.564 1680.21 144.564H1678.53V143.732H1680.13C1680.54 143.732 1680.91 143.679 1681.23 143.572C1681.55 143.465 1681.79 143.311 1681.97 143.108C1682.15 142.905 1682.24 142.665 1682.24 142.388C1682.24 142.089 1682.13 141.833 1681.92 141.62C1681.71 141.407 1681.43 141.247 1681.07 141.14C1680.71 141.033 1680.3 140.98 1679.84 140.98C1679.42 140.991 1678.99 141.055 1678.54 141.172C1678.09 141.279 1677.65 141.444 1677.21 141.668L1676.89 140.788C1677.38 140.532 1677.87 140.34 1678.35 140.212C1678.84 140.073 1679.33 140.004 1679.82 140.004C1680.49 139.983 1681.1 140.063 1681.63 140.244C1682.17 140.425 1682.61 140.687 1682.93 141.028C1683.25 141.359 1683.41 141.759 1683.41 142.228C1683.41 142.644 1683.28 143.007 1683.02 143.316C1682.77 143.625 1682.42 143.865 1682 144.036C1681.57 144.207 1681.09 144.292 1680.54 144.292L1680.59 143.988C1681.55 143.988 1682.3 144.175 1682.83 144.548C1683.37 144.921 1683.65 145.428 1683.65 146.068C1683.65 146.569 1683.48 147.012 1683.15 147.396C1682.82 147.769 1682.37 148.063 1681.81 148.276C1681.25 148.489 1680.63 148.596 1679.93 148.596ZM1686.22 148.5V140.1H1689.94C1690.89 140.1 1691.63 140.281 1692.18 140.644C1692.73 141.007 1693.01 141.54 1693.01 142.244C1693.01 142.927 1692.75 143.455 1692.22 143.828C1691.7 144.191 1691.01 144.372 1690.16 144.372L1690.38 144.036C1691.39 144.036 1692.12 144.223 1692.59 144.596C1693.06 144.969 1693.3 145.508 1693.3 146.212C1693.3 146.937 1693.03 147.503 1692.5 147.908C1691.97 148.303 1691.16 148.5 1690.05 148.5H1686.22ZM1687.33 147.604H1690C1690.71 147.604 1691.25 147.492 1691.62 147.268C1691.99 147.033 1692.18 146.66 1692.18 146.148C1692.18 145.636 1692.01 145.263 1691.68 145.028C1691.35 144.793 1690.83 144.676 1690.11 144.676H1687.33V147.604ZM1687.33 143.828H1689.86C1690.51 143.828 1691 143.705 1691.34 143.46C1691.7 143.215 1691.87 142.857 1691.87 142.388C1691.87 141.919 1691.7 141.567 1691.34 141.332C1691 141.097 1690.51 140.98 1689.86 140.98H1687.33V143.828ZM1701.17 148.5V146.644L1701.13 146.34V143.236C1701.13 142.521 1700.92 141.972 1700.52 141.588C1700.12 141.204 1699.53 141.012 1698.74 141.012C1698.2 141.012 1697.68 141.103 1697.19 141.284C1696.7 141.465 1696.28 141.705 1695.94 142.004L1695.43 141.156C1695.86 140.793 1696.37 140.516 1696.97 140.324C1697.56 140.121 1698.19 140.02 1698.85 140.02C1699.94 140.02 1700.78 140.292 1701.37 140.836C1701.96 141.369 1702.26 142.185 1702.26 143.284V148.5H1701.17ZM1698.28 148.58C1697.65 148.58 1697.1 148.479 1696.63 148.276C1696.17 148.063 1695.82 147.775 1695.57 147.412C1695.33 147.039 1695.21 146.612 1695.21 146.132C1695.21 145.695 1695.31 145.3 1695.51 144.948C1695.72 144.585 1696.07 144.297 1696.53 144.084C1697.01 143.86 1697.65 143.748 1698.45 143.748H1701.35V144.596H1698.49C1697.68 144.596 1697.11 144.74 1696.79 145.028C1696.48 145.316 1696.33 145.673 1696.33 146.1C1696.33 146.58 1696.51 146.964 1696.89 147.252C1697.26 147.54 1697.78 147.684 1698.45 147.684C1699.09 147.684 1699.64 147.54 1700.1 147.252C1700.57 146.953 1700.91 146.527 1701.13 145.972L1701.38 146.756C1701.17 147.311 1700.8 147.753 1700.26 148.084C1699.74 148.415 1699.08 148.58 1698.28 148.58ZM1705.29 148.5V140.1H1706.42V143.812H1711.72V140.1H1712.85V148.5H1711.72V144.788H1706.42V148.5H1705.29ZM1716.08 148.5V140.1H1717.22V146.772L1722.84 140.1H1723.84V148.5H1722.71V141.812L1717.11 148.5H1716.08ZM1730.7 148.58C1729.82 148.58 1729.06 148.399 1728.4 148.036C1727.73 147.663 1727.22 147.156 1726.84 146.516C1726.47 145.865 1726.28 145.124 1726.28 144.292C1726.28 143.46 1726.46 142.724 1726.81 142.084C1727.17 141.444 1727.66 140.943 1728.28 140.58C1728.91 140.207 1729.62 140.02 1730.4 140.02C1731.18 140.02 1731.88 140.201 1732.49 140.564C1733.11 140.916 1733.6 141.417 1733.95 142.068C1734.3 142.708 1734.48 143.449 1734.48 144.292C1734.48 144.345 1734.47 144.404 1734.46 144.468C1734.46 144.521 1734.46 144.58 1734.46 144.644H1727.15V143.796H1733.85L1733.4 144.132C1733.4 143.524 1733.27 142.985 1733 142.516C1732.75 142.036 1732.4 141.663 1731.95 141.396C1731.5 141.129 1730.98 140.996 1730.4 140.996C1729.82 140.996 1729.3 141.129 1728.84 141.396C1728.38 141.663 1728.03 142.036 1727.77 142.516C1727.52 142.996 1727.39 143.545 1727.39 144.164V144.34C1727.39 144.98 1727.53 145.545 1727.8 146.036C1728.09 146.516 1728.49 146.895 1728.99 147.172C1729.5 147.439 1730.08 147.572 1730.73 147.572C1731.24 147.572 1731.72 147.481 1732.16 147.3C1732.6 147.119 1732.99 146.841 1733.31 146.468L1733.95 147.204C1733.57 147.652 1733.1 147.993 1732.54 148.228C1731.98 148.463 1731.37 148.58 1730.7 148.58ZM1747.34 148.5L1743.88 144.34L1744.83 143.78L1748.68 148.5H1747.34ZM1741.18 148.5V140.1H1742.31V148.5H1741.18ZM1741.96 144.756V143.78H1744.67V144.756H1741.96ZM1744.92 144.42L1743.87 144.26L1747.21 140.1H1748.44L1744.92 144.42ZM1753.66 148.58C1752.85 148.58 1752.12 148.399 1751.47 148.036C1750.83 147.663 1750.33 147.156 1749.95 146.516C1749.58 145.865 1749.39 145.124 1749.39 144.292C1749.39 143.449 1749.58 142.708 1749.95 142.068C1750.33 141.428 1750.83 140.927 1751.47 140.564C1752.11 140.201 1752.84 140.02 1753.66 140.02C1754.5 140.02 1755.23 140.201 1755.87 140.564C1756.52 140.927 1757.03 141.428 1757.39 142.068C1757.77 142.708 1757.95 143.449 1757.95 144.292C1757.95 145.124 1757.77 145.865 1757.39 146.516C1757.03 147.156 1756.52 147.663 1755.87 148.036C1755.22 148.399 1754.49 148.58 1753.66 148.58ZM1753.66 147.572C1754.27 147.572 1754.81 147.439 1755.28 147.172C1755.75 146.895 1756.12 146.511 1756.38 146.02C1756.66 145.519 1756.8 144.943 1756.8 144.292C1756.8 143.631 1756.66 143.055 1756.38 142.564C1756.12 142.073 1755.75 141.695 1755.28 141.428C1754.81 141.151 1754.28 141.012 1753.68 141.012C1753.08 141.012 1752.55 141.151 1752.08 141.428C1751.61 141.695 1751.24 142.073 1750.96 142.564C1750.68 143.055 1750.54 143.631 1750.54 144.292C1750.54 144.943 1750.68 145.519 1750.96 146.02C1751.24 146.511 1751.61 146.895 1752.08 147.172C1752.55 147.439 1753.08 147.572 1753.66 147.572ZM1760.38 148.5V140.1H1761.53L1765.34 146.548H1764.86L1768.73 140.1H1769.79V148.5H1768.75V141.396L1768.96 141.492L1765.34 147.476H1764.83L1761.18 141.428L1761.42 141.38V148.5H1760.38ZM1773.02 148.5V140.1H1780.57V148.5H1779.44V140.788L1779.73 141.092H1773.87L1774.16 140.788V148.5H1773.02ZM1789.02 148.5V146.644L1788.97 146.34V143.236C1788.97 142.521 1788.77 141.972 1788.36 141.588C1787.97 141.204 1787.38 141.012 1786.59 141.012C1786.04 141.012 1785.53 141.103 1785.03 141.284C1784.54 141.465 1784.13 141.705 1783.79 142.004L1783.27 141.156C1783.7 140.793 1784.21 140.516 1784.81 140.324C1785.41 140.121 1786.04 140.02 1786.7 140.02C1787.79 140.02 1788.62 140.292 1789.21 140.836C1789.81 141.369 1790.11 142.185 1790.11 143.284V148.5H1789.02ZM1786.12 148.58C1785.49 148.58 1784.94 148.479 1784.47 148.276C1784.02 148.063 1783.66 147.775 1783.42 147.412C1783.17 147.039 1783.05 146.612 1783.05 146.132C1783.05 145.695 1783.15 145.3 1783.35 144.948C1783.57 144.585 1783.91 144.297 1784.38 144.084C1784.86 143.86 1785.5 143.748 1786.3 143.748H1789.19V144.596H1786.33C1785.52 144.596 1784.95 144.74 1784.63 145.028C1784.33 145.316 1784.17 145.673 1784.17 146.1C1784.17 146.58 1784.36 146.964 1784.73 147.252C1785.1 147.54 1785.63 147.684 1786.3 147.684C1786.94 147.684 1787.49 147.54 1787.95 147.252C1788.42 146.953 1788.76 146.527 1788.97 145.972L1789.23 146.756C1789.01 147.311 1788.64 147.753 1788.11 148.084C1787.58 148.415 1786.92 148.58 1786.12 148.58ZM1793.13 148.5V140.1H1794.27V143.812H1799.56V140.1H1800.7V148.5H1799.56V144.788H1794.27V148.5H1793.13ZM1803.93 148.5V140.1H1805.06V146.772L1810.68 140.1H1811.69V148.5H1810.55V141.812L1804.95 148.5H1803.93ZM1814.94 148.5V140.1H1816.08V146.772L1821.69 140.1H1822.7V148.5H1821.57V141.812L1815.97 148.5H1814.94Z" fill="white" fill-opacity="0.7"/>
<defs>
<filter id="filter0_d_2157_1784" x="-51" y="0" width="2022" height="276" filterUnits="userSpaceOnUse" color-interpolation-filters="sRGB">
<feFlood flood-opacity="0" result="BackgroundImageFix"/>
<feColorMatrix in="SourceAlpha" type="matrix" values="0 0 0 0 0 0 0 0 0 0 0 0 0 0 0 0 0 0 127 0" result="hardAlpha"/>
<feMorphology radius="1" operator="dilate" in="SourceAlpha" result="effect1_dropShadow_2157_1784"/>
<feOffset/>
<feGaussianBlur stdDeviation="25"/>
<feComposite in2="hardAlpha" operator="out"/>
<feColorMatrix type="matrix" values="0 0 0 0 0 0 0 0 0 0 0 0 0 0 0 0 0 0 0.2 0"/>
<feBlend mode="normal" in2="BackgroundImageFix" result="effect1_dropShadow_2157_1784"/>
<feBlend mode="normal" in="SourceGraphic" in2="effect1_dropShadow_2157_1784" result="shape"/>
</filter>
</defs>
</svg>
