<svg width="176" height="100" viewBox="0 0 176 100" fill="none" xmlns="http://www.w3.org/2000/svg">
<g clip-path="url(#clip0_2157_1526)">
<path d="M139.808 68.0942H36.1915C36.0921 68.1016 35.9922 68.0884 35.8981 68.0554C35.804 68.0224 35.7177 67.9704 35.6447 67.9025C35.5716 67.8347 35.5134 67.7525 35.4735 67.6611C35.4337 67.5697 35.4131 67.4711 35.4131 67.3714C35.4131 67.2717 35.4337 67.173 35.4735 67.0816C35.5134 66.9902 35.5716 66.908 35.6447 66.8402C35.7177 66.7724 35.804 66.7203 35.8981 66.6873C35.9922 66.6543 36.0921 66.6411 36.1915 66.6485H139.808C139.907 66.6411 140.007 66.6543 140.101 66.6873C140.195 66.7203 140.282 66.7724 140.355 66.8402C140.428 66.908 140.486 66.9902 140.526 67.0816C140.566 67.173 140.586 67.2717 140.586 67.3714C140.586 67.4711 140.566 67.5697 140.526 67.6611C140.486 67.7525 140.428 67.8347 140.355 67.9025C140.282 67.9704 140.195 68.0224 140.101 68.0554C140.007 68.0884 139.907 68.1016 139.808 68.0942Z" fill="white"/>
<path d="M139.808 87.0557H36.1915C36.0921 87.063 35.9922 87.0498 35.8981 87.0168C35.804 86.9838 35.7177 86.9318 35.6447 86.8639C35.5716 86.7961 35.5134 86.7139 35.4735 86.6225C35.4337 86.5311 35.4131 86.4325 35.4131 86.3328C35.4131 86.2331 35.4337 86.1344 35.4735 86.043C35.5134 85.9517 35.5716 85.8695 35.6447 85.8016C35.7177 85.7338 35.804 85.6817 35.8981 85.6487C35.9922 85.6158 36.0921 85.6025 36.1915 85.6099H139.808C139.907 85.6025 140.007 85.6158 140.101 85.6487C140.195 85.6817 140.282 85.7338 140.355 85.8016C140.428 85.8695 140.486 85.9517 140.526 86.043C140.566 86.1344 140.586 86.2331 140.586 86.3328C140.586 86.4325 140.566 86.5311 140.526 86.6225C140.486 86.7139 140.428 86.7961 140.355 86.8639C140.282 86.9318 140.195 86.9838 140.101 87.0168C140.007 87.0498 139.907 87.063 139.808 87.0557Z" fill="url(#paint0_linear_2157_1526)"/>
<path d="M128.947 21.8808L118.687 11.7208L126.261 15.2025C126.433 15.2674 126.623 15.2646 126.793 15.1947C126.963 15.1248 127.1 14.9931 127.176 14.8261C127.252 14.6591 127.263 14.4693 127.205 14.2951C127.146 14.1209 127.024 13.9752 126.863 13.8875L113.736 7.85483L122.054 8.53612H122.114C122.305 8.544 122.491 8.47561 122.632 8.34598C122.773 8.21636 122.857 8.03612 122.864 7.84492C122.872 7.65373 122.804 7.46723 122.674 7.32647C122.545 7.1857 122.364 7.10219 122.173 7.09431L107.775 5.906L115.816 3.70367C115.997 3.64823 116.15 3.52382 116.241 3.35716C116.331 3.1905 116.353 2.9949 116.301 2.81235C116.249 2.6298 116.128 2.47487 115.963 2.38083C115.798 2.28679 115.603 2.26114 115.42 2.30939L101.485 6.12386L108.286 1.31518C108.364 1.2603 108.43 1.19059 108.481 1.11003C108.532 1.02947 108.567 0.939638 108.584 0.845662C108.6 0.751685 108.598 0.655405 108.577 0.562318C108.556 0.469231 108.517 0.381161 108.462 0.303135C108.407 0.22511 108.338 0.158658 108.257 0.107572C108.176 0.0564872 108.087 0.0217696 107.993 0.00540186C107.899 -0.0109659 107.802 -0.0086633 107.709 0.0121782C107.616 0.0330197 107.528 0.0719919 107.45 0.12687L95.6739 8.48463L100.427 1.63206C100.49 1.55451 100.535 1.46493 100.562 1.36889C100.588 1.27285 100.594 1.17242 100.58 1.07386C100.566 0.975295 100.532 0.880719 100.479 0.796026C100.427 0.711334 100.358 0.638342 100.276 0.581603C100.194 0.524864 100.101 0.485595 100.004 0.466246C99.9059 0.446896 99.8052 0.447881 99.708 0.469139C99.6107 0.490397 99.5188 0.531471 99.4381 0.589801C99.3574 0.648131 99.2896 0.722464 99.2389 0.808166L90.992 12.6754L93.1072 4.61075C93.1555 4.42533 93.1282 4.22831 93.0313 4.06303C92.9343 3.89775 92.7757 3.77774 92.5903 3.72942C92.4049 3.6811 92.2078 3.70841 92.0426 3.80535C91.8773 3.90229 91.7573 4.06092 91.709 4.24633L87.9975 18.3951L84.29 4.24633C84.2416 4.06092 84.1216 3.90229 83.9563 3.80535C83.7911 3.70841 83.594 3.6811 83.4086 3.72942C83.2232 3.77774 83.0646 3.89775 82.9676 4.06303C82.8707 4.22831 82.8434 4.42533 82.8917 4.61075L85.0069 12.6754L76.7838 0.792322C76.6689 0.649638 76.5041 0.555782 76.3228 0.529634C76.1414 0.503487 75.9569 0.546989 75.8063 0.651389C75.6558 0.755789 75.5503 0.913339 75.5112 1.09234C75.4721 1.27135 75.5022 1.45852 75.5955 1.61621L80.3487 8.46878L68.5488 0.134792C68.4708 0.079914 68.3828 0.0409418 68.2897 0.0201003C68.1966 -0.000741225 68.1003 -0.00304382 68.0063 0.0133239C67.9123 0.0296917 67.8225 0.0644093 67.742 0.115494C67.6614 0.16658 67.5917 0.233032 67.5368 0.311057C67.4819 0.389083 67.443 0.477153 67.4221 0.57024C67.4013 0.663327 67.399 0.759607 67.4153 0.853584C67.4317 0.947561 67.4664 1.03739 67.5175 1.11795C67.5686 1.19851 67.635 1.26822 67.7131 1.3231L74.5142 6.13178L60.5793 2.31732C60.3957 2.26906 60.2006 2.29471 60.0358 2.38875C59.8709 2.48279 59.7495 2.63772 59.6977 2.82027C59.6458 3.00282 59.6676 3.19843 59.7584 3.36508C59.8492 3.53174 60.0017 3.65615 60.1832 3.7116L68.224 5.91393L53.8257 7.10223C53.6345 7.10959 53.4541 7.19259 53.3241 7.33299C53.1941 7.47338 53.1252 7.65967 53.1325 7.85087C53.1399 8.04206 53.2229 8.22251 53.3633 8.3525C53.5037 8.4825 53.69 8.5514 53.8812 8.54404H53.9446L62.2627 7.86275L49.1359 13.8875C49.0391 13.919 48.9501 13.9705 48.8746 14.0386C48.7991 14.1068 48.7388 14.1901 48.6975 14.2831C48.6563 14.3761 48.6352 14.4767 48.6354 14.5784C48.6356 14.6802 48.6573 14.7807 48.6989 14.8735C48.7406 14.9663 48.8013 15.0493 48.8772 15.1171C48.953 15.1849 49.0423 15.236 49.1391 15.267C49.236 15.2981 49.3384 15.3084 49.4395 15.2973C49.5406 15.2861 49.6382 15.2539 49.7261 15.2025L57.2995 11.7208L47.0405 21.8808C46.9732 21.9478 46.9198 22.0274 46.8833 22.1151C46.8469 22.2028 46.8281 22.2968 46.8281 22.3918C46.8281 22.4867 46.8469 22.5808 46.8833 22.6685C46.9198 22.7561 46.9732 22.8358 47.0405 22.9028C47.1075 22.9712 47.1877 23.0254 47.2762 23.0621C47.3647 23.0989 47.4596 23.1174 47.5554 23.1166C47.7448 23.1169 47.9268 23.0429 48.0624 22.9107L54.004 17.0484L47.8089 30.1039C47.7665 30.1891 47.7415 30.2818 47.7353 30.3767C47.7291 30.4717 47.7418 30.5669 47.7728 30.6568C47.8038 30.7468 47.8523 30.8297 47.9157 30.9007C47.979 30.9717 48.0558 31.0294 48.1417 31.0704C48.2366 31.1168 48.3409 31.1412 48.4467 31.1417C48.5843 31.1416 48.7192 31.1024 48.8356 31.0288C48.9519 30.9552 49.0451 30.8501 49.1042 30.7258L52.6691 23.1998L51.3422 37.5783C51.3318 37.6735 51.3406 37.7698 51.368 37.8615C51.3954 37.9532 51.4409 38.0385 51.5019 38.1123C51.5628 38.1861 51.6378 38.247 51.7227 38.2914C51.8075 38.3357 51.9003 38.3627 51.9957 38.3706H52.0631C52.2431 38.3703 52.4165 38.3026 52.5492 38.1809C52.6818 38.0593 52.7642 37.8923 52.78 37.713L53.5524 29.3949L57.2164 43.3694C57.2559 43.5243 57.3459 43.6618 57.4721 43.76C57.5983 43.8582 57.7536 43.9117 57.9135 43.912C57.9763 43.9119 58.0389 43.904 58.0997 43.8883C58.2848 43.839 58.4429 43.7184 58.5394 43.5529C58.6359 43.3873 58.6629 43.1903 58.6146 43.0049L54.0396 25.5606C54.0153 25.4805 53.9793 25.4044 53.9327 25.3348L54.4516 19.7379C54.4598 19.654 54.4517 19.5692 54.4278 19.4884L56.8321 14.4103C56.8659 14.3336 56.8873 14.2521 56.8955 14.1687L60.8922 10.2077C60.9503 10.147 60.9985 10.0775 61.0348 10.0017L66.1405 7.65677C66.222 7.62735 66.2972 7.58303 66.3624 7.52606L71.9632 7.06658C72.0466 7.05837 72.1282 7.03698 72.2049 7.00321L77.6275 8.48463C77.6891 8.50354 77.7532 8.51289 77.8176 8.51236H77.8493L82.4322 11.7604C82.5024 11.8075 82.5801 11.8423 82.662 11.8634L84.2464 14.1568C84.2464 14.1568 84.2464 14.1925 84.2464 14.2123L85.3792 18.5298L80.4438 11.3999C80.3288 11.2573 80.1641 11.1634 79.9828 11.1373C79.8014 11.1111 79.6169 11.1546 79.4663 11.259C79.3157 11.3634 79.2103 11.521 79.1712 11.7C79.1321 11.879 79.1622 12.0661 79.2555 12.2238L81.8104 15.8799L74.732 10.8652C74.654 10.8103 74.5659 10.7714 74.4728 10.7505C74.3797 10.7297 74.2835 10.7274 74.1895 10.7437C74.0955 10.7601 74.0057 10.7948 73.9251 10.8459C73.8446 10.897 73.7748 10.9634 73.72 11.0415C73.6651 11.1195 73.6261 11.2076 73.6053 11.3007C73.5844 11.3937 73.5821 11.49 73.5985 11.584C73.6149 11.678 73.6496 11.7678 73.7007 11.8484C73.7518 11.9289 73.8182 11.9986 73.8962 12.0535L77.5404 14.6361L69.1707 12.3347C68.9858 12.2822 68.7876 12.3053 68.6198 12.3989C68.4519 12.4925 68.3281 12.6489 68.2755 12.8338C68.223 13.0187 68.2461 13.2169 68.3397 13.3848C68.4333 13.5527 68.5897 13.6765 68.7746 13.729L73.0803 14.9173L64.4492 15.6184C64.2656 15.6373 64.0962 15.7255 63.9754 15.865C63.8546 16.0045 63.7916 16.1849 63.7992 16.3693C63.8067 16.5536 63.8843 16.7282 64.0162 16.8573C64.148 16.9864 64.3241 17.0604 64.5086 17.0642H64.568L69.0202 16.6998L61.1378 20.3202C60.9883 20.3895 60.8669 20.5077 60.7936 20.6553C60.7204 20.8028 60.6995 20.971 60.7346 21.1319C60.7696 21.2929 60.8585 21.4372 60.9865 21.5409C61.1145 21.6446 61.2741 21.7016 61.4388 21.7026C61.543 21.7039 61.6461 21.6808 61.7398 21.6352L65.7999 19.7656L59.6286 25.8696C59.5613 25.9361 59.5077 26.0153 59.4709 26.1026C59.4342 26.1899 59.415 26.2836 59.4144 26.3783C59.4139 26.473 59.432 26.5669 59.4677 26.6546C59.5034 26.7423 59.5561 26.8222 59.6227 26.8895C59.6893 26.9569 59.7685 27.0105 59.8558 27.0472C59.943 27.084 60.0367 27.1032 60.1314 27.1037C60.2261 27.1043 60.32 27.0862 60.4078 27.0504C60.4955 27.0147 60.5753 26.962 60.6426 26.8955L63.8115 23.7544L60.1 31.5972C60.0186 31.7706 60.0091 31.9692 60.0737 32.1496C60.1383 32.3299 60.2716 32.4774 60.4446 32.5597C60.5411 32.6058 60.6466 32.6301 60.7536 32.631C60.8887 32.6329 61.0216 32.5967 61.1371 32.5267C61.2527 32.4567 61.3463 32.3556 61.4071 32.2349L63.3163 28.1986L62.5281 36.8376C62.5093 37.0288 62.5672 37.2196 62.689 37.3682C62.8108 37.5167 62.9866 37.6108 63.1777 37.6298H63.249C63.4356 37.6343 63.6166 37.5662 63.7541 37.4398C63.8915 37.3135 63.9745 37.1388 63.9857 36.9525L64.3819 32.5043L66.5842 40.8977C66.6239 41.0523 66.714 41.1892 66.8402 41.2868C66.9665 41.3843 67.1217 41.437 67.2813 41.4364C67.3441 41.4363 67.4067 41.4283 67.4675 41.4126C67.5594 41.3887 67.6458 41.3468 67.7215 41.2894C67.7972 41.232 67.8608 41.1601 67.9086 41.078C67.9565 40.996 67.9876 40.9052 68.0003 40.811C68.013 40.7169 68.0069 40.6211 67.9824 40.5293L64.8255 28.5195C64.8123 28.467 64.7923 28.4164 64.7661 28.369L65.1186 24.5585C65.1225 24.5031 65.1225 24.4475 65.1186 24.3921L66.7347 20.9935C66.7571 20.944 66.7744 20.8922 66.7862 20.8391L69.4876 18.1693C69.5252 18.1308 69.5584 18.0883 69.5866 18.0426L73.0367 16.4582C73.0861 16.4361 73.1326 16.4081 73.1753 16.375L76.9581 16.0621C77.0133 16.058 77.0678 16.0474 77.1205 16.0304L80.7805 17.0325C80.8332 17.0482 80.8879 17.0562 80.9429 17.0563L84.0404 19.2507C84.0857 19.2809 84.1334 19.3074 84.183 19.3299L86.3457 22.4512C86.376 22.4965 86.412 22.5377 86.4527 22.574L87.1062 25.0655C84.084 24 80.6141 24.4515 77.5998 26.337C75.14 27.8897 73.5477 30.092 73.5477 31.9418V33.3757C73.4129 33.2434 73.2315 33.1692 73.0426 33.1692C72.8537 33.1692 72.6724 33.2434 72.5376 33.3757L71.5355 34.3778C71.4005 34.5136 71.3247 34.6973 71.3247 34.8888C71.3247 35.0803 71.4005 35.264 71.5355 35.3998C71.6022 35.4676 71.6817 35.5214 71.7694 35.5581C71.8572 35.5949 71.9513 35.6138 72.0464 35.6138C72.1415 35.6138 72.2357 35.5949 72.3234 35.5581C72.4112 35.5214 72.4907 35.4676 72.5574 35.3998L73.5477 34.4135V35.5107C73.4129 35.3784 73.2315 35.3042 73.0426 35.3042C72.8537 35.3042 72.6724 35.3784 72.5376 35.5107L71.5355 36.5128C71.3999 36.6483 71.3238 36.8321 71.3238 37.0238C71.3238 37.2155 71.3999 37.3993 71.5355 37.5348C71.671 37.6703 71.8548 37.7464 72.0464 37.7464C72.2381 37.7464 72.4219 37.6703 72.5574 37.5348L73.5477 36.5445V37.6298C73.4124 37.4984 73.2312 37.4249 73.0426 37.4249C72.854 37.4249 72.6729 37.4984 72.5376 37.6298L71.5355 38.632C71.4005 38.7678 71.3247 38.9515 71.3247 39.1429C71.3247 39.3344 71.4005 39.5181 71.5355 39.6539C71.6713 39.7889 71.855 39.8646 72.0464 39.8646C72.2379 39.8646 72.4216 39.7889 72.5574 39.6539L73.5477 38.6637V39.7648C73.4129 39.6325 73.2315 39.5584 73.0426 39.5584C72.8537 39.5584 72.6724 39.6325 72.5376 39.7648L71.5553 40.7987C71.4203 40.9345 71.3445 41.1182 71.3445 41.3096C71.3445 41.5011 71.4203 41.6848 71.5553 41.8206C71.622 41.8884 71.7015 41.9422 71.7892 41.979C71.877 42.0157 71.9711 42.0346 72.0662 42.0346C72.1613 42.0346 72.2555 42.0157 72.3432 41.979C72.431 41.9422 72.5105 41.8884 72.5772 41.8206L73.5675 40.8343V41.9315C73.4327 41.7992 73.2513 41.725 73.0624 41.725C72.8735 41.725 72.6922 41.7992 72.5574 41.9315L71.5553 42.9297C71.4176 43.0652 71.3395 43.2498 71.338 43.443C71.3365 43.6361 71.4118 43.8219 71.5473 43.9596C71.6829 44.0972 71.8675 44.1753 72.0606 44.1768C72.2538 44.1783 72.4396 44.103 72.5772 43.9675L73.5675 42.9772V44.0744C73.4327 43.9421 73.2513 43.868 73.0624 43.868C72.8735 43.868 72.6922 43.9421 72.5574 44.0744L71.5553 45.0766C71.4203 45.2124 71.3445 45.3961 71.3445 45.5875C71.3445 45.779 71.4203 45.9627 71.5553 46.0985C71.6911 46.2335 71.8748 46.3092 72.0662 46.3092C72.2577 46.3092 72.4414 46.2335 72.5772 46.0985L73.5675 45.1082V46.2055C73.4322 46.0741 73.251 46.0006 73.0624 46.0006C72.8738 46.0006 72.6927 46.0741 72.5574 46.2055L71.5553 47.2076C71.4203 47.3434 71.3445 47.5271 71.3445 47.7186C71.3445 47.91 71.4203 48.0937 71.5553 48.2295C71.622 48.2973 71.7015 48.3512 71.7892 48.3879C71.877 48.4247 71.9711 48.4436 72.0662 48.4436C72.1613 48.4436 72.2555 48.4247 72.3432 48.3879C72.431 48.3512 72.5105 48.2973 72.5772 48.2295L73.0248 47.7819V48.3919C73.0383 48.5744 73.1203 48.745 73.2544 48.8695C73.3885 48.9941 73.5647 49.0633 73.7477 49.0633C73.9307 49.0633 74.1069 48.9941 74.241 48.8695C74.375 48.745 74.4571 48.5744 74.4706 48.3919V47.7819L74.9221 48.2295C74.9886 48.2977 75.0681 48.3517 75.1559 48.3885C75.2437 48.4252 75.3379 48.4439 75.4331 48.4434C75.576 48.4428 75.7155 48.4 75.8342 48.3203C75.9528 48.2406 76.0452 48.1276 76.0998 47.9955C76.1544 47.8635 76.1688 47.7182 76.1411 47.578C76.1133 47.4378 76.0448 47.309 75.9441 47.2076L74.9419 46.2055C74.8065 46.0729 74.6245 45.9986 74.4349 45.9986C74.2454 45.9986 74.0634 46.0729 73.9279 46.2055V45.1043L74.9221 46.0945C74.9888 46.1621 75.0684 46.2156 75.1562 46.2516C75.244 46.2877 75.3382 46.3057 75.4331 46.3045C75.576 46.305 75.7159 46.2629 75.8349 46.1838C75.9539 46.1046 76.0467 45.9918 76.1014 45.8598C76.1562 45.7278 76.1705 45.5824 76.1425 45.4423C76.1144 45.3021 76.0454 45.1734 75.9441 45.0726L74.9419 44.0705C74.807 43.9369 74.6248 43.862 74.4349 43.862C74.2451 43.862 74.0629 43.9369 73.9279 44.0705V42.9653L74.9221 43.9675C74.9893 44.0343 75.069 44.0873 75.1567 44.1233C75.2444 44.1594 75.3383 44.1777 75.4331 44.1774C75.576 44.1768 75.7155 44.1339 75.8342 44.0542C75.9528 43.9746 76.0452 43.8616 76.0998 43.7295C76.1544 43.5975 76.1688 43.4522 76.1411 43.312C76.1133 43.1718 76.0448 43.0429 75.9441 42.9416L74.9419 41.9394C74.8065 41.8069 74.6245 41.7326 74.4349 41.7326C74.2454 41.7326 74.0634 41.8069 73.9279 41.9394V40.8383L74.9221 41.8285C74.9886 41.8966 75.0681 41.9507 75.1559 41.9874C75.2437 42.0242 75.3379 42.0429 75.4331 42.0424C75.576 42.0418 75.7155 41.9989 75.8342 41.9193C75.9528 41.8396 76.0452 41.7266 76.0998 41.5945C76.1544 41.4625 76.1688 41.3172 76.1411 41.177C76.1133 41.0368 76.0448 40.9079 75.9441 40.8066L74.9419 39.8044C74.8065 39.6719 74.6245 39.5976 74.4349 39.5976C74.2454 39.5976 74.0634 39.6719 73.9279 39.8044V38.6874L74.9221 39.6777C74.9888 39.7453 75.0684 39.7987 75.1562 39.8348C75.244 39.8709 75.3382 39.8888 75.4331 39.8876C75.576 39.8881 75.7159 39.8461 75.8349 39.7669C75.9539 39.6877 76.0467 39.575 76.1014 39.4429C76.1562 39.3109 76.1705 39.1656 76.1425 39.0254C76.1144 38.8852 76.0454 38.7566 75.9441 38.6557L74.9419 37.6536C74.807 37.5201 74.6248 37.4452 74.4349 37.4452C74.2451 37.4452 74.0629 37.5201 73.9279 37.6536V36.5406L74.9221 37.5348C74.9893 37.6016 75.069 37.6546 75.1567 37.6906C75.2444 37.7267 75.3383 37.745 75.4331 37.7447C75.6242 37.7437 75.8074 37.6684 75.9441 37.5348C76.0791 37.399 76.1548 37.2153 76.1548 37.0238C76.1548 36.8323 76.0791 36.6486 75.9441 36.5128L74.9419 35.5107C74.8065 35.3781 74.6245 35.3039 74.4349 35.3039C74.2454 35.3039 74.0634 35.3781 73.9279 35.5107V34.3976L74.9221 35.3879C74.9886 35.456 75.0681 35.5101 75.1559 35.5468C75.2437 35.5836 75.3379 35.6023 75.4331 35.6018C75.576 35.6012 75.7155 35.5583 75.8342 35.4786C75.9528 35.3989 76.0452 35.286 76.0998 35.1539C76.1544 35.0218 76.1688 34.8766 76.1411 34.7364C76.1133 34.5962 76.0448 34.4673 75.9441 34.366L74.9419 33.3638C74.8065 33.2312 74.6245 33.157 74.4349 33.157C74.2454 33.157 74.0634 33.2312 73.9279 33.3638V31.922C73.9279 30.2188 75.4886 28.0917 77.8137 26.6261C80.7884 24.7486 84.2503 24.3366 87.2171 25.4695V25.5448V25.6715C84.9495 25.8461 82.8312 26.8698 81.2855 28.5381C79.7398 30.2065 78.8805 32.3966 78.8792 34.671V36.0732C78.7437 35.9406 78.5617 35.8663 78.3722 35.8663C78.1826 35.8663 78.0006 35.9406 77.8652 36.0732L76.863 37.0753C76.7281 37.2111 76.6523 37.3948 76.6523 37.5863C76.6523 37.7777 76.7281 37.9614 76.863 38.0972C76.9298 38.165 77.0093 38.2189 77.097 38.2556C77.1847 38.2924 77.2789 38.3113 77.374 38.3113C77.4691 38.3113 77.5633 38.2924 77.651 38.2556C77.7387 38.2189 77.8183 38.165 77.885 38.0972L78.8792 37.107V38.2081C78.7437 38.0756 78.5617 38.0013 78.3722 38.0013C78.1826 38.0013 78.0006 38.0756 77.8652 38.2081L76.863 39.2103C76.7275 39.3458 76.6514 39.5296 76.6514 39.7213C76.6514 39.9129 76.7275 40.0967 76.863 40.2322C76.9986 40.3677 77.1824 40.4439 77.374 40.4439C77.5657 40.4439 77.7495 40.3677 77.885 40.2322L78.8792 39.238V40.3431C78.7437 40.2106 78.5617 40.1363 78.3722 40.1363C78.1826 40.1363 78.0006 40.2106 77.8652 40.3431L76.863 41.3453C76.7281 41.4811 76.6523 41.6648 76.6523 41.8563C76.6523 42.0477 76.7281 42.2314 76.863 42.3672C76.9298 42.435 77.0093 42.4888 77.097 42.5256C77.1847 42.5623 77.2789 42.5813 77.374 42.5813C77.4691 42.5813 77.5633 42.5623 77.651 42.5256C77.7387 42.4888 77.8183 42.435 77.885 42.3672L78.8792 41.377V42.4781C78.7437 42.3456 78.5617 42.2713 78.3722 42.2713C78.1826 42.2713 78.0006 42.3456 77.8652 42.4781L76.863 43.4803C76.7281 43.6161 76.6523 43.7998 76.6523 43.9912C76.6523 44.1827 76.7281 44.3664 76.863 44.5022C76.9298 44.57 77.0093 44.6238 77.097 44.6606C77.1847 44.6973 77.2789 44.7163 77.374 44.7163C77.4691 44.7163 77.5633 44.6973 77.651 44.6606C77.7387 44.6238 77.8183 44.57 77.885 44.5022L78.8792 43.512V44.6131C78.7437 44.4805 78.5617 44.4063 78.3722 44.4063C78.1826 44.4063 78.0006 44.4805 77.8652 44.6131L76.863 45.6113C76.7376 45.7489 76.6699 45.9295 76.6741 46.1157C76.6782 46.3018 76.7538 46.4793 76.8852 46.6112C77.0166 46.7431 77.1937 46.8194 77.3799 46.8242C77.566 46.8291 77.7469 46.7621 77.885 46.6372L78.8792 45.643V46.7481C78.7442 46.6146 78.562 46.5397 78.3722 46.5397C78.1823 46.5397 78.0001 46.6146 77.8652 46.7481L76.863 47.7503C76.7281 47.8861 76.6523 48.0698 76.6523 48.2612C76.6523 48.4527 76.7281 48.6364 76.863 48.7722C76.9988 48.9072 77.1825 48.9829 77.374 48.9829C77.5655 48.9829 77.7492 48.9072 77.885 48.7722L78.8792 47.7819V48.8831C78.7437 48.7505 78.5617 48.6763 78.3722 48.6763C78.1826 48.6763 78.0006 48.7505 77.8652 48.8831L76.863 49.8852C76.7281 50.0211 76.6523 50.2048 76.6523 50.3962C76.6523 50.5877 76.7281 50.7714 76.863 50.9072C76.9298 50.975 77.0093 51.0288 77.097 51.0656C77.1847 51.1023 77.2789 51.1212 77.374 51.1212C77.4691 51.1212 77.5633 51.1023 77.651 51.0656C77.7387 51.0288 77.8183 50.975 77.885 50.9072L78.3365 50.4596V51.0696C78.3501 51.2521 78.4321 51.4227 78.5662 51.5472C78.7002 51.6717 78.8764 51.7409 79.0594 51.7409C79.2424 51.7409 79.4186 51.6717 79.5527 51.5472C79.6868 51.4227 79.7688 51.2521 79.7823 51.0696V50.4596L80.2299 50.9072C80.2964 50.9753 80.3759 51.0294 80.4636 51.0661C80.5514 51.1028 80.6457 51.1215 80.7409 51.1211C80.8838 51.1205 81.0233 51.0776 81.1419 50.9979C81.2606 50.9182 81.353 50.8053 81.4076 50.6732C81.4622 50.5411 81.4765 50.3959 81.4488 50.2557C81.4211 50.1155 81.3526 49.9866 81.2519 49.8852L80.2497 48.8831C80.1149 48.7508 79.9336 48.6766 79.7447 48.6766C79.5558 48.6766 79.3744 48.7508 79.2397 48.8831V47.7819L80.2299 48.7722C80.2966 48.8398 80.3762 48.8932 80.464 48.9293C80.5518 48.9654 80.646 48.9833 80.7409 48.9821C80.8838 48.9826 81.0237 48.9406 81.1427 48.8614C81.2617 48.7822 81.3544 48.6695 81.4092 48.5374C81.464 48.4054 81.4783 48.2601 81.4502 48.1199C81.4222 47.9798 81.3532 47.8511 81.2519 47.7503L80.2497 46.7481C80.1144 46.6167 79.9333 46.5432 79.7447 46.5432C79.5561 46.5432 79.3749 46.6167 79.2397 46.7481V45.7103L80.2299 46.7006C80.2971 46.7675 80.3768 46.8204 80.4645 46.8564C80.5522 46.8925 80.6461 46.9108 80.7409 46.9105C80.8838 46.9099 81.0233 46.867 81.1419 46.7873C81.2606 46.7077 81.353 46.5947 81.4076 46.4626C81.4622 46.3306 81.4765 46.1853 81.4488 46.0451C81.4211 45.9049 81.3526 45.776 81.2519 45.6747L80.2497 44.6765C80.1149 44.5442 79.9336 44.47 79.7447 44.47C79.5558 44.47 79.3744 44.5442 79.2397 44.6765V43.5714L80.2299 44.5577C80.2964 44.6258 80.3759 44.6798 80.4636 44.7166C80.5514 44.7533 80.6457 44.772 80.7409 44.7716C80.8838 44.7709 81.0233 44.7281 81.1419 44.6484C81.2606 44.5687 81.353 44.4557 81.4076 44.3237C81.4622 44.1916 81.4765 44.0463 81.4488 43.9062C81.4211 43.766 81.3526 43.6371 81.2519 43.5357L80.2497 42.5336C80.1149 42.4013 79.9336 42.3271 79.7447 42.3271C79.5558 42.3271 79.3744 42.4013 79.2397 42.5336V41.4324L80.2299 42.4227C80.2964 42.4908 80.3759 42.5448 80.4636 42.5816C80.5514 42.6183 80.6457 42.637 80.7409 42.6366C80.8838 42.6359 81.0233 42.5931 81.1419 42.5134C81.2606 42.4337 81.353 42.3207 81.4076 42.1887C81.4622 42.0566 81.4765 41.9114 81.4488 41.7712C81.4211 41.631 81.3526 41.5021 81.2519 41.4007L80.2537 40.4026C80.1184 40.2712 79.9372 40.1977 79.7486 40.1977C79.5601 40.1977 79.3789 40.2712 79.2436 40.4026V39.2776L80.2339 40.2679C80.3011 40.3348 80.3808 40.3877 80.4684 40.4237C80.5561 40.4598 80.65 40.4781 80.7448 40.4778C80.9359 40.4768 81.1192 40.4015 81.2558 40.2679C81.3908 40.1321 81.4665 39.9484 81.4665 39.7569C81.4665 39.5654 81.3908 39.3817 81.2558 39.2459L80.2537 38.2438C80.1189 38.1115 79.9375 38.0373 79.7486 38.0373C79.5597 38.0373 79.3784 38.1115 79.2436 38.2438V37.1347L80.2339 38.121C80.3003 38.1891 80.3798 38.2432 80.4676 38.2799C80.5554 38.3167 80.6497 38.3354 80.7448 38.3349C80.8877 38.3343 81.0273 38.2914 81.1459 38.2117C81.2645 38.132 81.3569 38.0191 81.4115 37.887C81.4661 37.7549 81.4805 37.6097 81.4528 37.4695C81.4251 37.3293 81.3565 37.2004 81.2558 37.0991L80.2537 36.0969C80.1189 35.9646 79.9375 35.8905 79.7486 35.8905C79.5597 35.8905 79.3784 35.9646 79.2436 36.0969V34.6551C79.2542 32.4921 80.0726 30.4111 81.5381 28.8202C83.0037 27.2293 85.0108 26.2434 87.1657 26.0557C87.1658 26.1159 87.1738 26.1759 87.1894 26.234L85.6565 46.4352C85.6504 46.4918 85.6504 46.5489 85.6565 46.6055C85.6565 46.6055 85.6565 46.6451 85.6565 46.661L84.0721 67.2979C84.0642 67.3957 84.0766 67.4941 84.1087 67.5868C84.1407 67.6795 84.1917 67.7646 84.2583 67.8366C84.3242 67.9093 84.4041 67.9678 84.4933 68.0087C84.5825 68.0495 84.6791 68.0718 84.7772 68.0743L91.5109 68.2089C91.6094 68.2086 91.7068 68.1885 91.7973 68.1497C91.8878 68.1109 91.9696 68.0543 92.0377 67.9832C92.1067 67.9084 92.1595 67.8202 92.1929 67.7241C92.2263 67.628 92.2395 67.5261 92.2318 67.4247L88.7501 26.3845C88.8035 26.2845 88.832 26.1731 88.8332 26.0597C90.9556 26.2918 92.9177 27.2988 94.3437 28.8878C95.7696 30.4767 96.5592 32.536 96.5612 34.671V36.085C96.4257 35.9525 96.2437 35.8782 96.0542 35.8782C95.8647 35.8782 95.6826 35.9525 95.5472 36.085L94.545 37.0872C94.4443 37.1885 94.3758 37.3174 94.3481 37.4576C94.3204 37.5978 94.3347 37.7431 94.3893 37.8751C94.4439 38.0072 94.5363 38.1202 94.655 38.1999C94.7736 38.2795 94.9131 38.3224 95.056 38.323C95.1512 38.3235 95.2455 38.3048 95.3333 38.268C95.421 38.2313 95.5005 38.1772 95.567 38.1091L96.5612 37.1189V38.224C96.4262 38.0905 96.2441 38.0156 96.0542 38.0156C95.8643 38.0156 95.6821 38.0905 95.5472 38.224L94.545 39.2261C94.4101 39.3619 94.3343 39.5456 94.3343 39.7371C94.3343 39.9286 94.4101 40.1123 94.545 40.2481C94.6817 40.3817 94.8649 40.457 95.056 40.458C95.1508 40.4583 95.2447 40.4399 95.3324 40.4039C95.4201 40.3679 95.4998 40.3149 95.567 40.2481L96.5612 39.2539V40.359C96.4262 40.2255 96.2441 40.1506 96.0542 40.1506C95.8643 40.1506 95.6821 40.2255 95.5472 40.359L94.545 41.3611C94.4443 41.4625 94.3758 41.5914 94.3481 41.7316C94.3204 41.8717 94.3347 42.017 94.3893 42.1491C94.4439 42.2811 94.5363 42.3941 94.655 42.4738C94.7736 42.5535 94.9131 42.5963 95.056 42.597C95.1512 42.5974 95.2455 42.5787 95.3333 42.542C95.421 42.5052 95.5005 42.4512 95.567 42.3831L96.5612 41.3928V42.494C96.4257 42.3614 96.2437 42.2872 96.0542 42.2872C95.8647 42.2872 95.6826 42.3614 95.5472 42.494L94.545 43.4961C94.4443 43.5975 94.3758 43.7263 94.3481 43.8665C94.3204 44.0067 94.3347 44.152 94.3893 44.2841C94.4439 44.4161 94.5363 44.5291 94.655 44.6088C94.7736 44.6885 94.9131 44.7313 95.056 44.732C95.1512 44.7324 95.2455 44.7137 95.3333 44.677C95.421 44.6402 95.5005 44.5862 95.567 44.5181L96.5612 43.5278V44.629C96.4257 44.4964 96.2437 44.4221 96.0542 44.4221C95.8647 44.4221 95.6826 44.4964 95.5472 44.629L94.545 45.6271C94.4196 45.7648 94.3519 45.9454 94.3561 46.1315C94.3602 46.3177 94.4358 46.4951 94.5672 46.627C94.6986 46.7589 94.8758 46.8352 95.0619 46.8401C95.248 46.8449 95.4289 46.778 95.567 46.653L96.5612 45.6588V46.764C96.4262 46.6304 96.2441 46.5555 96.0542 46.5555C95.8643 46.5555 95.6821 46.6304 95.5472 46.764L94.545 47.7661C94.4437 47.8669 94.3747 47.9956 94.3467 48.1358C94.3186 48.2759 94.3329 48.4213 94.3877 48.5533C94.4425 48.6853 94.5352 48.7981 94.6542 48.8773C94.7732 48.9564 94.9131 48.9985 95.056 48.998C95.1509 48.9992 95.2451 48.9812 95.3329 48.9451C95.4207 48.9091 95.5003 48.8556 95.567 48.788L96.5612 47.7978V48.8989C96.4257 48.7664 96.2437 48.6921 96.0542 48.6921C95.8647 48.6921 95.6826 48.7664 95.5472 48.8989L94.545 49.9011C94.4443 50.0025 94.3758 50.1313 94.3481 50.2715C94.3204 50.4117 94.3347 50.557 94.3893 50.689C94.4439 50.8211 94.5363 50.9341 94.655 51.0138C94.7736 51.0935 94.9131 51.1363 95.056 51.1369C95.1512 51.1374 95.2455 51.1187 95.3333 51.0819C95.421 51.0452 95.5005 50.9912 95.567 50.923L96.0185 50.4754V51.0854C96.0321 51.2679 96.1141 51.4385 96.2482 51.563C96.3822 51.6876 96.5585 51.7568 96.7414 51.7568C96.9244 51.7568 97.1006 51.6876 97.2347 51.563C97.3688 51.4385 97.4508 51.2679 97.4643 51.0854V50.4754L97.9119 50.923C97.9784 50.9912 98.0579 51.0452 98.1456 51.0819C98.2334 51.1187 98.3277 51.1374 98.4229 51.1369C98.5658 51.1363 98.7053 51.0935 98.8239 51.0138C98.9426 50.9341 99.035 50.8211 99.0896 50.689C99.1442 50.557 99.1585 50.4117 99.1308 50.2715C99.1031 50.1313 99.0346 50.0025 98.9339 49.9011L97.9317 48.8989C97.7969 48.7666 97.6156 48.6925 97.4267 48.6925C97.2378 48.6925 97.0564 48.7666 96.9217 48.8989V47.7978L97.9119 48.788C97.9786 48.8556 98.0582 48.9091 98.146 48.9451C98.2338 48.9812 98.328 48.9992 98.4229 48.998C98.5658 48.9985 98.7057 48.9564 98.8247 48.8773C98.9437 48.7981 99.0365 48.6853 99.0912 48.5533C99.146 48.4213 99.1603 48.2759 99.1322 48.1358C99.1042 47.9956 99.0352 47.8669 98.9339 47.7661L97.9317 46.764C97.7964 46.6326 97.6153 46.5591 97.4267 46.5591C97.2381 46.5591 97.0569 46.6326 96.9217 46.764V45.7103L97.9119 46.7006C97.9791 46.7675 98.0588 46.8204 98.1465 46.8564C98.2342 46.8925 98.3281 46.9108 98.4229 46.9105C98.5658 46.9099 98.7053 46.867 98.8239 46.7873C98.9426 46.7077 99.035 46.5947 99.0896 46.4626C99.1442 46.3306 99.1585 46.1853 99.1308 46.0451C99.1031 45.9049 99.0346 45.776 98.9339 45.6747L97.9317 44.6765C97.7969 44.5442 97.6156 44.47 97.4267 44.47C97.2378 44.47 97.0564 44.5442 96.9217 44.6765V43.5714L97.9119 44.5577C97.9821 44.6266 98.066 44.6802 98.158 44.715C98.2501 44.7497 98.3484 44.765 98.4466 44.7597C98.5896 44.7591 98.7291 44.7162 98.8477 44.6365C98.9663 44.5568 99.0588 44.4438 99.1134 44.3118C99.168 44.1797 99.1823 44.0345 99.1546 43.8943C99.1269 43.7541 99.0584 43.6252 98.9576 43.5238L97.9555 42.5217C97.8207 42.3894 97.6393 42.3152 97.4505 42.3152C97.2616 42.3152 97.0802 42.3894 96.9454 42.5217V41.4205L97.9357 42.4108C98.0021 42.4789 98.0816 42.533 98.1694 42.5697C98.2572 42.6065 98.3515 42.6252 98.4466 42.6247C98.5896 42.6241 98.7291 42.5812 98.8477 42.5015C98.9663 42.4218 99.0588 42.3089 99.1134 42.1768C99.168 42.0447 99.1823 41.8995 99.1546 41.7593C99.1269 41.6191 99.0584 41.4902 98.9576 41.3889L97.9357 40.4026C97.8004 40.2712 97.6192 40.1977 97.4306 40.1977C97.2421 40.1977 97.0609 40.2712 96.9256 40.4026V39.2776L97.9159 40.2679C97.9831 40.3348 98.0628 40.3877 98.1505 40.4237C98.2381 40.4598 98.3321 40.4781 98.4268 40.4778C98.618 40.4768 98.8012 40.4015 98.9378 40.2679C99.0728 40.1321 99.1485 39.9484 99.1485 39.7569C99.1485 39.5654 99.0728 39.3817 98.9378 39.2459L97.9357 38.2438C97.8009 38.1115 97.6195 38.0373 97.4306 38.0373C97.2418 38.0373 97.0604 38.1115 96.9256 38.2438V37.1347L97.9159 38.121C97.9823 38.1891 98.0618 38.2432 98.1496 38.2799C98.2374 38.3167 98.3317 38.3354 98.4268 38.3349C98.5698 38.3343 98.7093 38.2914 98.8279 38.2117C98.9465 38.132 99.039 38.0191 99.0936 37.887C99.1482 37.7549 99.1625 37.6097 99.1348 37.4695C99.1071 37.3293 99.0386 37.2004 98.9378 37.0991L97.9357 36.0969C97.8009 35.9646 97.6195 35.8905 97.4306 35.8905C97.2418 35.8905 97.0604 35.9646 96.9256 36.0969V34.6472C96.9185 32.4095 96.0805 30.2543 94.5743 28.5995C93.0681 26.9447 91.0009 25.9083 88.7738 25.6913L88.7501 25.6002L88.7897 25.4497C91.7446 24.3406 95.1788 24.7605 98.1337 26.638C100.459 28.1036 102.02 30.2306 102.02 31.9339V33.3678C101.884 33.2352 101.702 33.161 101.512 33.161C101.323 33.161 101.141 33.2352 101.005 33.3678L100.003 34.3699C99.9308 34.436 99.8725 34.5162 99.8318 34.6055C99.7912 34.6948 99.7691 34.7915 99.7669 34.8896C99.7648 34.9877 99.7825 35.0852 99.8192 35.1762C99.8558 35.2673 99.9105 35.3499 99.9801 35.4192C100.05 35.4884 100.132 35.5429 100.224 35.5791C100.315 35.6154 100.412 35.6328 100.511 35.6303C100.609 35.6277 100.705 35.6053 100.794 35.5643C100.884 35.5233 100.963 35.4646 101.029 35.3919L102.02 34.4016V35.5028C101.884 35.3702 101.702 35.296 101.512 35.296C101.323 35.296 101.141 35.3702 101.005 35.5028L100.003 36.5049C99.8684 36.6407 99.7926 36.8244 99.7926 37.0159C99.7926 37.2074 99.8684 37.391 100.003 37.5269C100.14 37.6611 100.324 37.7363 100.516 37.7363C100.708 37.7363 100.892 37.6611 101.029 37.5269L102.02 36.5326V37.6298C101.885 37.4963 101.702 37.4214 101.512 37.4214C101.323 37.4214 101.14 37.4963 101.005 37.6298L100.003 38.632C99.8784 38.7701 99.8115 38.9509 99.8163 39.1371C99.8212 39.3232 99.8974 39.5003 100.029 39.6318C100.161 39.7632 100.339 39.8388 100.525 39.8429C100.711 39.847 100.892 39.7794 101.029 39.6539L102.02 38.6637V39.7648C101.884 39.6323 101.702 39.558 101.512 39.558C101.323 39.558 101.141 39.6323 101.005 39.7648L99.9994 40.7987C99.9269 40.8648 99.8685 40.9449 99.8279 41.0342C99.7872 41.1236 99.7652 41.2202 99.763 41.3183C99.7608 41.4164 99.7786 41.5139 99.8152 41.605C99.8518 41.696 99.9066 41.7787 99.9761 41.8479C100.046 41.9172 100.128 41.9716 100.22 42.0079C100.311 42.0442 100.408 42.0616 100.507 42.059C100.605 42.0564 100.701 42.034 100.79 41.993C100.88 41.952 100.959 41.8934 101.025 41.8206L102.016 40.8303V41.9315C101.88 41.7989 101.698 41.7247 101.509 41.7247C101.319 41.7247 101.137 41.7989 101.002 41.9315L99.9994 42.9337C99.8986 43.035 99.8301 43.1639 99.8024 43.3041C99.7747 43.4443 99.789 43.5895 99.8436 43.7216C99.8982 43.8537 99.9907 43.9666 100.109 44.0463C100.228 44.126 100.367 44.1689 100.51 44.1695C100.703 44.1695 100.888 44.0941 101.025 43.9596L102.016 42.9653V44.0705C101.881 43.9369 101.698 43.862 101.509 43.862C101.319 43.862 101.136 43.9369 101.002 44.0705L99.9994 45.0726C99.8745 45.2107 99.8075 45.3916 99.8123 45.5777C99.8172 45.7638 99.8935 45.941 100.025 46.0724C100.157 46.2038 100.335 46.2794 100.521 46.2835C100.707 46.2876 100.888 46.22 101.025 46.0945L102.016 45.1043V46.2055C101.88 46.0729 101.698 45.9986 101.509 45.9986C101.319 45.9986 101.137 46.0729 101.002 46.2055L99.9994 47.2076C99.9269 47.2737 99.8685 47.3538 99.8279 47.4432C99.7872 47.5325 99.7652 47.6291 99.763 47.7272C99.7608 47.8254 99.7786 47.9229 99.8152 48.0139C99.8518 48.105 99.9066 48.1876 99.9761 48.2569C100.046 48.3261 100.128 48.3805 100.22 48.4168C100.311 48.4531 100.408 48.4705 100.507 48.4679C100.605 48.4654 100.701 48.4429 100.79 48.402C100.88 48.361 100.959 48.3023 101.025 48.2295L101.473 47.7819V48.3919C101.486 48.5744 101.568 48.745 101.703 48.8695C101.837 48.9941 102.013 49.0633 102.196 49.0633C102.379 49.0633 102.555 48.9941 102.689 48.8695C102.823 48.745 102.905 48.5744 102.919 48.3919V47.7819L103.366 48.2295C103.433 48.2973 103.512 48.3512 103.6 48.3879C103.688 48.4247 103.782 48.4436 103.877 48.4436C103.972 48.4436 104.066 48.4247 104.154 48.3879C104.242 48.3512 104.321 48.2973 104.388 48.2295C104.523 48.0937 104.599 47.91 104.599 47.7186C104.599 47.5271 104.523 47.3434 104.388 47.2076L103.386 46.2055C103.251 46.0741 103.07 46.0006 102.881 46.0006C102.692 46.0006 102.511 46.0741 102.376 46.2055V45.1082L103.366 46.0985C103.502 46.2335 103.686 46.3092 103.877 46.3092C104.069 46.3092 104.252 46.2335 104.388 46.0985C104.523 45.9627 104.599 45.779 104.599 45.5875C104.599 45.3961 104.523 45.2124 104.388 45.0766L103.386 44.0744C103.251 43.9421 103.07 43.868 102.881 43.868C102.692 43.868 102.511 43.9421 102.376 44.0744V42.9772L103.366 43.9675C103.504 44.0924 103.685 44.1593 103.871 44.1545C104.057 44.1497 104.235 44.0734 104.366 43.9414C104.497 43.8095 104.573 43.6321 104.577 43.4459C104.581 43.2598 104.514 43.0792 104.388 42.9416L103.386 41.9434C103.251 41.8111 103.07 41.7369 102.881 41.7369C102.692 41.7369 102.511 41.8111 102.376 41.9434V40.8462L103.366 41.8325C103.433 41.9003 103.512 41.9541 103.6 41.9909C103.688 42.0276 103.782 42.0465 103.877 42.0465C103.972 42.0465 104.066 42.0276 104.154 41.9909C104.242 41.9541 104.321 41.9003 104.388 41.8325C104.523 41.6967 104.599 41.513 104.599 41.3215C104.599 41.13 104.523 40.9464 104.388 40.8105L103.386 39.8084C103.251 39.6761 103.07 39.6019 102.881 39.6019C102.692 39.6019 102.511 39.6761 102.376 39.8084V38.6874L103.366 39.6777C103.502 39.8127 103.686 39.8884 103.877 39.8884C104.069 39.8884 104.252 39.8127 104.388 39.6777C104.523 39.5419 104.599 39.3582 104.599 39.1667C104.599 38.9752 104.523 38.7915 104.388 38.6557L103.386 37.6536C103.251 37.5222 103.07 37.4487 102.881 37.4487C102.692 37.4487 102.511 37.5222 102.376 37.6536V36.5445L103.366 37.5348C103.502 37.6703 103.686 37.7464 103.877 37.7464C104.069 37.7464 104.253 37.6703 104.388 37.5348C104.524 37.3993 104.6 37.2155 104.6 37.0238C104.6 36.8321 104.524 36.6483 104.388 36.5128L103.386 35.5107C103.251 35.3784 103.07 35.3042 102.881 35.3042C102.692 35.3042 102.511 35.3784 102.376 35.5107V34.4016L103.366 35.3879C103.433 35.4557 103.512 35.5095 103.6 35.5463C103.688 35.583 103.782 35.6019 103.877 35.6019C103.972 35.6019 104.066 35.583 104.154 35.5463C104.242 35.5095 104.321 35.4557 104.388 35.3879C104.523 35.2521 104.599 35.0684 104.599 34.8769C104.599 34.6855 104.523 34.5018 104.388 34.366L103.386 33.3638C103.251 33.2315 103.07 33.1574 102.881 33.1574C102.692 33.1574 102.511 33.2315 102.376 33.3638V31.922C102.376 30.0722 100.792 27.8699 98.3239 26.3172C95.3491 24.4436 91.903 23.9881 88.8966 25.0259L89.5423 22.5542C89.5853 22.5191 89.6227 22.4777 89.6532 22.4314L91.8159 19.3101C91.8651 19.2867 91.9127 19.2603 91.9585 19.2309L95.056 17.0325C95.1097 17.0324 95.1631 17.0244 95.2145 17.0088L98.8784 16.0066C98.9298 16.0232 98.983 16.0339 99.0368 16.0383L102.82 16.3512C102.863 16.3827 102.91 16.4105 102.958 16.4344L106.408 18.0188C106.438 18.0646 106.473 18.1071 106.511 18.1456L109.209 20.8153C109.221 20.8684 109.238 20.9202 109.26 20.9698L110.884 24.4C110.878 24.4553 110.878 24.5111 110.884 24.5664L111.237 28.3452C111.209 28.3924 111.188 28.443 111.173 28.4957L108.005 40.5214C107.976 40.6282 107.972 40.7402 107.994 40.8487C108.016 40.9571 108.062 41.0592 108.129 41.1469C108.197 41.2346 108.284 41.3056 108.383 41.3544C108.482 41.4032 108.591 41.4286 108.702 41.4285C108.862 41.4286 109.017 41.3758 109.144 41.2784C109.271 41.181 109.362 41.0443 109.403 40.8898L111.601 32.4964L111.997 36.9446C112.015 37.1235 112.099 37.2895 112.232 37.4103C112.365 37.5311 112.538 37.598 112.718 37.5981H112.786C112.977 37.5791 113.153 37.4851 113.276 37.3367C113.398 37.1883 113.457 36.9975 113.439 36.8059L112.647 28.167L114.556 32.2032C114.592 32.2962 114.647 32.3808 114.717 32.4517C114.787 32.5226 114.871 32.5783 114.963 32.6153C115.056 32.6524 115.155 32.6699 115.255 32.6669C115.354 32.6638 115.452 32.6403 115.542 32.5977C115.632 32.5551 115.713 32.4943 115.778 32.4193C115.844 32.3442 115.893 32.2565 115.923 32.1615C115.954 32.0665 115.964 31.9663 115.953 31.8671C115.943 31.768 115.912 31.6721 115.863 31.5853L112.176 23.7663L115.344 26.9073C115.481 27.0417 115.664 27.1171 115.855 27.1173C115.951 27.1177 116.045 27.099 116.133 27.0623C116.22 27.0256 116.3 26.9715 116.366 26.9034C116.434 26.8364 116.487 26.7568 116.523 26.6691C116.56 26.5814 116.579 26.4874 116.579 26.3924C116.579 26.2975 116.56 26.2034 116.523 26.1157C116.487 26.0281 116.434 25.9484 116.366 25.8814L110.199 19.7656L114.255 21.6313C114.349 21.676 114.452 21.6991 114.556 21.6986C114.695 21.6996 114.83 21.6604 114.947 21.5859C115.064 21.5114 115.156 21.4047 115.214 21.2787C115.293 21.1042 115.301 20.9052 115.235 20.725C115.169 20.5448 115.035 20.3979 114.861 20.3162L106.979 16.6958L111.427 17.0602H111.486C111.671 17.0565 111.847 16.9825 111.979 16.8534C112.111 16.7242 112.188 16.5497 112.196 16.3653C112.203 16.1809 112.14 16.0006 112.02 15.8611C111.899 15.7216 111.729 15.6334 111.546 15.6145L102.899 14.9054L107.208 13.7171C107.39 13.6617 107.542 13.5373 107.633 13.3706C107.724 13.204 107.746 13.0084 107.694 12.8258C107.642 12.6433 107.521 12.4883 107.356 12.3943C107.191 12.3003 106.996 12.2746 106.812 12.3229L98.4466 14.6282L102.091 12.0456C102.248 11.9348 102.355 11.7659 102.389 11.5761C102.422 11.3863 102.378 11.1911 102.267 11.0335C102.156 10.876 101.987 10.7689 101.798 10.7358C101.608 10.7028 101.413 10.7465 101.255 10.8573L94.1886 15.8799L96.7276 12.208C96.79 12.1304 96.8359 12.0409 96.8622 11.9448C96.8885 11.8488 96.8948 11.7483 96.8806 11.6498C96.8663 11.5512 96.832 11.4567 96.7796 11.372C96.7272 11.2873 96.6579 11.2143 96.5761 11.1575C96.4943 11.1008 96.4016 11.0615 96.3039 11.0422C96.2063 11.0228 96.1056 11.0238 96.0084 11.0451C95.9111 11.0663 95.8192 11.1074 95.7385 11.1657C95.6578 11.2241 95.59 11.2984 95.5393 11.3841L90.6038 18.5139L91.7327 14.1964C91.7366 14.1781 91.7366 14.1593 91.7327 14.141L93.3171 11.8475C93.399 11.8265 93.4767 11.7917 93.5469 11.7446L98.1298 8.49651H98.1892C98.2536 8.49705 98.3177 8.4877 98.3793 8.46878L103.802 6.98736C103.877 7.02073 103.958 7.04211 104.04 7.05074L109.656 7.52606C109.714 7.58667 109.783 7.63632 109.858 7.67262L114.964 10.0175C115 10.0938 115.048 10.1635 115.107 10.2235L119.103 14.1845C119.112 14.2679 119.133 14.3495 119.167 14.4262L121.571 19.5042C121.547 19.5851 121.539 19.6698 121.547 19.7537L122.066 25.3507C122.018 25.4193 121.982 25.4957 121.959 25.5764L117.384 43.0366C117.336 43.222 117.363 43.419 117.46 43.5845C117.556 43.7501 117.714 43.8707 117.899 43.9199C117.959 43.9354 118.02 43.9433 118.081 43.9437C118.242 43.9429 118.397 43.8893 118.524 43.7912C118.651 43.6931 118.742 43.556 118.783 43.4011L122.446 29.4266L123.219 37.7447C123.235 37.924 123.317 38.091 123.45 38.2126C123.582 38.3343 123.756 38.4019 123.936 38.4022H124.003C124.099 38.3943 124.191 38.3674 124.276 38.3231C124.361 38.2787 124.436 38.2178 124.497 38.144C124.558 38.0702 124.603 37.9849 124.631 37.8932C124.658 37.8015 124.667 37.7052 124.657 37.61L123.318 23.2236L126.883 30.7495C126.941 30.8736 127.034 30.9785 127.149 31.0521C127.265 31.1257 127.399 31.165 127.536 31.1654C127.643 31.1654 127.749 31.1411 127.845 31.0942C127.931 31.0538 128.009 30.9968 128.072 30.9265C128.136 30.8562 128.186 30.774 128.218 30.6845C128.25 30.5951 128.264 30.5002 128.259 30.4053C128.254 30.3104 128.231 30.2174 128.19 30.1316L122.015 17.0325L127.956 22.8948C128.095 23.0193 128.276 23.0856 128.462 23.0801C128.648 23.0745 128.825 22.9975 128.956 22.8651C129.087 22.7326 129.162 22.5549 129.165 22.3687C129.169 22.1824 129.1 22.0021 128.974 21.865L128.947 21.8808ZM90.1285 59.5383H86.1081L86.2586 57.5577H89.9701L90.1285 59.5383ZM86.3616 56.1199L86.5121 54.1394H89.6809L89.8473 56.1199H86.3616ZM86.619 52.7015L86.7696 50.721H89.3759L89.5423 52.7015H86.619ZM86.8805 49.2832L87.027 47.3027H89.0828L89.2531 49.2832H86.8805ZM87.1379 45.8648L87.2885 43.8843H88.7897L88.96 45.8648H87.1379ZM87.3994 42.4425L87.5459 40.462H88.4966L88.6669 42.4425H87.3994ZM86.0011 60.9999H90.2632L90.4295 62.9804H85.8506L86.0011 60.9999ZM87.6647 39.036L88.0014 34.5997L88.3975 39.036H87.6647ZM87.9618 22.6255H87.9975H88.0331L87.9975 22.7641L87.9618 22.6255ZM85.5852 66.6364L85.7516 64.4182H90.5642L90.7662 66.7394L85.5852 66.6364Z" fill="url(#paint1_linear_2157_1526)"/>
<path d="M139.808 68.0942H36.1915C36.0921 68.1016 35.9922 68.0884 35.8981 68.0554C35.804 68.0224 35.7177 67.9704 35.6447 67.9025C35.5716 67.8347 35.5134 67.7525 35.4735 67.6611C35.4337 67.5697 35.4131 67.4711 35.4131 67.3714C35.4131 67.2717 35.4337 67.173 35.4735 67.0816C35.5134 66.9902 35.5716 66.908 35.6447 66.8402C35.7177 66.7724 35.804 66.7203 35.8981 66.6873C35.9922 66.6543 36.0921 66.6411 36.1915 66.6485H139.808C139.907 66.6411 140.007 66.6543 140.101 66.6873C140.195 66.7203 140.282 66.7724 140.355 66.8402C140.428 66.908 140.486 66.9902 140.526 67.0816C140.566 67.173 140.586 67.2717 140.586 67.3714C140.586 67.4711 140.566 67.5697 140.526 67.6611C140.486 67.7525 140.428 67.8347 140.355 67.9025C140.282 67.9704 140.195 68.0224 140.101 68.0554C140.007 68.0884 139.907 68.1016 139.808 68.0942Z" fill="url(#paint2_linear_2157_1526)"/>
<path d="M60.7298 93.7613C61.1589 93.7372 61.5884 93.8006 61.9922 93.9477C62.396 94.0948 62.7657 94.3225 63.0787 94.6169C63.6725 95.2111 64.0061 96.0168 64.0061 96.8569C64.0061 97.6969 63.6725 98.5026 63.0787 99.0968C62.7646 99.3894 62.3946 99.6156 61.9911 99.762C61.5875 99.9083 61.1585 99.9717 60.7298 99.9485H60.1396V93.7613H60.7298ZM60.9398 94.5773V99.1364C61.232 99.1495 61.5237 99.1016 61.7965 98.9959C62.0692 98.8902 62.317 98.729 62.5242 98.5225C62.962 98.0779 63.2074 97.4789 63.2074 96.8549C63.2074 96.2309 62.962 95.6319 62.5242 95.1873C62.3163 94.9821 62.0682 94.822 61.7956 94.717C61.523 94.6121 61.2316 94.5645 60.9398 94.5773Z" fill="white"/>
<path d="M68.6643 93.7617L70.9181 99.9488H70.0665L69.2743 97.7623H67.6265L66.8343 99.9488H65.9668L68.2206 93.7617H68.6643ZM68.9772 96.9622L68.4504 95.5085L67.9235 96.9622H68.9772Z" fill="white"/>
<path d="M74.8514 94.5617V99.9487H74.0592V94.5617H72.6055V93.7695H76.2971V94.5617H74.8514Z" fill="white"/>
<path d="M81.9887 93.7617V94.5539H79.4536V96.4473H81.9887V97.2395H79.4536V99.1289H81.9887V99.9211H78.6416V93.7617H81.9887Z" fill="white"/>
<path d="M91.9385 93.7617V94.5539H89.76V96.4473H91.9385V97.2395H89.76V99.933H88.9678V93.7617H91.9385Z" fill="white"/>
<path d="M96.1178 97.9683H95.385V99.9488H94.5928V93.7617H96.3475C96.8254 93.8198 97.2701 94.0359 97.6111 94.3757C98.0039 94.7718 98.2243 95.3071 98.2243 95.865C98.2243 96.4229 98.0039 96.9582 97.6111 97.3544C97.4348 97.5625 97.2124 97.7267 96.9615 97.8337L98.332 99.9488H97.3615L96.1178 97.9683ZM95.385 94.5658V97.1642H96.1178C96.4623 97.1642 96.7928 97.0274 97.0365 96.7837C97.2801 96.5401 97.417 96.2096 97.417 95.865C97.417 95.5204 97.2801 95.19 97.0365 94.9463C96.7928 94.7027 96.4623 94.5658 96.1178 94.5658H95.385Z" fill="white"/>
<path d="M104.103 93.7617H104.895V98.1188C104.836 98.5953 104.62 99.0385 104.281 99.3784C103.987 99.6732 103.612 99.8741 103.204 99.9557C102.796 100.037 102.373 99.996 101.988 99.837C101.603 99.678 101.275 99.4083 101.043 99.0623C100.812 98.7162 100.688 98.3093 100.688 97.8931V93.7617H101.481V97.897C101.481 98.2416 101.618 98.5721 101.861 98.8157C102.105 99.0594 102.435 99.1962 102.78 99.1962C103.124 99.1962 103.455 99.0594 103.699 98.8157C103.942 98.5721 104.079 98.2416 104.079 97.897L104.103 93.7617Z" fill="white"/>
<path d="M108.531 93.7617V99.9488H107.739V93.7617H108.531Z" fill="white"/>
<path d="M113.217 94.5617V99.9487H112.425V94.5617H110.983V93.7695H114.671V94.5617H113.217Z" fill="white"/>
<path d="M35.7754 82.3896V71.5562H37.1776V80.9794H41.0475V82.3896H35.7754Z" fill="white"/>
<path d="M52.749 73.0372C53.523 73.8127 54.05 74.8002 54.2633 75.8749C54.4767 76.9496 54.3669 78.0634 53.9478 79.0758C53.5287 80.0882 52.8191 80.9537 51.9085 81.5631C50.998 82.1726 49.9273 82.4986 48.8316 82.5001C47.3608 82.5001 45.9503 81.9159 44.9104 80.8759C43.8704 79.8359 43.2861 78.4254 43.2861 76.9547C43.2861 75.4839 43.8704 74.0734 44.9104 73.0335C45.9503 71.9935 47.3608 71.4092 48.8316 71.4092C49.5611 71.3988 50.285 71.5378 50.9588 71.8178C51.6325 72.0978 52.2418 72.5128 52.749 73.0372ZM48.8316 72.8273C48.1508 72.8257 47.4802 72.9922 46.8792 73.312C46.2783 73.6318 45.7656 74.095 45.3866 74.6605C45.0077 75.2261 44.7742 75.8764 44.7069 76.5538C44.6396 77.2312 44.7406 77.9148 45.0009 78.5438C45.2612 79.1728 45.6727 79.7278 46.199 80.1596C46.7253 80.5914 47.3501 80.8866 48.0178 81.019C48.6856 81.1513 49.3757 81.1168 50.0269 80.9184C50.6781 80.7201 51.2703 80.364 51.7508 79.8819C52.3292 79.3043 52.7232 78.5682 52.883 77.7667C53.0429 76.9651 52.9614 76.1342 52.6489 75.3789C52.3364 74.6237 51.8069 73.9782 51.1274 73.524C50.4479 73.0698 49.6489 72.8273 48.8316 72.8273Z" fill="white"/>
<path d="M60.1992 78.9197H58.9198V82.3896H57.5176V71.5562H60.5913C61.4267 71.6553 62.204 72.0336 62.7976 72.6296C63.4875 73.3216 63.8748 74.2588 63.8748 75.2359C63.8748 76.2131 63.4875 77.1503 62.7976 77.8423C62.4906 78.2083 62.1009 78.4962 61.6608 78.682L64.0651 82.3896H62.3659L60.1992 78.9197ZM58.9198 72.9782V77.5294H60.1992C60.495 77.5316 60.7881 77.4734 61.0605 77.3583C61.333 77.2432 61.579 77.0736 61.7836 76.86C61.9986 76.6509 62.1686 76.4 62.283 76.1227C62.3975 75.8455 62.454 75.5477 62.4491 75.2478C62.448 74.6469 62.2091 74.0708 61.7845 73.6455C61.36 73.2202 60.7843 72.9803 60.1833 72.9782H58.9198Z" fill="white"/>
<path d="M72.5533 71.5562V72.9584H68.121V76.2658H72.5533V77.668H68.121V80.9794H72.5533V82.3896H66.7188V71.5562H72.5533Z" fill="white"/>
<path d="M77.3028 71.5562L80.8163 77.6363L84.3178 71.5641H85.5972V82.3896H84.1871V74.5626L80.8163 80.409L77.4256 74.5626V82.3896H76.0234V71.5562H77.3028Z" fill="white"/>
<path d="M96.8387 71.5562V82.3896H95.4365V71.5562H96.8387Z" fill="white"/>
<path d="M101.687 78.9197V82.3896H100.285V71.5562H103.359C104.195 71.6554 104.974 72.0335 105.569 72.6296C106.085 73.1445 106.436 73.8008 106.579 74.5155C106.721 75.2301 106.648 75.9709 106.37 76.6442C106.091 77.3176 105.619 77.8932 105.013 78.2982C104.408 78.7032 103.695 78.9195 102.967 78.9197H101.687ZM101.687 72.9782V77.5294H102.967C103.554 77.5049 104.109 77.2544 104.516 76.8303C104.922 76.4063 105.149 75.8414 105.149 75.2538C105.149 74.6662 104.922 74.1013 104.516 73.6772C104.109 73.2531 103.554 73.0027 102.967 72.9782H101.687Z" fill="white"/>
<path d="M112.069 76.8438C111.369 76.6286 110.73 76.2513 110.203 75.7426C109.736 75.2649 109.478 74.6222 109.483 73.9544C109.488 73.2867 109.757 72.6481 110.231 72.1777C110.707 71.7034 111.351 71.437 112.023 71.437C112.695 71.437 113.34 71.7034 113.816 72.1777C114.149 72.5475 114.389 72.9916 114.517 73.4729L113.245 73.972C113.155 73.6846 113.012 73.4161 112.825 73.1798C112.722 73.0752 112.598 72.9925 112.462 72.9366C112.326 72.8808 112.18 72.8531 112.033 72.855C111.886 72.8547 111.74 72.8836 111.604 72.94C111.468 72.9965 111.345 73.0793 111.241 73.1838C111.134 73.2861 111.05 73.4092 110.992 73.5454C110.935 73.6817 110.907 73.8282 110.908 73.976C110.908 74.1236 110.937 74.2698 110.994 74.4059C111.051 74.542 111.135 74.6652 111.241 74.7682C111.544 75.0475 111.892 75.2738 112.271 75.4376C113.083 75.6927 113.824 76.1381 114.429 76.7368C114.75 77.0431 115.004 77.4123 115.175 77.8212C115.346 78.2302 115.431 78.6702 115.424 79.1134C115.423 79.7813 115.224 80.434 114.852 80.9888C114.48 81.5436 113.952 81.9756 113.335 82.2301C112.717 82.4846 112.038 82.5501 111.383 82.4183C110.728 82.2866 110.127 81.9635 109.656 81.49C109.095 80.8887 108.743 80.1216 108.654 79.3036L110.017 78.8084C110.031 79.4294 110.252 80.0278 110.647 80.5077C111.019 80.8791 111.524 81.0873 112.05 81.0865C112.576 81.0858 113.08 80.8762 113.451 80.5038C113.822 80.1313 114.031 79.6267 114.03 79.1007C114.029 78.5748 113.82 78.0707 113.447 77.6994C113.049 77.3261 112.58 77.0353 112.069 76.8438Z" fill="white"/>
<path d="M123.999 71.5562H125.406V79.1851C125.301 80.0188 124.924 80.7946 124.332 81.3914C123.817 81.9067 123.161 82.2579 122.447 82.4005C121.733 82.5432 120.992 82.4709 120.319 82.1928C119.646 81.9147 119.07 81.4433 118.665 80.8382C118.26 80.233 118.043 79.5213 118.042 78.7929V71.5562H119.44V78.7929C119.443 79.3949 119.685 79.9712 120.112 80.3958C120.538 80.8203 121.116 81.0587 121.718 81.0587C122.016 81.0597 122.312 81.0019 122.587 80.8885C122.863 80.7751 123.114 80.6083 123.325 80.3978C123.536 80.1874 123.704 79.9372 123.818 79.6618C123.933 79.3864 123.991 79.0911 123.991 78.7929L123.999 71.5562Z" fill="white"/>
<path d="M130.325 71.5562L133.839 77.6363L137.336 71.5641H138.616V82.3896H137.214V74.5626L133.839 80.409L130.444 74.5626V82.3896H129.046V71.5562H130.325Z" fill="white"/>
</g>
<defs>
<linearGradient id="paint0_linear_2157_1526" x1="87.9977" y1="43.6152" x2="87.9977" y2="102.741" gradientUnits="userSpaceOnUse">
<stop stop-color="#70411E"/>
<stop offset="0.01" stop-color="#824C23"/>
<stop offset="0.02" stop-color="#844D24"/>
<stop offset="0.04" stop-color="#F7E68A"/>
<stop offset="0.07" stop-color="#8E5B22"/>
<stop offset="0.09" stop-color="#9A682B"/>
<stop offset="0.12" stop-color="#BA8A43"/>
<stop offset="0.16" stop-color="#E8BA65"/>
<stop offset="0.32" stop-color="#F8E889"/>
<stop offset="0.72" stop-color="#E6B964"/>
<stop offset="1" stop-color="#603913"/>
</linearGradient>
<linearGradient id="paint1_linear_2157_1526" x1="139.895" y1="-28.2499" x2="9.66032" y2="101.985" gradientUnits="userSpaceOnUse">
<stop stop-color="#70411E"/>
<stop offset="0.01" stop-color="#824C23"/>
<stop offset="0.02" stop-color="#844D24"/>
<stop offset="0.04" stop-color="#F7E68A"/>
<stop offset="0.07" stop-color="#8E5B22"/>
<stop offset="0.09" stop-color="#9A682B"/>
<stop offset="0.12" stop-color="#BA8A43"/>
<stop offset="0.16" stop-color="#E8BA65"/>
<stop offset="0.32" stop-color="#F8E889"/>
<stop offset="0.72" stop-color="#E6B964"/>
<stop offset="1" stop-color="#603913"/>
</linearGradient>
<linearGradient id="paint2_linear_2157_1526" x1="87.9977" y1="43.6151" x2="87.9977" y2="102.741" gradientUnits="userSpaceOnUse">
<stop stop-color="#70411E"/>
<stop offset="0.01" stop-color="#824C23"/>
<stop offset="0.02" stop-color="#844D24"/>
<stop offset="0.04" stop-color="#F7E68A"/>
<stop offset="0.07" stop-color="#8E5B22"/>
<stop offset="0.09" stop-color="#9A682B"/>
<stop offset="0.12" stop-color="#BA8A43"/>
<stop offset="0.16" stop-color="#E8BA65"/>
<stop offset="0.32" stop-color="#F8E889"/>
<stop offset="0.72" stop-color="#E6B964"/>
<stop offset="1" stop-color="#603913"/>
</linearGradient>
<clipPath id="clip0_2157_1526">
<rect width="105.066" height="100" fill="white" transform="translate(35.4668)"/>
</clipPath>
</defs>
</svg>
