<svg width="176" height="100" viewBox="0 0 176 100" fill="none" xmlns="http://www.w3.org/2000/svg">
<g clip-path="url(#clip0_2157_1653)">
<g clip-path="url(#clip1_2157_1653)">
<path d="M28.1855 71.2168V82.8452H30.8097V79.5222H33.1174C36.0734 79.5222 37.7679 77.9607 37.7679 75.2541C37.7679 72.6783 36.0734 71.2168 33.1174 71.2168H28.1855ZM30.8097 73.3937H32.9855C34.4481 73.3937 35.2789 74.0409 35.2789 75.3365C35.2789 76.6651 34.4481 77.3299 32.9855 77.3299H30.8097V73.3937ZM50.6029 80.5859L51.5161 82.8452H54.3237L49.3567 71.2168H46.6469L41.592 82.8452H44.2997L45.2183 80.5859H50.6029ZM49.7556 78.4761H46.0843L47.9282 73.9552L49.7556 78.4739V78.4761ZM62.4555 80.5486V71.208H59.8336V82.8452H67.4412V80.5486H62.4555ZM85.9201 82.8452V71.2168H82.9959L79.6245 78.3266L76.2356 71.2168H73.2949V82.8452H75.6707V75.0047L78.7597 81.665H80.4707L83.5608 75.0047V82.8452H85.9201ZM101.361 73.4432V71.2168H91.6431V73.4432H95.1815V82.8452H97.8057V73.4432H101.361ZM114.21 82.8452H117.177L114.708 79.0101C116.12 78.3453 116.883 77.0497 116.883 75.2563C116.883 72.6805 115.157 71.219 112.116 71.219H107.067V82.8452H109.691V79.5222H112.366L114.21 82.8452ZM109.691 77.3299V73.3937H112.116C113.562 73.3937 114.392 74.0409 114.392 75.3365C114.392 76.6651 113.562 77.3299 112.116 77.3299H109.691ZM132.242 73.3937V71.2168H123.388V82.8452H132.424V80.6683H126.012V78.0936H131.627V75.9178H126.012V73.3904L132.242 73.3937ZM147.633 73.3937V71.2168H138.779V82.8452H147.815V80.6683H141.403V78.0936H147.018V75.9178H141.403V73.3904L147.633 73.3937Z" fill="#C4A66B"/>
<path d="M45.6445 93.7858V99.9395H47.0335V98.1813H48.2555C49.8203 98.1813 50.717 97.355 50.717 95.9231C50.717 94.5605 49.8203 93.7869 48.2555 93.7869L45.6445 93.7858ZM47.0335 94.9374H48.1863C48.9555 94.9374 49.395 95.2803 49.395 95.966C49.395 96.6692 48.9555 97.0198 48.1863 97.0198H47.0335V94.9374ZM62.4443 99.9384H64.018L62.7081 97.911C63.4553 97.5594 63.8597 96.8747 63.8597 95.9253C63.8597 94.5627 62.9454 93.7891 61.3323 93.7891H58.6653V99.9428H60.0543V98.1846H61.4685L62.4443 99.9428V99.9384ZM60.0543 97.0198V94.9374H61.3367C62.1059 94.9374 62.5454 95.2803 62.5454 95.966C62.5454 96.6692 62.1059 97.0198 61.3367 97.0198H60.0543ZM76.775 94.9374V93.7858H72.0893V99.9395H76.8673V98.7901H73.4783V97.4275H76.4453V96.2736H73.4783V94.9374H76.775ZM91.7023 99.9384V93.7847H90.155L88.3704 97.5462L86.5781 93.7847H85.0221V99.9384H86.2793V95.7901L87.9133 99.3143H88.8188L90.4539 95.7901V99.9384H91.7023ZM101.514 99.9384V93.7847H100.125V99.9384H101.514ZM115.379 93.7847H113.99V97.3616C113.99 98.2495 113.44 98.7901 112.619 98.7901C111.797 98.7901 111.212 98.2538 111.212 97.3616V93.7858H109.823V97.3616C109.823 98.9879 110.913 99.9989 112.619 99.9989C114.324 99.9989 115.379 98.9879 115.379 97.3616V93.7858V93.7847ZM130.359 99.9384V93.7847H128.812L127.027 97.5462L125.235 93.7847H123.68V99.9384H124.936V95.7901L126.571 99.3143H127.477L129.112 95.7901V99.9384H130.359Z" fill="#C4A66B"/>
<path fill-rule="evenodd" clip-rule="evenodd" d="M99.9887 49.1105L90.2449 30.381C90.2449 30.381 90.2987 45.0446 90.6339 58.5488H117.275V0H58.7266V58.5488H85.368C85.6977 45.0446 85.757 30.381 85.757 30.381L76.0132 49.1105C73.5704 40.1831 75.0561 33.6908 79.3505 28.9557L65.1144 38.1216C65.8726 29.3217 73.322 22.1162 79.7945 21.0371L61.598 22.6855C67.9298 15.3152 78.0626 14.5537 82.3845 16.2196L70.9627 6.97795C77.2681 6.26367 84.4977 8.6043 88.001 14.2075C91.5053 8.6043 98.7349 6.26367 105.039 6.97795L93.6185 16.2163C97.9393 14.5504 108.073 15.3119 114.404 22.6822L96.2075 21.0371C102.68 22.1162 110.129 29.3217 110.889 38.1216L96.647 28.9557C100.941 33.6908 102.429 40.1831 99.9843 49.1105H99.9887Z" fill="#C4A66B"/>
</g>
</g>
<defs>
<clipPath id="clip0_2157_1653">
<rect width="176" height="100" fill="white"/>
</clipPath>
<clipPath id="clip1_2157_1653">
<rect width="119.629" height="100" fill="white" transform="translate(28.1855)"/>
</clipPath>
</defs>
</svg>
