<svg width="176" height="100" viewBox="0 0 176 100" fill="none" xmlns="http://www.w3.org/2000/svg">
<g clip-path="url(#clip0_2157_1695)">
<g clip-path="url(#clip1_2157_1695)">
<path d="M53.8945 93.3959V99.5623C53.8951 99.6625 53.9352 99.7583 54.0061 99.829C54.077 99.8997 54.173 99.9396 54.2731 99.9399H55.0793C55.1793 99.9396 55.2752 99.8997 55.3459 99.829C55.4167 99.7582 55.4565 99.6624 55.4568 99.5623V98.3406C55.4574 98.2403 55.4975 98.1444 55.5683 98.0735C55.6392 98.0026 55.7352 97.9626 55.8354 97.962H56.832C58.5922 97.962 59.6008 97.0329 59.6008 95.4206C59.6008 93.8877 58.5922 93.0173 56.832 93.0173H54.2731C54.1729 93.0179 54.0769 93.0579 54.0061 93.1288C53.9352 93.1997 53.8951 93.2957 53.8945 93.3959ZM55.8354 94.313H56.7525C57.6229 94.313 58.1179 94.6982 58.1179 95.4706C58.1179 96.2615 57.6229 96.6565 56.7525 96.6565H55.8354C55.7353 96.6562 55.6393 96.6163 55.5684 96.5456C55.4975 96.4749 55.4574 96.3791 55.4568 96.2789V94.6916C55.4571 94.5913 55.4971 94.4952 55.568 94.4242C55.639 94.3533 55.7351 94.3133 55.8354 94.313ZM65.5279 94.6198H64.7598C64.6595 94.6198 64.5634 94.6596 64.4924 94.7303C64.4215 94.8011 64.3815 94.8971 64.3812 94.9974V99.5667C64.3815 99.6669 64.4215 99.7629 64.4924 99.8337C64.5634 99.9045 64.6595 99.9442 64.7598 99.9442H65.5279C65.6279 99.9439 65.7237 99.9041 65.7945 99.8333C65.8652 99.7626 65.9051 99.6667 65.9054 99.5667V97.3788C65.9054 96.5825 66.4319 96.0331 67.3077 95.9863C67.4042 95.9813 67.4951 95.9394 67.5617 95.8694C67.6283 95.7994 67.6655 95.7065 67.6657 95.6099V94.9767C67.6655 94.9206 67.6529 94.8652 67.6287 94.8146C67.6046 94.764 67.5695 94.7193 67.526 94.6839C67.4824 94.6485 67.4316 94.6233 67.3771 94.6099C67.3226 94.5966 67.2658 94.5955 67.2109 94.6068C66.9347 94.6615 66.6743 94.777 66.4484 94.9451C66.2226 95.1132 66.037 95.3295 65.9054 95.5783V94.9963C65.9051 94.8962 65.8652 94.8004 65.7945 94.7296C65.7237 94.6589 65.6279 94.619 65.5279 94.6188V94.6198ZM74.5926 94.5709C72.9704 94.5709 71.8531 95.6588 71.8531 97.2994C71.8531 98.9118 72.9302 99.9997 74.6317 99.9997C75.4248 99.9997 76.0961 99.7636 76.6074 99.3469C76.6482 99.3136 76.6815 99.2722 76.7053 99.2253C76.7291 99.1783 76.7429 99.1269 76.7456 99.0744C76.7484 99.0218 76.7401 98.9693 76.7214 98.9201C76.7026 98.8709 76.6738 98.8262 76.6368 98.7888L76.3507 98.4994C76.2877 98.4348 76.2035 98.3951 76.1136 98.3875C76.0237 98.3799 75.934 98.405 75.8611 98.4581C75.5408 98.6897 75.1554 98.8142 74.7601 98.8138C74.5652 98.8198 74.3713 98.7841 74.1914 98.709C74.0115 98.634 73.8496 98.5213 73.7168 98.3787C73.6678 98.3243 73.6356 98.2569 73.6241 98.1847C73.6126 98.1124 73.6223 98.0384 73.652 97.9715C73.6817 97.9046 73.7301 97.8478 73.7914 97.8079C73.8527 97.768 73.9243 97.7467 73.9975 97.7466H76.837C76.8867 97.7466 76.9359 97.7368 76.9819 97.7178C77.0278 97.6987 77.0695 97.6708 77.1047 97.6357C77.1398 97.6005 77.1677 97.5588 77.1868 97.5129C77.2058 97.4669 77.2156 97.4177 77.2156 97.368C77.2156 95.649 76.3365 94.5731 74.5926 94.5731V94.5709ZM73.5525 96.2746C73.6571 96.0911 73.8097 95.9396 73.9939 95.8363C74.1781 95.733 74.3869 95.6818 74.598 95.6882C75.0984 95.6882 75.4738 95.9199 75.6544 96.3061C75.6813 96.3638 75.6932 96.4273 75.689 96.4908C75.6849 96.5543 75.6648 96.6157 75.6306 96.6693C75.5965 96.723 75.5494 96.7672 75.4936 96.7978C75.4379 96.8285 75.3753 96.8446 75.3117 96.8447H73.8789C73.8124 96.8451 73.747 96.8276 73.6896 96.7941C73.6322 96.7607 73.5848 96.7123 73.5525 96.6543C73.5178 96.597 73.4995 96.5314 73.4995 96.4644C73.4995 96.3975 73.5178 96.3319 73.5525 96.2746ZM89.0589 94.56C88.3811 94.5676 87.8317 94.795 87.4542 95.2574C87.4186 95.3022 87.373 95.3381 87.321 95.3621C87.2691 95.3861 87.2122 95.3975 87.155 95.3955C87.0977 95.3952 87.0412 95.3815 86.9901 95.3556C86.9389 95.3298 86.8944 95.2924 86.8601 95.2465C86.5272 94.8113 86.0039 94.56 85.337 94.56C84.5352 94.5709 83.9129 94.8864 83.5365 95.5391V94.9952C83.5362 94.8951 83.4963 94.7993 83.4256 94.7285C83.3549 94.6578 83.259 94.6179 83.159 94.6177H82.3974C82.2973 94.6179 82.2013 94.6578 82.1304 94.7285C82.0595 94.7992 82.0194 94.895 82.0188 94.9952V99.5645C82.0194 99.6646 82.0595 99.7605 82.1304 99.8312C82.2013 99.9019 82.2973 99.9417 82.3974 99.942H83.159C83.259 99.9417 83.3549 99.9019 83.4256 99.8311C83.4963 99.7604 83.5362 99.6645 83.5365 99.5645V97.3092C83.5365 96.5379 83.9836 95.9645 84.7234 95.9547C85.3479 95.9547 85.7417 96.3605 85.7417 97.0427V99.5623C85.7423 99.6625 85.7824 99.7583 85.8533 99.829C85.9242 99.8997 86.0202 99.9396 86.1203 99.9399H86.8819C86.9819 99.9396 87.0778 99.8997 87.1485 99.829C87.2193 99.7582 87.2591 99.6624 87.2594 99.5623V97.3092C87.2594 96.5379 87.7044 95.9645 88.4377 95.9547C89.0687 95.9547 89.4658 96.3605 89.4658 97.0427V99.5623C89.4663 99.6625 89.5064 99.7583 89.5773 99.829C89.6483 99.8997 89.7442 99.9396 89.8444 99.9399H90.5994C90.6996 99.9399 90.7957 99.9001 90.8667 99.8293C90.9377 99.7586 90.9777 99.6626 90.978 99.5623V96.5977C90.978 95.3509 90.236 94.56 89.0589 94.56ZM96.8714 92.2568C96.3872 92.2568 96.05 92.6137 96.05 93.1076C96.05 93.6015 96.3872 93.9584 96.8714 93.9584C97.3555 93.9584 97.6917 93.6026 97.6917 93.1076C97.6917 92.6126 97.3566 92.2568 96.8714 92.2568ZM97.6329 99.5634V94.9941C97.6326 94.8941 97.5928 94.7982 97.522 94.7275C97.4513 94.6567 97.3554 94.6169 97.2554 94.6166H96.4938C96.3936 94.6166 96.2975 94.6563 96.2265 94.7271C96.1555 94.7978 96.1155 94.8939 96.1152 94.9941V99.5634C96.1155 99.6636 96.1555 99.7597 96.2265 99.8304C96.2975 99.9012 96.3936 99.9409 96.4938 99.9409H97.2554C97.3554 99.9407 97.4513 99.9008 97.522 99.8301C97.5928 99.7593 97.6326 99.6635 97.6329 99.5634ZM107.584 94.6209H106.823C106.722 94.6209 106.626 94.6607 106.555 94.7314C106.484 94.8022 106.444 94.8982 106.444 94.9984V97.2505C106.444 98.0218 106.001 98.5952 105.268 98.605C104.656 98.605 104.27 98.1992 104.27 97.5268V94.9974C104.27 94.8971 104.23 94.8011 104.159 94.7303C104.088 94.6596 103.992 94.6198 103.892 94.6198H103.13C103.03 94.6198 102.934 94.6596 102.863 94.7303C102.792 94.8011 102.752 94.8971 102.752 94.9974V97.962C102.752 99.2186 103.494 99.9997 104.671 99.9997C105.472 99.9997 106.085 99.6733 106.448 99.001V99.5623C106.449 99.6626 106.489 99.7586 106.56 99.8293C106.631 99.9001 106.727 99.9399 106.827 99.9399H107.589C107.689 99.9396 107.785 99.8997 107.855 99.829C107.926 99.7582 107.966 99.6624 107.966 99.5623V94.993C107.966 94.893 107.926 94.7971 107.855 94.7264C107.785 94.6556 107.689 94.6158 107.589 94.6155L107.584 94.6209ZM120.288 94.5611C119.61 94.5687 119.061 94.7961 118.683 95.2585C118.647 95.3027 118.601 95.3381 118.549 95.3621C118.497 95.386 118.44 95.3979 118.383 95.3969C118.326 95.3958 118.27 95.3819 118.219 95.356C118.168 95.3302 118.123 95.2931 118.088 95.2476C117.756 94.8124 117.233 94.5611 116.565 94.5611C115.764 94.572 115.141 94.8875 114.766 95.5402V94.9963C114.765 94.8961 114.725 94.8003 114.654 94.7296C114.583 94.6589 114.487 94.619 114.387 94.6188H113.626C113.526 94.619 113.43 94.6589 113.359 94.7296C113.288 94.8004 113.248 94.8962 113.248 94.9963V99.5656C113.248 99.6656 113.288 99.7615 113.359 99.8322C113.43 99.903 113.526 99.9428 113.626 99.9431H114.387C114.487 99.9428 114.583 99.903 114.654 99.8323C114.725 99.7616 114.765 99.6657 114.766 99.5656V97.3092C114.766 96.5379 115.211 95.9645 115.953 95.9547C116.575 95.9547 116.971 96.3605 116.971 97.0427V99.5623C116.971 99.6624 117.011 99.7582 117.082 99.829C117.153 99.8997 117.248 99.9396 117.349 99.9399H118.11C118.21 99.9396 118.306 99.8997 118.377 99.829C118.448 99.7583 118.488 99.6625 118.489 99.5623V97.3092C118.489 96.5379 118.934 95.9645 119.665 95.9547C120.298 95.9547 120.693 96.3605 120.693 97.0427V99.5623C120.693 99.6625 120.734 99.7583 120.804 99.829C120.875 99.8997 120.971 99.9396 121.071 99.9399H121.833C121.933 99.9396 122.029 99.8997 122.1 99.829C122.17 99.7582 122.21 99.6624 122.211 99.5623V96.5977C122.211 95.3509 121.47 94.56 120.292 94.56L120.288 94.5611Z" fill="white"/>
<path fill-rule="evenodd" clip-rule="evenodd" d="M47.6478 45.5843V50.5736C47.6478 50.674 47.6877 50.7703 47.7587 50.8413C47.8297 50.9123 47.926 50.9522 48.0264 50.9522H50.0608C51.9103 50.9522 53.1723 49.7772 53.1723 48.0779C53.1723 46.3785 51.9245 45.2068 50.1185 45.2068H48.0264C47.9262 45.2068 47.83 45.2466 47.7591 45.3173C47.6881 45.3881 47.6481 45.4841 47.6478 45.5843ZM42.4387 46.7539V50.5704C42.4387 50.6706 42.4785 50.7667 42.5492 50.8377C42.62 50.9087 42.716 50.9487 42.8163 50.949H43.5267C43.6271 50.949 43.7234 50.9091 43.7944 50.8381C43.8654 50.7671 43.9053 50.6708 43.9053 50.5704V46.7539C43.9056 46.6538 43.9454 46.558 44.0162 46.4872C44.0869 46.4165 44.1828 46.3766 44.2828 46.3764H45.2619C45.3624 46.3764 45.4587 46.3365 45.5297 46.2655C45.6007 46.1945 45.6405 46.0982 45.6405 45.9977V45.5713C45.6405 45.4709 45.6007 45.3746 45.5297 45.3036C45.4587 45.2326 45.3624 45.1927 45.2619 45.1927H41.1017C41.0014 45.193 40.9054 45.233 40.8347 45.3039C40.7639 45.3749 40.7242 45.4711 40.7242 45.5713V45.9977C40.7242 46.098 40.7639 46.1941 40.8347 46.2651C40.9054 46.336 41.0014 46.3761 41.1017 46.3764H42.0601C42.1604 46.3763 42.2565 46.4161 42.3275 46.4869C42.3984 46.5576 42.4385 46.6536 42.4387 46.7539ZM29.4042 48.6306H31.3896C31.4897 48.6303 31.5855 48.5904 31.6563 48.5197C31.727 48.4489 31.7669 48.3531 31.7672 48.253V47.8581C31.7669 47.758 31.727 47.662 31.6563 47.5911C31.5856 47.5202 31.4898 47.4801 31.3896 47.4795H29.4042C29.3049 47.4795 29.2095 47.4405 29.1387 47.3709C29.0679 47.3014 29.0273 47.2067 29.0256 47.1074V46.7245C29.0256 46.6241 29.0654 46.5278 29.1364 46.4568C29.2074 46.3858 29.3037 46.3459 29.4042 46.3459H31.6888C31.7891 46.3456 31.8853 46.3056 31.9562 46.2347C32.0272 46.1637 32.0671 46.0676 32.0674 45.9673V45.5756C32.0674 45.5259 32.0576 45.4767 32.0386 45.4307C32.0196 45.3848 31.9917 45.3431 31.9565 45.3079C31.9214 45.2728 31.8796 45.2449 31.8337 45.2258C31.7878 45.2068 31.7385 45.197 31.6888 45.197H27.9431C27.8933 45.197 27.8441 45.2068 27.7982 45.2258C27.7522 45.2449 27.7105 45.2728 27.6753 45.3079C27.6402 45.3431 27.6123 45.3848 27.5933 45.4307C27.5742 45.4767 27.5645 45.5259 27.5645 45.5756V50.5638C27.5647 50.664 27.6048 50.7601 27.6757 50.8308C27.7467 50.9016 27.8428 50.9413 27.9431 50.9413H31.7769C31.8772 50.9413 31.9733 50.9016 32.0443 50.8308C32.1152 50.7601 32.1553 50.664 32.1556 50.5638V50.1646C32.1553 50.0642 32.1153 49.9681 32.0443 49.8972C31.9734 49.8262 31.8773 49.7862 31.7769 49.7859H29.4042C29.3039 49.7859 29.2078 49.7462 29.1368 49.6754C29.0659 49.6047 29.0258 49.5087 29.0256 49.4084V49.0092C29.0256 48.9088 29.0654 48.8124 29.1364 48.7414C29.2074 48.6704 29.3037 48.6306 29.4042 48.6306ZM34.4087 46.8583C34.4087 48.8928 37.4451 48.2846 37.4451 49.3051C37.4451 49.6315 37.1579 49.8044 36.6999 49.8044C36.207 49.8044 35.5216 49.5716 34.9592 49.2028C34.9147 49.174 34.8646 49.1548 34.8122 49.1465C34.7599 49.1382 34.7063 49.1409 34.6551 49.1545C34.6038 49.1682 34.556 49.1924 34.5147 49.2256C34.4734 49.2588 34.4395 49.3004 34.4152 49.3475L34.1976 49.7827C34.1571 49.8646 34.1478 49.9585 34.1714 50.0468C34.1951 50.135 34.25 50.2117 34.326 50.2625C35.0254 50.7251 35.8439 50.9749 36.6825 50.9816C37.9619 50.9816 38.9824 50.3745 38.9824 49.2246C38.9824 47.1488 35.9448 47.7134 35.9448 46.7223C35.9448 46.4416 36.1983 46.3035 36.5748 46.3035C36.9512 46.3035 37.5474 46.471 38.0805 46.7267C38.1709 46.7694 38.2745 46.7747 38.3688 46.7415C38.4631 46.7083 38.5405 46.6393 38.5842 46.5493L38.8116 46.0783C38.8544 45.9888 38.8605 45.8861 38.8286 45.7921C38.7967 45.6982 38.7292 45.6205 38.6408 45.5756C38.0364 45.2799 37.3727 45.1251 36.6999 45.123C35.3204 45.123 34.4087 45.7954 34.4087 46.854V46.8583ZM49.1089 49.4019V46.7452C49.1092 46.6449 49.1492 46.5489 49.2202 46.4782C49.2911 46.4074 49.3873 46.3676 49.4875 46.3676H50.0859C51.0128 46.3676 51.6862 47.0661 51.6862 48.0822C51.6862 49.0984 51.0465 49.7805 50.1511 49.7805H49.4875C49.3871 49.7805 49.2908 49.7406 49.2198 49.6696C49.1488 49.5986 49.1089 49.5023 49.1089 49.4019Z" fill="white"/>
<path fill-rule="evenodd" clip-rule="evenodd" d="M122.256 50.1059V50.5226C122.256 50.6226 122.296 50.7185 122.367 50.7892C122.437 50.8599 122.533 50.8998 122.633 50.9001H126.181C126.281 50.8998 126.377 50.8599 126.448 50.7892C126.519 50.7185 126.558 50.6226 126.559 50.5226V50.1211C126.558 50.0211 126.519 49.9252 126.448 49.8545C126.377 49.7838 126.281 49.7439 126.181 49.7436H125.013C124.939 49.7434 124.867 49.7217 124.805 49.6811C124.744 49.6405 124.695 49.5828 124.666 49.5151C124.637 49.4473 124.628 49.3726 124.641 49.2999C124.653 49.2273 124.687 49.1599 124.737 49.1061L125.301 48.5055C125.923 47.8658 126.381 47.2174 126.381 46.5951C126.381 45.6856 125.56 45.0938 124.423 45.0938C123.707 45.0938 123.016 45.3364 122.372 45.7574C122.293 45.8087 122.237 45.8876 122.213 45.9786C122.19 46.0696 122.201 46.1661 122.245 46.2491L122.432 46.606C122.457 46.6538 122.491 46.6957 122.533 46.7288C122.576 46.7618 122.625 46.7853 122.677 46.7975C122.729 46.8112 122.783 46.8132 122.836 46.8034C122.889 46.7936 122.939 46.7723 122.983 46.7409C123.406 46.4482 123.841 46.2742 124.209 46.2742C124.618 46.2742 124.861 46.4733 124.861 46.8007C124.861 47.0651 124.633 47.4535 124.31 47.7853L122.361 49.8524C122.327 49.8861 122.299 49.9263 122.281 49.9708C122.262 50.0153 122.252 50.0631 122.253 50.1113L122.256 50.1059ZM143.348 48.103C143.348 49.9819 144.259 51.0241 145.899 51.0241C147.538 51.0241 148.437 49.9819 148.437 48.103C148.437 46.2241 147.525 45.1862 145.899 45.1862C144.272 45.1862 143.348 46.2306 143.348 48.103ZM146.938 48.103C146.938 49.414 146.618 49.9525 145.893 49.9525C145.169 49.9525 144.844 49.4085 144.844 48.103C144.844 46.7975 145.156 46.2535 145.893 46.2535C146.631 46.2535 146.938 46.7855 146.938 48.103ZM129.087 48.0519C129.087 49.9307 130 50.973 131.639 50.973C133.279 50.973 134.176 49.9307 134.176 48.0519C134.176 46.173 133.266 45.1362 131.639 45.1362C130.013 45.1362 129.087 46.1806 129.087 48.0519ZM132.684 48.0519C132.684 49.3639 132.364 49.9013 131.639 49.9013C130.915 49.9013 130.589 49.3574 130.589 48.0519C130.589 46.7463 130.901 46.2024 131.639 46.2024C132.378 46.2024 132.684 46.7333 132.684 48.0519ZM136.51 50.1538V50.5693C136.511 50.6696 136.551 50.7655 136.622 50.8364C136.692 50.9073 136.788 50.9474 136.889 50.9479H140.435C140.536 50.9474 140.632 50.9073 140.702 50.8364C140.773 50.7655 140.813 50.6696 140.814 50.5693V50.169C140.814 50.0687 140.774 49.9725 140.703 49.9016C140.632 49.8306 140.536 49.7907 140.435 49.7904H139.265C139.191 49.7907 139.119 49.7693 139.057 49.729C138.995 49.6886 138.946 49.631 138.917 49.5632C138.887 49.4955 138.878 49.4206 138.891 49.3478C138.904 49.2751 138.938 49.2077 138.988 49.1539L139.553 48.5534V48.548C140.176 47.9093 140.633 47.2598 140.633 46.6386C140.633 45.7291 139.813 45.1362 138.675 45.1362C137.959 45.1362 137.269 45.3799 136.625 45.7998C136.546 45.8511 136.489 45.9302 136.466 46.0215C136.442 46.1127 136.454 46.2095 136.498 46.2927L136.685 46.6484C136.709 46.6964 136.743 46.7385 136.785 46.7716C136.828 46.8047 136.877 46.8281 136.929 46.8399C136.981 46.8535 137.035 46.8556 137.088 46.846C137.141 46.8364 137.191 46.8154 137.235 46.7844C137.659 46.4907 138.094 46.3166 138.462 46.3166C138.871 46.3166 139.115 46.5157 139.115 46.8432C139.115 47.1086 138.886 47.4959 138.563 47.8288L136.614 49.8959C136.58 49.93 136.553 49.9705 136.534 50.0151C136.516 50.0597 136.506 50.1076 136.506 50.1559L136.51 50.1538Z" fill="white"/>
<path fill-rule="evenodd" clip-rule="evenodd" d="M103.078 34.5559C102.737 33.9848 102.061 32.6064 102.399 31.0811C102.745 29.5286 104.233 28.3188 104.885 27.851C104.922 27.824 104.964 27.8061 105.009 27.7987C105.054 27.7914 105.1 27.7947 105.143 27.8085C105.187 27.8215 105.226 27.8443 105.259 27.8753C105.293 27.9062 105.318 27.9445 105.334 27.987C105.597 28.6887 106.122 30.3228 105.831 31.5859C105.531 32.8914 104.103 34.1534 103.512 34.6321C103.48 34.6583 103.442 34.6772 103.401 34.6875C103.361 34.6979 103.319 34.6995 103.277 34.6922C103.236 34.6848 103.197 34.6688 103.162 34.6451C103.128 34.6214 103.099 34.5907 103.077 34.5549L103.078 34.5559ZM100.116 30.3032C99.9396 30.303 99.7672 30.355 99.6205 30.4528C99.4739 30.5506 99.3595 30.6897 99.2919 30.8525C99.2243 31.0153 99.2065 31.1945 99.2407 31.3674C99.275 31.5403 99.3598 31.6992 99.4843 31.8239C99.6089 31.9486 99.7677 32.0336 99.9405 32.068C100.113 32.1025 100.293 32.0849 100.455 32.0175C100.618 31.9501 100.758 31.8359 100.856 31.6893C100.954 31.5428 101.006 31.3705 101.006 31.1942C101.006 30.9581 100.912 30.7316 100.745 30.5645C100.578 30.3975 100.352 30.3035 100.116 30.3032ZM94.6142 24.6339C95.9272 23.9483 97.0994 23.0216 98.0694 21.9021C98.1087 21.8571 98.1334 21.8014 98.1403 21.7421C98.1473 21.6828 98.1361 21.6228 98.1084 21.57C98.0806 21.5171 98.0375 21.4739 97.9847 21.446C97.932 21.4181 97.872 21.4068 97.8127 21.4136C97.5951 21.4398 97.3688 21.467 97.1316 21.4985H97.1066C97.0572 21.5092 97.007 21.5161 96.9565 21.5192H96.9315C93.5088 21.9761 88.2726 23.0053 85.5658 25.1866C85.5218 25.2222 85.4889 25.2697 85.4711 25.3234C85.4532 25.3771 85.4512 25.4349 85.4651 25.4897C85.4791 25.5446 85.5085 25.5943 85.5499 25.6329C85.5912 25.6716 85.6428 25.6975 85.6985 25.7077C87.053 25.9503 89.2082 26.0972 92.051 25.525C92.8922 25.355 93.7077 25.0763 94.4771 24.696L94.4956 24.6851C94.5276 24.6668 94.5606 24.6505 94.5946 24.6361L94.6142 24.6274V24.6339ZM91.2687 27.3146C87.9114 27.8194 85.4961 27.3875 84.2842 27.0524C84.2208 27.0346 84.1533 27.0386 84.0925 27.0639C84.0317 27.0891 83.9811 27.1342 83.9491 27.1917C83.7522 27.5387 83.5759 27.8814 83.4171 28.2198C83.3119 28.4483 83.2151 28.6716 83.1266 28.89C83.1106 28.9304 83.1037 28.9738 83.1064 29.0172C83.109 29.0605 83.1211 29.1028 83.1419 29.141C83.1626 29.1792 83.1915 29.2123 83.2264 29.2381C83.2614 29.2639 83.3016 29.2817 83.3442 29.2903C87.065 30.0432 89.7271 29.0619 91.4831 27.8488C91.538 27.8109 91.5785 27.7555 91.5979 27.6917C91.6173 27.6278 91.6144 27.5592 91.5898 27.4972C91.5652 27.4352 91.5202 27.3833 91.4623 27.3502C91.4044 27.317 91.3369 27.3045 91.2709 27.3146H91.2687ZM93.0203 28.7181C91.4113 30.0084 89.0124 31.2269 85.7224 31.1844C85.6763 31.1831 85.6305 31.193 85.5889 31.2132C85.5474 31.2335 85.5115 31.2636 85.4842 31.3008L84.3114 32.8359C84.2811 32.8753 84.2612 32.9217 84.2537 32.9708C84.2461 33.0199 84.2511 33.0701 84.2681 33.1168C84.2852 33.1635 84.3137 33.2051 84.3511 33.2378C84.3886 33.2704 84.4336 33.2931 84.4822 33.3037C86.0641 33.6551 87.697 34.0348 89.354 34.4297C89.4092 34.4432 89.4671 34.4401 89.5206 34.4207C89.574 34.4014 89.6205 34.3666 89.6542 34.3209L93.5219 29.2653C93.5584 29.2184 93.5796 29.1615 93.5827 29.1021C93.5858 29.0428 93.5707 28.9839 93.5393 28.9335L93.4577 28.7986C93.4366 28.7621 93.4078 28.7309 93.3731 28.707C93.3385 28.6831 93.299 28.6672 93.2575 28.6604C93.216 28.6526 93.1733 28.6539 93.1323 28.6642C93.0914 28.6746 93.0532 28.6937 93.0203 28.7202V28.7181ZM78.6117 22.0849C78.4357 22.0849 78.2636 22.1371 78.1173 22.2349C77.9709 22.3327 77.8568 22.4717 77.7895 22.6343C77.7221 22.7969 77.7045 22.9758 77.7388 23.1485C77.7732 23.3211 77.8579 23.4797 77.9824 23.6041C78.1069 23.7286 78.2654 23.8133 78.4381 23.8477C78.6107 23.882 78.7896 23.8644 78.9522 23.797C79.1149 23.7297 79.2538 23.6156 79.3516 23.4693C79.4494 23.3229 79.5016 23.1509 79.5016 22.9748C79.5013 22.7389 79.4075 22.5127 79.2406 22.3459C79.0738 22.179 78.8476 22.0852 78.6117 22.0849ZM68.0587 30.0834C67.8824 30.0832 67.71 30.1353 67.5634 30.2331C67.4167 30.3308 67.3023 30.4699 67.2347 30.6327C67.1671 30.7955 67.1493 30.9747 67.1836 31.1476C67.2178 31.3205 67.3026 31.4794 67.4272 31.6041C67.5517 31.7288 67.7105 31.8138 67.8834 31.8483C68.0562 31.8827 68.2354 31.8652 68.3983 31.7977C68.5612 31.7303 68.7004 31.6161 68.7984 31.4696C68.8963 31.323 68.9486 31.1507 68.9486 30.9744C68.9486 30.7383 68.8549 30.5119 68.688 30.3448C68.5212 30.1777 68.2948 30.0837 68.0587 30.0834ZM69.4251 33.3287C69.2492 33.329 69.0772 33.3813 68.931 33.4793C68.7848 33.5772 68.6709 33.7162 68.6037 33.8789C68.5365 34.0415 68.5191 34.2204 68.5535 34.393C68.588 34.5655 68.6728 34.724 68.7973 34.8483C68.9218 34.9727 69.0804 35.0573 69.253 35.0916C69.4256 35.1258 69.6045 35.1082 69.767 35.0408C69.9296 34.9734 70.0685 34.8593 70.1662 34.713C70.264 34.5667 70.3161 34.3946 70.3161 34.2187C70.3161 34.1017 70.2931 33.9859 70.2483 33.8779C70.2035 33.7698 70.1379 33.6717 70.0551 33.589C69.9724 33.5064 69.8741 33.4408 69.766 33.3962C69.6579 33.3515 69.5421 33.3286 69.4251 33.3287ZM102.52 13.5935C99.4326 15.6606 97.2535 18.7232 96.5104 19.8546C96.488 19.8901 96.458 19.9201 96.4227 19.9427C96.3873 19.9652 96.3475 19.9797 96.3059 19.9852C92.0216 20.6086 85.3612 22.1034 83.0864 25.4978L83.0744 25.5152C83.0505 25.5451 83.0294 25.5772 83.0113 25.6109C83.0081 25.617 83.0044 25.6228 83.0004 25.6283C82.6049 26.2396 82.2516 26.8772 81.9429 27.5366C81.8069 27.827 81.684 28.1143 81.5741 28.396C81.5592 28.4345 81.5363 28.4693 81.507 28.4984C81.4778 28.5275 81.4427 28.5501 81.4042 28.5647C81.3656 28.5794 81.3244 28.5858 81.2832 28.5835C81.242 28.5813 81.2018 28.5704 81.1651 28.5516C80.5244 28.2234 79.9075 27.8507 79.3188 27.4365C78.3952 26.7837 77.552 26.0526 76.9624 25.3346C76.0594 24.2314 74.8213 24.1378 73.8443 24.2989C73.7986 24.3073 73.7516 24.3045 73.7072 24.2906C73.6629 24.2768 73.6225 24.2524 73.5898 24.2194C73.5562 24.1873 73.5309 24.1477 73.516 24.1037C73.501 24.0598 73.4968 24.0129 73.5038 23.967C73.6474 22.9226 74.0674 21.5257 75.2293 20.4704C75.3591 20.3533 75.4961 20.2443 75.6394 20.144C76.4956 19.546 77.5526 19.3085 78.5823 19.4826C79.5465 19.6292 80.4334 20.0955 81.1009 20.8066C81.194 20.9098 81.2805 21.0188 81.3598 21.133L81.3707 21.1471L81.3816 21.1612L81.3914 21.1732L81.4011 21.1852L81.4131 21.1993L81.4196 21.2069C81.4238 21.2122 81.4285 21.2169 81.4338 21.2211H81.4392L81.4479 21.2309L81.4588 21.2418H81.4642L81.4708 21.2472C81.5694 21.3324 81.6869 21.3928 81.8135 21.4234H81.8244H81.8407H81.8505H81.8646H82.0953H82.1105H82.1301H82.1377H82.1464C82.2172 21.4104 82.286 21.3881 82.3509 21.3571C82.6773 21.2059 87.3924 19.0942 93.5436 18.9908H93.5621C93.7302 18.998 93.8965 18.9532 94.0383 18.8625C94.18 18.7718 94.2903 18.6395 94.3541 18.4838C94.3541 18.474 95.6096 15.3288 98.9616 13.624C99.1482 13.523 99.2881 13.3531 99.3512 13.1504C99.4144 12.9478 99.3959 12.7285 99.2997 12.5393C99.2034 12.3502 99.0371 12.2061 98.8362 12.1378C98.6352 12.0695 98.4155 12.0824 98.2239 12.1738C95.3235 13.649 93.7634 16.0773 93.1541 17.2284C93.1306 17.2745 93.095 17.3134 93.0512 17.341C93.0073 17.3686 92.9568 17.3838 92.905 17.385C89.3146 17.5342 85.7727 18.2691 82.4195 19.5609C82.366 19.583 82.3071 19.5885 82.2504 19.5767C82.1937 19.5648 82.142 19.5362 82.1018 19.4945C81.2012 18.6106 80.0467 18.0304 78.7999 17.8354C77.3526 17.5919 75.8676 17.9276 74.6657 18.77C74.4667 18.9102 74.2766 19.0628 74.0967 19.2269C71.5064 21.5779 71.7675 25.1888 71.799 25.5369V25.5424C71.8087 25.676 71.8514 25.8052 71.9232 25.9184C71.995 26.0315 72.0937 26.1252 72.2105 26.1909C72.3273 26.2566 72.4585 26.2924 72.5925 26.295C72.7265 26.2977 72.859 26.2671 72.9783 26.206C73.0403 26.1745 74.8017 25.2628 75.6677 26.3148C76.3553 27.1547 77.3105 27.9924 78.3419 28.7159C79.3445 29.4288 80.428 30.0204 81.5698 30.4783L81.5839 30.4849C81.6172 30.4991 81.6513 30.5111 81.6862 30.5208C82.1888 30.6644 82.6751 30.7797 83.1473 30.87C83.1968 30.8793 83.243 30.9012 83.2816 30.9334C83.3203 30.9657 83.35 31.0073 83.368 31.0543C83.386 31.1013 83.3917 31.1522 83.3844 31.202C83.3772 31.2518 83.3574 31.2989 83.3268 31.3389L82.3477 32.6249C82.314 32.6695 82.2682 32.7036 82.2157 32.7229C82.1632 32.7422 82.1063 32.7459 82.0517 32.7336C78.244 31.9286 74.8333 31.3193 72.2168 31.0321C72.0059 31.0158 71.797 31.0823 71.6344 31.2176C71.4718 31.3528 71.3683 31.5461 71.3459 31.7564C71.3236 31.9667 71.3841 32.1774 71.5146 32.3439C71.6451 32.5103 71.8353 32.6193 72.0449 32.6477C76.7285 33.1536 84.0209 34.7376 91.5451 36.5904C91.6087 36.6067 91.6652 36.6437 91.7054 36.6956C91.7457 36.7475 91.7676 36.8113 91.7676 36.8771C91.7676 36.9428 91.7457 37.0066 91.7054 37.0585C91.6652 37.1104 91.6087 37.1474 91.5451 37.1637L84.8554 38.9479C84.7522 38.9742 84.6552 39.0206 84.57 39.0843C84.4848 39.1481 84.4129 39.228 84.3586 39.3196C84.3042 39.4111 84.2684 39.5124 84.2532 39.6178C84.238 39.7231 84.2438 39.8305 84.27 39.9336C84.2963 40.0368 84.3427 40.1337 84.4064 40.219C84.4702 40.3042 84.5501 40.3761 84.6417 40.4304C84.7332 40.4848 84.8345 40.5206 84.9399 40.5357C85.0452 40.5509 85.1526 40.5452 85.2557 40.5189L95.9371 37.7773C95.9853 37.7648 96.0358 37.7648 96.084 37.7773C99.5719 38.6716 103.008 39.5877 106.157 40.4471L106.181 40.4547C106.22 40.4688 106.26 40.4797 106.301 40.4874H106.318L108.937 41.2032C109 41.2199 109.055 41.2569 109.094 41.3085C109.134 41.3601 109.155 41.4234 109.154 41.4883V49.5771C109.154 49.616 109.147 49.6544 109.132 49.6903C109.117 49.7262 109.095 49.7589 109.068 49.7863C109.04 49.8138 109.008 49.8356 108.972 49.8505C108.936 49.8654 108.897 49.873 108.859 49.873H65.5368C65.4584 49.873 65.3831 49.8418 65.3276 49.7863C65.2721 49.7309 65.2409 49.6556 65.2409 49.5771V17.0108C65.2403 16.9635 65.2514 16.9168 65.2732 16.8748C65.295 16.8328 65.3269 16.7969 65.366 16.7703L86.298 1.95805C86.3476 1.92253 86.4072 1.90342 86.4682 1.90342C86.5293 1.90342 86.5888 1.92253 86.6385 1.95805L102.522 13.104C102.562 13.131 102.595 13.1674 102.617 13.2098C102.64 13.2523 102.651 13.2996 102.651 13.3477C102.651 13.3957 102.64 13.443 102.617 13.4855C102.595 13.528 102.562 13.5643 102.522 13.5914L102.52 13.5935ZM63.6101 16.5364C63.5883 16.3858 63.6085 16.2322 63.6686 16.0924C63.7287 15.9526 63.8263 15.8322 63.9506 15.7444L85.9923 0.150986C86.1316 0.0530437 86.2979 0.000488281 86.4682 0.000488281C86.6386 0.000488281 86.8048 0.0530437 86.9442 0.150986L104.374 12.3772C104.415 12.407 104.463 12.4255 104.514 12.4306C104.564 12.4358 104.615 12.4275 104.661 12.4066C105.046 12.2402 105.439 12.0949 105.84 11.9714C106.045 11.9117 106.265 11.9354 106.453 12.0373C106.641 12.1392 106.781 12.3111 106.843 12.5157C106.905 12.7203 106.884 12.9411 106.784 13.13C106.684 13.319 106.513 13.4609 106.309 13.525C103.103 14.5042 100.5 17.2501 99.0051 19.1594C98.9696 19.2048 98.9481 19.2595 98.9433 19.3168C98.9386 19.3742 98.9507 19.4317 98.9782 19.4823C99.0058 19.5328 99.0475 19.5742 99.0983 19.6013C99.1491 19.6285 99.2067 19.6401 99.264 19.6349C99.7253 19.5946 100.019 19.5761 100.094 19.5707C100.187 19.5639 100.28 19.5723 100.369 19.5957H100.376C100.401 19.6024 100.426 19.6108 100.45 19.6207H100.463H100.473H100.486L100.501 19.6273H100.512H100.521L100.531 19.6338L100.56 19.6501C100.672 19.7162 100.767 19.8088 100.835 19.9199L100.845 19.9351L100.855 19.9525L100.863 19.9689L100.869 19.9776L100.877 19.995C100.9 20.044 100.918 20.095 100.932 20.1473C100.932 20.1473 100.932 20.1473 100.932 20.1538C100.932 20.1603 100.932 20.1734 100.932 20.1843V20.1919V20.2354C100.932 20.2354 100.932 20.2419 100.932 20.2452C100.95 20.359 100.944 20.4754 100.914 20.5868C100.907 20.6118 100.899 20.6379 100.889 20.6619L100.883 20.6771V20.6826L100.876 20.6978L100.87 20.713L100.864 20.725V20.7315L100.858 20.7435C100.851 20.7554 99.1171 24.0193 95.5356 25.9471C95.4912 25.9703 95.4536 26.0048 95.4268 26.0472C95.1759 26.4343 94.8989 26.804 94.5978 27.1536C94.5572 27.2007 94.5326 27.2595 94.5275 27.3214C94.5224 27.3834 94.5372 27.4454 94.5696 27.4985L95.3028 28.7159C95.3907 28.8608 95.431 29.0297 95.4179 29.1987C95.4048 29.3677 95.3391 29.5283 95.2299 29.658L95.2212 29.6689L91.5222 34.5135C91.4922 34.5523 91.4723 34.5981 91.4645 34.6466C91.4567 34.6951 91.4611 34.7448 91.4775 34.7911C91.4938 34.8374 91.5215 34.8789 91.558 34.9118C91.5945 34.9446 91.6387 34.9678 91.6865 34.9791C94.6239 35.7004 97.6016 36.4631 100.475 37.2203C100.539 37.2377 100.607 37.2328 100.668 37.2067C100.729 37.1805 100.78 37.1344 100.811 37.076C100.843 37.0176 100.854 36.9502 100.842 36.8847C100.831 36.8193 100.798 36.7597 100.748 36.7155C99.9657 36.0105 99.2956 35.2642 98.9148 34.5396C98.8138 34.349 98.7926 34.1261 98.856 33.92C98.9193 33.7138 99.062 33.5412 99.2526 33.4403C99.4432 33.3393 99.6661 33.3181 99.8722 33.3815C100.078 33.4448 100.251 33.5875 100.352 33.7781C101.47 35.9093 105.969 38.4693 106.717 38.8838C106.738 38.8952 106.76 38.9039 106.783 38.9099L108.764 39.4538C108.808 39.4657 108.854 39.4673 108.898 39.4585C108.943 39.4498 108.985 39.4309 109.021 39.4033C109.057 39.3758 109.086 39.3403 109.106 39.2996C109.126 39.259 109.137 39.2142 109.137 39.1688V17.9083C109.138 17.8606 109.127 17.8134 109.105 17.7711C109.083 17.7287 109.05 17.6925 109.011 17.6657L106.09 15.6171C106.048 15.5878 106.014 15.5479 105.992 15.5015C105.97 15.455 105.96 15.4036 105.964 15.3524C105.968 15.3012 105.985 15.2519 106.014 15.2094C106.043 15.1669 106.083 15.1327 106.129 15.1101C106.473 14.9426 106.857 14.762 107.259 14.5868C107.306 14.5658 107.357 14.5573 107.407 14.5623C107.458 14.5673 107.506 14.5855 107.548 14.6151L110.427 16.6365C110.6 16.757 110.72 16.9393 110.761 17.1457V17.1642C110.778 17.257 110.778 17.352 110.761 17.4449C110.76 17.4601 110.76 17.4753 110.761 17.4905V39.8009C110.761 39.8658 110.782 39.929 110.821 39.9806C110.861 40.0322 110.916 40.0693 110.979 40.0859C114.532 41.0651 113.936 40.9236 113.969 40.9334C114.071 40.9635 114.166 41.0134 114.249 41.0804C114.332 41.1473 114.401 41.2299 114.452 41.3235C114.503 41.4171 114.536 41.5199 114.547 41.6259C114.558 41.7319 114.549 41.8391 114.519 41.9414C114.488 42.0437 114.439 42.1391 114.372 42.2221C114.305 42.3051 114.222 42.3741 114.128 42.4251C114.035 42.4762 113.932 42.5083 113.826 42.5197C113.72 42.5311 113.613 42.5214 113.511 42.4914C113.48 42.4827 113.998 42.6056 111.137 41.8147C111.093 41.8024 111.047 41.8005 111.002 41.809C110.957 41.8175 110.915 41.8362 110.879 41.8637C110.843 41.8912 110.813 41.9267 110.793 41.9675C110.773 42.0082 110.762 42.0531 110.762 42.0986V50.6868C110.762 50.9029 110.677 51.1102 110.524 51.263C110.371 51.4158 110.164 51.5017 109.948 51.5017H64.426C64.2101 51.5014 64.0031 51.4154 63.8506 51.2626C63.698 51.1098 63.6123 50.9027 63.6123 50.6868V16.5832C63.6123 16.568 63.6123 16.556 63.6123 16.5408L63.6101 16.5364ZM87.9027 41.6254C87.7264 41.6254 87.5541 41.6776 87.4075 41.7756C87.261 41.8736 87.1468 42.0128 87.0794 42.1757C87.012 42.3385 86.9944 42.5177 87.0288 42.6906C87.0633 42.8635 87.1483 43.0222 87.273 43.1468C87.3977 43.2714 87.5566 43.3562 87.7295 43.3904C87.9024 43.4247 88.0816 43.4069 88.2444 43.3393C88.4072 43.2717 88.5463 43.1573 88.6441 43.0106C88.7418 42.8639 88.7939 42.6916 88.7937 42.5153C88.7937 42.3983 88.7706 42.2825 88.7258 42.1745C88.681 42.0664 88.6154 41.9683 88.5326 41.8856C88.4499 41.803 88.3517 41.7374 88.2436 41.6928C88.1355 41.6481 88.0196 41.6252 87.9027 41.6254ZM84.69 41.9517C84.7705 42.4424 84.8738 43.3661 84.69 44.1972C84.4942 45.06 83.3257 45.8727 82.6936 46.2567C82.6492 46.2834 82.5986 46.2979 82.5468 46.2989C82.495 46.2999 82.4438 46.2872 82.3984 46.2622C82.353 46.2372 82.315 46.2007 82.2882 46.1564C82.2613 46.1121 82.2466 46.0616 82.2454 46.0098C82.2356 45.4571 82.3313 44.4768 82.958 43.3389C83.4943 42.3597 83.948 41.9365 84.2461 41.7494C84.2874 41.7237 84.3343 41.7086 84.3829 41.7053C84.4314 41.7021 84.4799 41.7109 84.5242 41.7309C84.5686 41.7509 84.6073 41.7815 84.6369 41.82C84.6666 41.8586 84.6863 41.9038 84.6943 41.9517H84.69ZM82.3444 39.5137C81.9092 39.2493 80.5787 38.6139 79.0806 39.7008C77.762 40.6549 77.0189 42.6002 76.7056 43.6174C76.6886 43.6726 76.6882 43.7316 76.7043 43.787C76.7205 43.8425 76.7525 43.892 76.7965 43.9295C76.8404 43.967 76.8944 43.9908 76.9517 43.9979C77.009 44.0051 77.0672 43.9953 77.119 43.9699C78.203 43.4325 79.3154 42.9546 80.4514 42.5381C82.1921 41.9115 82.4477 40.322 82.4847 39.7933C82.4891 39.7392 82.4782 39.685 82.4534 39.6368C82.4286 39.5885 82.3909 39.5482 82.3444 39.5202V39.5137ZM76.5925 35.0869C76.5664 35.5927 76.3357 37.0517 74.5896 37.6772C73.0578 38.2266 71.032 37.7392 70.0202 37.4216C69.9638 37.4052 69.9135 37.3724 69.8759 37.3272C69.8382 37.2821 69.8149 37.2268 69.809 37.1683C69.803 37.1098 69.8147 37.0509 69.8424 36.9991C69.8702 36.9473 69.9128 36.905 69.9647 36.8776C71.0234 36.2878 72.049 35.6406 73.0371 34.9389C74.5373 33.8586 75.9941 34.5451 76.4521 34.8127C76.499 34.8398 76.5374 34.8793 76.5632 34.927C76.5889 34.9746 76.6009 35.0284 76.5979 35.0825L76.5925 35.0869ZM73.4059 29.2816C72.8336 28.6289 71.5999 27.3668 70.2911 26.9502C69.226 26.6107 68.5504 26.6183 68.1696 26.6804C68.123 26.6882 68.0788 26.7071 68.041 26.7355C68.0031 26.7639 67.9726 26.801 67.9521 26.8436C67.9315 26.8862 67.9214 26.9332 67.9228 26.9805C67.9241 27.0278 67.9367 27.0741 67.9597 27.1155C68.2556 27.6464 68.9551 28.7061 70.1007 29.3197C71.1887 29.9007 72.504 29.8539 73.2188 29.7701C73.2724 29.764 73.3233 29.7432 73.3659 29.7102C73.4085 29.6771 73.4413 29.633 73.4606 29.5826C73.4799 29.5323 73.485 29.4776 73.4753 29.4245C73.4657 29.3714 73.4417 29.322 73.4059 29.2816Z" fill="white"/>
<path d="M25.6836 82.002V62.5181C25.6836 62.4177 25.7235 62.3214 25.7945 62.2504C25.8655 62.1794 25.9618 62.1395 26.0622 62.1395H30.2464C31.4024 62.1256 32.536 62.4579 33.5016 63.0936C34.3306 63.631 34.9213 64.4651 35.2738 65.5959C35.4807 66.2921 35.579 67.0161 35.5654 67.7424C35.5654 69.0979 35.2071 70.1859 34.4905 71.0062C34.3382 71.1796 34.1678 71.3365 33.9824 71.474C33.9337 71.5101 33.8943 71.5575 33.8677 71.6121C33.841 71.6666 33.8279 71.7268 33.8294 71.7875C33.8309 71.8482 33.8469 71.9076 33.8762 71.9608C33.9055 72.014 33.9472 72.0593 33.9977 72.093C34.4675 72.4145 34.8605 72.8358 35.1487 73.3268C35.4642 73.8424 35.6927 74.5115 35.8374 75.3296C35.9155 75.7936 35.9519 76.2637 35.9462 76.7342C35.9462 78.0136 35.7039 79.1015 35.2194 79.998C34.851 80.6917 34.2998 81.2715 33.6256 81.6745C32.8531 82.1474 32.0843 82.3846 31.3192 82.386H26.0622C26.0121 82.386 25.9624 82.3761 25.9161 82.3567C25.8698 82.3373 25.8278 82.3089 25.7926 82.2732C25.7574 82.2375 25.7296 82.1951 25.7109 82.1485C25.6922 82.102 25.6829 82.0521 25.6836 82.002ZM29.3554 79.3583H30.2464C31.2713 79.3583 31.9828 78.827 32.381 77.7645C32.5273 77.362 32.5981 76.936 32.5899 76.5079C32.5899 75.383 32.3723 74.5616 31.9458 74.047C31.5629 73.5741 30.9964 73.338 30.2464 73.3387H29.3554C29.2552 73.339 29.1592 73.379 29.0884 73.45C29.0176 73.521 28.9779 73.6171 28.9779 73.7173V78.984C28.9782 79.0841 29.0181 79.1799 29.0888 79.2507C29.1595 79.3214 29.2554 79.3613 29.3554 79.3615V79.3583ZM29.3554 70.4089H30.2464C31.1886 70.4089 31.8207 69.9422 32.1384 69.0153C32.2679 68.6026 32.3292 68.1715 32.3201 67.7391C32.3201 66.8949 32.1155 66.2595 31.7108 65.8276C31.5236 65.63 31.2965 65.4745 31.0446 65.3713C30.7927 65.2681 30.5217 65.2197 30.2497 65.2292H29.3554C29.2552 65.2295 29.1592 65.2695 29.0884 65.3405C29.0176 65.4115 28.9779 65.5076 28.9779 65.6078V70.0303C28.9779 70.1305 29.0176 70.2267 29.0884 70.2976C29.1592 70.3686 29.2552 70.4086 29.3554 70.4089ZM44.0905 82.3762H41.8058C41.7056 82.3762 41.6094 82.3365 41.5385 82.2657C41.4675 82.1949 41.4275 82.0989 41.4272 81.9987V62.5409C41.4272 62.4405 41.4671 62.3442 41.5381 62.2732C41.6091 62.2022 41.7054 62.1623 41.8058 62.1623H44.0905C44.1909 62.1623 44.2872 62.2022 44.3582 62.2732C44.4292 62.3442 44.4691 62.4405 44.4691 62.5409V82.002C44.4688 82.1022 44.4288 82.1982 44.3578 82.269C44.2868 82.3397 44.1907 82.3795 44.0905 82.3795V82.3762ZM54.8306 62.1591C56.5299 62.1591 57.7793 62.6272 58.5785 63.5636C59.2777 64.3839 59.6273 65.5248 59.6273 66.9862V69.9237C59.6364 70.5752 59.5092 71.2214 59.2541 71.8209C58.9989 72.4204 58.6213 72.96 58.1455 73.4051C58.0972 73.451 58.0622 73.5091 58.0442 73.5732C58.0262 73.6374 58.0259 73.7052 58.0433 73.7695L60.1278 81.9073C60.142 81.9631 60.1433 82.0215 60.1316 82.0779C60.1198 82.1343 60.0953 82.1873 60.0599 82.2328C60.0245 82.2782 59.9792 82.315 59.9274 82.3402C59.8756 82.3655 59.8187 82.3785 59.7611 82.3784H57.2589C57.1739 82.3794 57.0912 82.3514 57.0243 82.2989C56.9574 82.2465 56.9105 82.1728 56.8911 82.0901L55.1776 75.0577C55.1582 74.9749 55.1112 74.9012 55.0444 74.8487C54.9776 74.7961 54.8949 74.7677 54.8099 74.7683H53.4402C53.3401 74.7688 53.2442 74.809 53.1735 74.8799C53.1028 74.9508 53.063 75.0467 53.0627 75.1469V82.0009C53.0624 82.1011 53.0224 82.1971 52.9514 82.2679C52.8804 82.3387 52.7843 82.3784 52.6841 82.3784H50.3994C50.2994 82.3781 50.2035 82.3382 50.1328 82.2675C50.062 82.1968 50.0222 82.1009 50.0219 82.0009V62.5409C50.0219 62.4407 50.0616 62.3446 50.1324 62.2736C50.2032 62.2026 50.2992 62.1626 50.3994 62.1623L54.8306 62.1591ZM56.6518 67.0319C56.6518 65.8584 56.0716 65.2717 54.9111 65.2717H53.4402C53.3402 65.2719 53.2443 65.3118 53.1736 65.3825C53.1028 65.4533 53.063 65.5491 53.0627 65.6492V71.3685C53.063 71.4686 53.1028 71.5646 53.1735 71.6355C53.2442 71.7064 53.3401 71.7465 53.4402 71.7471H54.9057C55.1367 71.7525 55.3664 71.7096 55.5799 71.6212C55.7935 71.5327 55.9863 71.4007 56.1459 71.2336C56.3111 71.0714 56.4416 70.8774 56.5295 70.6632C56.6174 70.4491 56.6609 70.2193 56.6572 69.9879V67.0352L56.6518 67.0319ZM75.2664 77.5349C75.2762 78.1706 75.1567 78.8017 74.9153 79.3898C74.6739 79.978 74.3155 80.511 73.8619 80.9565C73.4255 81.4138 72.8993 81.776 72.3163 82.0203C71.7333 82.2646 71.1061 82.3858 70.474 82.3762H66.0581C65.9581 82.3759 65.8622 82.3361 65.7915 82.2653C65.7207 82.1946 65.6809 82.0987 65.6806 81.9987V62.5181C65.6806 62.4179 65.7203 62.3217 65.7911 62.2508C65.8619 62.1798 65.9579 62.1398 66.0581 62.1395H70.474C71.1074 62.1287 71.7361 62.2493 72.3205 62.4937C72.9049 62.7381 73.4323 63.1009 73.8695 63.5592C74.3204 64.0034 74.6766 64.5343 74.9167 65.12C75.1568 65.7056 75.2758 66.3338 75.2664 66.9667V77.5382V77.5349ZM69.1022 79.355H70.5643C70.7943 79.3594 71.0225 79.3147 71.2339 79.2241C71.4453 79.1336 71.635 78.999 71.7904 78.8295C71.9515 78.6671 72.0787 78.4743 72.1646 78.2624C72.2505 78.0504 72.2934 77.8234 72.2909 77.5947V67.0167C72.2943 66.7856 72.251 66.5562 72.1637 66.3421C72.0764 66.1281 71.9469 65.9339 71.7828 65.771C71.6261 65.606 71.437 65.4751 71.2273 65.3865C71.0176 65.298 70.7919 65.2537 70.5643 65.2564H69.1022C69.0021 65.2567 68.9063 65.2966 68.8355 65.3673C68.7648 65.4381 68.7249 65.5339 68.7246 65.6339V78.984C68.7249 79.0841 68.7648 79.1799 68.8355 79.2507C68.9063 79.3214 69.0021 79.3613 69.1022 79.3615V79.355ZM83.8035 74.1971V82.0052C83.8032 82.1055 83.7632 82.2015 83.6922 82.2722C83.6212 82.343 83.5251 82.3827 83.4249 82.3827H81.1402C81.0402 82.3825 80.9443 82.3426 80.8736 82.2719C80.8028 82.2011 80.763 82.1053 80.7627 82.0052V62.5409C80.7627 62.4407 80.8024 62.3446 80.8732 62.2736C80.9439 62.2026 81.04 62.1626 81.1402 62.1623H83.4249C83.5253 62.1623 83.6216 62.2022 83.6926 62.2732C83.7636 62.3442 83.8035 62.4405 83.8035 62.5409V70.3741C83.8035 70.4743 83.8432 70.5704 83.914 70.6414C83.9847 70.7124 84.0808 70.7524 84.181 70.7527H87.1054C87.2056 70.7524 87.3016 70.7124 87.3724 70.6414C87.4431 70.5704 87.4829 70.4743 87.4829 70.3741V62.5409C87.4832 62.4406 87.5231 62.3445 87.5941 62.2735C87.665 62.2026 87.7612 62.1626 87.8615 62.1623H90.1461C90.2464 62.1626 90.3424 62.2026 90.4131 62.2736C90.4839 62.3446 90.5237 62.4407 90.5237 62.5409V82.002C90.5234 82.102 90.4835 82.1979 90.4128 82.2686C90.342 82.3393 90.2462 82.3792 90.1461 82.3795H87.8615C87.7613 82.3792 87.6654 82.3394 87.5945 82.2687C87.5235 82.198 87.4834 82.1021 87.4829 82.002V74.1971C87.4826 74.0971 87.4427 74.0012 87.372 73.9305C87.3012 73.8597 87.2054 73.8199 87.1054 73.8196H84.181C84.0809 73.8199 83.9851 73.8597 83.9144 73.9305C83.8436 74.0012 83.8037 74.0971 83.8035 74.1971ZM100.87 61.9121C101.505 61.9121 102.134 62.0373 102.721 62.2806C103.308 62.5238 103.841 62.8803 104.29 63.3297C104.739 63.7791 105.095 64.3126 105.338 64.8997C105.581 65.4868 105.705 66.116 105.705 66.7513V77.7873C105.705 79.0675 105.196 80.2954 104.291 81.2006C103.386 82.1059 102.158 82.6145 100.878 82.6145C99.5973 82.6145 98.3695 82.1059 97.4642 81.2006C96.559 80.2954 96.0504 79.0675 96.0504 77.7873V66.7513C96.0492 65.4709 96.556 64.2423 97.4595 63.3351C98.3631 62.4279 99.5896 61.9161 100.87 61.9121ZM102.525 66.699C102.526 66.4702 102.481 66.2435 102.394 66.0319C102.307 65.8203 102.179 65.6281 102.017 65.4662C101.855 65.3044 101.663 65.1763 101.451 65.0891C101.24 65.0019 101.013 64.9575 100.784 64.9583C100.553 64.955 100.324 64.9983 100.111 65.0856C99.8974 65.1729 99.7038 65.3024 99.5416 65.4664C99.3754 65.6255 99.2439 65.8172 99.1554 66.0295C99.0668 66.2418 99.0231 66.4701 99.027 66.7001V77.7536C99.0234 77.983 99.0672 78.2106 99.1555 78.4223C99.2439 78.634 99.3749 78.8252 99.5405 78.984C99.7027 79.148 99.8963 79.2776 100.11 79.3649C100.323 79.4522 100.552 79.4955 100.783 79.4921C101.012 79.493 101.238 79.4485 101.45 79.3613C101.662 79.2742 101.854 79.146 102.016 78.9842C102.178 78.8224 102.306 78.6301 102.393 78.4186C102.48 78.207 102.524 77.9802 102.524 77.7514V66.6979L102.525 66.699ZM116.015 82.608C115.382 82.6123 114.754 82.4909 114.168 82.2509C113.582 82.0109 113.05 81.6571 112.601 81.2098C112.153 80.7626 111.798 80.2308 111.557 79.6454C111.315 79.06 111.193 78.4325 111.196 77.7993V62.5409C111.196 62.4406 111.236 62.3445 111.307 62.2735C111.378 62.2026 111.474 62.1626 111.574 62.1623H113.794C113.894 62.1623 113.99 62.2022 114.061 62.2732C114.132 62.3442 114.172 62.4405 114.172 62.5409V77.7721C114.168 78.0028 114.211 78.2319 114.3 78.4449C114.389 78.658 114.52 78.8504 114.687 79.0101C114.849 79.174 115.043 79.3034 115.256 79.3905C115.47 79.4776 115.699 79.5207 115.929 79.5171C116.158 79.5184 116.385 79.4743 116.597 79.3873C116.809 79.3002 117.001 79.1721 117.163 79.0102C117.325 78.8483 117.453 78.6559 117.54 78.4441C117.627 78.2323 117.671 78.0054 117.67 77.7764V62.5453C117.67 62.4449 117.71 62.3486 117.781 62.2776C117.852 62.2066 117.948 62.1667 118.048 62.1667H120.472C120.573 62.167 120.669 62.207 120.74 62.2779C120.811 62.3488 120.851 62.445 120.851 62.5453V77.7993C120.851 79.1548 120.38 80.2943 119.437 81.2176C118.991 81.6678 118.458 82.023 117.871 82.2618C117.284 82.5005 116.655 82.6179 116.022 82.6069L116.015 82.608ZM136.287 77.3521C136.31 78.7614 135.944 79.9654 135.188 80.9641C134.693 81.6422 133.994 82.1206 133.091 82.3991C132.542 82.5595 131.971 82.6361 131.399 82.6264C130.202 82.6264 129.214 82.3316 128.426 81.7365C127.747 81.2219 127.212 80.5416 126.871 79.7608C126.521 78.9742 126.305 78.1348 126.231 77.2771C126.225 77.2268 126.23 77.1758 126.245 77.1275C126.26 77.0791 126.285 77.0345 126.318 76.9964C126.35 76.9574 126.39 76.9255 126.435 76.9027C126.48 76.8798 126.53 76.8665 126.58 76.8636L128.745 76.7081C128.84 76.7012 128.934 76.7305 129.009 76.79C129.083 76.8495 129.132 76.9348 129.147 77.029C129.298 78.0277 129.594 78.7654 130.035 79.2419C130.404 79.6411 130.823 79.8326 131.296 79.8098C131.963 79.7869 132.493 79.4616 132.89 78.8306C133.095 78.5162 133.197 78.0691 133.197 77.4903C133.197 76.6504 132.815 75.8163 132.05 74.988C131.448 74.4201 130.545 73.5646 129.342 72.4216C128.332 71.4446 127.617 70.5674 127.196 69.7899C126.743 68.9123 126.511 67.9378 126.518 66.9504C126.518 65.111 127.135 63.7177 128.368 62.7705C129.129 62.1982 130.079 61.9143 131.211 61.9143C132.299 61.9143 133.23 62.1569 134.002 62.6421C134.619 63.0317 135.122 63.576 135.463 64.2207C135.794 64.8346 136.007 65.5045 136.093 66.1964C136.106 66.2929 136.082 66.3906 136.024 66.4694C135.967 66.5483 135.882 66.602 135.786 66.6196L133.599 67.0167C133.501 67.0329 133.401 67.0098 133.319 66.9524C133.238 66.895 133.182 66.8079 133.164 66.7099C133.056 66.0659 132.838 65.5469 132.512 65.1596C132.233 64.8332 131.826 64.6635 131.296 64.6635C131.035 64.6553 130.778 64.7205 130.552 64.8517C130.326 64.9828 130.142 65.1747 130.02 65.4055C129.782 65.8037 129.664 66.2987 129.664 66.8894C129.664 67.8131 130.062 68.7563 130.861 69.7104C131.273 70.1821 131.729 70.6144 132.221 71.0018C132.927 71.5944 133.393 72.0067 133.617 72.2388C134.296 72.8982 134.881 73.6471 135.358 74.4647C135.535 74.7718 135.692 75.0906 135.826 75.4189C136.117 76.1376 136.268 76.7824 136.281 77.3532L136.287 77.3521ZM141.635 81.9987V62.5181C141.635 62.4177 141.675 62.3214 141.746 62.2504C141.817 62.1794 141.913 62.1395 142.014 62.1395H149.938C150.039 62.1395 150.135 62.1794 150.206 62.2504C150.277 62.3214 150.317 62.4177 150.317 62.5181V64.8289C150.316 64.9291 150.276 65.0251 150.205 65.0959C150.134 65.1666 150.038 65.2064 149.938 65.2064H145.058C144.957 65.2064 144.861 65.2463 144.79 65.3173C144.719 65.3883 144.679 65.4846 144.679 65.585V70.348C144.679 70.4484 144.719 70.5447 144.79 70.6157C144.861 70.6867 144.957 70.7266 145.058 70.7266H148.413C148.513 70.7269 148.609 70.7669 148.68 70.8379C148.751 70.9088 148.79 71.005 148.79 71.1052V73.4149C148.79 73.5151 148.751 73.6112 148.68 73.6822C148.609 73.7532 148.513 73.7932 148.413 73.7935H145.058C144.957 73.7935 144.861 73.8332 144.79 73.904C144.719 73.9747 144.679 74.0708 144.679 74.171V78.9351C144.679 79.0355 144.719 79.1318 144.79 79.2028C144.861 79.2738 144.957 79.3137 145.058 79.3137H149.938C150.038 79.3137 150.134 79.3534 150.205 79.4242C150.276 79.4949 150.316 79.591 150.317 79.6912V82.002C150.316 82.1022 150.276 82.1982 150.205 82.269C150.134 82.3397 150.038 82.3795 149.938 82.3795H142.014C141.913 82.3795 141.817 82.3397 141.746 82.269C141.675 82.1982 141.635 82.1022 141.635 82.002V81.9987Z" fill="white"/>
</g>
</g>
<defs>
<clipPath id="clip0_2157_1695">
<rect width="176" height="100" fill="white"/>
</clipPath>
<clipPath id="clip1_2157_1695">
<rect width="124.633" height="100" fill="white" transform="translate(25.6836)"/>
</clipPath>
</defs>
</svg>
