<svg width="176" height="100" viewBox="0 0 176 100" fill="none" xmlns="http://www.w3.org/2000/svg">
<g clip-path="url(#clip0_2157_1509)">
<g clip-path="url(#clip1_2157_1509)">
<path d="M47.8825 95.4856C47.8825 98.3364 45.6488 100 41.3718 100H33.1025V83.3667H40.8967C44.8882 83.3667 47.0271 85.0536 47.0271 87.6915C47.0271 89.4022 46.1717 90.6618 44.8882 91.3506C46.6679 91.9213 47.8825 93.3228 47.8825 95.4856ZM36.1952 85.7902V90.3764H40.567C42.7058 90.3764 43.9176 89.6159 43.9176 88.0956C43.9176 86.5493 42.7058 85.7902 40.567 85.7902H36.1952ZM44.7702 95.1763C44.7702 93.5133 43.5113 92.7767 41.182 92.7767H36.1952V97.5766H41.1855C43.5106 97.5766 44.7702 96.84 44.7702 95.1763Z" fill="#EFE4CF"/>
<path d="M67.571 100L64.1733 95.1285C63.96 95.1484 63.7458 95.1564 63.5316 95.1524H59.7776V100.002H56.6885V83.3667H63.5316C67.9042 83.3667 70.613 85.6004 70.613 89.2835C70.613 91.8018 69.3296 93.6553 67.072 94.5346L70.8977 100H67.571ZM63.3889 85.9807H59.7776V92.6101H63.3889C66.0978 92.6101 67.5 91.3745 67.5 89.2835C67.5 87.1924 66.0978 85.9807 63.3889 85.9807Z" fill="#EFE4CF"/>
<path d="M89.818 96.1524H81.5016L79.8619 100.002H76.6807L84.1655 83.3687H87.2068L94.7156 100.002H91.4824L89.818 96.1524ZM88.796 93.7289L85.6598 86.4528L82.5468 93.724L88.796 93.7289Z" fill="#EFE4CF"/>
<path d="M116.58 83.3667V100H114.037L104.866 88.7366V100H101.8V83.3667H104.343L113.515 94.6302V83.3667H116.58Z" fill="#EFE4CF"/>
<path d="M126.55 83.3667H133.824C139.218 83.3667 142.901 86.6934 142.901 91.6831C142.901 96.6727 139.218 100 133.824 100H126.55V83.3667ZM133.678 97.3861C137.385 97.3861 139.785 95.1285 139.785 91.6831C139.785 88.2376 137.385 85.9807 133.678 85.9807H129.639V97.3861H133.678Z" fill="#EFE4CF"/>
<path d="M59.834 17.0285V40.5092C59.8339 40.6284 59.8641 40.7456 59.9218 40.8499C59.9794 40.9541 60.0627 41.042 60.1636 41.1053L85.5639 57.0428C85.6759 57.1131 85.8053 57.1503 85.9375 57.1503C86.0696 57.1503 86.1991 57.1131 86.3111 57.0428L89.1134 55.2857C89.2142 55.2224 89.2973 55.1346 89.3548 55.0305C89.4124 54.9264 89.4426 54.8093 89.4426 54.6903C89.4426 54.5713 89.4124 54.4543 89.3548 54.3502C89.2973 54.2461 89.2142 54.1582 89.1134 54.095L75.7926 45.7351C75.6918 45.6718 75.6088 45.584 75.5512 45.4799C75.4936 45.3758 75.4634 45.2587 75.4634 45.1397C75.4634 45.0208 75.4936 44.9037 75.5512 44.7996C75.6088 44.6955 75.6918 44.6077 75.7926 44.5444L77.1084 43.7185C77.2203 43.6483 77.3498 43.611 77.482 43.611C77.6141 43.611 77.7436 43.6483 77.8555 43.7185L92.3269 52.7989C92.4389 52.8691 92.5683 52.9064 92.7005 52.9064C92.8327 52.9064 92.9621 52.8691 93.0741 52.7989L96.0416 50.937C96.1424 50.8738 96.2254 50.7859 96.283 50.6818C96.3406 50.5777 96.3708 50.4607 96.3708 50.3417C96.3708 50.2227 96.3406 50.1057 96.283 50.0015C96.2254 49.8974 96.1424 49.8096 96.0416 49.7463L82.7208 41.3878C82.62 41.3246 82.537 41.2368 82.4794 41.1326C82.4218 41.0285 82.3916 40.9115 82.3916 40.7925C82.3916 40.6735 82.4218 40.5565 82.4794 40.4523C82.537 40.3482 82.62 40.2604 82.7208 40.1972L84.0366 39.372C84.1485 39.3018 84.278 39.2645 84.4102 39.2645C84.5423 39.2645 84.6718 39.3018 84.7837 39.372L99.2558 48.4517C99.3677 48.5219 99.4972 48.5592 99.6294 48.5592C99.7615 48.5592 99.891 48.5219 100.003 48.4517L102.968 46.5898C103.068 46.5265 103.152 46.4387 103.209 46.3346C103.267 46.2305 103.297 46.1134 103.297 45.9944C103.297 45.8754 103.267 45.7584 103.209 45.6543C103.152 45.5502 103.068 45.4624 102.968 45.3991L89.649 37.0413C89.5482 36.978 89.4651 36.8902 89.4076 36.7861C89.35 36.682 89.3198 36.5649 89.3198 36.446C89.3198 36.327 89.35 36.2099 89.4076 36.1058C89.4651 36.0017 89.5482 35.9139 89.649 35.8506L90.9655 35.0255C91.0774 34.9552 91.2069 34.918 91.339 34.918C91.4712 34.918 91.6007 34.9552 91.7126 35.0255L106.184 44.1051C106.296 44.1754 106.425 44.2126 106.558 44.2126C106.69 44.2126 106.819 44.1754 106.931 44.1051L109.899 42.2425C109.999 42.1793 110.083 42.0915 110.14 41.9873C110.198 41.8832 110.228 41.7662 110.228 41.6472C110.228 41.5282 110.198 41.4112 110.14 41.307C110.083 41.2029 109.999 41.1151 109.899 41.0519L85.7544 25.9029C85.6044 25.8086 85.4243 25.7745 85.2501 25.8074C85.076 25.8402 84.9207 25.9376 84.8154 26.08L80.2755 32.2203C80.2101 32.3076 80.1252 32.3785 80.0276 32.4272C79.93 32.476 79.8224 32.5015 79.7132 32.5015H71.8411C71.7385 32.5014 71.6371 32.4788 71.5442 32.4354C71.4512 32.392 71.3689 32.3287 71.3029 32.2501C71.237 32.1714 71.1891 32.0793 71.1626 31.9802C71.1361 31.8811 71.1316 31.7773 71.1495 31.6763L73.7213 17.1501C73.7392 17.049 73.7348 16.9452 73.7084 16.846C73.6819 16.7468 73.634 16.6545 73.5681 16.5758C73.5022 16.4971 73.4198 16.4338 73.3268 16.3903C73.2338 16.3468 73.1323 16.3243 73.0296 16.3242H60.5369C60.4444 16.3242 60.3529 16.3424 60.2676 16.3779C60.1822 16.4133 60.1046 16.4652 60.0394 16.5306C59.9741 16.596 59.9223 16.6736 59.8871 16.7591C59.8518 16.8445 59.8338 16.9361 59.834 17.0285Z" fill="#EFE4CF"/>
<path d="M56.2351 16.3257H47.5427C47.3563 16.3257 47.1775 16.3997 47.0457 16.5315C46.9139 16.6634 46.8398 16.8421 46.8398 17.0286V45.9636C46.8399 46.0891 46.8735 46.2123 46.9373 46.3204C47.0011 46.4285 47.0926 46.5176 47.2025 46.5783C47.3123 46.6391 47.4364 46.6693 47.5618 46.6659C47.6873 46.6625 47.8096 46.6255 47.9159 46.5589L56.609 41.1053C56.7099 41.042 56.7929 40.9541 56.8505 40.8498C56.908 40.7455 56.9381 40.6284 56.938 40.5093V17.0286C56.938 16.8421 56.8639 16.6634 56.7321 16.5315C56.6003 16.3997 56.4215 16.3257 56.2351 16.3257Z" fill="#EFE4CF"/>
<path d="M112.041 37.8145V17.0286C112.041 16.8421 111.967 16.6634 111.835 16.5315C111.703 16.3997 111.524 16.3257 111.338 16.3257H77.3049C77.1399 16.3258 76.9802 16.3839 76.8538 16.4899C76.7273 16.596 76.6422 16.7431 76.6133 16.9056L74.4892 28.8754C74.4714 28.9765 74.4759 29.0803 74.5024 29.1795C74.529 29.2787 74.5769 29.3708 74.6429 29.4495C74.7089 29.5281 74.7913 29.5914 74.8844 29.6348C74.9775 29.6781 75.0789 29.7006 75.1816 29.7006H78.2967C78.4061 29.7002 78.5139 29.6742 78.6115 29.6248C78.7091 29.5754 78.7939 29.5039 78.859 29.4159L84.1052 22.3233C84.2106 22.1808 84.3659 22.0834 84.54 22.0506C84.7141 22.0177 84.8942 22.0519 85.0442 22.1461L110.965 38.4098C111.071 38.4765 111.193 38.5134 111.319 38.5168C111.444 38.5203 111.568 38.49 111.678 38.4293C111.788 38.3685 111.879 38.2794 111.943 38.1713C112.007 38.0632 112.041 37.94 112.041 37.8145Z" fill="#EFE4CF"/>
<path d="M115.176 41.1053L123.868 46.5589C123.974 46.6257 124.097 46.6628 124.222 46.6663C124.348 46.6699 124.472 46.6396 124.582 46.5789C124.692 46.5181 124.784 46.4289 124.847 46.3207C124.911 46.2125 124.945 46.0892 124.945 45.9636V17.0286C124.945 16.8421 124.871 16.6634 124.739 16.5315C124.607 16.3997 124.428 16.3257 124.242 16.3257H115.55C115.363 16.3257 115.184 16.3997 115.053 16.5315C114.921 16.6634 114.847 16.8421 114.847 17.0286V40.5093C114.847 40.6284 114.877 40.7455 114.934 40.8498C114.992 40.9541 115.075 41.042 115.176 41.1053Z" fill="#EFE4CF"/>
<path d="M119.192 0H52.5906C52.2024 0 51.8877 0.314685 51.8877 0.702869V13.098C51.8877 13.4862 52.2024 13.8008 52.5906 13.8008H119.192C119.58 13.8008 119.894 13.4862 119.894 13.098V0.702869C119.894 0.314685 119.58 0 119.192 0Z" fill="#BA935B"/>
<path d="M52.2203 53.5712L85.5208 74.4654C85.6328 74.5357 85.7622 74.5729 85.8944 74.5729C86.0265 74.5729 86.156 74.5357 86.268 74.4654L119.568 53.5712C119.669 53.508 119.752 53.4201 119.81 53.3158C119.867 53.2115 119.898 53.0943 119.897 52.9752V47.7662C119.897 47.6472 119.867 47.5301 119.809 47.426C119.752 47.3219 119.669 47.2341 119.568 47.1709L113.82 43.5638C113.708 43.4935 113.578 43.4563 113.446 43.4563C113.314 43.4563 113.185 43.4935 113.073 43.5638L86.3094 60.3532C86.1975 60.4235 86.068 60.4607 85.9358 60.4607C85.8037 60.4607 85.6742 60.4235 85.5623 60.3532L58.757 43.5343C58.645 43.464 58.5155 43.4268 58.3834 43.4268C58.2512 43.4268 58.1217 43.464 58.0098 43.5343L52.2203 47.1709C52.1194 47.2341 52.0363 47.3219 51.9786 47.426C51.9209 47.5301 51.8907 47.6472 51.8906 47.7662V52.9752C51.8906 53.0943 51.9208 53.2115 51.9784 53.3158C52.0361 53.4201 52.1193 53.508 52.2203 53.5712Z" fill="#BA935B"/>
</g>
</g>
<defs>
<clipPath id="clip0_2157_1509">
<rect width="176" height="100" fill="white"/>
</clipPath>
<clipPath id="clip1_2157_1509">
<rect width="109.795" height="100" fill="white" transform="translate(33.1025)"/>
</clipPath>
</defs>
</svg>
