<svg width="176" height="100" viewBox="0 0 176 100" fill="none" xmlns="http://www.w3.org/2000/svg">
<g clip-path="url(#clip0_2157_1556)">
<path d="M37.1549 99.9878H37.13C37.0503 99.9867 36.9741 99.9546 36.9178 99.8982C36.8614 99.8418 36.8292 99.7657 36.8281 99.686V91.4905C36.8281 91.4088 36.8606 91.3305 36.9183 91.2728C36.976 91.2151 37.0544 91.1826 37.136 91.1826C37.2177 91.1826 37.296 91.2151 37.3537 91.2728C37.4115 91.3305 37.4439 91.4088 37.4439 91.4905V99.3717H41.655C41.6963 99.3703 41.7375 99.3772 41.7761 99.392C41.8147 99.4069 41.85 99.4294 41.8797 99.4581C41.9094 99.4869 41.9331 99.5213 41.9492 99.5594C41.9654 99.5974 41.9737 99.6384 41.9737 99.6797C41.9737 99.7211 41.9654 99.762 41.9492 99.8001C41.9331 99.8382 41.9094 99.8726 41.8797 99.9014C41.85 99.9301 41.8147 99.9526 41.7761 99.9674C41.7375 99.9823 41.6963 99.9892 41.655 99.9878H37.1549Z" fill="white"/>
<path d="M49.1473 91.063C51.4965 91.063 53.3473 93.0616 53.358 95.5254C53.3456 97.9892 51.4979 99.9878 49.1473 99.9878C46.7714 99.9878 44.9116 97.9892 44.8984 95.5254C44.9113 93.0616 46.7714 91.063 49.1473 91.063ZM49.1473 99.3716C51.0832 99.3716 52.717 97.6749 52.7298 95.5254C52.717 93.3506 51.0832 91.6916 49.1473 91.6916C47.1487 91.6916 45.5146 93.3506 45.5146 95.5254C45.5135 97.6749 47.1487 99.3716 49.1473 99.3716Z" fill="white"/>
<path d="M62.2328 98.0015C62.2328 97.3608 61.9061 96.9582 61.5163 96.6692C61.1269 96.3926 60.6621 96.2542 60.4983 96.2289C60.4606 96.2165 60.4482 96.204 60.4353 96.204H58.2997V99.6858C58.297 99.7657 58.2634 99.8414 58.2059 99.8969C58.1484 99.9525 58.0716 99.9836 57.9917 99.9836C57.9117 99.9836 57.8349 99.9525 57.7774 99.8969C57.72 99.8414 57.6863 99.7657 57.6836 99.6858V91.4903C57.6854 91.4151 57.7144 91.343 57.7652 91.2875C57.8161 91.232 57.8853 91.1968 57.9602 91.1885H60.4741C61.0448 91.191 61.5976 91.3876 62.0417 91.746C62.4858 92.1044 62.7947 92.6032 62.9177 93.1605C63.0406 93.7177 62.9703 94.3002 62.7183 94.8122C62.4663 95.3242 62.0475 95.7352 61.5309 95.9776C61.5715 96.0012 61.6134 96.0222 61.6566 96.0406C62.2346 96.3674 62.8379 97.0084 62.8379 98.0015C62.8379 98.5169 62.8885 98.8312 62.9511 99.0195C63.0013 99.1704 63.0643 99.2206 63.0768 99.233C63.2152 99.2202 63.3661 99.2957 63.4163 99.4341C63.4371 99.5142 63.4281 99.599 63.3912 99.6729C63.3542 99.7469 63.2917 99.8049 63.2152 99.8363C63.1652 99.8433 63.1148 99.8475 63.0643 99.8488H63.039C62.8757 99.8488 62.6119 99.7232 62.4734 99.4466C62.3208 99.1579 62.2328 98.7433 62.2328 98.0015ZM60.4731 91.8046H58.2987V95.6007H60.5233C61.0255 95.5922 61.5038 95.3851 61.8536 95.0247C62.2034 94.6642 62.3961 94.1799 62.3894 93.6776C62.3828 93.1754 62.1774 92.6963 61.8182 92.3452C61.459 91.9942 60.9753 91.7998 60.4731 91.8046Z" fill="white"/>
<path d="M67.5996 91.4903C67.6007 91.4106 67.6329 91.3345 67.6892 91.2781C67.7456 91.2218 67.8217 91.1896 67.9014 91.1885H72.4265C72.4663 91.188 72.5058 91.1954 72.5426 91.2104C72.5795 91.2254 72.613 91.2476 72.6411 91.2757C72.6692 91.3039 72.6914 91.3374 72.7064 91.3742C72.7214 91.4111 72.7288 91.4506 72.7283 91.4903C72.7283 91.6662 72.6027 91.8046 72.4265 91.8046H68.2157V95.2864H71.8986C71.9803 95.2864 72.0586 95.3189 72.1163 95.3766C72.1741 95.4343 72.2065 95.5126 72.2065 95.5943C72.2065 95.676 72.1741 95.7543 72.1163 95.812C72.0586 95.8697 71.9803 95.9022 71.8986 95.9022H68.2157V99.3715H72.4265C72.6045 99.3715 72.7283 99.51 72.7283 99.6858C72.7288 99.7256 72.7214 99.7651 72.7064 99.8019C72.6914 99.8388 72.6692 99.8723 72.6411 99.9004C72.613 99.9285 72.5795 99.9508 72.5426 99.9657C72.5058 99.9807 72.4663 99.9882 72.4265 99.9876H67.8762C67.8006 99.9812 67.7302 99.9466 67.679 99.8907C67.6278 99.8348 67.5994 99.7616 67.5996 99.6858V91.4903Z" fill="white"/>
<path d="M83.7272 92.4459L80.9117 96.3552C80.8853 96.3979 80.8482 96.433 80.8042 96.4572C80.7602 96.4814 80.7107 96.4938 80.6604 96.4933H80.6352C80.5827 96.4969 80.5302 96.4859 80.4836 96.4615C80.437 96.4371 80.398 96.4003 80.3711 96.3552L77.5556 92.4584V99.686C77.5529 99.7659 77.5192 99.8416 77.4618 99.8972C77.4043 99.9527 77.3275 99.9838 77.2475 99.9838C77.1676 99.9838 77.0908 99.9527 77.0333 99.8972C76.9758 99.8416 76.9422 99.7659 76.9395 99.686V91.5407C76.939 91.4937 76.9503 91.4472 76.9722 91.4055C76.9941 91.3638 77.026 91.3282 77.0651 91.3019C77.0651 91.2895 77.0779 91.2894 77.0904 91.2766C77.1578 91.2326 77.2395 91.2159 77.3189 91.2299C77.3982 91.244 77.4692 91.2876 77.5175 91.3521L80.6473 95.6888L83.7646 91.3521C83.8528 91.214 84.0539 91.1887 84.1917 91.2766C84.2246 91.3069 84.254 91.3407 84.2796 91.3774C84.3078 91.4276 84.325 91.4833 84.3302 91.5407V99.686C84.3291 99.7657 84.2969 99.8419 84.2405 99.8982C84.1842 99.9546 84.108 99.9868 84.0283 99.9879C83.9885 99.9883 83.9491 99.9809 83.9123 99.9659C83.8754 99.9509 83.8419 99.9286 83.8138 99.9005C83.7857 99.8724 83.7635 99.8389 83.7485 99.8021C83.7335 99.7653 83.726 99.7258 83.7265 99.686L83.7272 92.4459Z" fill="white"/>
<path d="M95.1777 91.4905C95.1777 91.4088 95.2102 91.3305 95.2679 91.2728C95.3257 91.2151 95.404 91.1826 95.4856 91.1826C95.5673 91.1826 95.6456 91.2151 95.7033 91.2728C95.7611 91.3305 95.7935 91.4088 95.7935 91.4905V99.686C95.7935 99.7676 95.7611 99.8459 95.7033 99.9037C95.6456 99.9614 95.5673 99.9939 95.4856 99.9939C95.404 99.9939 95.3257 99.9614 95.2679 99.9037C95.2102 99.8459 95.1777 99.7676 95.1777 99.686V91.4905Z" fill="white"/>
<path d="M100.811 91.4903C100.812 91.4106 100.844 91.3345 100.9 91.2781C100.956 91.2218 101.032 91.1896 101.112 91.1885H103.603C104.985 91.1885 106.104 92.32 106.104 93.7025C106.105 94.031 106.04 94.3564 105.914 94.66C105.789 94.9636 105.604 95.2394 105.372 95.4717C105.14 95.7041 104.864 95.8883 104.56 96.014C104.257 96.1396 103.931 96.2042 103.603 96.204L101.428 96.2289V99.6858C101.428 99.7674 101.396 99.8457 101.338 99.9035C101.28 99.9612 101.202 99.9937 101.12 99.9937C101.039 99.9937 100.96 99.9612 100.903 99.9035C100.845 99.8457 100.812 99.7674 100.812 99.6858L100.811 91.4903ZM103.601 95.6131C104.644 95.6007 105.499 94.7457 105.499 93.7025C105.497 93.1996 105.297 92.7179 104.941 92.3623C104.586 92.0068 104.104 91.8063 103.601 91.8046H101.426V95.6131H103.601Z" fill="white"/>
<path d="M109.622 98.341C109.644 98.3116 109.672 98.2872 109.705 98.2693C109.737 98.2514 109.773 98.2403 109.809 98.2367C109.846 98.2332 109.883 98.2373 109.918 98.2487C109.953 98.2602 109.986 98.2787 110.013 98.3033C110.667 98.8315 111.76 99.4472 112.904 99.4348C113.671 99.4348 114.364 99.2084 114.84 98.8564C115.33 98.5044 115.594 98.0377 115.594 97.5494C115.594 97.0464 115.355 96.6695 114.878 96.3424C114.4 96.0281 113.696 95.7893 112.841 95.6259H112.816C111.998 95.4753 111.283 95.249 110.742 94.8845C110.202 94.5324 109.837 94.0046 109.837 93.3507C109.837 92.6848 110.202 92.105 110.755 91.7042C111.308 91.3034 112.05 91.0635 112.879 91.0635C114.035 91.0635 114.903 91.6291 115.594 92.0815C115.625 92.1021 115.651 92.1286 115.672 92.1595C115.692 92.1904 115.706 92.2251 115.713 92.2615C115.72 92.2979 115.72 92.3353 115.713 92.3716C115.705 92.4079 115.69 92.4424 115.67 92.473C115.65 92.5033 115.625 92.5295 115.595 92.5498C115.566 92.5701 115.532 92.5842 115.497 92.5913C115.462 92.5984 115.426 92.5982 115.39 92.5908C115.355 92.5835 115.322 92.5691 115.293 92.5485C114.601 92.0961 113.847 91.6184 112.879 91.6184C112.162 91.6184 111.521 91.832 111.081 92.1462C110.642 92.473 110.39 92.9005 110.39 93.3529C110.403 93.7928 110.604 94.1196 111.044 94.4207C111.484 94.7218 112.138 94.9361 112.93 95.087H112.955C113.835 95.2504 114.615 95.5017 115.193 95.8914C115.771 96.2684 116.161 96.8468 116.161 97.5508C116.161 98.2548 115.758 98.8831 115.168 99.3106C114.577 99.738 113.785 100.002 112.905 100.002C111.56 99.9893 110.391 99.3106 109.662 98.7322C109.608 98.6837 109.573 98.6168 109.566 98.5444C109.559 98.472 109.578 98.3994 109.622 98.341Z" fill="white"/>
<path d="M120.307 91.4905C120.307 91.4088 120.339 91.3305 120.397 91.2728C120.455 91.2151 120.533 91.1826 120.615 91.1826C120.696 91.1826 120.774 91.2151 120.832 91.2728C120.89 91.3305 120.922 91.4088 120.922 91.4905V96.4302C120.922 98.0519 122.242 99.3592 123.851 99.3717C125.486 99.3592 126.806 98.0519 126.806 96.4302V91.4905C126.806 91.4088 126.838 91.3305 126.896 91.2728C126.954 91.2151 127.032 91.1826 127.114 91.1826C127.195 91.1826 127.274 91.2151 127.331 91.2728C127.389 91.3305 127.421 91.4088 127.421 91.4905V96.4302C127.421 98.3914 125.825 99.9896 123.852 99.9896C121.903 99.9896 120.307 98.3932 120.307 96.4302L120.307 91.4905Z" fill="white"/>
<path d="M138.57 92.4459L135.755 96.3552C135.728 96.3979 135.691 96.433 135.647 96.4572C135.603 96.4814 135.554 96.4938 135.503 96.4933H135.478C135.426 96.4969 135.373 96.4859 135.326 96.4615C135.28 96.4371 135.241 96.4003 135.214 96.3552L132.397 92.4584V99.686C132.395 99.7659 132.361 99.8416 132.304 99.8972C132.246 99.9527 132.169 99.9838 132.089 99.9838C132.009 99.9838 131.933 99.9527 131.875 99.8972C131.818 99.8416 131.784 99.7659 131.781 99.686V91.5407C131.781 91.4936 131.792 91.4471 131.814 91.4054C131.836 91.3638 131.868 91.3282 131.907 91.3019C131.907 91.2895 131.92 91.2894 131.932 91.2766C132 91.2326 132.081 91.2159 132.161 91.2299C132.24 91.244 132.311 91.2876 132.359 91.3521L135.489 95.6888L138.606 91.3521C138.695 91.214 138.896 91.1887 139.033 91.2766C139.066 91.3069 139.096 91.3407 139.121 91.3774C139.15 91.4276 139.167 91.4833 139.172 91.5407V99.686C139.171 99.7657 139.139 99.8419 139.082 99.8982C139.026 99.9546 138.95 99.9868 138.87 99.9879C138.83 99.9883 138.791 99.9809 138.754 99.9659C138.717 99.9508 138.684 99.9286 138.656 99.9005C138.628 99.8724 138.605 99.8389 138.591 99.8021C138.576 99.7652 138.568 99.7258 138.569 99.686L138.57 92.4459Z" fill="white"/>
<path d="M116.046 11.5402L101.628 50.0673L104.996 58.9817C105.066 59.1608 105.1 59.3519 105.095 59.5441C105.09 59.7362 105.048 59.9255 104.97 60.1011C104.891 60.2766 104.779 60.4349 104.639 60.5668C104.499 60.6987 104.335 60.8015 104.155 60.8693C103.975 60.9372 103.784 60.9687 103.592 60.962C103.4 60.9553 103.211 60.9106 103.036 60.8305C102.861 60.7503 102.704 60.6363 102.574 60.4951C102.444 60.3538 102.343 60.1881 102.277 60.0075L98.5394 50.0836L113.774 9.45371C106.824 3.55724 97.8276 0 88.0005 0C78.1734 0 69.1774 3.55724 62.2288 9.45371L77.4629 50.0836L73.7238 60.0075C73.5878 60.3681 73.3141 60.6599 72.9629 60.8186C72.6118 60.9774 72.212 60.9902 71.8514 60.8541C71.4908 60.7181 71.1991 60.4444 71.0403 60.0933C70.8815 59.7421 70.8688 59.3423 71.0048 58.9817L74.3727 50.0673L59.9544 11.5402C52.664 18.7622 48.1465 28.7797 48.1465 39.8526C48.1465 55.7523 57.4578 69.4769 70.9265 75.8735L78.9753 54.1257L80.5439 58.3161L73.6053 77.0249C82.8695 80.5981 93.1315 80.5981 102.396 77.0249L95.4574 58.3133L97.026 54.1228L105.075 75.8706C118.542 69.4755 127.855 55.7509 127.855 39.8497C127.853 28.7797 123.337 18.7622 116.046 11.5402ZM86.4653 16.9028C86.7266 16.1866 87.3633 15.8282 88.0005 15.8282C88.6376 15.8282 89.2744 16.1866 89.5353 16.9028L95.6749 33.7386L94.1062 37.9291L88.0005 21.1854L81.8947 37.9305L80.3261 33.7401L86.4653 16.9028ZM94.0959 54.5806L88.0005 37.8636L81.9047 54.5806L70.1231 23.1096C69.9879 22.7482 70.0018 22.3479 70.1617 21.9967C70.3217 21.6455 70.6146 21.3723 70.976 21.237C71.3374 21.1018 71.7377 21.1157 72.0889 21.2756C72.4401 21.4356 72.7133 21.7284 72.8486 22.0899L81.868 46.1868L87.9994 29.3716L94.1336 46.1868L103.153 22.0899C103.291 21.7323 103.565 21.4437 103.914 21.2867C104.264 21.1297 104.661 21.117 105.02 21.2513C105.379 21.3856 105.67 21.6561 105.831 22.0041C105.992 22.3521 106.008 22.7493 105.878 23.1096L94.0959 54.5806Z" fill="#FFCE00"/>
</g>
<defs>
<clipPath id="clip0_2157_1556">
<rect width="102.346" height="100" fill="white" transform="translate(36.8281)"/>
</clipPath>
</defs>
</svg>
