<svg width="176" height="100" viewBox="0 0 176 100" fill="none" xmlns="http://www.w3.org/2000/svg">
<g clip-path="url(#clip0_2157_1572)">
<g clip-path="url(#clip1_2157_1572)">
<g clip-path="url(#clip2_2157_1572)">
<mask id="mask0_2157_1572" style="mask-type:luminance" maskUnits="userSpaceOnUse" x="54" y="0" width="68" height="59">
<path d="M76.5253 52.1082H66.9352V50.8656H76.5253V52.1082ZM109.071 52.1082H104.271V50.8656H109.063L109.071 52.1082ZM106.126 57.45H121.965V58.6927H106.136L106.126 57.45ZM54.0215 57.45H67.1414V58.6927H54.0313L54.0215 57.45ZM71.4937 57.45H103.493V58.6927H71.4937V57.45ZM89.9691 41.7663H86.2195L86.0329 44.8465H90.2754L89.9691 41.7663ZM88.8933 30.8648H86.9066L86.7102 34.1472H89.2231L88.8933 30.8648ZM88.4123 26.0059H87.2089L86.9831 29.6299H88.7716L88.4123 26.0059ZM87.2933 24.7691H88.2906L87.6781 18.6107L87.2933 24.7691ZM86.2901 40.5314H89.8474C89.6759 38.8169 89.5065 37.1024 89.3389 35.3879H86.6337C86.5218 37.1076 86.4079 38.8117 86.2901 40.5314ZM84.3976 50.8656L84.7471 45.4649L85.0337 41.0733L85.1574 39.0198L85.2418 37.7516L85.3733 35.647V35.5666L85.711 30.266V30.1835L86.0133 25.4071C86.0117 25.3799 86.015 25.3527 86.0231 25.3267L86.8791 11.6787C86.4723 11.7348 86.0697 11.8175 85.6737 11.9261V16.141C85.6726 16.3047 85.6068 16.4612 85.4905 16.5764C85.3742 16.6916 85.217 16.756 85.0533 16.7555C84.9727 16.7555 84.8929 16.7395 84.8185 16.7086C84.744 16.6777 84.6764 16.6324 84.6195 16.5754C84.5626 16.5183 84.5175 16.4505 84.4869 16.376C84.4562 16.3014 84.4406 16.2216 84.4408 16.141V12.3442C84.1974 12.4443 83.9618 12.5523 83.7262 12.6721C83.4906 12.7918 83.3218 12.8821 83.1373 12.996V18.3378C83.1362 18.5021 83.0702 18.6594 82.9536 18.7753C82.837 18.8911 82.6793 18.9562 82.5149 18.9562C82.4342 18.9557 82.3544 18.9393 82.2801 18.9079C82.2057 18.8765 82.1383 18.8308 82.0816 18.7734C82.0249 18.716 81.9801 18.648 81.9497 18.5732C81.9193 18.4985 81.9039 18.4185 81.9044 18.3378V13.8559C81.4233 14.244 80.979 14.6758 80.5773 15.1457C80.4929 15.2536 80.4065 15.3596 80.3142 15.4696V21.0587C80.3148 21.2219 80.2506 21.3786 80.1358 21.4945C80.021 21.6104 79.8649 21.6761 79.7017 21.6771C79.5377 21.6761 79.3806 21.6108 79.2642 21.4951C79.1478 21.3795 79.0814 21.2228 79.0794 21.0587V17.4956C78.9087 17.8694 78.7599 18.2529 78.6338 18.644C78.229 19.9278 78.079 21.2782 78.192 22.6194C78.2004 22.6998 78.1926 22.7811 78.169 22.8584C78.1454 22.9357 78.1066 23.0075 78.0548 23.0695C78.003 23.1316 77.9393 23.1826 77.8675 23.2196C77.7956 23.2566 77.7171 23.2788 77.6365 23.285C77.5559 23.2922 77.4746 23.2835 77.3974 23.2593C77.3202 23.2351 77.2485 23.1959 77.1865 23.1439C77.1245 23.0919 77.0733 23.0282 77.036 22.9564C76.9987 22.8846 76.9759 22.8061 76.969 22.7255C76.7286 19.9489 77.5121 17.1804 79.1717 14.9415C79.1921 14.9044 79.2172 14.8701 79.2463 14.8394C79.368 14.6706 79.4989 14.5057 79.6389 14.3447C80.3617 13.4959 81.2058 12.7583 82.1439 12.1557C82.1668 12.1304 82.1959 12.1114 82.2283 12.1008C82.5312 11.9047 82.8452 11.7264 83.1687 11.5668C83.7009 11.2937 84.2552 11.0658 84.8256 10.8856C84.8531 10.8746 84.8813 10.8655 84.91 10.8581C85.2718 10.7437 85.6394 10.6487 86.0114 10.5734C85.1754 10.0023 84.2626 9.5528 83.3002 9.23847C82.7352 9.0543 82.1561 8.91642 81.5687 8.82621V11.5099C81.5692 11.5906 81.5538 11.6707 81.5232 11.7455C81.4927 11.8202 81.4476 11.8882 81.3907 11.9455C81.3338 12.0028 81.2661 12.0483 81.1915 12.0793C81.1169 12.1103 81.037 12.1263 80.9562 12.1263C80.7923 12.1263 80.6351 12.0615 80.5189 11.946C80.4027 11.8305 80.3369 11.6737 80.3358 11.5099V8.71627C79.8583 8.69941 79.3803 8.71384 78.9047 8.75946C78.6985 8.78105 78.4904 8.80657 78.2922 8.83799V14.4036C78.2922 14.5681 78.2268 14.7259 78.1105 14.8422C77.9941 14.9586 77.8363 15.0239 77.6718 15.0239C77.5073 15.0239 77.3495 14.9586 77.2331 14.8422C77.1168 14.7259 77.0514 14.5681 77.0514 14.4036V9.10301C76.5036 9.25744 75.9687 9.45436 75.4515 9.69197V16.9557C75.4504 17.1197 75.3847 17.2767 75.2685 17.3925C75.1523 17.5083 74.9951 17.5736 74.8311 17.5741C74.7502 17.5738 74.6702 17.5576 74.5956 17.5264C74.5211 17.4951 74.4534 17.4495 74.3965 17.392C74.3396 17.3346 74.2946 17.2665 74.264 17.1916C74.2335 17.1167 74.2181 17.0366 74.2186 16.9557V10.3614C73.1158 11.0558 72.1469 11.9429 71.3582 12.9803C71.3095 13.0447 71.2486 13.099 71.1789 13.1399C71.1092 13.1807 71.0322 13.2075 70.9521 13.2186C70.8721 13.2298 70.7907 13.225 70.7125 13.2047C70.6343 13.1843 70.5609 13.1488 70.4964 13.1C70.432 13.0513 70.3777 12.9904 70.3368 12.9207C70.2959 12.851 70.2692 12.7739 70.258 12.6939C70.2469 12.6139 70.2517 12.5325 70.272 12.4543C70.2924 12.3761 70.3279 12.3026 70.3767 12.2382C71.3786 10.9129 72.6464 9.81156 74.0988 9.00486C74.2304 8.92829 74.3697 8.85369 74.5111 8.78105C74.5409 8.76225 74.5724 8.74646 74.6053 8.73394C75.522 8.27832 76.4931 7.94185 77.4951 7.73272C77.5324 7.7229 77.5717 7.71505 77.609 7.70916C78.0016 7.6326 78.3943 7.5737 78.7869 7.53444C79.5049 7.46502 80.2277 7.46108 80.9464 7.52266C80.981 7.51974 81.0158 7.51974 81.0504 7.52266C81.9445 7.60652 82.8263 7.79091 83.6791 8.07235C84.7608 8.42748 85.7871 8.93304 86.7279 9.57417C86.548 8.71058 86.2604 7.87296 85.872 7.08095C85.6353 6.60868 85.365 6.15402 85.0631 5.72047V6.85126C85.0631 6.93221 85.0472 7.01237 85.0162 7.08716C84.9852 7.16195 84.9398 7.2299 84.8826 7.28714C84.8254 7.34438 84.7574 7.38979 84.6826 7.42077C84.6078 7.45175 84.5277 7.46769 84.4467 7.46769C84.3658 7.46769 84.2856 7.45175 84.2108 7.42077C84.136 7.38979 84.0681 7.34438 84.0108 7.28714C83.9536 7.2299 83.9082 7.16195 83.8772 7.08716C83.8462 7.01237 83.8303 6.93221 83.8303 6.85126V4.26183C83.6791 4.11852 83.5279 3.97914 83.3787 3.84171C83.0985 3.59947 82.8063 3.37146 82.5032 3.15853V6.49592C82.4942 6.65467 82.4249 6.80399 82.3093 6.91322C82.1938 7.02245 82.0408 7.08331 81.8818 7.08331C81.7228 7.08331 81.5699 7.02245 81.4543 6.91322C81.3388 6.80399 81.2694 6.65467 81.2605 6.49592V2.41645C80.7993 2.17877 80.3209 1.97599 79.8293 1.80983C79.6507 1.75094 79.4622 1.69204 79.2738 1.641V6.06991C79.2738 6.15087 79.2578 6.23102 79.2268 6.30581C79.1959 6.3806 79.1504 6.44856 79.0932 6.5058C79.036 6.56304 78.968 6.60845 78.8932 6.63943C78.8184 6.67041 78.7383 6.68635 78.6573 6.68635C78.5764 6.68635 78.4962 6.67041 78.4214 6.63943C78.3466 6.60845 78.2787 6.56304 78.2214 6.5058C78.1642 6.44856 78.1188 6.3806 78.0878 6.30581C78.0568 6.23102 78.0409 6.15087 78.0409 6.06991V1.38775C77.2904 1.27704 76.5301 1.24873 75.7734 1.30333C75.6104 1.31416 75.4497 1.26024 75.3262 1.15327C75.2027 1.04631 75.1264 0.894949 75.1138 0.732052C75.104 0.568644 75.1589 0.407944 75.2665 0.284566C75.374 0.161188 75.5258 0.0850054 75.689 0.0724266C76.7055 0.000205141 77.7272 0.0609215 78.728 0.253038C78.7599 0.256689 78.7915 0.263261 78.8222 0.27267C79.9816 0.507099 81.0988 0.915473 82.1361 1.48395C82.1684 1.49908 82.1999 1.51612 82.2303 1.53499C82.929 1.92627 83.5867 2.38665 84.1935 2.90921C84.4192 3.10553 84.645 3.32147 84.8609 3.53742C84.8806 3.55902 84.9081 3.58454 84.9277 3.61006C85.7564 4.47212 86.4482 5.45593 86.9792 6.52733C87.2648 7.11221 87.5038 7.71876 87.6938 8.3413C88.5051 6.3655 89.7853 4.61698 91.4238 3.24687C91.4464 3.23046 91.468 3.21276 91.4886 3.19387C91.5554 3.13497 91.63 3.08 91.6967 3.027C92.4483 2.43177 93.2626 1.92028 94.1251 1.50162C94.1479 1.48435 94.173 1.47047 94.1997 1.46039C95.1985 0.981595 96.254 0.631323 97.3408 0.417945C97.3801 0.417945 97.4076 0.402239 97.4449 0.398313C98.4233 0.217547 99.419 0.147086 100.413 0.188254C100.494 0.190491 100.574 0.208954 100.648 0.242553C100.722 0.276151 100.788 0.324203 100.843 0.383867C100.898 0.443532 100.94 0.513598 100.967 0.589924C100.995 0.666251 101.007 0.747289 101.002 0.828247C100.999 0.908964 100.98 0.98824 100.946 1.06154C100.912 1.13484 100.864 1.20073 100.804 1.25543C100.745 1.31013 100.675 1.35258 100.599 1.38034C100.523 1.40809 100.443 1.42062 100.362 1.4172C99.6133 1.38766 98.8634 1.42841 98.1222 1.53892V6.36046C98.1227 6.52309 98.0587 6.6793 97.9443 6.79485C97.8298 6.91039 97.6742 6.97586 97.5116 6.9769C97.3479 6.97639 97.191 6.9114 97.0749 6.79602C96.9588 6.68064 96.8928 6.52415 96.8912 6.36046V1.7902C96.2598 1.95561 95.6427 2.1716 95.0459 2.43608V6.38795C95.0453 6.55214 94.9798 6.70943 94.8635 6.82534C94.7472 6.94126 94.5897 7.00635 94.4255 7.00635C94.3448 7.00583 94.265 6.98943 94.1907 6.95807C94.1163 6.92672 94.0489 6.88102 93.9922 6.8236C93.9355 6.76618 93.8906 6.69815 93.8602 6.6234C93.8298 6.54865 93.8144 6.46864 93.815 6.38795V3.07215C93.3446 3.34717 92.8945 3.65552 92.4682 3.99484V6.9396C92.4682 7.10309 92.4033 7.25988 92.2877 7.37548C92.1721 7.49109 92.0153 7.55604 91.8518 7.55604C91.6883 7.55604 91.5315 7.49109 91.4159 7.37548C91.3003 7.25988 91.2354 7.10309 91.2354 6.9396V5.11778C90.0469 6.35813 89.1419 7.8418 88.5831 9.4662C90.5578 8.21412 92.8258 7.50075 95.1617 7.39702H95.2363H95.2559C95.6976 7.38131 96.1394 7.38524 96.5732 7.41076C97.1864 7.44736 97.7963 7.52541 98.399 7.64438C98.4308 7.64746 98.4624 7.65337 98.4932 7.66205C99.5599 7.88117 100.596 8.22856 101.579 8.69664C101.608 8.70839 101.637 8.72217 101.664 8.73786C103.131 9.45191 104.458 10.4249 105.58 11.61C105.681 11.7314 105.732 11.8869 105.722 12.0446C105.712 12.2022 105.642 12.3501 105.527 12.4579C105.411 12.5656 105.259 12.6251 105.101 12.624C104.943 12.6229 104.791 12.5615 104.677 12.4522C103.885 11.6066 102.975 10.8793 101.976 10.2927V17.1226C101.974 17.2864 101.908 17.443 101.791 17.5581C101.675 17.6732 101.517 17.7376 101.354 17.737C101.273 17.7368 101.193 17.7207 101.119 17.6897C101.045 17.6586 100.978 17.6133 100.921 17.5563C100.864 17.4992 100.819 17.4315 100.789 17.3571C100.758 17.2827 100.743 17.203 100.743 17.1226V9.66252C100.161 9.40502 99.5598 9.19366 98.9447 9.03038V14.3447C98.9437 14.5087 98.8779 14.6657 98.7618 14.7815C98.6456 14.8973 98.4884 14.9626 98.3244 14.9631C98.2435 14.9628 98.1635 14.9466 98.0889 14.9154C98.0143 14.8841 97.9466 14.8385 97.8897 14.781C97.8328 14.7236 97.7878 14.6555 97.7573 14.5806C97.7268 14.5057 97.7113 14.4255 97.7118 14.3447V8.77124C97.3074 8.70842 96.903 8.66523 96.5065 8.63971C96.2905 8.62793 96.0648 8.62204 95.8488 8.61811V11.2193C95.8496 11.3002 95.8343 11.3805 95.8039 11.4555C95.7734 11.5305 95.7285 11.5987 95.6715 11.6562C95.6145 11.7137 95.5468 11.7594 95.4721 11.7905C95.3974 11.8217 95.3172 11.8377 95.2363 11.8377C95.0721 11.8377 94.9146 11.7726 94.7983 11.6567C94.682 11.5408 94.6165 11.3835 94.6159 11.2193V8.68093C92.6675 8.86316 90.7916 9.51159 89.1465 10.5715C89.6951 10.6729 90.2362 10.8113 90.7662 10.9857C90.7987 10.9923 90.8304 11.0028 90.8604 11.0171C91.9565 11.3882 92.9953 11.9109 93.9465 12.57C93.9736 12.5851 93.9986 12.6035 94.0211 12.6249C94.6844 13.0896 95.2993 13.6197 95.8567 14.2073C96.0157 14.3761 96.1668 14.5489 96.316 14.7236H96.3357C96.4164 14.7238 96.4964 14.7401 96.5708 14.7713C96.6453 14.8026 96.7129 14.8483 96.7696 14.9057C96.8263 14.9632 96.8712 15.0314 96.9015 15.1062C96.9318 15.1811 96.947 15.2612 96.9462 15.342V15.5383C98.4421 17.621 99.2518 20.1181 99.2628 22.6823C99.2628 22.8458 99.1978 23.0026 99.0822 23.1182C98.9666 23.2338 98.8098 23.2987 98.6463 23.2987C98.4828 23.2987 98.326 23.2338 98.2104 23.1182C98.0948 23.0026 98.0299 22.8458 98.0299 22.6823C98.0225 21.042 97.6524 19.4236 96.9462 17.9432V20.1341C96.9509 20.2178 96.9385 20.3016 96.9097 20.3804C96.881 20.4592 96.8364 20.5313 96.7788 20.5923C96.7212 20.6532 96.6517 20.7018 96.5747 20.735C96.4976 20.7682 96.4146 20.7853 96.3308 20.7853C96.2469 20.7853 96.1639 20.7682 96.0868 20.735C96.0098 20.7018 95.9404 20.6532 95.8827 20.5923C95.8251 20.5313 95.7806 20.4592 95.7518 20.3804C95.723 20.3016 95.7106 20.2178 95.7153 20.1341V15.9447C95.479 15.639 95.2274 15.3455 94.9615 15.0652C94.7357 14.823 94.4978 14.5923 94.2488 14.3741V18.6283C94.2488 18.7093 94.2329 18.7894 94.2019 18.8642C94.1709 18.939 94.1255 19.007 94.0683 19.0642C94.011 19.1214 93.9431 19.1669 93.8683 19.1978C93.7935 19.2288 93.7133 19.2448 93.6324 19.2448C93.5514 19.2448 93.4713 19.2288 93.3965 19.1978C93.3217 19.1669 93.2537 19.1214 93.1965 19.0642C93.1393 19.007 93.0938 18.939 93.0629 18.8642C93.0319 18.7894 93.0159 18.7093 93.0159 18.6283V13.4259C92.4528 13.0554 91.8575 12.7361 91.2373 12.4718V15.9663C91.2373 16.0472 91.2214 16.1274 91.1904 16.2022C91.1594 16.2769 91.114 16.3449 91.0568 16.4021C90.9995 16.4594 90.9316 16.5048 90.8568 16.5358C90.782 16.5667 90.7018 16.5827 90.6209 16.5827C90.5399 16.5827 90.4598 16.5667 90.385 16.5358C90.3102 16.5048 90.2422 16.4594 90.185 16.4021C90.1278 16.3449 90.0823 16.2769 90.0514 16.2022C90.0204 16.1274 90.0044 16.0472 90.0044 15.9663V12.0399C89.4219 11.8695 88.8264 11.7474 88.2238 11.6748L90.8054 37.673L91.3944 43.5802L91.5652 45.2921C91.5834 45.3479 91.5926 45.4062 91.5927 45.4649V45.5159L92.1482 50.8656H102.749V52.1082H78.0448V50.8656H84.3976ZM90.9016 50.8656L90.3932 46.0813H85.9466L85.6364 50.8656H90.9016ZM59.3535 54.1558H116.639V55.4044H59.3593L59.3535 54.1558Z" fill="white"/>
</mask>
<g mask="url(#mask0_2157_1572)">
<mask id="mask1_2157_1572" style="mask-type:luminance" maskUnits="userSpaceOnUse" x="54" y="0" width="68" height="59">
<path d="M121.975 0H54.0312V58.6949H121.975V0Z" fill="white"/>
</mask>
<g mask="url(#mask1_2157_1572)">
<path fill-rule="evenodd" clip-rule="evenodd" d="M116.99 58.6949L121.975 57.4482V58.6949H116.99Z" fill="#218FCD"/>
<path fill-rule="evenodd" clip-rule="evenodd" d="M111.779 58.6947L121.974 56.1445V57.4481L116.99 58.6947H111.779Z" fill="#2190CE"/>
<path fill-rule="evenodd" clip-rule="evenodd" d="M106.57 58.695L121.975 54.8433V56.1448L111.781 58.695H106.57Z" fill="#2191CF"/>
<path fill-rule="evenodd" clip-rule="evenodd" d="M101.357 58.6948L121.975 53.5396V54.8431L106.57 58.6948H101.357Z" fill="#2192CF"/>
<path fill-rule="evenodd" clip-rule="evenodd" d="M96.1465 58.6947L121.974 52.2358V53.5394L101.357 58.6947H96.1465Z" fill="#2193D0"/>
<path fill-rule="evenodd" clip-rule="evenodd" d="M90.9375 58.695L121.975 50.9346V52.2361L96.1478 58.695H90.9375Z" fill="#2194D0"/>
<path fill-rule="evenodd" clip-rule="evenodd" d="M85.7266 58.6948L121.975 49.6309V50.9344L90.9368 58.6948H85.7266Z" fill="#2195D1"/>
<path fill-rule="evenodd" clip-rule="evenodd" d="M80.5137 58.6946L121.974 48.3291V49.6307L85.7259 58.6946H80.5137Z" fill="#2196D2"/>
<path fill-rule="evenodd" clip-rule="evenodd" d="M75.3047 58.695L121.975 47.0259V48.3294L80.5149 58.695H75.3047Z" fill="#2197D2"/>
<path fill-rule="evenodd" clip-rule="evenodd" d="M70.0938 58.6948L121.974 45.7241V47.0257L75.304 58.6948H70.0938Z" fill="#2298D3"/>
<path fill-rule="evenodd" clip-rule="evenodd" d="M64.8809 58.6951L121.974 44.4209V45.7244L70.0931 58.6951H64.8809Z" fill="#2299D3"/>
<path fill-rule="evenodd" clip-rule="evenodd" d="M59.6719 58.695L121.975 43.1172V44.4207L64.8821 58.695H59.6719Z" fill="#229AD4"/>
<path fill-rule="evenodd" clip-rule="evenodd" d="M54.4609 58.6948L121.974 41.8154V43.117L59.6712 58.6948H54.4609Z" fill="#229BD5"/>
<path fill-rule="evenodd" clip-rule="evenodd" d="M54.0332 57.4995L121.975 40.5122V41.8158L54.4612 58.6951H54.0332V57.4995Z" fill="#229CD5"/>
<path fill-rule="evenodd" clip-rule="evenodd" d="M54.0332 56.1958L121.975 39.2104V40.512L54.0332 57.4994V56.1958Z" fill="#229DD6"/>
<path fill-rule="evenodd" clip-rule="evenodd" d="M54.0332 54.8921L121.975 37.9067V39.2103L54.0332 56.1956V54.8921Z" fill="#229ED6"/>
<path fill-rule="evenodd" clip-rule="evenodd" d="M54.0332 53.5908L121.975 36.6055V37.907L54.0332 54.8924V53.5908Z" fill="#229FD7"/>
<path fill-rule="evenodd" clip-rule="evenodd" d="M54.0332 52.2871L121.975 35.3018V36.6053L54.0332 53.5907V52.2871Z" fill="#22A0D8"/>
<path fill-rule="evenodd" clip-rule="evenodd" d="M54.0332 50.9854L121.975 34V35.3016L54.0332 52.2869V50.9854Z" fill="#23A1D8"/>
<path fill-rule="evenodd" clip-rule="evenodd" d="M54.0332 49.6821L121.975 32.6968V34.0003L54.0332 50.9857V49.6821Z" fill="#23A2D9"/>
<path fill-rule="evenodd" clip-rule="evenodd" d="M54.0332 48.3804L121.975 31.3931V32.6966L54.0332 49.682V48.3804Z" fill="#23A3D9"/>
<path fill-rule="evenodd" clip-rule="evenodd" d="M54.0332 47.0767L121.975 30.0913V31.3929L54.0332 48.3802V47.0767Z" fill="#23A4DA"/>
<path fill-rule="evenodd" clip-rule="evenodd" d="M54.0332 45.7734L121.975 28.7881V30.0916L54.0332 47.077V45.7734Z" fill="#23A5DB"/>
<path fill-rule="evenodd" clip-rule="evenodd" d="M54.0332 44.4717L121.975 27.4863V28.7879L54.0332 45.7733V44.4717Z" fill="#23A6DB"/>
<path fill-rule="evenodd" clip-rule="evenodd" d="M54.0332 43.168L121.975 26.1826V27.4862L54.0332 44.4715V43.168Z" fill="#23A7DC"/>
<path fill-rule="evenodd" clip-rule="evenodd" d="M54.0332 41.8667L121.975 24.8794V26.1829L54.0332 43.1683V41.8667Z" fill="#23A8DC"/>
<path fill-rule="evenodd" clip-rule="evenodd" d="M54.0332 40.563L121.975 23.5776V24.8792L54.0332 41.8665V40.563Z" fill="#23A9DD"/>
<path fill-rule="evenodd" clip-rule="evenodd" d="M54.0332 39.2612L121.975 22.2739V23.5775L54.0332 40.5628V39.2612Z" fill="#23ABDE"/>
<path fill-rule="evenodd" clip-rule="evenodd" d="M54.0332 37.958L121.975 20.9727V22.2742L54.0332 39.2616V37.958Z" fill="#24ACDE"/>
<path fill-rule="evenodd" clip-rule="evenodd" d="M54.0332 36.6543L121.975 19.6689V20.9725L54.0332 37.9578V36.6543Z" fill="#24ADDF"/>
<path fill-rule="evenodd" clip-rule="evenodd" d="M54.0332 35.3525L121.975 18.3672V19.6688L54.0332 36.6541V35.3525Z" fill="#24AEDF"/>
<path fill-rule="evenodd" clip-rule="evenodd" d="M54.0332 34.0493L121.975 17.064V18.3675L54.0332 35.3529V34.0493Z" fill="#24AFE0"/>
<path fill-rule="evenodd" clip-rule="evenodd" d="M54.0332 32.7476L121.975 15.7603V17.0638L54.0332 34.0492V32.7476Z" fill="#24B0E1"/>
<path fill-rule="evenodd" clip-rule="evenodd" d="M54.0332 31.4443L121.975 14.459V15.7606L54.0332 32.7479V31.4443Z" fill="#24B1E1"/>
<path fill-rule="evenodd" clip-rule="evenodd" d="M54.0332 30.1426L121.975 13.1553V14.4588L54.0332 31.4442V30.1426Z" fill="#24B2E2"/>
<path fill-rule="evenodd" clip-rule="evenodd" d="M54.0332 28.8389L121.975 11.8535V13.1551L54.0332 30.1424V28.8389Z" fill="#24B3E2"/>
<path fill-rule="evenodd" clip-rule="evenodd" d="M54.0332 27.5356L121.975 10.5503V11.8538L54.0332 28.8392V27.5356Z" fill="#24B4E3"/>
<path fill-rule="evenodd" clip-rule="evenodd" d="M54.0332 26.2339L121.975 9.24854V10.5501L54.0332 27.5355V26.2339Z" fill="#25B5E4"/>
<path fill-rule="evenodd" clip-rule="evenodd" d="M54.0332 24.9302L121.975 7.94482V9.24837L54.0332 26.2337V24.9302Z" fill="#25B6E4"/>
<path fill-rule="evenodd" clip-rule="evenodd" d="M54.0332 23.6289L121.975 6.64355V7.94514L54.0332 24.9305V23.6289Z" fill="#25B7E5"/>
<path fill-rule="evenodd" clip-rule="evenodd" d="M54.0332 22.3252L121.975 5.33984V6.64339L54.0332 23.6287V22.3252Z" fill="#25B8E5"/>
<path fill-rule="evenodd" clip-rule="evenodd" d="M54.0332 21.0235L121.975 4.03613V5.33968L54.0332 22.325V21.0235Z" fill="#25B9E6"/>
<path fill-rule="evenodd" clip-rule="evenodd" d="M121.975 4.03628L54.0332 21.0236V0H121.975V4.03628Z" fill="#25B9E6"/>
</g>
</g>
<path d="M147.614 69.1975H151.529L155.868 76.1746L160.206 69.1975H164.113V85.6999H160.536V74.926L155.887 81.9758H155.787L151.193 74.9967V85.6999H147.614V69.1975ZM133.016 69.1975H136.648V82.4234H144.876V85.6999H133.014L133.016 69.1975ZM120.059 69.0777H123.397L130.476 85.6999H126.673L125.162 81.9993H118.192L116.677 85.6999H112.978L120.059 69.0777ZM123.872 78.7915L121.679 73.4399L119.486 78.7915H123.872ZM98.6451 69.1975H105.383C106.285 69.182 107.182 69.3215 108.037 69.6098C108.772 69.8582 109.448 70.2551 110.024 70.7759C110.565 71.2793 110.989 71.8951 111.266 72.58C111.566 73.3172 111.716 74.1067 111.708 74.9025V74.9496C111.724 75.8185 111.547 76.68 111.19 77.4723C110.855 78.1764 110.367 78.7963 109.761 79.2862C109.133 79.7874 108.414 80.1603 107.642 80.3836C106.796 80.6318 105.917 80.7549 105.035 80.7488H102.277V85.6999H98.6451V69.1975ZM105.149 77.5194C106.06 77.5194 106.767 77.2799 107.275 76.8009C107.518 76.5733 107.711 76.2972 107.84 75.9904C107.97 75.6837 108.033 75.3532 108.027 75.0203V74.9731C108.027 74.1565 107.765 73.5354 107.242 73.1101C106.714 72.686 105.999 72.474 105.082 72.474H102.277V77.5194H105.149ZM80.7253 69.1975H84.3572V75.727H91.0496V69.1975H94.6815V85.6999H91.0496V79.0762H84.3572V85.6999H80.7253V69.1975ZM71.0587 85.9826C69.9027 85.9929 68.7566 85.7685 67.6899 85.323C66.6839 84.9013 65.7692 84.2886 64.9964 83.5188C64.2346 82.7448 63.634 81.8273 63.2295 80.8195C62.8006 79.7642 62.5832 78.6349 62.5895 77.4958V77.4487C62.5774 75.2052 63.4376 73.0448 64.9885 71.4237C65.7645 70.6366 66.6895 70.012 67.7095 69.5862C68.8126 69.1278 69.9977 68.8993 71.1922 68.9148C71.8997 68.9103 72.606 68.9761 73.3006 69.1111C73.8968 69.2231 74.4797 69.3968 75.04 69.6294C75.5469 69.8385 76.0283 70.1046 76.475 70.4225C76.915 70.7327 77.3275 71.0802 77.7079 71.461L75.3933 74.1231C74.8063 73.5756 74.1455 73.113 73.4302 72.7489C72.7263 72.4137 71.954 72.247 71.1745 72.262C70.5263 72.2557 69.8841 72.3867 69.2902 72.6466C68.6964 72.9065 68.1643 73.2893 67.7291 73.7697C67.3039 74.2511 66.9711 74.8068 66.7475 75.409C66.5076 76.0457 66.3865 76.7211 66.3902 77.4016V77.4487C66.3876 78.1329 66.5086 78.812 66.7475 79.4531C66.9714 80.0581 67.3041 80.617 67.7291 81.1022C68.159 81.591 68.6894 81.9811 69.2841 82.2457C69.8788 82.5103 70.5236 82.6433 71.1745 82.6354C72.0022 82.6617 72.8236 82.483 73.5656 82.1152C74.2728 81.7295 74.9273 81.2545 75.5131 80.7017L77.8198 83.0359C77.4107 83.4759 76.9705 83.886 76.5025 84.2629C76.0382 84.6261 75.536 84.9381 75.0046 85.1934C74.4373 85.4597 73.8402 85.6574 73.226 85.7824C72.5121 85.9217 71.786 85.9888 71.0587 85.9826ZM50.3649 69.0777H53.714L60.7815 85.6999H56.9886L55.4691 81.9993H48.4979L46.9921 85.6999H43.2837L50.3649 69.0777ZM54.1852 78.7915L51.9923 73.4399L49.7995 78.7915H54.1852ZM28.9035 69.1975H41.3343V72.4269H32.4882V75.7741H40.2722V79.0055H32.4882V82.4705H41.4501V85.6999H28.9035V69.1975ZM11.8867 69.1975H19.5431C21.4336 69.1975 22.8805 69.6844 23.8444 70.6601C24.2132 71.0263 24.5033 71.4641 24.6967 71.9465C24.8902 72.4289 24.9829 72.9458 24.9693 73.4654V73.5125C24.9776 73.9363 24.9173 74.3586 24.7906 74.7631C24.6821 75.1097 24.5269 75.4399 24.3293 75.7447C24.1369 76.0305 23.9056 76.2882 23.6422 76.5103C23.3896 76.7318 23.1115 76.9222 22.8137 77.0777C23.673 77.3767 24.4456 77.8823 25.0635 78.55C25.6289 79.1586 25.892 80.0263 25.892 81.1218V81.1689C25.9059 81.8553 25.7537 82.5349 25.4483 83.1497C25.1597 83.7179 24.7331 84.2046 24.2076 84.5652C23.6142 84.9631 22.9538 85.2504 22.2582 85.4133C21.4291 85.6092 20.5794 85.7041 19.7276 85.696H11.8867V69.1975ZM18.7578 75.8723C19.5588 75.8723 20.1988 75.7349 20.6699 75.46C21.1411 75.1852 21.3747 74.7415 21.3747 74.127V74.0799C21.3891 73.8352 21.3405 73.5908 21.2336 73.3702C21.1267 73.1496 20.9651 72.96 20.7642 72.8195C20.3598 72.529 19.7669 72.3837 18.9973 72.3837H15.4204V75.8723H18.7578ZM19.7394 82.5215C20.5384 82.5215 21.1686 82.3763 21.6201 82.0857C21.846 81.9423 22.0291 81.7406 22.15 81.5018C22.271 81.2631 22.3253 80.9962 22.3072 80.7292V80.682C22.315 80.4285 22.2608 80.1769 22.1492 79.949C22.0377 79.7212 21.8723 79.524 21.6672 79.3746C21.2432 79.0507 20.5659 78.8916 19.6157 78.8916H15.4204V82.5215H19.7394Z" fill="white"/>
<path fill-rule="evenodd" clip-rule="evenodd" d="M49.5619 26.0454H52.0473C52.5356 26.0422 53.0204 26.1273 53.4784 26.2967C53.8906 26.4534 54.2676 26.6903 54.5876 26.9936C54.9048 27.2974 55.1557 27.6636 55.3246 28.069C55.4935 28.4744 55.5768 28.9103 55.5692 29.3494V29.3691C55.578 29.8187 55.491 30.2651 55.314 30.6785C55.1483 31.0758 54.9016 31.4342 54.5896 31.7308C54.2699 32.0364 53.8929 32.2759 53.4804 32.4355C53.0232 32.6081 52.538 32.6946 52.0492 32.6907H49.5619V26.0454ZM52.0375 31.6365C52.3586 31.6406 52.6777 31.584 52.9778 31.4697C53.2483 31.3677 53.4945 31.2102 53.7004 31.0074C53.9063 30.8045 54.0675 30.5607 54.1734 30.2918C54.2893 30.0056 54.3473 29.6994 54.3442 29.3907V29.373C54.3471 29.0624 54.2891 28.7543 54.1734 28.466C54.0702 28.1941 53.9095 27.9476 53.7022 27.7436C53.4955 27.5372 53.2482 27.3761 52.9759 27.2704C52.6764 27.1532 52.3571 27.0945 52.0355 27.0977H50.7182V31.6365H52.0375ZM45.0447 27.135H42.9362V26.0533H48.329V27.135H46.2206V32.6907H45.0427L45.0447 27.135ZM39.6715 32.7948C39.1703 32.7966 38.6729 32.7081 38.203 32.5337C37.72 32.3496 37.2759 32.0766 36.8936 31.7288L37.6003 30.8964C37.8954 31.1554 38.2259 31.3709 38.5819 31.5364C38.9357 31.6885 39.3178 31.7641 39.7029 31.7582C40.0047 31.774 40.304 31.6951 40.5588 31.5325C40.6597 31.4663 40.742 31.3756 40.798 31.2687C40.854 31.1619 40.8818 31.0425 40.8788 30.9219V30.9062C40.8816 30.7968 40.8623 30.688 40.8219 30.5862C40.7655 30.4815 40.6847 30.392 40.5863 30.3251C40.4467 30.2293 40.2948 30.1527 40.1348 30.0974C39.8846 30.0113 39.6296 29.9398 39.3711 29.8834C39.0518 29.8116 38.7376 29.7185 38.4307 29.6046C38.1796 29.5165 37.9443 29.3885 37.7338 29.2257C37.549 29.079 37.4005 28.8916 37.2999 28.678C37.1985 28.429 37.1504 28.1615 37.1586 27.8928V27.8751C37.1563 27.6113 37.2117 27.3503 37.3209 27.1102C37.4301 26.8701 37.5905 26.6568 37.7907 26.4852C38.0022 26.3107 38.2446 26.1775 38.5053 26.0925C38.7999 25.9961 39.1083 25.9484 39.4182 25.9512C39.8663 25.944 40.3123 26.0157 40.7355 26.1632C41.1304 26.3107 41.4989 26.5208 41.827 26.7855L41.1968 27.667C40.921 27.4622 40.621 27.2921 40.3036 27.1605C40.0153 27.0469 39.7084 26.9877 39.3986 26.9858C39.1142 26.9692 38.8325 27.0495 38.5996 27.2135C38.5116 27.2783 38.4402 27.3629 38.3911 27.4604C38.342 27.558 38.3166 27.6657 38.3169 27.775V27.7926C38.3139 27.9087 38.3367 28.0241 38.3836 28.1303C38.438 28.2394 38.5224 28.3307 38.6271 28.3934C38.776 28.4904 38.9379 28.5657 39.108 28.6172C39.3043 28.6878 39.5792 28.7605 39.8933 28.8351C40.2068 28.9134 40.515 29.0118 40.816 29.1296C41.0623 29.2226 41.2917 29.3552 41.4952 29.5222C41.6604 29.6745 41.7939 29.858 41.8879 30.0621C41.9798 30.2903 42.0252 30.5346 42.0214 30.7806V30.7982C42.0265 31.0862 41.9682 31.3717 41.8506 31.6346C41.7345 31.8765 41.5678 32.0908 41.3617 32.2628C41.1423 32.4419 40.8894 32.5753 40.6177 32.6554C40.3104 32.7451 39.9916 32.7894 39.6715 32.7869V32.7948ZM30.9746 26.0533H35.8963V27.1055H32.1309V28.8154H35.4683V29.8697H32.1309V31.6365H35.9434V32.6907H30.9746V26.0533Z" fill="white"/>
<path fill-rule="evenodd" clip-rule="evenodd" d="M142.182 32.8042C141.77 32.8153 141.36 32.7398 140.979 32.5824C140.644 32.4399 140.333 32.2473 140.056 32.0111L140.686 31.1237C140.907 31.3171 141.154 31.4771 141.421 31.5988C141.67 31.701 141.937 31.7524 142.206 31.75C142.435 31.7541 142.661 31.7022 142.865 31.5988C143.066 31.495 143.239 31.3457 143.372 31.163C143.508 30.9578 143.614 30.7336 143.684 30.4975C143.763 30.222 143.807 29.9378 143.816 29.6513C143.625 29.8804 143.384 30.0629 143.112 30.185C142.84 30.3072 142.543 30.3657 142.245 30.3561C141.919 30.3599 141.595 30.3095 141.285 30.2069C141.013 30.1213 140.762 29.9773 140.551 29.7848C140.341 29.6038 140.176 29.3759 140.07 29.1193C139.946 28.8456 139.885 28.5479 139.891 28.2477V28.228C139.898 27.9197 139.962 27.6153 140.082 27.3309C140.201 27.056 140.374 26.8078 140.59 26.6006C140.819 26.3913 141.086 26.2269 141.375 26.1157C142.046 25.8826 142.776 25.8826 143.447 26.1157C143.74 26.239 144.006 26.4177 144.232 26.6418C144.491 26.9181 144.687 27.2477 144.805 27.6077C144.973 28.1136 145.049 28.6454 145.031 29.1782V29.1978C145.036 29.6936 144.97 30.1874 144.835 30.6643C144.724 31.0779 144.536 31.4665 144.279 31.8089C144.04 32.1194 143.734 32.3717 143.384 32.547C143.012 32.7281 142.602 32.8195 142.188 32.814M142.424 29.3863C142.616 29.3889 142.808 29.357 142.989 29.2921C143.148 29.2328 143.295 29.1442 143.421 29.031C143.535 28.9246 143.625 28.7955 143.686 28.6521C143.75 28.5069 143.782 28.3495 143.78 28.1907V28.1711C143.782 28.0073 143.749 27.845 143.684 27.6945C143.619 27.5441 143.524 27.4089 143.403 27.2975C143.122 27.0536 142.758 26.9277 142.386 26.9461C142.197 26.9426 142.008 26.9752 141.831 27.0423C141.675 27.0989 141.533 27.1895 141.417 27.3073C141.307 27.422 141.218 27.5549 141.154 27.6999C141.094 27.8535 141.062 28.0163 141.059 28.1809V28.2006C141.054 28.3611 141.084 28.5208 141.148 28.6684C141.211 28.816 141.306 28.9478 141.426 29.0545C141.706 29.2811 142.059 29.3959 142.418 29.3765L142.424 29.3863ZM137.276 27.1934L136.071 27.5272L135.828 26.577L137.614 26.0077H138.435V32.6903H137.276V27.1934ZM132.131 32.8042C131.722 32.8118 131.318 32.7202 130.953 32.5372C130.597 32.3617 130.283 32.1128 130.03 31.8069C129.772 31.4844 129.577 31.1161 129.455 30.7213C129.307 30.2921 129.234 29.8403 129.241 29.3863V29.3686C129.24 28.9131 129.312 28.4603 129.455 28.0278C129.585 27.6318 129.784 27.2622 130.044 26.9363C130.299 26.6318 130.613 26.3821 130.967 26.202C131.337 26.025 131.742 25.9331 132.152 25.9331C132.563 25.9331 132.968 26.025 133.338 26.202C133.691 26.374 133.999 26.6237 134.241 26.9323C134.502 27.2558 134.702 27.6244 134.83 28.0199C134.968 28.4508 135.038 28.9005 135.038 29.3529V29.3726C135.038 29.8269 134.967 30.2784 134.83 30.7115C134.701 31.1078 134.502 31.4776 134.241 31.803C133.992 32.1091 133.681 32.3593 133.328 32.5372C132.956 32.7194 132.546 32.8109 132.131 32.8042ZM132.15 31.75C132.396 31.7555 132.637 31.6915 132.847 31.5654C133.059 31.4369 133.242 31.2658 133.383 31.0629C133.534 30.8326 133.645 30.5792 133.713 30.3129C133.794 30.011 133.832 29.6989 133.825 29.3863V29.3686C133.834 29.0553 133.793 28.7425 133.703 28.442C133.634 28.1741 133.523 27.919 133.374 27.6862C133.232 27.481 133.05 27.3072 132.838 27.1758C132.624 27.047 132.38 26.9791 132.131 26.9795C131.889 26.9758 131.651 27.0405 131.444 27.166C131.228 27.2882 131.044 27.4597 130.908 27.6666C130.755 27.8971 130.64 28.1511 130.568 28.4185C130.488 28.7202 130.448 29.031 130.446 29.3431V29.3628C130.448 29.6755 130.489 29.9869 130.568 30.2894C130.64 30.5586 130.758 30.8131 130.918 31.0413C131.053 31.2519 131.237 31.4275 131.454 31.5537C131.663 31.6833 131.904 31.7513 132.15 31.75ZM123.35 31.7716L125.637 29.828C125.862 29.6317 126.061 29.4668 126.226 29.3137C126.369 29.182 126.496 29.033 126.603 28.87C126.696 28.7466 126.769 28.6086 126.819 28.4617C126.865 28.3253 126.888 28.1818 126.885 28.0376C126.893 27.8962 126.871 27.7547 126.819 27.6229C126.767 27.4911 126.687 27.372 126.585 27.2739C126.369 27.093 126.095 26.9967 125.813 27.003C125.527 26.9987 125.247 27.0853 125.012 27.2504C124.736 27.4669 124.489 27.7191 124.278 28.0003L123.45 27.3544C123.596 27.1446 123.761 26.9475 123.941 26.7655C124.097 26.593 124.277 26.4442 124.476 26.3238C124.673 26.2041 124.885 26.1123 125.107 26.0509C125.368 25.9846 125.638 25.953 125.908 25.9567C126.205 25.9531 126.5 26.0009 126.781 26.098C127.042 26.1828 127.283 26.3205 127.488 26.5024C127.676 26.6793 127.826 26.8923 127.93 27.1287C128.045 27.3831 128.103 27.66 128.099 27.9395V27.9591C128.1 28.4322 127.952 28.8937 127.676 29.2783C127.517 29.4946 127.334 29.6922 127.131 29.8673C126.913 30.0636 126.66 30.2874 126.369 30.5289L124.995 31.6675H128.148V32.6923H123.35V31.7716Z" fill="white"/>
<path fill-rule="evenodd" clip-rule="evenodd" d="M66.2956 92.2021H69.7017C70.1397 92.1936 70.5759 92.26 70.9915 92.3985C71.3376 92.5206 71.6549 92.7124 71.924 92.9619C72.1214 93.1764 72.2778 93.4252 72.3854 93.6961C72.5004 93.9886 72.5577 94.3006 72.5542 94.6149V94.6384C72.5585 94.9273 72.5106 95.2146 72.4129 95.4865C72.326 95.7284 72.1992 95.954 72.0379 96.154C71.8764 96.3506 71.6817 96.5173 71.4627 96.6468C71.2317 96.7866 70.9818 96.8924 70.7206 96.9609L72.7898 99.8624H71.2094L69.317 97.1906H67.6227V99.8624H66.2956V92.2021ZM69.6036 96.0009C70.015 96.0231 70.4212 95.9009 70.752 95.6554C70.8966 95.5464 71.0124 95.4037 71.0893 95.2399C71.1663 95.076 71.2021 94.8958 71.1937 94.715V94.6934C71.2056 94.5114 71.1723 94.3293 71.097 94.1633C71.0217 93.9972 70.9066 93.8522 70.7618 93.7413C70.4201 93.5047 70.0085 93.3906 69.5938 93.4173H67.6306V96.0009H69.6036ZM58.7767 99.9881C58.3156 99.9954 57.8566 99.923 57.4201 99.7741C57.0347 99.6406 56.6844 99.4219 56.3954 99.1341C56.1008 98.8346 55.8756 98.474 55.7357 98.0779C55.5778 97.6068 55.5015 97.1122 55.51 96.6154V92.2021H56.843V96.5604C56.843 97.275 57.0216 97.8188 57.3691 98.1918C57.5534 98.3825 57.7766 98.5312 58.0236 98.6278C58.2706 98.7243 58.5355 98.7665 58.8002 98.7513C59.0614 98.7653 59.3226 98.7249 59.5672 98.6327C59.8119 98.5404 60.0347 98.3983 60.2216 98.2153C60.5612 97.8561 60.7399 97.3221 60.7399 96.6154V92.2021H62.067V96.5486C62.0758 97.0576 61.9995 97.5646 61.8412 98.0485C61.6967 98.4516 61.4685 98.8195 61.1718 99.1282C60.8821 99.4214 60.5277 99.6426 60.1372 99.7741C59.6993 99.9229 59.2391 99.9953 58.7767 99.9881ZM47.6043 99.9881C47.0489 99.9959 46.4978 99.8903 45.9847 99.6779C45.5122 99.4821 45.0836 99.1938 44.7243 98.8298C44.0043 98.0822 43.6031 97.084 43.6053 96.046V96.0421C43.6032 95.5181 43.7053 94.9989 43.9057 94.5148C44.0962 94.0448 44.3777 93.6171 44.7341 93.2564C45.0972 92.8895 45.5288 92.5973 46.0043 92.3965C46.5166 92.1804 47.0679 92.0721 47.6239 92.0785C48.1819 92.0713 48.7356 92.1775 49.2514 92.3906C50.1949 92.7893 50.9423 93.5452 51.3304 94.4932C51.5314 94.9772 51.6342 95.4964 51.6327 96.0205V96.0421C51.6343 96.5669 51.5315 97.0867 51.3304 97.5714C51.1368 98.0421 50.8519 98.4699 50.4921 98.8298C50.1287 99.1963 49.6972 99.4884 49.2219 99.6897C48.7098 99.9032 48.159 100.008 47.6043 99.9979V99.9881ZM47.6239 98.7513C47.9834 98.756 48.3396 98.683 48.6683 98.5373C48.9751 98.4024 49.2506 98.2052 49.4771 97.9582C49.7067 97.7066 49.8884 97.4152 50.0131 97.0983C50.1419 96.7624 50.2085 96.4058 50.2094 96.046V96.0421C50.2079 95.6811 50.1414 95.3233 50.0131 94.9859C49.8894 94.6667 49.7077 94.3732 49.4771 94.1202C49.241 93.8729 48.9598 93.673 48.6487 93.5312C48.3208 93.3825 47.9643 93.3075 47.6043 93.3113C47.0848 93.3065 46.5766 93.4631 46.15 93.7596C45.7234 94.056 45.3995 94.4777 45.223 94.9663C45.0904 95.3005 45.0237 95.6571 45.0266 96.0166V96.0421C45.0239 96.4035 45.0906 96.762 45.223 97.0983C45.3382 97.4216 45.5209 97.7167 45.7589 97.9641C45.9896 98.2132 46.268 98.4135 46.5775 98.553C46.905 98.6954 47.259 98.7664 47.6161 98.7611L47.6239 98.7513ZM35.9902 96.8352L32.9512 92.2021H34.5217L36.6812 95.5965L38.8407 92.2021H40.3857L37.3349 96.8117V99.8683H35.9803L35.9902 96.8352Z" fill="white"/>
<path fill-rule="evenodd" clip-rule="evenodd" d="M81.7409 93.4507H79.3223V92.2021H85.5337V93.4507H83.0974V99.8683H81.7409V93.4507Z" fill="white"/>
<path fill-rule="evenodd" clip-rule="evenodd" d="M92.0466 92.147H93.2893L96.6679 99.8681H95.2367L94.4652 98.0169H90.8412L90.0559 99.8681H88.6719L92.0466 92.147ZM93.9665 96.8272L92.6493 93.7607L91.3418 96.8272H93.9665Z" fill="white"/>
<path fill-rule="evenodd" clip-rule="evenodd" d="M103.991 99.9979C103.43 100.007 102.873 99.9045 102.352 99.6975C101.883 99.507 101.458 99.2239 101.101 98.8651C100.75 98.5098 100.477 98.0844 100.3 97.6166C100.106 97.1192 100.008 96.5897 100.01 96.0558V96.0421C100.01 95.5202 100.112 95.0034 100.31 94.5206C100.492 94.047 100.771 93.6164 101.129 93.2564C101.484 92.8881 101.91 92.5956 102.381 92.3965C102.886 92.1796 103.432 92.0713 103.981 92.0785C104.284 92.0763 104.586 92.0999 104.884 92.1491C105.144 92.1893 105.399 92.2551 105.646 92.3455C105.879 92.4315 106.103 92.54 106.315 92.6694C106.527 92.8018 106.729 92.9501 106.918 93.113L106.07 94.1319C105.926 94.0102 105.775 93.8968 105.619 93.7923C105.468 93.6914 105.307 93.6053 105.14 93.5351C104.961 93.461 104.774 93.4058 104.584 93.3702C104.367 93.3273 104.146 93.3069 103.924 93.3094C103.585 93.306 103.249 93.3812 102.943 93.5292C102.644 93.6699 102.376 93.8703 102.158 94.1182C101.927 94.3685 101.748 94.6612 101.629 94.98C101.498 95.3117 101.431 95.6656 101.433 96.0225V96.0421C101.431 96.416 101.494 96.7874 101.62 97.1395C101.742 97.4598 101.925 97.7537 102.158 98.0053C102.388 98.2507 102.667 98.4459 102.976 98.5785C103.314 98.7166 103.676 98.7834 104.04 98.7748C104.388 98.7777 104.734 98.724 105.065 98.6158C105.358 98.5214 105.634 98.3816 105.884 98.2016V95.5866H107.181V98.8062C106.985 98.9732 106.778 99.1267 106.561 99.2656C106.323 99.4152 106.074 99.5464 105.817 99.6583C105.537 99.7697 105.247 99.8557 104.951 99.9154C104.635 99.9768 104.313 100.007 103.991 100.006" fill="white"/>
<path fill-rule="evenodd" clip-rule="evenodd" d="M111.312 92.2021H112.64V98.6531H116.676V99.8683H111.312V92.2021Z" fill="white"/>
<path d="M121.872 92.2021H120.537V99.8683H121.872V92.2021Z" fill="white"/>
<path fill-rule="evenodd" clip-rule="evenodd" d="M126.307 92.2021H127.547L131.643 97.5027V92.2021H132.979V99.8683H131.851L127.634 94.4146V99.8683H126.307V92.2021Z" fill="white"/>
<path fill-rule="evenodd" clip-rule="evenodd" d="M137.318 92.2021H143.004V93.4193H138.663V95.3903H142.495V96.6055H138.663V98.6531H143.051V99.8683H137.318V92.2021Z" fill="white"/>
</g>
</g>
</g>
<defs>
<clipPath id="clip0_2157_1572">
<rect width="176" height="100" fill="white"/>
</clipPath>
<clipPath id="clip1_2157_1572">
<rect width="176" height="100" fill="white"/>
</clipPath>
<clipPath id="clip2_2157_1572">
<rect width="152.226" height="100" fill="white" transform="translate(11.8867)"/>
</clipPath>
</defs>
</svg>
