<svg width="176" height="100" viewBox="0 0 176 100" fill="none" xmlns="http://www.w3.org/2000/svg">
<g clip-path="url(#clip0_2157_1639)">
<g clip-path="url(#clip1_2157_1639)">
<path d="M65.1849 99.3545C64.9965 99.5526 64.7747 99.7159 64.5296 99.8371C64.2741 99.9515 63.9962 100.007 63.7164 99.9998C63.1887 99.9998 62.7499 99.8181 62.3999 99.4546C62.0499 99.0912 61.8751 98.6418 61.8754 98.1063C61.8702 97.8574 61.9143 97.6099 62.0052 97.3782C62.0962 97.1464 62.2321 96.9349 62.4052 96.7559C62.7584 96.3872 63.2016 96.2029 63.7349 96.2029C64.008 96.1955 64.2797 96.2455 64.5323 96.3496C64.7673 96.4574 64.9823 96.6045 65.168 96.7845L64.8846 97.0892C64.5314 96.7533 64.1468 96.5853 63.7307 96.5853C63.5404 96.5811 63.3515 96.6175 63.1764 96.6921C63.0014 96.7668 62.8443 96.8779 62.7156 97.0182C62.4448 97.3067 62.3093 97.6659 62.3093 98.0957C62.3093 98.5256 62.4456 98.8867 62.7183 99.1791C62.8459 99.3203 63.0023 99.4325 63.1769 99.5081C63.3516 99.5837 63.5404 99.6209 63.7307 99.6173C63.9477 99.6216 64.1629 99.5767 64.3601 99.4859C64.5646 99.3823 64.752 99.2479 64.9158 99.0875L65.1849 99.3545Z" fill="white"/>
<path d="M72.6162 99.937H72.1082L71.0433 98.5108H69.9944V99.937H69.5801V96.2656H71.1588C71.5611 96.2656 71.8828 96.3654 72.1241 96.565C72.2416 96.6605 72.3354 96.782 72.3982 96.9199C72.4609 97.0577 72.491 97.2082 72.4859 97.3596C72.4859 97.657 72.395 97.8966 72.2131 98.0785C72.0142 98.2689 71.7615 98.3934 71.4894 98.4351L72.6162 99.937ZM72.0658 97.3776C72.0702 97.2753 72.0502 97.1733 72.0074 97.0803C71.9645 96.9872 71.9001 96.9057 71.8195 96.8426C71.6549 96.7133 71.4241 96.6487 71.127 96.6487H69.9938V98.1384H71.1217C71.4015 98.1384 71.6287 98.0702 71.8036 97.9339C71.8886 97.8689 71.9568 97.7845 72.0024 97.6877C72.0481 97.5909 72.0698 97.4846 72.0658 97.3776Z" fill="white"/>
<path d="M79.6966 96.2657V96.6434H77.4588V97.8969H79.4625V98.2741H77.4588V99.5593H79.7247V99.9365H77.043V96.2651L79.6966 96.2657Z" fill="white"/>
<path d="M85.9763 96.2397L87.6494 99.9371H87.2033L86.7736 98.967H84.7753L84.3398 99.9371H83.916L85.5891 96.2397H85.9763ZM86.6121 98.5946L85.7777 96.7224L84.9385 98.5946H86.6121Z" fill="white"/>
<path d="M92.9629 96.6487V99.937H92.5433V96.6487H91.3105V96.2656H94.1952V96.6487H92.9629Z" fill="white"/>
<path d="M98.6777 96.2656H99.0925V99.937H98.6777V96.2656Z" fill="white"/>
<path d="M105.293 99.4284L106.604 96.2656H107.05L105.471 99.9635H105.104L103.525 96.2656H103.987L105.293 99.4284Z" fill="white"/>
<path d="M114.099 96.2657V96.6434H111.86V97.8969H113.863V98.2741H111.86V99.5593H114.125V99.9365H111.445V96.2651L114.099 96.2657Z" fill="white"/>
<path d="M100.938 1.96018V42.0427H100.987L114.792 27.2518L111.651 27.0081V25.9062H119.54V27.0081L116.691 27.2518L105.37 39.1941L120.83 59.2928L123.46 59.5366V60.6401H109.557V59.5366L112.698 59.2928L100.987 43.3089H100.938V59.2928L104.688 59.5366V60.6401H90.9557V59.5366L94.7055 59.2928V0.515476C92.4876 0.171827 90.2465 -0.000507164 88.0022 1.12105e-06C64.0382 1.12105e-06 44.6133 19.4249 44.6133 43.3889C44.6133 65.5638 61.2483 83.8529 82.7219 86.4599L82.7637 29.5452H82.715L71.1462 61.1269H70.2456L57.3857 28.3961H57.337L57.702 59.2928L61.3787 59.5366V60.6401H52.5404V59.5366L56.2901 59.2928V27.2518L52.5404 27.0081V25.9062H62.9611L73.1202 51.8023H73.1684L82.715 25.9062H92.6976V27.0081L88.9478 27.2518V86.7629C112.47 86.2586 131.387 67.0319 131.387 43.3868C131.387 23.9312 118.581 7.4667 100.938 1.96018Z" fill="#FFCF02"/>
</g>
</g>
<defs>
<clipPath id="clip0_2157_1639">
<rect width="176" height="100" fill="white"/>
</clipPath>
<clipPath id="clip1_2157_1639">
<rect width="86.7735" height="100" fill="white" transform="translate(44.6133)"/>
</clipPath>
</defs>
</svg>
