<svg width="176" height="100" viewBox="0 0 176 100" fill="none" xmlns="http://www.w3.org/2000/svg">
<g clip-path="url(#clip0_2157_1661)">
<g clip-path="url(#clip1_2157_1661)">
<path d="M121.463 17.1953C120.957 16.4921 120.429 15.8031 119.879 15.1283C119.006 14.0635 118.077 13.0371 117.091 12.0491C116.36 11.3189 115.608 10.6203 114.833 9.95312L110.441 14.7186L108.696 16.6119L88.0029 39.0693L68.8281 17.1488V65.1277H75.8763V35.3835L88.0658 48.9631L100.126 35.5774V35.7638L113.56 21.7295L115.36 19.8492C115.895 20.5367 116.406 21.2444 116.89 21.9722C119.745 26.2674 121.604 31.1455 122.334 36.2508C123.063 41.3561 122.644 46.5598 121.107 51.4825C121.138 51.5587 121.167 51.6349 121.198 51.7073C122.106 53.8795 123.414 56.3238 125.087 58.9861C127.738 53.4885 129.14 47.4213 129.14 41.1375C129.14 32.4278 126.448 24.1315 121.463 17.1953Z" fill="white"/>
<path d="M119.83 54.9036C119.459 54.1498 119.122 53.4174 118.826 52.7086C118.668 52.3336 118.514 51.9559 118.365 51.5756C117.194 48.5976 116.281 45.525 115.634 42.3914C114.878 38.7657 114.477 36.1108 114.432 34.4267L109.848 30.1585L90.2485 51.2098L95.4343 56.1921L109.262 41.3415C109.32 44.1107 110.134 48.2368 111.706 53.7196C112.354 55.8472 113.111 57.9402 113.974 59.99C114.36 60.9016 114.763 61.7887 115.183 62.6515C114.607 63.3784 114.003 64.0807 113.37 64.7586C107.034 71.5591 98.0063 75.82 88.0005 75.82C68.8771 75.82 53.3192 60.2621 53.3192 41.1388C53.3192 30.2435 58.3713 20.5071 66.2537 14.1444C66.9122 13.6127 67.5902 13.1046 68.2876 12.6201C74.1983 8.52296 81.2388 6.36935 88.4301 6.45868C95.6215 6.54802 102.606 8.87586 108.413 13.1186L112.827 8.32866C105.717 2.92713 97.0841 0 88.0001 0C77.0114 0 66.6805 4.27923 58.9105 12.0492C51.1406 19.8192 46.8613 30.1509 46.8613 41.1388C46.8613 52.1267 51.1406 62.4602 58.9105 70.2283C66.6805 77.9964 77.0114 82.2768 88.0001 82.2768C98.8546 82.2768 109.065 78.0989 116.802 70.508C116.898 70.4143 116.995 70.3224 117.09 70.2275C117.616 69.7014 118.126 69.163 118.619 68.6125C120.556 66.4613 122.261 64.1117 123.705 61.6028C123.637 61.4984 123.569 61.3955 123.501 61.2895C122.02 59.0033 120.797 56.8746 119.83 54.9036Z" fill="#FFCE00"/>
<path d="M34.3046 86.8276V93.0531H39.934V95.0698H31.8047V86.8276H34.3046Z" fill="white"/>
<path d="M41.6237 94.3327C40.9583 93.657 40.948 92.2645 40.948 91.7116V90.0127C40.948 89.4189 40.897 88.2517 41.6237 87.5451C42.371 86.7978 43.5486 86.8283 44.5314 86.8283H48.5656C49.5484 86.8283 50.7157 86.8184 51.4733 87.5451C52.1288 88.1594 52.0449 89.4189 52.0449 90.0127V91.7123C52.0449 92.4189 52.1371 93.6578 51.4733 94.3334C50.777 95.04 49.0774 95.0705 48.5042 95.0705H44.5943C43.8253 95.0697 42.32 95.0392 41.6237 94.3327ZM49.4257 92.5103C49.5076 92.3872 49.5484 91.9676 49.5484 91.5069V90.3907C49.5484 89.9403 49.5076 89.5104 49.4257 89.3873C49.0671 88.773 48.3095 88.8446 47.9014 88.8446H45.0947C44.685 88.8446 43.9274 88.773 43.5703 89.3873C43.4884 89.5104 43.4472 89.8789 43.4472 90.3907V91.5069C43.4472 91.9779 43.4884 92.3872 43.5703 92.5103C43.9285 93.1345 44.6861 93.053 45.0947 93.053H47.9002C48.3095 93.053 49.0671 93.1345 49.4257 92.5103Z" fill="white"/>
<path d="M62.9726 87.5444C63.4745 88.1895 63.5062 90.0531 63.321 90.6876C63.1159 91.476 62.6247 91.6193 62.0409 91.8446C62.3377 91.9368 62.5325 91.997 62.7066 92.1006C63.4745 92.5717 63.3823 93.7694 63.3823 94.4451V95.0697H60.8839C60.8839 94.128 60.9353 93.431 60.6381 93.1643C60.3713 92.8975 59.6553 92.9287 59.3687 92.9287H55.9183V95.0685H53.4199V86.8275H60.5665C61.4574 86.8275 62.3892 86.7868 62.9726 87.5444ZM59.5017 90.8107C59.85 90.8107 60.6282 90.8411 60.9045 90.4216C61.0375 90.2066 61.0375 89.5104 60.9045 89.2543C60.6587 88.7833 59.8702 88.8446 59.5223 88.8446H55.9183V90.8107H59.5017Z" fill="white"/>
<path d="M73.6604 86.8276V88.8447H67.2406V90.145H73.3327V91.7936H67.2406V93.0531H73.814V95.0698H64.7441V86.8276H73.6604Z" fill="white"/>
<path d="M79.0678 86.8276L81.9141 92.1007L84.7616 86.8276H88.7752V95.0698H86.2768V89.1313L82.8672 95.0698H80.9732L77.6578 89.1629V95.0698H75.1582V86.8276H79.0678Z" fill="white"/>
<path d="M94.9578 86.8276V95.0698H92.459V86.8276H94.9578Z" fill="white"/>
<path d="M102.585 86.8277C103.343 86.8277 104.981 86.7972 105.667 88.0156C106.159 88.886 106.159 91.0974 105.647 91.9789C104.94 93.1766 104.008 93.0436 102.934 93.0539H98.7969V95.0706H96.2988V86.8277H102.585ZM102.114 91.0464C102.493 91.0464 103.056 91.0871 103.343 90.6367C103.466 90.432 103.457 89.5411 103.343 89.357C103.056 88.8143 102.432 88.8448 101.541 88.8448H98.7972V91.0464H102.114Z" fill="white"/>
<path d="M114.8 89.6741C114.739 88.937 114.432 88.8551 113.756 88.8448H110.961C110.612 88.8448 110.101 88.7835 109.875 89.2133C109.793 89.3467 109.814 89.6946 109.886 89.8276C110.121 90.1965 110.858 90.1657 111.37 90.1657L114.432 90.2373C115.189 90.2682 116.766 90.1348 117.339 91.19C117.687 91.8451 117.657 93.3401 117.247 94.0055C116.612 95.0604 114.739 95.0703 113.889 95.0703H109.773C109.282 95.0703 108.166 94.9986 107.613 94.1899C107.346 93.7803 107.316 92.9 107.326 92.3573H109.794C109.855 93.1149 110.295 93.0535 110.766 93.0535H113.695C114.043 93.0535 114.77 93.0737 114.995 92.7975C115.097 92.6645 115.097 92.3878 114.995 92.1626C114.831 91.8245 114.186 91.876 113.48 91.8554L110.224 91.7838C109.423 91.7735 108.084 91.794 107.572 90.8112C107.224 90.166 107.224 88.4256 107.602 87.7804C108.227 86.7363 109.425 86.8277 110.582 86.8277H114.841C115.507 86.8277 116.49 86.9508 116.991 87.729C117.278 88.1482 117.247 89.2533 117.247 89.6725L114.8 89.6741Z" fill="white"/>
<path d="M121.414 86.8276V90.8721C121.414 91.3942 121.353 92.326 121.742 92.7253C122.141 93.1144 122.796 93.0531 123.155 93.0531H125.182C125.407 93.0531 126.093 93.1144 126.462 92.7356C126.789 92.3873 126.728 91.6808 126.728 90.9335V86.8276H129.227V91.7117C129.227 92.6434 129.319 93.5546 128.582 94.3122C127.793 95.1125 126.78 95.0698 125.704 95.0698H122.019C121.138 95.0698 120.432 95.1414 119.612 94.3019C118.835 93.4932 118.917 92.0916 118.917 91.4438V86.8276H121.414Z" fill="white"/>
<path d="M134.49 86.8276L137.336 92.1007L140.182 86.8276H144.196V95.0698H141.697V89.1313L138.288 95.0698H136.394L133.077 89.1629V95.0698H130.578V86.8276H134.49Z" fill="white"/>
<path d="M48.9851 97.11L49.9378 98.2914L50.9245 97.11H51.9507L50.3502 99.0044V99.9971H49.484V98.9781L47.9375 97.1089L48.9851 97.11Z" fill="white"/>
<path d="M53.6826 99.7403C53.4494 99.5036 53.4456 99.0162 53.4456 98.8219V98.2262C53.4456 98.0182 53.4277 97.6089 53.6826 97.3616C53.9444 97.0994 54.3571 97.1104 54.7016 97.1104H56.1155C56.4585 97.1104 56.8689 97.1066 57.1345 97.3616C57.3632 97.5769 57.3353 98.0182 57.3353 98.2262V98.8219C57.3353 99.0696 57.3677 99.5036 57.1345 99.7403C56.8902 99.988 56.2961 99.9987 56.0938 99.9987H54.7218C54.4539 99.9975 53.9265 99.988 53.6826 99.7403ZM56.4169 99.1016C56.4455 99.0585 56.46 98.9111 56.46 98.7502V98.3589C56.46 98.2011 56.4455 98.0506 56.4169 98.0075C56.2912 97.7922 56.0255 97.817 55.8834 97.817H54.9002C54.7565 97.817 54.4909 97.7918 54.3667 98.0075C54.3377 98.0506 54.3236 98.1797 54.3236 98.3589V98.7502C54.3236 98.9152 54.3377 99.0585 54.3667 99.1016C54.492 99.3207 54.7577 99.2921 54.9002 99.2921H55.8834C56.0275 99.2918 56.2912 99.3207 56.4169 99.1016Z" fill="white"/>
<path d="M60.1864 97.1103V98.5276C60.1864 98.7105 60.165 99.0371 60.3007 99.1754C60.4364 99.3138 60.6704 99.2897 60.7961 99.2897H61.5065C61.5857 99.2897 61.8258 99.3115 61.955 99.1788C62.0693 99.0565 62.0484 98.8092 62.0484 98.547V97.1084H62.9249V98.8199C62.9249 99.1465 62.9569 99.4658 62.6989 99.7314C62.4222 100.011 62.067 99.9982 61.6905 99.9982H60.3986C60.09 99.9982 59.8423 100.023 59.5553 99.7291C59.2828 99.4456 59.3114 98.954 59.3114 98.728V97.1099L60.1864 97.1103Z" fill="white"/>
<path d="M68.2494 97.3612C68.4251 97.5872 68.4357 98.2403 68.3713 98.4625C68.2997 98.7388 68.1274 98.7891 67.9228 98.868C68.0037 98.889 68.0819 98.9192 68.156 98.9579C68.4251 99.1229 68.3927 99.5429 68.3927 99.7795V99.9971H67.5162C67.5162 99.6671 67.5341 99.4232 67.43 99.3299C67.3367 99.2365 67.0871 99.2476 66.9849 99.2476H65.7769V99.9971H64.9004V97.1089H67.406C67.7182 97.11 68.0447 97.0956 68.2494 97.3612ZM67.033 98.5044C67.1549 98.5044 67.4278 98.5155 67.5246 98.3684C67.5711 98.2922 67.5711 98.049 67.5246 97.9591C67.4384 97.7941 67.1621 97.8158 67.0402 97.8158H65.7769V98.5044H67.033Z" fill="white"/>
<path d="M75.9068 97.817H74.6652V99.9971H73.7887V97.8158H72.5723V97.1089H75.906L75.9068 97.817Z" fill="white"/>
<path d="M79.3754 97.1104L80.9379 99.9986H79.9817L79.6948 99.4784H77.9223L77.6601 99.9986H76.6914L78.2306 97.1104H79.3754ZM79.3647 98.8721L78.8015 97.8028L78.2558 98.8721H79.3647Z" fill="white"/>
<path d="M85.3261 98.104C85.2971 97.7919 85.1611 97.8171 84.8848 97.8171H84.1276C83.7758 97.8171 83.5426 97.7919 83.4241 98.0141C83.3559 98.1398 83.3524 99.0118 83.4351 99.1337C83.5571 99.3132 83.7781 99.2915 83.9195 99.2915H84.8848C84.9816 99.2915 85.2076 99.3132 85.2937 99.1661C85.3295 99.1013 85.3189 99.0335 85.3189 98.9329H84.2389V98.3479H86.2015V98.9683C86.2015 99.1333 86.2266 99.564 86.0109 99.7865C85.8173 99.9839 85.272 99.9946 85.1497 99.998H83.6318C83.4203 99.998 83.0003 100.03 82.7385 99.7579C82.4946 99.503 82.4946 99.1333 82.4946 98.8357V98.2404C82.4946 97.9927 82.4729 97.6158 82.7233 97.3639C82.9736 97.112 83.4767 97.1162 83.7282 97.1094H85.1706C85.3821 97.1094 85.8703 97.1273 86.0784 97.4607C86.179 97.6296 86.179 97.8594 86.179 98.1033L85.3261 98.104Z" fill="white"/>
<path d="M89.0679 97.11V99.2914H91.0416V99.9971H88.1914V97.1089L89.0679 97.11Z" fill="white"/>
<path d="M93.7788 97.11V99.9971H92.9023V97.1089L93.7788 97.11Z" fill="white"/>
<path d="M97.0899 97.11L98.751 99.1984V97.11H99.6275V99.9971H98.2667L96.6089 97.9393V99.9971H95.7324V97.1089L97.0899 97.11Z" fill="white"/>
<path d="M104.721 97.11V97.817H102.473V98.2723H104.607V98.8501H102.473V99.2914H104.777V99.9971H101.598V97.1089L104.721 97.11Z" fill="white"/>
<path d="M109.931 97.11V98.147H111.758V97.11H112.634V99.9971H111.758V98.8992H109.931V99.9971H109.055V97.1089L109.931 97.11Z" fill="white"/>
<path d="M117.794 97.11V97.817H115.546V98.2723H117.68V98.8501H115.546V99.2914H117.849V99.9971H114.67V97.1089L117.794 97.11Z" fill="white"/>
<path d="M123.169 97.3612C123.344 97.5872 123.355 98.2403 123.29 98.4625C123.218 98.7388 123.046 98.7891 122.842 98.868C122.923 98.889 123.001 98.9192 123.075 98.9579C123.344 99.1229 123.312 99.5429 123.312 99.7795V99.9971H122.435C122.435 99.6671 122.453 99.4232 122.349 99.3299C122.256 99.2365 122.006 99.2476 121.904 99.2476H120.695V99.9971H119.818V97.1089H122.323C122.637 97.11 122.964 97.0956 123.169 97.3612ZM121.952 98.5044C122.074 98.5044 122.346 98.5155 122.443 98.3684C122.49 98.2922 122.49 98.049 122.443 97.9591C122.358 97.7941 122.081 97.8158 121.959 97.8158H120.696V98.5044H121.952Z" fill="white"/>
<path d="M128.421 97.11V97.817H126.173V98.2723H128.307V98.8501H126.173V99.2914H128.476V99.9971H125.297V97.1089L128.421 97.11Z" fill="white"/>
<path d="M45.1793 98.8191L31.5996 98.555L45.1793 98.2905V98.8191Z" fill="white"/>
<path d="M130.822 98.2905L144.402 98.555L130.822 98.8191V98.2905Z" fill="white"/>
</g>
</g>
<defs>
<clipPath id="clip0_2157_1661">
<rect width="176" height="100" fill="white"/>
</clipPath>
<clipPath id="clip1_2157_1661">
<rect width="112.802" height="100" fill="white" transform="translate(31.5996)"/>
</clipPath>
</defs>
</svg>
