<svg width="60" height="60" viewBox="0 0 60 60" fill="none" xmlns="http://www.w3.org/2000/svg">
<g clip-path="url(#clip0_2157_583)">
<g clip-path="url(#clip1_2157_583)">
<path d="M7.82617 50.8696H52.174" stroke="#FFC400" stroke-width="2.6087" stroke-linejoin="round"/>
<path d="M48.261 1.30444H11.7392C9.5781 1.30444 7.82617 3.05637 7.82617 5.21749V54.7827C7.82617 56.9438 9.5781 58.6958 11.7392 58.6958H48.261C50.4221 58.6958 52.174 56.9438 52.174 54.7827V5.21749C52.174 3.05637 50.4221 1.30444 48.261 1.30444Z" stroke="white" stroke-width="2.6087" stroke-linejoin="round"/>
<path d="M36.9528 33.4044C35.9354 32.8436 34.9311 32.5436 34.0702 33.4044C33.2093 34.2653 33.5093 35.2827 34.0702 36.287C34.6311 37.3044 37.7746 42.887 39.118 44.2305C40.7093 45.8218 43.305 45.8218 44.8963 44.2305C46.4876 42.6392 46.4876 40.0436 44.8963 38.4523C43.5528 37.1088 37.9702 33.9653 36.9528 33.4044Z" stroke="white" stroke-width="2.6087" stroke-linejoin="round"/>
<path d="M36.4172 40.3696C34.4607 41.2566 32.2824 41.7392 29.9998 41.7392C21.352 41.7392 14.3477 34.7348 14.3477 26.087C14.3477 17.4392 21.352 10.4348 29.9998 10.4348C38.6477 10.4348 45.652 17.4392 45.652 26.087C45.652 28.5131 45.1042 30.8218 44.1129 32.8696" stroke="white" stroke-width="2.6087" stroke-linejoin="round"/>
<path d="M30.0009 30.0002C32.162 30.0002 33.914 28.2482 33.914 26.0871C33.914 23.926 32.162 22.1741 30.0009 22.1741C27.8398 22.1741 26.0879 23.926 26.0879 26.0871C26.0879 28.2482 27.8398 30.0002 30.0009 30.0002Z" stroke="white" stroke-width="2.6087" stroke-linejoin="round"/>
<path d="M13.043 54.7827H16.956" stroke="#FFC400" stroke-width="2.6087" stroke-linejoin="round"/>
<path d="M19.5645 54.7827H23.4775" stroke="#FFC400" stroke-width="2.6087" stroke-linejoin="round"/>
</g>
</g>
<defs>
<clipPath id="clip0_2157_583">
<rect width="60" height="60" fill="white"/>
</clipPath>
<clipPath id="clip1_2157_583">
<rect width="46.9565" height="60" fill="white" transform="translate(6.52148)"/>
</clipPath>
</defs>
</svg>
