<svg width="60" height="60" viewBox="0 0 60 60" fill="none" xmlns="http://www.w3.org/2000/svg">
<g clip-path="url(#clip0_2157_713)">
<g clip-path="url(#clip1_2157_713)">
<g clip-path="url(#clip2_2157_713)">
<path d="M29.9986 54.2855C43.4112 54.2855 54.2843 43.4125 54.2843 29.9998C54.2843 16.5872 43.4112 5.71411 29.9986 5.71411C16.586 5.71411 5.71289 16.5872 5.71289 29.9998C5.71289 43.4125 16.586 54.2855 29.9986 54.2855Z" stroke="white" stroke-width="2.85714" stroke-linejoin="round"/>
<path d="M21.4277 14.2857C24.2849 11.4286 30.5849 10.9429 30.8277 11.4286C32.8277 15.5 32.5563 20.4572 29.9992 24.2857" stroke="#FFC400" stroke-width="2.85714" stroke-linecap="round" stroke-linejoin="round"/>
<path d="M12.3705 26.8999C11.9134 22.8857 15.4705 17.6571 15.9991 17.7714C20.4277 18.7428 24.142 22.0571 25.542 26.4428" stroke="#FFC400" stroke-width="2.85714" stroke-linecap="round" stroke-linejoin="round"/>
<path d="M16.5709 41.8428C13.1566 39.6857 11.2852 33.6571 11.6995 33.3142C15.228 30.4571 20.128 29.6285 24.4137 31.2714" stroke="#FFC400" stroke-width="2.85714" stroke-linecap="round" stroke-linejoin="round"/>
<path d="M30.8702 47.8714C27.0559 49.2 21.1702 46.9 21.1702 46.3571C21.1416 41.8285 23.5416 37.4714 27.513 35.1428" stroke="#FFC400" stroke-width="2.85714" stroke-linecap="round" stroke-linejoin="round"/>
<path d="M44.5129 40.4713C43.1701 44.2856 37.7129 47.4427 37.2701 47.1141C33.7129 44.3141 31.8129 39.7141 32.4558 35.157" stroke="#FFC400" stroke-width="2.85714" stroke-linecap="round" stroke-linejoin="round"/>
<path d="M47.2417 25.1855C49.3846 28.6141 48.4417 34.857 47.9132 34.9855C43.4989 36.0141 38.7275 34.6427 35.5703 31.2855" stroke="#FFC400" stroke-width="2.85714" stroke-linecap="round" stroke-linejoin="round"/>
<path d="M36.985 13.5286C40.9993 14 45.2993 18.6143 45.0564 19.1143C43.1136 23.2143 39.0564 26.0857 34.4707 26.4571" stroke="#FFC400" stroke-width="2.85714" stroke-linecap="round" stroke-linejoin="round"/>
<path d="M29.9994 35.7142C33.1554 35.7142 35.7137 33.1558 35.7137 29.9999C35.7137 26.844 33.1554 24.2856 29.9994 24.2856C26.8435 24.2856 24.2852 26.844 24.2852 29.9999C24.2852 33.1558 26.8435 35.7142 29.9994 35.7142Z" stroke="white" stroke-width="2.85714" stroke-linejoin="round"/>
<path d="M55.7135 1.42847H4.28488C2.70692 1.42847 1.42773 2.70765 1.42773 4.28561V55.7142C1.42773 57.2921 2.70692 58.5713 4.28488 58.5713H55.7135C57.2914 58.5713 58.5706 57.2921 58.5706 55.7142V4.28561C58.5706 2.70765 57.2914 1.42847 55.7135 1.42847Z" stroke="white" stroke-width="2.85714" stroke-linejoin="round"/>
<path d="M52.8555 5.71411V8.57125" stroke="#FFC400" stroke-width="2.85714" stroke-linejoin="round"/>
<path d="M52.8555 51.4285V54.2856" stroke="#FFC400" stroke-width="2.85714" stroke-linejoin="round"/>
<path d="M7.14258 5.71411V8.57125" stroke="#FFC400" stroke-width="2.85714" stroke-linejoin="round"/>
<path d="M7.14258 51.4285V54.2856" stroke="#FFC400" stroke-width="2.85714" stroke-linejoin="round"/>
</g>
</g>
</g>
<defs>
<clipPath id="clip0_2157_713">
<rect width="60" height="60" fill="white"/>
</clipPath>
<clipPath id="clip1_2157_713">
<rect width="60" height="60" fill="white"/>
</clipPath>
<clipPath id="clip2_2157_713">
<rect width="60" height="60" fill="white"/>
</clipPath>
</defs>
</svg>
