<svg width="60" height="60" viewBox="0 0 60 60" fill="none" xmlns="http://www.w3.org/2000/svg">
<g clip-path="url(#clip0_2157_598)">
<g clip-path="url(#clip1_2157_598)">
<path d="M46.25 44.375V49.375H23.75V44.375" stroke="#FFC400" stroke-width="2.5" stroke-miterlimit="10"/>
<path d="M31.25 44.375V49.375" stroke="#FFC400" stroke-width="2.5" stroke-miterlimit="10"/>
<path d="M38.75 44.375V49.375" stroke="#FFC400" stroke-width="2.5" stroke-miterlimit="10"/>
<path d="M55 14.375H6.25L1.25 19.375V44.375H55" stroke="white" stroke-width="2.5" stroke-miterlimit="10"/>
<path d="M55 53.125V10.625C55 9.25 56.125 8.125 57.5 8.125H60" stroke="white" stroke-width="2.5" stroke-linejoin="round"/>
<path d="M58.75 19.375V25.625" stroke="white" stroke-width="2.5" stroke-linejoin="round"/>
<path d="M58.75 30.625V39.375" stroke="white" stroke-width="2.5" stroke-linejoin="round"/>
<path d="M46.25 21.875V36.875" stroke="white" stroke-width="2.5" stroke-linejoin="round"/>
<path d="M41.25 21.875V36.875" stroke="#FFC400" stroke-width="2.5" stroke-linejoin="round"/>
<path d="M33.75 21.875V28.125" stroke="white" stroke-width="2.5" stroke-linejoin="round"/>
<path d="M33.75 30.625V36.875" stroke="white" stroke-width="2.5" stroke-linejoin="round"/>
<path d="M3.75 40.625H6.25" stroke="white" stroke-width="2.5" stroke-miterlimit="10"/>
<path d="M50 40.625H52.5" stroke="white" stroke-width="2.5" stroke-miterlimit="10"/>
<path d="M50 18.125H52.5" stroke="white" stroke-width="2.5" stroke-miterlimit="10"/>
<path d="M15 19.375V23.125" stroke="#FFC400" stroke-width="2.5" stroke-linejoin="round"/>
<path d="M20 19.375V23.125" stroke="#FFC400" stroke-width="2.5" stroke-linejoin="round"/>
<path d="M15 35.625V39.375" stroke="#FFC400" stroke-width="2.5" stroke-linejoin="round"/>
<path d="M20 35.625V39.375" stroke="#FFC400" stroke-width="2.5" stroke-linejoin="round"/>
<path d="M7.5 26.875H11.25" stroke="#FFC400" stroke-width="2.5" stroke-linejoin="round"/>
<path d="M7.5 31.875H11.25" stroke="#FFC400" stroke-width="2.5" stroke-linejoin="round"/>
<path d="M23.75 31.875H27.5" stroke="#FFC400" stroke-width="2.5" stroke-linejoin="round"/>
<path d="M23.75 26.875H27.5" stroke="#FFC400" stroke-width="2.5" stroke-linejoin="round"/>
<path d="M23.75 23.125H11.25V35.625H23.75V23.125Z" stroke="white" stroke-width="2.5" stroke-linejoin="round"/>
<path d="M17.5 44.375V49.375H10V44.375" stroke="white" stroke-width="2.5" stroke-miterlimit="10"/>
</g>
</g>
<defs>
<clipPath id="clip0_2157_598">
<rect width="60" height="60" fill="white"/>
</clipPath>
<clipPath id="clip1_2157_598">
<rect width="60" height="46.25" fill="white" transform="translate(0 6.875)"/>
</clipPath>
</defs>
</svg>
