<svg width="60" height="60" viewBox="0 0 60 60" fill="none" xmlns="http://www.w3.org/2000/svg">
<g clip-path="url(#clip0_2157_631)">
<g clip-path="url(#clip1_2157_631)">
<g clip-path="url(#clip2_2157_631)">
<path d="M12.8574 7.14286V0" stroke="#FFC400" stroke-width="2.85714" stroke-miterlimit="10"/>
<path d="M24.2852 7.14286V0" stroke="#FFC400" stroke-width="2.85714" stroke-miterlimit="10"/>
<path d="M35.7148 7.14286V0" stroke="#FFC400" stroke-width="2.85714" stroke-miterlimit="10"/>
<path d="M47.1426 7.14286V0" stroke="#FFC400" stroke-width="2.85714" stroke-miterlimit="10"/>
<path d="M12.8574 60V52.8572" stroke="#FFC400" stroke-width="2.85714" stroke-miterlimit="10"/>
<path d="M24.2852 60V52.8572" stroke="#FFC400" stroke-width="2.85714" stroke-miterlimit="10"/>
<path d="M35.7148 60V52.8572" stroke="#FFC400" stroke-width="2.85714" stroke-miterlimit="10"/>
<path d="M47.1426 60V52.8572" stroke="#FFC400" stroke-width="2.85714" stroke-miterlimit="10"/>
<path d="M7.14286 12.8572H0" stroke="#FFC400" stroke-width="2.85714" stroke-miterlimit="10"/>
<path d="M7.14286 24.2856H0" stroke="#FFC400" stroke-width="2.85714" stroke-miterlimit="10"/>
<path d="M7.14286 35.7144H0" stroke="#FFC400" stroke-width="2.85714" stroke-miterlimit="10"/>
<path d="M7.14286 47.1428H0" stroke="#FFC400" stroke-width="2.85714" stroke-miterlimit="10"/>
<path d="M60.0003 12.8572H52.8574" stroke="#FFC400" stroke-width="2.85714" stroke-miterlimit="10"/>
<path d="M60.0003 24.2856H52.8574" stroke="#FFC400" stroke-width="2.85714" stroke-miterlimit="10"/>
<path d="M60.0003 35.7144H52.8574" stroke="#FFC400" stroke-width="2.85714" stroke-miterlimit="10"/>
<path d="M60.0003 47.1428H52.8574" stroke="#FFC400" stroke-width="2.85714" stroke-miterlimit="10"/>
<path d="M52.8569 7.14282H7.14258V52.8571H52.8569V7.14282Z" stroke="white" stroke-width="2.85714" stroke-miterlimit="10"/>
<path d="M38.5706 21.4285H21.4277V38.5713H38.5706V21.4285Z" stroke="#FFC400" stroke-width="2.85714" stroke-miterlimit="10"/>
<path d="M18.5723 7.14286V0" stroke="white" stroke-width="2.85714" stroke-miterlimit="10"/>
<path d="M30 7.14286V0" stroke="white" stroke-width="2.85714" stroke-miterlimit="10"/>
<path d="M41.4277 7.14286V0" stroke="white" stroke-width="2.85714" stroke-miterlimit="10"/>
<path d="M18.5723 60V52.8572" stroke="white" stroke-width="2.85714" stroke-miterlimit="10"/>
<path d="M30 60V52.8572" stroke="white" stroke-width="2.85714" stroke-miterlimit="10"/>
<path d="M41.4277 60V52.8572" stroke="white" stroke-width="2.85714" stroke-miterlimit="10"/>
<path d="M7.14286 18.5715H0" stroke="white" stroke-width="2.85714" stroke-miterlimit="10"/>
<path d="M7.14286 30H0" stroke="white" stroke-width="2.85714" stroke-miterlimit="10"/>
<path d="M7.14286 41.4285H0" stroke="white" stroke-width="2.85714" stroke-miterlimit="10"/>
<path d="M60.0003 18.5715H52.8574" stroke="white" stroke-width="2.85714" stroke-miterlimit="10"/>
<path d="M60.0003 30H52.8574" stroke="white" stroke-width="2.85714" stroke-miterlimit="10"/>
<path d="M60.0003 41.4285H52.8574" stroke="white" stroke-width="2.85714" stroke-miterlimit="10"/>
</g>
</g>
</g>
<defs>
<clipPath id="clip0_2157_631">
<rect width="60" height="60" fill="white"/>
</clipPath>
<clipPath id="clip1_2157_631">
<rect width="60" height="60" fill="white"/>
</clipPath>
<clipPath id="clip2_2157_631">
<rect width="60" height="60" fill="white"/>
</clipPath>
</defs>
</svg>
