<svg width="100" height="100" viewBox="0 0 100 100" fill="none" xmlns="http://www.w3.org/2000/svg">
<rect width="100" height="100" rx="50" fill="#111111"/>
<g clip-path="url(#clip0_2157_1397)">
<g clip-path="url(#clip1_2157_1397)">
<g clip-path="url(#clip2_2157_1397)">
<path d="M59.3918 66.9773C52.4794 66.9773 46.3141 63.8299 44.4018 59.3179C44.2623 58.9892 44.4117 58.6107 44.7404 58.4813C45.0691 58.3418 45.4476 58.4912 45.5771 58.8199C47.3002 62.8637 52.9775 65.6924 59.3918 65.6924C62.5492 65.6924 65.5472 65.0251 68.0571 63.7801C68.1966 63.7103 68.3559 63.6904 68.5053 63.7303L72.8679 64.8358L71.9615 61.2402C71.9117 61.041 71.9615 60.8418 72.081 60.6824C73.1767 59.3279 73.7245 57.8637 73.7245 56.3398C73.7245 52.1566 69.4117 48.4414 63.2364 47.3159C62.8878 47.2562 62.6587 46.9175 62.7185 46.5689C62.7782 46.2203 63.1169 45.9912 63.4655 46.051C70.2583 47.296 75.0093 51.5191 75.0093 56.3398C75.0093 58.043 74.4117 59.7362 73.2763 61.2303L74.3719 65.5629C74.4316 65.782 74.3719 66.0111 74.2026 66.1705C74.0432 66.3299 73.8141 66.3996 73.595 66.3398L68.4157 65.035C65.7763 66.3099 62.6587 66.9773 59.3918 66.9773Z" fill="white"/>
<path d="M44.4123 59.3974C40.3187 59.3974 36.4243 58.5508 33.1175 56.9473L26.5737 58.6006C26.3546 58.6604 26.1255 58.6006 25.9661 58.4313C25.8068 58.272 25.747 58.0429 25.7968 57.8237L27.1912 52.3158C25.757 50.4433 25 48.3417 25 46.2102C25 38.9393 33.7052 33.0229 44.4123 33.0229C55.1195 33.0229 63.8247 38.9393 63.8247 46.2102C63.8247 53.4811 55.1195 59.3974 44.4123 59.3974ZM33.1873 55.6226C33.2869 55.6226 33.3865 55.6425 33.4761 55.6923C36.6434 57.2759 40.4283 58.1126 44.4123 58.1126C54.4123 58.1126 62.5398 52.7739 62.5398 46.2102C62.5398 39.6465 54.4123 34.3078 44.4123 34.3078C34.4123 34.3078 26.2849 39.6465 26.2849 46.2102C26.2849 48.1624 26.992 50.0349 28.3865 51.758C28.5159 51.9174 28.5558 52.1265 28.506 52.3158L27.3008 57.0867L33.0378 55.6425C33.0876 55.6325 33.1374 55.6226 33.1972 55.6226H33.1873Z" fill="white"/>
<path d="M44.4132 49.1683C42.7798 49.1683 41.4551 47.8436 41.4551 46.2101C41.4551 44.5767 42.7798 43.252 44.4132 43.252C46.0467 43.252 47.3714 44.5767 47.3714 46.2101C47.3714 47.8436 46.0467 49.1683 44.4132 49.1683ZM44.4132 44.5368C43.4869 44.5368 42.7399 45.2838 42.7399 46.2101C42.7399 47.1364 43.4869 47.8834 44.4132 47.8834C45.3395 47.8834 46.0866 47.1364 46.0866 46.2101C46.0866 45.2838 45.3395 44.5368 44.4132 44.5368Z" fill="white"/>
<path d="M35.6281 49.1683C33.9946 49.1683 32.6699 47.8436 32.6699 46.2101C32.6699 44.5767 33.9946 43.252 35.6281 43.252C37.2616 43.252 38.5863 44.5767 38.5863 46.2101C38.5863 47.8436 37.2616 49.1683 35.6281 49.1683ZM35.6281 44.5368C34.7018 44.5368 33.9548 45.2838 33.9548 46.2101C33.9548 47.1364 34.7018 47.8834 35.6281 47.8834C36.5544 47.8834 37.3014 47.1364 37.3014 46.2101C37.3014 45.2838 36.5544 44.5368 35.6281 44.5368Z" fill="white"/>
<path d="M53.2062 49.1683C51.5727 49.1683 50.248 47.8436 50.248 46.2101C50.248 44.5767 51.5727 43.252 53.2062 43.252C54.8397 43.252 56.1644 44.5767 56.1644 46.2101C56.1644 47.8436 54.8397 49.1683 53.2062 49.1683ZM53.2062 44.5368C52.2799 44.5368 51.5329 45.2838 51.5329 46.2101C51.5329 47.1364 52.2799 47.8834 53.2062 47.8834C54.1325 47.8834 54.8795 47.1364 54.8795 46.2101C54.8795 45.2838 54.1325 44.5368 53.2062 44.5368Z" fill="white"/>
</g>
</g>
</g>
<defs>
<clipPath id="clip0_2157_1397">
<rect width="50" height="50" fill="white" transform="translate(25 25)"/>
</clipPath>
<clipPath id="clip1_2157_1397">
<rect width="50" height="50" fill="white" transform="translate(25 25)"/>
</clipPath>
<clipPath id="clip2_2157_1397">
<rect width="50" height="33.9542" fill="white" transform="translate(25 33.0229)"/>
</clipPath>
</defs>
</svg>
