<svg width="100" height="100" viewBox="0 0 100 100" fill="none" xmlns="http://www.w3.org/2000/svg">
<rect width="100" height="100" rx="50" fill="#111111"/>
<g clip-path="url(#clip0_2157_1412)">
<g clip-path="url(#clip1_2157_1412)">
<g clip-path="url(#clip2_2157_1412)">
<path d="M71.5452 55.6751H69.4316C69.0964 55.6751 68.8357 55.405 68.8357 55.0792C68.8357 54.7533 69.1057 54.4833 69.4316 54.4833H71.5452C72.3739 54.4833 73.0908 53.8594 73.2119 53.0401L73.7798 49.1481C73.845 48.7011 73.7333 48.2542 73.4633 47.8911C73.1932 47.528 72.8022 47.2952 72.3553 47.23L64.0126 46.0103C63.8823 45.9916 63.7705 45.9358 63.6774 45.8427C61.3031 43.4777 58.156 42.0531 54.8134 41.8389L47.5973 41.3734C46.6756 41.3175 45.7258 41.6341 45.0368 42.2579L40.2417 46.541C40.1765 46.6062 40.0927 46.6434 39.9996 46.6713L30.0368 49.4274C28.2212 49.9302 26.8059 51.3827 26.359 53.217L26.21 53.8222C26.1728 53.9805 26.21 54.1481 26.3124 54.2784C26.4148 54.4088 26.5638 54.4833 26.7314 54.4833H32.048C32.3832 54.4833 32.6439 54.7533 32.6439 55.0792C32.6439 55.405 32.3739 55.6751 32.048 55.6751H26.7314C26.2007 55.6751 25.6979 55.433 25.372 55.014C25.0461 54.595 24.9251 54.055 25.0554 53.5335L25.2044 52.9283C25.7538 50.6751 27.4949 48.8874 29.7296 48.2728L39.5526 45.554L44.2361 41.3641C45.1765 40.5261 46.4242 40.0885 47.6811 40.1723L54.8972 40.6378C58.4633 40.8706 61.8245 42.3604 64.3851 44.8464L72.5322 46.0382C73.2957 46.1499 73.9661 46.5503 74.4316 47.1741C74.8972 47.798 75.0834 48.5522 74.9716 49.3157L74.4037 53.2077C74.1988 54.6136 72.9698 55.6751 71.5452 55.6751Z" fill="white"/>
<path d="M60.6506 55.6752H40.9299C40.5947 55.6752 40.334 55.4052 40.334 55.0793C40.334 54.7534 40.604 54.4834 40.9299 54.4834H60.6506C60.9858 54.4834 61.2465 54.7534 61.2465 55.0793C61.2465 55.4052 60.9764 55.6752 60.6506 55.6752Z" fill="white"/>
<path d="M36.5543 59.8372C33.9286 59.8372 31.7871 57.6957 31.7871 55.07C31.7871 52.4443 33.9286 50.3027 36.5543 50.3027C39.18 50.3027 41.3216 52.4443 41.3216 55.07C41.3216 57.6957 39.18 59.8372 36.5543 59.8372ZM36.5543 51.5039C34.5897 51.5039 32.9882 53.1053 32.9882 55.07C32.9882 57.0346 34.5897 58.6361 36.5543 58.6361C38.519 58.6361 40.1204 57.0346 40.1204 55.07C40.1204 53.1053 38.519 51.5039 36.5543 51.5039Z" fill="white"/>
<path d="M64.9801 59.8372C62.3544 59.8372 60.2129 57.6957 60.2129 55.07C60.2129 52.4443 62.3544 50.3027 64.9801 50.3027C67.6058 50.3027 69.7473 52.4443 69.7473 55.07C69.7473 57.6957 67.6058 59.8372 64.9801 59.8372ZM64.9801 51.5039C63.0155 51.5039 61.414 53.1053 61.414 55.07C61.414 57.0346 63.0155 58.6361 64.9801 58.6361C66.9447 58.6361 68.5462 57.0346 68.5462 55.07C68.5462 53.1053 66.9447 51.5039 64.9801 51.5039Z" fill="white"/>
<path d="M39.8422 46.6899C39.5164 46.6899 39.2556 46.4292 39.2463 46.1033C39.237 45.7681 39.4977 45.4981 39.8329 45.4888L64.0974 44.8091C64.4139 44.7811 64.7026 45.0605 64.7119 45.3956C64.7212 45.7308 64.4605 46.0009 64.1253 46.0102L39.8609 46.6899C39.8609 46.6899 39.8515 46.6899 39.8422 46.6899Z" fill="white"/>
<path d="M50.7912 46.0104C50.7912 46.0104 50.7354 46.0104 50.7167 46.0104C50.3909 45.9639 50.1581 45.6659 50.1953 45.34L50.7726 40.9452C50.8192 40.6194 51.1171 40.3866 51.443 40.4238C51.7689 40.4704 52.0017 40.7683 51.9644 41.0942L51.3871 45.489C51.3499 45.787 51.0892 46.0104 50.7912 46.0104Z" fill="white"/>
<path d="M26.7773 52.4258C26.4421 52.4258 26.2279 52.4071 26.1907 52.4071C25.8648 52.3792 25.6227 52.0813 25.6506 51.7554C25.6786 51.4295 25.9765 51.1781 26.3024 51.2153C26.3583 51.2153 28.7884 51.4202 30.0454 50.2749C30.5389 49.8187 30.781 49.2228 30.781 48.4314C30.781 48.0962 31.051 47.8354 31.3769 47.8354C31.7028 47.8354 31.9728 48.1055 31.9728 48.4314C31.9728 49.558 31.591 50.4798 30.8462 51.1595C29.6171 52.2768 27.7177 52.4351 26.7679 52.4351L26.7773 52.4258Z" fill="white"/>
<path d="M73.8821 50.3863C72.262 50.3863 70.7443 49.5203 69.9156 48.1144L68.9659 46.4943C68.7983 46.2056 68.8914 45.8425 69.1801 45.6749C69.4687 45.5073 69.8318 45.6004 69.9994 45.8891L70.9492 47.5092C71.5544 48.5427 72.681 49.1852 73.8821 49.1852H74.2918C74.627 49.1852 74.8877 49.4552 74.8877 49.7811C74.8877 50.1069 74.6177 50.377 74.2918 50.377H73.8821V50.3863Z" fill="white"/>
</g>
</g>
</g>
<defs>
<clipPath id="clip0_2157_1412">
<rect width="50" height="50" fill="white" transform="translate(25 25)"/>
</clipPath>
<clipPath id="clip1_2157_1412">
<rect width="50" height="50" fill="white" transform="translate(25 25)"/>
</clipPath>
<clipPath id="clip2_2157_1412">
<rect width="50" height="19.6741" fill="white" transform="translate(25 40.1631)"/>
</clipPath>
</defs>
</svg>
