<svg width="100" height="100" viewBox="0 0 100 100" fill="none" xmlns="http://www.w3.org/2000/svg">
<rect width="100" height="100" rx="50" fill="#111111"/>
<g clip-path="url(#clip0_2157_1449)">
<g clip-path="url(#clip1_2157_1449)">
<g clip-path="url(#clip2_2157_1449)">
<path d="M38.4744 51.6411C38.3163 51.6411 38.1583 51.5908 38.0219 51.4902C37.7633 51.3035 37.6483 51.0018 37.713 50.6929L38.381 47.6115L36.1471 45.7583C35.9101 45.5572 35.8095 45.2339 35.8957 44.9394C35.9819 44.6378 36.2405 44.4223 36.5494 44.3864L39.3866 44.0631L40.7585 41.2331C40.8878 40.9601 41.1608 40.7949 41.4553 40.7949C41.7498 40.7949 42.0227 40.9601 42.152 41.2331L43.5239 44.0631L46.3612 44.3864C46.67 44.4223 46.9286 44.6378 47.0148 44.9394C47.101 45.2411 47.0076 45.5572 46.7706 45.7583L44.5367 47.6115L45.2047 50.6929C45.2694 51.0018 45.1544 51.3035 44.8959 51.4902C44.6373 51.677 44.314 51.6842 44.0411 51.5261L41.4481 49.9675L38.8551 51.5261C38.733 51.598 38.5893 51.6411 38.4528 51.6411H38.4744ZM41.4696 49.1558C41.5343 49.1558 41.6061 49.1702 41.6636 49.2061L44.4505 50.8797C44.4505 50.8797 44.4649 50.8869 44.4793 50.8797C44.4936 50.8725 44.4936 50.8581 44.4864 50.8509L43.7682 47.5468C43.7394 47.4104 43.7897 47.2667 43.8974 47.1805L46.3037 45.1765C46.3037 45.1765 46.3181 45.1621 46.3109 45.1477C46.3109 45.1334 46.2965 45.1334 46.2893 45.1262L43.251 44.7814C43.1217 44.7671 43.0139 44.688 42.9565 44.5731L41.4984 41.5563C41.4984 41.5563 41.4553 41.5419 41.4481 41.5563L39.99 44.5731C39.9325 44.688 39.8248 44.7671 39.6955 44.7814L36.6571 45.1262C36.6571 45.1262 36.6427 45.1262 36.6356 45.1477C36.6356 45.1621 36.6356 45.1693 36.6427 45.1765L39.049 47.1805C39.1567 47.2667 39.207 47.4104 39.1783 47.5468L38.46 50.8509C38.46 50.8509 38.46 50.8653 38.4672 50.8797C38.4816 50.8869 38.4887 50.8797 38.4959 50.8797L41.2829 49.2061C41.3403 49.1702 41.4122 49.1558 41.4768 49.1558H41.4696Z" fill="white"/>
<path d="M72.113 60.8138H51.7136C51.455 60.8138 51.2539 60.6055 51.2539 60.3541V47.1089C51.2539 46.1105 52.0656 45.2988 53.064 45.2988H70.7698C71.7682 45.2988 72.5799 46.1105 72.5799 47.1089V60.3541C72.5799 60.6127 72.3716 60.8138 72.1202 60.8138H72.113ZM52.1805 59.8872H71.6533V47.1089C71.6533 46.6205 71.2582 46.2254 70.7698 46.2254H53.064C52.5756 46.2254 52.1805 46.6205 52.1805 47.1089V59.8872Z" fill="white"/>
<path d="M72.4004 62.9473H51.4192C49.9898 62.9473 48.8262 61.7836 48.8262 60.3542C48.8262 60.0957 49.0345 59.8945 49.2859 59.8945H74.5337C74.7923 59.8945 74.9934 60.1028 74.9934 60.3542C74.9934 61.7836 73.8298 62.9473 72.4004 62.9473ZM49.8174 60.8139C50.0185 61.5107 50.665 62.0207 51.4264 62.0207H72.4076C73.1689 62.0207 73.8154 61.5107 74.0165 60.8139H49.8174Z" fill="white"/>
<path d="M51.4689 59.2622H27.6361C26.1852 59.2622 25 58.077 25 56.6261V39.6888C25 38.2379 26.1852 37.0527 27.6361 37.0527H55.1681C56.619 37.0527 57.8042 38.2379 57.8042 39.6888V45.507C57.8042 45.7656 57.5959 45.9667 57.3445 45.9667C57.0931 45.9667 56.8848 45.7584 56.8848 45.507V39.6888C56.8848 38.7479 56.1162 37.9793 55.1753 37.9793H27.6361C26.6952 37.9793 25.9266 38.7479 25.9266 39.6888V56.6261C25.9266 57.567 26.6952 58.3356 27.6361 58.3356H51.4689C51.7275 58.3356 51.9286 58.5439 51.9286 58.7953C51.9286 59.0467 51.7203 59.255 51.4689 59.255V59.2622Z" fill="white"/>
<path d="M51.4689 59.2621H27.6361C26.1852 59.2621 25 58.0769 25 56.6259V54.7512C25 54.4926 25.2083 54.2915 25.4597 54.2915H51.5766C51.8352 54.2915 52.0363 54.4998 52.0363 54.7512C52.0363 55.0026 51.828 55.2109 51.5766 55.2109H25.9266V56.6259C25.9266 57.5669 26.6952 58.3355 27.6361 58.3355H51.4689C51.7275 58.3355 51.9286 58.5438 51.9286 58.7952C51.9286 59.0466 51.7203 59.2549 51.4689 59.2549V59.2621Z" fill="white"/>
<path d="M43.1301 62.947H39.6824C39.4238 62.947 39.2227 62.7387 39.2227 62.4873V58.8025C39.2227 58.5439 39.431 58.3428 39.6824 58.3428H43.1301C43.3887 58.3428 43.5898 58.5511 43.5898 58.8025V62.4873C43.5898 62.7459 43.3815 62.947 43.1301 62.947ZM40.1421 62.0204H42.6633V59.2622H40.1421V62.0204Z" fill="white"/>
<path d="M46.4049 62.9472H36.3992C36.1406 62.9472 35.9395 62.7389 35.9395 62.4875C35.9395 62.2361 36.1478 62.0278 36.3992 62.0278H46.4049C46.6635 62.0278 46.8646 62.2361 46.8646 62.4875C46.8646 62.7389 46.6563 62.9472 46.4049 62.9472Z" fill="white"/>
</g>
</g>
</g>
<defs>
<clipPath id="clip0_2157_1449">
<rect width="50" height="50" fill="white" transform="translate(25 25)"/>
</clipPath>
<clipPath id="clip1_2157_1449">
<rect width="50" height="50" fill="white" transform="translate(25 25)"/>
</clipPath>
<clipPath id="clip2_2157_1449">
<rect width="50" height="25.8943" fill="white" transform="translate(25 37.0527)"/>
</clipPath>
</defs>
</svg>
