<svg width="100" height="100" viewBox="0 0 100 100" fill="none" xmlns="http://www.w3.org/2000/svg">
<rect width="100" height="100" rx="50" fill="#111111"/>
<g clip-path="url(#clip0_2157_1468)">
<g clip-path="url(#clip1_2157_1468)">
<g clip-path="url(#clip2_2157_1468)">
<path d="M74.3207 69.8016H52.4961C52.1138 69.8016 51.8164 69.4936 51.8164 69.1219V64.3428C51.8164 63.9605 52.1244 63.6631 52.4961 63.6631H74.3207C74.703 63.6631 75.0003 63.9711 75.0003 64.3428V69.1219C75.0003 69.5042 74.6924 69.8016 74.3207 69.8016ZM53.1758 68.4316H73.6303V65.0225H53.1758V68.4316Z" fill="white"/>
<path d="M74.3207 65.0223H52.4961C52.1138 65.0223 51.8164 64.7143 51.8164 64.3426V59.5635C51.8164 59.1812 52.1244 58.8838 52.4961 58.8838H74.3207C74.703 58.8838 75.0003 59.1918 75.0003 59.5635V64.3426C75.0003 64.7249 74.6924 65.0223 74.3207 65.0223ZM53.1758 63.6523H73.6303V60.2432H53.1758V63.6523Z" fill="white"/>
<path d="M74.3207 60.2435H52.4961C52.1138 60.2435 51.8164 59.9355 51.8164 59.5638V54.7847C51.8164 54.4023 52.1244 54.105 52.4961 54.105H74.3207C74.703 54.105 75.0003 54.413 75.0003 54.7847V59.5638C75.0003 59.9461 74.6924 60.2435 74.3207 60.2435ZM53.1758 58.8735H73.6303V55.4644H53.1758V58.8735Z" fill="white"/>
<path d="M74.3207 55.4642H52.4961C52.1138 55.4642 51.8164 55.1562 51.8164 54.7845V50.0054C51.8164 49.623 52.1244 49.3257 52.4961 49.3257H74.3207C74.703 49.3257 75.0003 49.6337 75.0003 50.0054V54.7845C75.0003 55.1668 74.6924 55.4642 74.3207 55.4642ZM53.1758 54.0942H73.6303V50.6851H53.1758V54.0942Z" fill="white"/>
<path d="M61.0023 45.9061H39.1777C38.7954 45.9061 38.498 45.5981 38.498 45.2264V40.4473C38.498 40.0649 38.806 39.7676 39.1777 39.7676H61.0023C61.3846 39.7676 61.682 40.0756 61.682 40.4473V45.2264C61.682 45.6087 61.374 45.9061 61.0023 45.9061ZM39.8574 44.5361H60.312V41.127H39.8681V44.5361H39.8574Z" fill="white"/>
<path d="M61.0023 41.1271H39.1777C38.7954 41.1271 38.498 40.8191 38.498 40.4474V35.6577C38.498 35.2754 38.806 34.978 39.1777 34.978H61.0023C61.3846 34.978 61.682 35.286 61.682 35.6577V40.4368C61.682 40.8191 61.374 41.1165 61.0023 41.1165V41.1271ZM39.8574 39.7571H60.312V36.348H39.8681V39.7571H39.8574Z" fill="white"/>
<path d="M61.0023 36.3478H39.1777C38.7954 36.3478 38.498 36.0399 38.498 35.6681V30.8784C38.498 30.4961 38.806 30.1987 39.1777 30.1987H61.0023C61.3846 30.1987 61.682 30.5067 61.682 30.8784V35.6575C61.682 36.0399 61.374 36.3372 61.0023 36.3372V36.3478ZM39.8574 34.9778H60.312V31.5687H39.8681V34.9778H39.8574Z" fill="white"/>
<path d="M52.4955 69.8015H39.1777C38.7954 69.8015 38.498 69.4935 38.498 69.1218V68.8031C38.498 68.4845 38.7105 68.2084 39.0184 68.1341C41.4823 67.5393 43.6276 66.0525 45.0613 63.9497C45.1888 63.7585 45.4012 63.6523 45.6242 63.6523H52.4955C52.8778 63.6523 53.1752 63.9603 53.1752 64.332V69.1111C53.1752 69.4935 52.8672 69.7908 52.4955 69.7908V69.8015ZM42.0558 68.4314H51.8158V65.0224H45.9853C44.9445 66.4561 43.5958 67.6137 42.0558 68.4314Z" fill="white"/>
<path d="M52.4954 65.0223H45.6241C45.3692 65.0223 45.1356 64.8842 45.0188 64.6612C44.902 64.4382 44.9126 64.162 45.0613 63.9603C45.964 62.6433 46.5481 61.0928 46.7392 59.4785C46.7817 59.1387 47.0685 58.8838 47.4189 58.8838H52.4954C52.8777 58.8838 53.1751 59.1918 53.1751 59.5635V64.3426C53.1751 64.7249 52.8671 65.0223 52.4954 65.0223ZM46.8348 63.6523H51.8051V60.2432H48.0031C47.7907 61.4326 47.3977 62.5902 46.8242 63.6523H46.8348Z" fill="white"/>
<path d="M52.4949 60.2432H47.4185C47.2273 60.2432 47.0361 60.1583 46.9087 60.0096C46.7813 59.8609 46.7175 59.6697 46.7388 59.4679C46.8025 58.99 46.8237 58.5865 46.8237 58.1935C46.8237 57.1103 46.6432 56.027 46.3033 54.9862C46.2396 54.7738 46.2715 54.5508 46.3989 54.3702C46.5264 54.1897 46.7388 54.0835 46.9512 54.0835H52.4843C52.8666 54.0835 53.164 54.3915 53.164 54.7632V59.5423C53.164 59.9246 52.856 60.222 52.4843 60.222L52.4949 60.2432ZM48.1725 58.8732H51.8046V55.4641H47.8645C48.0875 56.3668 48.1937 57.2802 48.1937 58.2041C48.1937 58.4165 48.1937 58.6396 48.1725 58.8732Z" fill="white"/>
<path d="M52.4962 55.464H46.9631C46.6657 55.464 46.4108 55.2729 46.3153 54.9968C45.7418 53.2763 44.7116 51.7257 43.3416 50.515C43.1292 50.3239 43.0549 50.0265 43.1504 49.761C43.246 49.4955 43.5009 49.3149 43.7877 49.3149H52.4962C52.8786 49.3149 53.1759 49.6229 53.1759 49.9946V54.7737C53.1759 55.1561 52.8679 55.4534 52.4962 55.4534V55.464ZM47.441 54.094H51.8059V50.685H45.4125C46.2834 51.6939 46.9631 52.8515 47.441 54.094Z" fill="white"/>
<path d="M61.0023 50.6852H43.7763C43.6064 50.6852 43.4471 50.6215 43.3302 50.5153C42.0983 49.4321 40.6115 48.6674 39.0184 48.2745C38.7105 48.2001 38.498 47.924 38.498 47.6054V45.2158C38.498 44.8335 38.806 44.5361 39.1777 44.5361H61.0023C61.3846 44.5361 61.682 44.8441 61.682 45.2158V49.9949C61.682 50.3773 61.374 50.6746 61.0023 50.6746V50.6852ZM44.0312 49.3152H60.3226V45.9061H39.8681V47.085C41.3867 47.531 42.8205 48.2957 44.0312 49.3152Z" fill="white"/>
<path d="M52.4957 50.6851H43.7871C43.4048 50.6851 43.1074 50.3771 43.1074 50.0054C43.1074 49.6337 43.4154 49.3257 43.7871 49.3257H52.4957C52.878 49.3257 53.1754 49.6337 53.1754 50.0054C53.1754 50.3771 52.8674 50.6851 52.4957 50.6851Z" fill="white"/>
<path d="M36.5973 69.8015C30.2039 69.8015 25 64.5976 25 58.2042C25 51.8108 30.2039 46.6069 36.5973 46.6069C37.4894 46.6069 38.4133 46.7238 39.3373 46.9468C41.1427 47.3822 42.8313 48.2637 44.2226 49.485C45.7838 50.855 46.952 52.6074 47.5998 54.5615C47.9928 55.7509 48.1946 56.9723 48.1946 58.2042C48.1946 58.6503 48.1627 59.1069 48.099 59.6379C47.876 61.4646 47.2175 63.217 46.1873 64.7144C44.5731 67.0933 42.141 68.7713 39.3373 69.451C38.4133 69.674 37.4894 69.7909 36.5973 69.7909V69.8015ZM36.5973 47.9769C30.9579 47.9769 26.37 52.5649 26.37 58.2042C26.37 63.8436 30.9579 68.4315 36.5973 68.4315C37.3832 68.4315 38.2009 68.3253 39.0187 68.1341C41.4826 67.5394 43.6279 66.0526 45.0616 63.9498C45.9643 62.6328 46.5484 61.0823 46.7396 59.468C46.8033 58.9901 46.8246 58.5865 46.8246 58.1936C46.8246 57.1103 46.644 56.0271 46.3042 54.9863C45.7307 53.2658 44.7005 51.7153 43.3305 50.5046C42.0986 49.4213 40.6117 48.6566 39.0187 48.2637C38.2009 48.0619 37.3832 47.9663 36.5973 47.9663V47.9769Z" fill="white"/>
</g>
</g>
</g>
<defs>
<clipPath id="clip0_2157_1468">
<rect width="50" height="50" fill="white" transform="translate(25 25)"/>
</clipPath>
<clipPath id="clip1_2157_1468">
<rect width="50" height="50" fill="white" transform="translate(25 25)"/>
</clipPath>
<clipPath id="clip2_2157_1468">
<rect width="50" height="39.6028" fill="white" transform="translate(25 30.1987)"/>
</clipPath>
</defs>
</svg>
