<svg width="100" height="100" viewBox="0 0 100 100" fill="none" xmlns="http://www.w3.org/2000/svg">
<rect width="100" height="100" rx="50" fill="#111111"/>
<g clip-path="url(#clip0_2157_1430)">
<g clip-path="url(#clip1_2157_1430)">
<path d="M48.0522 50.7509C44.1967 50.7509 41.0615 47.6157 41.0615 43.7602C41.0615 39.9047 44.1967 36.7695 48.0522 36.7695C51.9077 36.7695 55.0429 39.9047 55.0429 43.7602C55.0429 47.6157 51.9077 50.7509 48.0522 50.7509ZM48.0522 37.358C44.5213 37.358 41.65 40.2294 41.65 43.7602C41.65 47.291 44.5213 50.1624 48.0522 50.1624C51.583 50.1624 54.4544 47.291 54.4544 43.7602C54.4544 40.2294 51.583 37.358 48.0522 37.358Z" fill="white"/>
<path d="M57.6407 54.6572C57.2957 54.6572 56.9609 54.5253 56.7174 54.2716L51.9284 49.4826C51.8168 49.371 51.8168 49.1783 51.9284 49.0667L53.3489 47.6462C53.4605 47.5346 53.6533 47.5346 53.7649 47.6462L58.5538 52.4352C58.7973 52.6787 58.9394 53.0135 58.9394 53.3585C58.9394 53.7034 58.8075 54.0382 58.5538 54.2818C58.3103 54.5253 57.9755 54.6673 57.6305 54.6673L57.6407 54.6572ZM52.5575 49.2797L57.1334 53.8556C57.4073 54.1296 57.874 54.1296 58.1378 53.8556C58.2697 53.7237 58.3509 53.5411 58.3509 53.3483C58.3509 53.1555 58.2799 52.9831 58.1378 52.841L53.562 48.2651L52.5575 49.2696V49.2797Z" fill="white"/>
<path d="M43.7601 44.0546C43.5977 44.0546 43.4658 43.9227 43.4658 43.7604C43.4658 41.234 45.5255 39.1743 48.0519 39.1743C48.2142 39.1743 48.3461 39.3062 48.3461 39.4686C48.3461 39.6309 48.2142 39.7628 48.0519 39.7628C45.8502 39.7628 44.0543 41.5587 44.0543 43.7604C44.0543 43.9227 43.9224 44.0546 43.7601 44.0546Z" fill="white"/>
<path d="M70.9416 64.0928H29.0584C26.8162 64.0928 25 62.2665 25 60.0344V34.3343C25 32.1022 26.8263 30.2759 29.0584 30.2759H70.9416C73.1838 30.2759 75 32.1022 75 34.3343V60.0344C75 62.2767 73.1737 64.0928 70.9416 64.0928ZM29.0584 31.5847C27.5365 31.5847 26.2987 32.8226 26.2987 34.3445V60.0344C26.2987 61.5563 27.5365 62.7941 29.0584 62.7941H70.9416C72.4635 62.7941 73.7013 61.5563 73.7013 60.0344V34.3343C73.7013 32.8124 72.4635 31.5746 70.9416 31.5746H29.0584V31.5847Z" fill="white"/>
<path d="M71.0329 64.0929H28.9773C26.7857 64.0929 25 62.3072 25 60.1156V58.8271C25 58.4618 25.2942 58.1777 25.6494 58.1777H74.3507C74.7159 58.1777 75 58.472 75 58.8271V60.1156C75 62.3072 73.2143 64.0929 71.0227 64.0929H71.0329ZM26.3088 59.4764V60.1156C26.3088 61.5868 27.5061 62.7841 28.9773 62.7841H71.0329C72.5041 62.7841 73.7013 61.5868 73.7013 60.1156V59.4764H26.3088Z" fill="white"/>
<path d="M52.6378 69.7237H47.372C47.0067 69.7237 46.7227 69.4295 46.7227 69.0744V63.4433C46.7227 63.078 47.0169 62.7939 47.372 62.7939H52.6378C53.0031 62.7939 53.2872 63.0882 53.2872 63.4433V69.0744C53.2872 69.4396 52.9929 69.7237 52.6378 69.7237ZM48.0214 68.4149H51.9783V64.0926H48.0214V68.4149Z" fill="white"/>
<path d="M57.6403 69.724H42.3603C41.995 69.724 41.7109 69.4298 41.7109 69.0746C41.7109 68.7195 42.0052 68.4253 42.3603 68.4253H57.6403C58.0056 68.4253 58.2897 68.7195 58.2897 69.0746C58.2897 69.4298 57.9954 69.724 57.6403 69.724Z" fill="white"/>
</g>
</g>
<defs>
<clipPath id="clip0_2157_1430">
<rect width="50" height="50" fill="white" transform="translate(25 25)"/>
</clipPath>
<clipPath id="clip1_2157_1430">
<rect width="50" height="39.4481" fill="white" transform="translate(25 30.2759)"/>
</clipPath>
</defs>
</svg>
