<svg width="100" height="100" viewBox="0 0 100 100" fill="none" xmlns="http://www.w3.org/2000/svg">
<rect width="100" height="100" rx="50" fill="#111111"/>
<g clip-path="url(#clip0_2157_1380)">
<g clip-path="url(#clip1_2157_1380)">
<path d="M40.4194 35.1461H31.7833C31.4765 35.1461 31.1934 34.9573 31.0754 34.6742C30.9574 34.391 31.0282 34.0607 31.2406 33.8483L39.8767 25.224C40.0891 25.0116 40.4194 24.9408 40.7026 25.0588C40.9857 25.1768 41.1745 25.4481 41.1745 25.7667V34.391C41.1745 34.8157 40.8324 35.1461 40.4194 35.1461ZM33.6238 33.6241H39.6525V27.5954L33.6238 33.6241Z" fill="white"/>
<path d="M68.2039 75H31.7834C31.3705 75 31.0283 74.6579 31.0283 74.2331V34.3912C31.0283 34.1907 31.1109 33.9901 31.2525 33.8485L39.8768 25.2242C40.0184 25.0826 40.219 25 40.4195 25H68.2039C68.6286 25 68.959 25.3421 68.959 25.7551V74.2331C68.959 74.6579 68.6168 74.9882 68.2039 74.9882V75ZM32.5503 73.4781H67.4488V26.5219H40.7263L32.5503 34.7098V73.4781Z" fill="white"/>
<path d="M61.62 41.1278H45.2443C44.8196 41.1278 44.4893 40.7857 44.4893 40.3727C44.4893 39.9598 44.8314 39.6177 45.2443 39.6177H61.62C62.0447 39.6177 62.3751 39.9598 62.3751 40.3727C62.3751 40.7857 62.0329 41.1278 61.62 41.1278Z" fill="white"/>
<path d="M61.6202 49.7523H38.3781C37.9534 49.7523 37.623 49.4102 37.623 48.9973C37.623 48.5843 37.9652 48.2422 38.3781 48.2422H61.6202C62.0449 48.2422 62.3753 48.5843 62.3753 48.9973C62.3753 49.4102 62.0331 49.7523 61.6202 49.7523Z" fill="white"/>
<path d="M61.6202 58.3886H38.3781C37.9534 58.3886 37.623 58.0464 37.623 57.6335C37.623 57.2206 37.9652 56.8784 38.3781 56.8784H61.6202C62.0449 56.8784 62.3753 57.2206 62.3753 57.6335C62.3753 58.0464 62.0331 58.3886 61.6202 58.3886Z" fill="white"/>
<path d="M53.1846 67.0243H38.3781C37.9534 67.0243 37.623 66.6822 37.623 66.2692C37.623 65.8563 37.9652 65.5142 38.3781 65.5142H53.1846C53.6094 65.5142 53.9397 65.8563 53.9397 66.2692C53.9397 66.6822 53.5976 67.0243 53.1846 67.0243Z" fill="white"/>
</g>
</g>
<defs>
<clipPath id="clip0_2157_1380">
<rect width="50" height="50" fill="white" transform="translate(25 25)"/>
</clipPath>
<clipPath id="clip1_2157_1380">
<rect width="37.9424" height="50" fill="white" transform="translate(31.0283 25)"/>
</clipPath>
</defs>
</svg>
